<?xml version="1.0" standalone="no"?>
<!DOCTYPE svg PUBLIC "-//W3C//DTD SVG 1.1//EN" "http://www.w3.org/Graphics/SVG/1.1/DTD/svg11.dtd" >
<svg xmlns="http://www.w3.org/2000/svg" xmlns:xlink="http://www.w3.org/1999/xlink" version="1.1">
<metadata>
Created by FontForge 20170731 at Sun Nov 19 22:44:26 2017
 By Aleksey,,,
Copyright (c) 2017 by Alphabeta. All rights reserved.
</metadata>
<defs>
<font id="Bifocals-BlackItalic" horiz-adv-x="660" >
  <font-face 
    font-family="Bifocals"
    font-weight="900"
    font-style="italic"
    font-stretch="squinchy"
    units-per-em="1000"
    panose-1="2 0 5 3 0 0 0 9 0 4"
    ascent="800"
    descent="-200"
    x-height="500"
    cap-height="700"
    bbox="-152 -263 987 839"
    underline-thickness="50"
    underline-position="-200"
    slope="-12"
    unicode-range="U+000D-007E"
  />
<missing-glyph horiz-adv-x="250" 
 />
    <glyph glyph-name=".notdef" horiz-adv-x="250" 
 />
    <glyph glyph-name=".null" horiz-adv-x="0" 
 />
    <glyph glyph-name="nonmarkingreturn" horiz-adv-x="333" 
 />
    <glyph glyph-name="NULL" horiz-adv-x="0" 
 />
    <glyph glyph-name="NULL" horiz-adv-x="0" 
 />
    <glyph glyph-name="CR" unicode="&#xd;" horiz-adv-x="250" 
 />
    <glyph glyph-name="space" unicode=" " horiz-adv-x="250" 
 />
    <glyph glyph-name="exclam" unicode="!" horiz-adv-x="240" 
d="M148 700h140l-104 -489h-140zM0 0l29 140h140l-29 -140h-140z" />
    <glyph glyph-name="quotedbl" unicode="&#x22;" horiz-adv-x="430" 
d="M129 610l30 140h140l-30 -140q-1 -6 -4 -15.5t-15.5 -33.5t-30 -42.5t-49.5 -33.5t-71 -15l15 71q29 0 50 17.5t28 34.5l7 17h-70zM349 750h140l-30 -140q-1 -6 -4 -15.5t-15.5 -33.5t-30 -42.5t-49.5 -33.5t-71 -15l15 71q29 0 50 17.5t28 34.5l7 17h-70z" />
    <glyph glyph-name="numbersign" unicode="#" horiz-adv-x="694" 
d="M683 420h-91l-58 -140h85l-30 -140h-114l-57 -140h-140l58 140h-105l-57 -140h-140l58 140h-63l30 140h91l58 140h-85l30 140h113l57 140h140l-57 -140h104l57 140h140l-57 -140h63zM394 280l58 140h-104l-58 -140h104z" />
    <glyph glyph-name="dollar" unicode="$" horiz-adv-x="661" 
d="M605 209q-19 -87 -90 -142t-167 -72l-28 -135h-139l28 135q-88 17 -135.5 72t-29.5 142h140q-13 -57 53 -83l36 169q-27 5 -47 10.5t-42.5 15.5t-35.5 23.5t-25 33.5t-11.5 45.5t5.5 60.5q19 88 86.5 144t156.5 74l29 137h139l-29 -137q82 -18 125.5 -74t24.5 -144h-141
q13 61 -37 89l-36 -173q24 -4 42.5 -8t40.5 -11.5t35.5 -17t29 -24t20 -32.5t8 -43t-5.5 -55zM257 485q-9 -44 44 -61l31 149q-62 -28 -75 -88zM376 126q76 26 89 85q6 26 -9 40.5t-48 22.5z" />
    <glyph glyph-name="percent" unicode="%" 
d="M510 216q49 0 65.5 -33t6.5 -75q-9 -47 -43.5 -77.5t-73.5 -30.5q-47 0 -64 33.5t-9 74.5q10 42 40.5 75t77.5 33zM477 60q11 0 23 14.5t16 33.5q5 20 0 34t-18 14q-11 0 -23.5 -14.5t-16.5 -33.5t2 -33.5t17 -14.5zM561 700h147l-561 -700h-147zM196 484
q-46 0 -62.5 33.5t-8.5 74.5q10 42 40 75t77 33q49 0 65.5 -33t6.5 -75q-9 -47 -44 -77.5t-74 -30.5zM230 640q-11 0 -23.5 -14.5t-16.5 -33.5t2 -33.5t17 -14.5q12 0 24 14.5t16 33.5q5 20 -0.5 34t-18.5 14z" />
    <glyph glyph-name="ampersand" unicode="&#x26;" horiz-adv-x="643" 
d="M542 -1h-155l-15 36q-77 -40 -156 -40q-91 0 -142.5 54t-31.5 150q14 67 58.5 111.5t117.5 90.5q-40 106 -28 167q14 67 73.5 104.5t130.5 37.5t114.5 -37.5t29.5 -104.5q-22 -108 -147 -199l41 -100q15 33 26 80h140q-28 -131 -108 -222zM398 568q4 16 -4.5 25t-22.5 9
t-25.5 -9t-15.5 -25q-7 -37 10 -87q49 41 58 87zM182 199q-7 -33 12.5 -52t54.5 -19q39 0 75 21l-57 138q-78 -52 -85 -88z" />
    <glyph glyph-name="quotesingle" unicode="'" horiz-adv-x="240" 
d="M159 750h140l-30 -140q-1 -6 -4 -15.5t-15.5 -33.5t-30 -42.5t-49.5 -33.5t-71 -15l15 71q29 0 50 17.5t28 34.5l7 17h-70z" />
    <glyph glyph-name="parenleft" unicode="(" horiz-adv-x="397" 
d="M445 700q-99 -82 -166.5 -198.5t-94.5 -244.5q-28 -125 -10 -245.5t82 -201.5h-140q-61 76 -76 197.5t14 247.5q28 132 93.5 250.5t157.5 194.5h140z" />
    <glyph glyph-name="parenright" unicode=")" horiz-adv-x="396" 
d="M148 700h140q60 -76 75.5 -198t-13.5 -247q-29 -133 -94 -251t-157 -194h-139q97 81 164.5 199.5t95.5 247.5q28 121 10 241t-82 202z" />
    <glyph glyph-name="asterisk" unicode="*" horiz-adv-x="472" 
d="M499 602l-51 -27l40 -27l-96 -121l-40 27l-11 -54h-140l11 54l-52 -27l-44 121l52 27l-41 27l96 121l40 -27l12 53h140l-12 -53l52 27z" />
    <glyph glyph-name="plus" unicode="+" horiz-adv-x="521" 
d="M489 320l-30 -140h-141l-30 -140h-140l30 140h-140l30 140h140l29 140h140l-29 -140h141z" />
    <glyph glyph-name="comma" unicode="," horiz-adv-x="240" 
d="M29 140h140l-29 -140q-1 -6 -4 -15.5t-15.5 -33.5t-29.5 -42.5t-49 -33.5t-71 -15l15 71q28 0 49 17t28 34l7 18h-70z" />
    <glyph glyph-name="hyphen" unicode="-" horiz-adv-x="450" 
d="M68 320h350l-30 -140h-350z" />
    <glyph glyph-name="period" unicode="." horiz-adv-x="240" 
d="M29 140h140l-29 -140h-140z" />
    <glyph glyph-name="slash" unicode="/" horiz-adv-x="520" 
d="M0 0l428 700h140l-428 -700h-140z" />
    <glyph glyph-name="zero" unicode="0" horiz-adv-x="596" 
d="M398 710q92 0 139 -47.5t50 -128t-18 -187.5q-36 -171 -113 -267t-212 -96q-70 0 -113.5 26.5t-60.5 77t-15.5 113.5t18.5 146q18 83 43.5 146t64 113.5t93 77t124.5 26.5zM273 122q17 0 35 6.5t44 26.5t50 69.5t39 122.5q13 60 12.5 103.5t-9 65.5t-24 35t-27.5 15.5
t-25 2.5t-25.5 -2.5t-34 -15.5t-39 -35t-36.5 -65.5t-32 -103.5q-12 -60 -12 -104t8.5 -66.5t24 -35.5t27 -16t24.5 -3z" />
    <glyph glyph-name="one" unicode="1" horiz-adv-x="380" 
d="M288 700h140l-148 -699h-140l96 454h-140l30 140q39 0 70 11t47.5 26.5t27.5 30.5t14 26z" />
    <glyph glyph-name="two" unicode="2" horiz-adv-x="555" 
d="M484 140l-29 -140h-399h-1h-55l30 140q2 2 35.5 30t90 75t100.5 84q97 79 125.5 106.5t33.5 50.5q9 42 -11 65.5t-53 23.5q-34 0 -63.5 -23.5t-38.5 -65.5h-145q22 105 101.5 164t171.5 59t147 -58.5t33 -164.5q-6 -29 -18 -52t-62.5 -75.5t-142.5 -128.5
q-85 -70 -109 -90h259z" />
    <glyph glyph-name="three" unicode="3" horiz-adv-x="591" 
d="M517 347q37 -46 19 -135q-20 -92 -96 -160t-199 -68q-52 0 -91.5 14.5t-60.5 38.5t-35 53.5t-14 59.5t3 57h131q1 -38 25 -63.5t71 -25.5q58 0 94 30t44 68q5 24 -2.5 41t-27.5 20q-2 -1 -7 -1l-140 1l30 140l140 1q23 0 40.5 17t22.5 43q9 38 -15 68t-82 30
q-47 0 -82 -25.5t-51 -63.5h-131q9 36 30 72.5t55.5 71.5t88.5 57t118 22q84 0 134.5 -35.5t63 -85.5t0.5 -107q-19 -88 -76 -135z" />
    <glyph glyph-name="four" unicode="4" horiz-adv-x="590" 
d="M549 281l-30 -140h-70l-29 -140h-140l29 140h-280l30 140l369 419h140l-89 -419h70zM220 281h119l39 183z" />
    <glyph glyph-name="five" unicode="5" horiz-adv-x="586" 
d="M347 477q113 0 161 -73t27 -172q-21 -100 -100 -172.5t-192 -72.5q-52 0 -92 14.5t-61.5 38.5t-35 53.5t-13.5 59.5t3 57h132q-1 -38 23 -63.5t72 -25.5q52 0 87.5 33t45.5 78q10 46 -11.5 79t-73.5 33q-39 0 -70.5 -15.5t-43 -28.5t-14.5 -20h-132v2q2 8 8 24l109 369
l5 25h2h418l-29 -140h-298l-29 -98q48 15 102 15z" />
    <glyph glyph-name="six" unicode="6" horiz-adv-x="596" 
d="M355 474q113 0 161.5 -73t27.5 -172q-21 -100 -100 -172.5t-193 -72.5q-71 0 -116 26.5t-62.5 77t-17 114t17.5 145.5q78 363 332 363q109 0 149.5 -60t38.5 -177h-133q-8 99 -84 99q-15 0 -32.5 -5t-41.5 -18t-44 -43t-29 -73q5 5 14 11.5t42 18t70 11.5zM280 118
q54 0 91 33t47 78q10 46 -13 79t-78 33q-50 0 -84.5 -33t-44.5 -79q-10 -45 11 -78t71 -33z" />
    <glyph glyph-name="seven" unicode="7" horiz-adv-x="555" 
d="M148 700h455l-29 -140l-351 -560h-154l351 560h-301z" />
    <glyph glyph-name="eight" unicode="8" horiz-adv-x="593" 
d="M486 390q37 -32 50 -79.5t1 -99.5q-19 -91 -96.5 -157.5t-190.5 -66.5q-120 0 -172.5 66.5t-33.5 157.5q12 53 45.5 100.5t85.5 78.5q-42 53 -26 131q16 77 84.5 133t168.5 56q96 0 137 -56t25 -133q-16 -78 -78 -131zM378 597q-43 0 -72.5 -22.5t-35.5 -53.5t13.5 -53.5
t62.5 -22.5q40 0 67 22.5t33 53.5q7 31 -10.5 53.5t-57.5 22.5zM276 109q54 0 91 30.5t45 71.5q9 41 -15 71.5t-78 30.5q-57 0 -96 -30.5t-48 -71.5q-8 -41 18 -71.5t83 -30.5z" />
    <glyph glyph-name="nine" unicode="9" horiz-adv-x="596" 
d="M588 481q-3 -56 -19 -134q-76 -363 -333 -363q-108 0 -149 60t-38 176h132q9 -98 84 -98q15 0 33 5t42 18t44 43t29 73q-5 -5 -14.5 -11.5t-42.5 -18t-70 -11.5q-113 0 -161 72.5t-27 172.5q21 99 100 172t192 73q107 0 155 -60.5t43 -168.5zM315 353q49 0 84 33t45 78
t-11 78.5t-71 33.5q-54 0 -91.5 -33t-47.5 -79q-10 -45 13.5 -78t78.5 -33z" />
    <glyph glyph-name="colon" unicode=":" horiz-adv-x="240" 
d="M8 40l30 140h140l-30 -140h-140zM97 460h140l-29 -140h-140z" />
    <glyph glyph-name="semicolon" unicode=";" horiz-adv-x="240" 
d="M97 460h140l-29 -140h-140zM8 40l30 139h140l-30 -139q-1 -6 -4 -15.5t-15.5 -33.5t-29.5 -42.5t-49 -33.5t-71 -15l15 70q28 0 49 17.5t28 34.5l7 18h-70z" />
    <glyph glyph-name="less" unicode="&#x3c;" horiz-adv-x="520" 
d="M38 181l30 140l458 179l-30 -140l-279 -109l232 -110l-29 -140z" />
    <glyph glyph-name="equal" unicode="=" horiz-adv-x="521" 
d="M90 425h421l-30 -140h-421zM15 75l30 140h421l-30 -140h-421z" />
    <glyph glyph-name="greater" unicode="&#x3e;" horiz-adv-x="520" 
d="M488 321l-30 -140l-458 -180l29 140l280 110l-233 109l30 140z" />
    <glyph glyph-name="question" unicode="?" horiz-adv-x="520" 
d="M104 490q14 69 56 120t93.5 74t106.5 23q85 0 135 -57t29 -160q-8 -40 -55 -95t-93 -106t-52 -79l-140 1q6 29 53 84t94 110.5t53 84.5q9 40 -7.5 63t-44.5 23t-53.5 -23t-34.5 -63h-140zM140 0l29 140h140l-29 -140h-140z" />
    <glyph glyph-name="at" unicode="@" horiz-adv-x="966" 
d="M581 719q217 0 299.5 -129.5t23.5 -409.5q-8 -29 -15.5 -51t-26 -55.5t-40 -55.5t-57.5 -38.5t-79 -16.5q-114 0 -135 101q-62 -64 -163 -64q-84 0 -126.5 72.5t-19.5 180.5q24 110 96 181.5t157 71.5q83 0 121 -40l7 33h139q-27 47 -78.5 63.5t-131.5 16.5
q-142 0 -235.5 -88t-124.5 -234q-33 -155 22.5 -241.5t198.5 -86.5q76 0 137 24l78 -98q-116 -66 -244 -66q-69 0 -126 19t-96 52t-67 78t-39.5 97t-13.5 108.5t12 113.5q19 89 63.5 170t110 147t157.5 105.5t196 39.5zM451 135q41 0 72.5 28t44.5 90q26 118 -67 118
q-90 0 -116 -118q-13 -62 6.5 -90t59.5 -28zM713 90q33 1 49 78q51 240 0 329l-67 -315q-15 -92 18 -92z" />
    <glyph glyph-name="A" unicode="A" 
d="M420 0l-13 140h-196l-71 -140h-140l358 700h140l62 -700h-140zM283 280h112l-16 187z" />
    <glyph glyph-name="B" unicode="B" 
d="M571 363q53 -60 33 -153q-18 -85 -91 -147.5t-180 -62.5h-333l148 700h309q107 0 153.5 -62.5t27.5 -148.5q-14 -70 -67 -126zM403 420q40 1 66.5 21.5t32.5 48.5t-13 49t-61 21h-169l-30 -140h174zM362 140q42 0 70.5 21t34.5 49t-13 49t-62 21h-17h-7h-169l-30 -140
h193z" />
    <glyph glyph-name="C" unicode="C" horiz-adv-x="728" 
d="M349 124q102 0 169 83h153q-54 -104 -145 -163.5t-207 -59.5q-155 0 -218 99.5t-28 263.5q34 161 141.5 262t258.5 101q116 0 182 -60.5t75 -165.5h-152q-31 86 -134 86q-87 0 -149.5 -62t-83.5 -161q-21 -101 14.5 -162t123.5 -61z" />
    <glyph glyph-name="D" unicode="D" horiz-adv-x="657" 
d="M428 700q54 0 96 -19.5t66.5 -53t38.5 -78.5t13 -95.5t-11 -103.5q-30 -142 -125 -246t-226 -104h-280l148 700h280zM309 140q68 0 120 64t71 150q18 85 -7 145.5t-94 60.5h-140l-90 -420h140z" />
    <glyph glyph-name="E" unicode="E" horiz-adv-x="587" 
d="M606 560h-347l-30 -140h280l-30 -140h-280l-30 -140h347l-29 -140h-487l148 700h487z" />
    <glyph glyph-name="F" unicode="F" horiz-adv-x="587" 
d="M606 560h-347l-30 -140h280l-30 -140h-280l-59 -280h-140l148 700h487z" />
    <glyph glyph-name="G" unicode="G" horiz-adv-x="728" 
d="M381 275l30 140h305l-89 -418h-140l6 27q-80 -40 -174 -40q-155 0 -218 99.5t-28 263.5q34 161 141.5 262t258.5 101q116 0 182 -60.5t75 -165.5h-152q-31 86 -134 86q-87 0 -149.5 -62t-83.5 -161q-21 -101 14.5 -162t123.5 -61q61 0 121.5 39.5t75.5 111.5h-165z" />
    <glyph glyph-name="H" unicode="H" 
d="M568 700h140l-148 -700h-140l59 280h-280l-59 -280h-140l148 700h140l-59 -280h280z" />
    <glyph glyph-name="I" unicode="I" horiz-adv-x="240" 
d="M148 700h140l-148 -700h-140z" />
    <glyph glyph-name="J" unicode="J" horiz-adv-x="590" 
d="M498 700h140l-89 -420q-31 -145 -103.5 -217t-198.5 -72q-133 0 -176 70t-12 219h140q-20 -79 -5 -118.5t76 -39.5q57 0 89.5 38.5t49.5 119.5z" />
    <glyph glyph-name="K" unicode="K" 
d="M386 365l174 -365h-154l-121 260l-116 -120l-29 -140h-140l148 700h140l-76 -358l342 358h154z" />
    <glyph glyph-name="L" unicode="L" horiz-adv-x="520" 
d="M169 140h280l-29 -140h-280h-140l148 700h140z" />
    <glyph glyph-name="M" unicode="M" horiz-adv-x="803" 
d="M851 700l-4 -7l-147 -693h-140l73 346l-212 -343l2 -3h-143l1 3l-66 350l-75 -353h-140l148 700h140l100 -523l319 516l1 7h3h140z" />
    <glyph glyph-name="N" unicode="N" 
d="M568 700h140l-148 -700h-140l-188 434l-92 -434h-140l148 700h140l188 -434z" />
    <glyph glyph-name="O" unicode="O" horiz-adv-x="747" 
d="M473 710q152 0 216.5 -101t30.5 -262q-35 -163 -141.5 -263t-259.5 -100q-155 0 -218 99.5t-28 263.5q34 161 141.5 262t258.5 101zM349 124q87 0 149.5 61.5t83.5 161.5q21 99 -15 161t-123 62t-149.5 -62t-83.5 -161q-21 -101 14.5 -162t123.5 -61z" />
    <glyph glyph-name="P" unicode="P" horiz-adv-x="656" 
d="M478 700q107 0 153.5 -62.5t28.5 -147.5q-19 -86 -91.5 -148t-179.5 -62h-190l-59 -280h-140l148 700h330zM419 420q42 0 69.5 21t34.5 49q6 28 -13 49t-61 21h-190l-30 -140h190z" />
    <glyph glyph-name="Q" unicode="Q" horiz-adv-x="747" 
d="M720 347q-30 -146 -121 -243l48 -104h-154l-9 20q-77 -36 -165 -36q-155 0 -218 99.5t-28 263.5q34 161 141.5 262t258.5 101q152 0 216.5 -101t30.5 -262zM349 124q44 0 80 15l-62 136h155l17 -38q31 50 43 110q21 99 -15 161t-123 62t-149.5 -62t-83.5 -161
q-21 -101 14.5 -162t123.5 -61z" />
    <glyph glyph-name="R" unicode="R" horiz-adv-x="657" 
d="M402 0l-68 280h-135l-59 -280h-140l148 700h330q107 0 154 -62.5t28 -148.5q-13 -64 -61 -118.5t-119 -77.5l77 -293h-155zM259 560l-30 -140h190q42 0 69.5 21t34.5 49q6 28 -13 49t-61 21h-190z" />
    <glyph glyph-name="S" unicode="S" 
d="M257 485q-6 -28 13 -44.5t53.5 -23t76.5 -11.5t83 -15t73 -28.5t46 -57t2 -95.5q-22 -104 -117.5 -162.5t-209.5 -58.5t-184.5 58.5t-48.5 162.5h140q-9 -45 27 -70t92 -25q58 0 105 25.5t57 71.5q5 24 -9 39.5t-41.5 22t-63 11.5t-72.5 9.5t-71 16.5t-58.5 31.5
t-34.5 55t1 86.5q23 106 114.5 166t199.5 60t174.5 -60t43.5 -166h-140q11 50 -20.5 77.5t-82.5 27.5t-94.5 -27.5t-53.5 -76.5z" />
    <glyph glyph-name="T" unicode="T" horiz-adv-x="659" 
d="M148 700h559l-29 -140h-209l-119 -560h-140l119 560h-210z" />
    <glyph glyph-name="U" unicode="U" 
d="M568 698h140l-89 -420q-20 -92 -76 -159.5t-124.5 -98.5t-141.5 -31q-114 0 -180.5 76t-37.5 213l89 422h140l-89 -422q-16 -74 16.5 -116t89.5 -42t107.5 42t66.5 116z" />
    <glyph glyph-name="V" unicode="V" 
d="M568 700h140l-358 -700h-140l-62 700h140l41 -467z" />
    <glyph glyph-name="W" unicode="W" horiz-adv-x="939" 
d="M847 700h140l-288 -700h-140l-41 466l-238 -466h-140l8 700h140l-5 -420l214 420h140l37 -420z" />
    <glyph glyph-name="X" unicode="X" 
d="M708 700l-273 -350l125 -350h-161l-75 208l-163 -208h-161l273 350l-125 350h161l75 -209l163 209h161z" />
    <glyph glyph-name="Y" unicode="Y" 
d="M708 700l-273 -350l-15 -19l-70 -331h-140l70 331l-132 369h161l75 -209l163 209h161z" />
    <glyph glyph-name="Z" unicode="Z" 
d="M708 700l-29 -140l-461 -420h371l-29 -140h-560l29 140l461 420h-371l29 140h560z" />
    <glyph glyph-name="bracketleft" unicode="[" horiz-adv-x="380" 
d="M399 560h-140l-130 -610h140l-30 -139h-279l188 889h280z" />
    <glyph glyph-name="backslash" unicode="\" horiz-adv-x="520" 
d="M288 700l132 -700h-140l-132 700h140z" />
    <glyph glyph-name="bracketright" unicode="]" horiz-adv-x="380" 
d="M259 560h-140l29 140h280l-189 -889h-279l30 139h139z" />
    <glyph glyph-name="asciicircum" unicode="^" horiz-adv-x="454" 
d="M406 750l54 -250h-140l-19 86l-55 -86h-140l160 250h140z" />
    <glyph glyph-name="underscore" unicode="_" horiz-adv-x="750" 
d="M-29 -140l29 140h650l-30 -140h-649z" />
    <glyph glyph-name="grave" unicode="`" horiz-adv-x="275" 
d="M307 789l-10 -211h-69l-61 211h140z" />
    <glyph glyph-name="a" unicode="a" horiz-adv-x="540" 
d="M440 1h-140l5 25q-57 -40 -134 -40q-82 0 -119 44.5t-24 104.5t67.5 103t137.5 43q92 0 109.5 2t20.5 14l-1 -5l3 15q8 37 -8.5 58t-45.5 21q-28 0 -53.5 -21t-33.5 -58h-140q21 98 95 153t159 55q86 0 137 -55t30 -153zM228 85q89 0 113 112h-90q-40 0 -65.5 -16.5
t-30.5 -39.5q-4 -23 14.5 -39.5t58.5 -16.5z" />
    <glyph glyph-name="b" unicode="b" horiz-adv-x="568" 
d="M140 0h-140l159 749h140l-60 -281q57 43 138 43q84 0 125 -76.5t18 -186.5q-23 -109 -97 -186t-158 -77q-80 0 -119 45zM311 366q-92 0 -117 -118q-13 -62 6.5 -90t60.5 -28q40 0 71.5 28t44.5 90q25 118 -66 118z" />
    <glyph glyph-name="c" unicode="c" horiz-adv-x="561" 
d="M262 132q54 0 89 47h148q-36 -85 -107 -138.5t-161 -53.5q-109 0 -155.5 75t-22.5 188q24 114 102.5 188.5t187.5 74.5q92 0 139.5 -53t46.5 -140h-148q-12 48 -69 48q-92 0 -117 -118q-13 -62 7 -90t60 -28z" />
    <glyph glyph-name="d" unicode="d" horiz-adv-x="568" 
d="M468 0h-140l6 30q-59 -45 -139 -45q-84 0 -125 77t-18 186q23 110 97 186.5t158 76.5q80 0 120 -43l60 281h140zM378 248q25 118 -67 118q-40 0 -72 -27.5t-45 -90.5q-13 -62 7 -90t60 -28q41 0 72.5 28t44.5 90z" />
    <glyph glyph-name="e" unicode="e" horiz-adv-x="568" 
d="M262 132q54 0 89 47h148q-36 -85 -107 -138.5t-161 -53.5q-109 0 -155.5 75t-22.5 188q24 114 102.5 188.5t187.5 74.5q112 0 156.5 -75.5t15.5 -212.5h-324q-6 -49 14.5 -71t56.5 -22zM312 368q-56 0 -88 -46h153q-12 46 -65 46z" />
    <glyph glyph-name="f" unicode="f" horiz-adv-x="414" 
d="M326 553l-11 -53h105l-25 -118h-105l-81 -382h-140l81 382h-69l25 118h69l11 53q11 49 32 86.5t45 58t53.5 33t53.5 16.5t49 4l53 -5l-30 -140q-19 7 -42 7q-62 0 -74 -60z" />
    <glyph glyph-name="g" unicode="g" horiz-adv-x="569" 
d="M435 500h140l-117 -548q-21 -102 -100.5 -158.5t-172.5 -56.5q-92 0 -147.5 56.5t-34.5 158.5h140q-8 -41 13 -63.5t56 -22.5q36 0 67 22.5t39 63.5l17 79q-57 -44 -139 -44q-84 0 -125.5 76.5t-17.5 186.5q23 109 97 186t158 77q80 0 120 -46zM262 132q91 0 117 118
q13 62 -6.5 90t-60.5 28q-40 0 -72 -28t-45 -90q-14 -63 6 -90.5t61 -27.5z" />
    <glyph glyph-name="h" unicode="h" horiz-adv-x="555" 
d="M239 466q61 46 132 46q78 0 123 -58.5t22 -163.5l-61 -290h-140l61 290q8 37 -13.5 58t-57.5 21q-35 0 -65.5 -21t-38.5 -58l-61 -290h-140l159 749h140z" />
    <glyph glyph-name="i" unicode="i" horiz-adv-x="240" 
d="M159 750h140l-30 -141h-140zM0 0l106 500h140l-106 -500h-140z" />
    <glyph glyph-name="j" unicode="j" horiz-adv-x="244" 
d="M111 500h139l-118 -553q-13 -61 -40.5 -103t-62.5 -61t-65.5 -26.5t-62.5 -7.5l-53 5l30 140q18 -7 41 -7q63 0 75 60zM164 749h139l-30 -141h-139z" />
    <glyph glyph-name="k" unicode="k" horiz-adv-x="555" 
d="M294 0l-92 171l-33 -31l-29 -140h-140l159 749h140l-89 -415l183 166h168l-251 -230l145 -270h-161z" />
    <glyph glyph-name="l" unicode="l" horiz-adv-x="240" 
d="M159 749h140l-159 -749h-140z" />
    <glyph glyph-name="m" unicode="m" horiz-adv-x="827" 
d="M489 430q71 85 165 85q74 0 115.5 -59t19.5 -164l-62 -290h-140l62 290q8 37 -11 57.5t-50 20.5q-32 0 -58 -20.5t-35 -58.5l-61 -290h-140l61 290q8 37 -10.5 58t-49.5 21t-58.5 -21t-35.5 -58l-61 -290h-140l106 501h140l-6 -31q56 43 120 43q43 0 77.5 -21.5
t51.5 -62.5z" />
    <glyph glyph-name="n" unicode="n" horiz-adv-x="555" 
d="M239 467q61 46 133 46q78 0 122.5 -58.5t21.5 -163.5l-61 -290h-140l61 290q8 37 -13.5 58t-57.5 21q-35 0 -65.5 -21t-38.5 -58l-61 -290h-140l106 500h140z" />
    <glyph glyph-name="o" unicode="o" horiz-adv-x="568" 
d="M231 -13q-109 0 -155.5 75t-22.5 188q24 114 102.5 188.5t187.5 74.5q111 0 156.5 -74t21.5 -189q-24 -113 -102.5 -188t-187.5 -75zM312 368q-92 0 -117 -118q-13 -62 7 -90t60 -28q41 0 72.5 28t44.5 90q25 118 -67 118z" />
    <glyph glyph-name="p" unicode="p" horiz-adv-x="568" 
d="M106 499h140l-7 -30q58 45 139 45q84 0 125 -77t18 -186q-23 -110 -97 -186.5t-158 -76.5q-82 0 -120 43l-60 -281h-139zM195 251q-25 -118 67 -118q91 0 116 118q13 62 -6.5 90t-59.5 28q-41 0 -72.5 -28t-44.5 -90z" />
    <glyph glyph-name="q" unicode="q" horiz-adv-x="568" 
d="M434 499h140l-160 -749h-140l60 281q-59 -43 -138 -43q-84 0 -125 76.5t-18 186.5q23 109 97 186t158 77q79 0 119 -45zM262 133q92 0 117 118q13 62 -6.5 90t-60.5 28q-40 0 -72 -28t-45 -90q-13 -63 7 -90.5t60 -27.5z" />
    <glyph glyph-name="r" unicode="r" horiz-adv-x="380" 
d="M237 460q61 45 131 45q13 0 19 -1l-32 -150q-18 14 -50 14q-36 0 -66 -20.5t-38 -57.5l-61 -290h-140l106 500h140z" />
    <glyph glyph-name="s" unicode="s" horiz-adv-x="541" 
d="M231 354q-3 -16 15 -28.5t48 -20t64.5 -20.5t62.5 -28.5t43 -45t7 -68.5q-16 -74 -86 -115.5t-155 -41.5q-94 0 -153 50t-40 142h138q-8 -40 15.5 -61t60.5 -21q29 0 51 12.5t27 34.5q3 17 -15.5 28.5t-49 17.5t-65 17.5t-63 26.5t-42.5 46t-5 75q16 75 84.5 117.5
t151.5 42.5q90 0 146.5 -51t36.5 -144h-138q9 40 -12 62t-55 22q-25 0 -46 -13t-26 -36z" />
    <glyph glyph-name="t" unicode="t" horiz-adv-x="394" 
d="M374 381h-105l-39 -187q-13 -60 48 -60q10 0 21.5 2t17.5 4l6 1l-29 -140q-24 -5 -55 -5q-21 0 -39 2.5t-40 10.5t-36.5 21.5t-27.5 35.5t-13 53.5t7 74.5l39 187h-69l26 118h69l29 139h140l-29 -139h105z" />
    <glyph glyph-name="u" unicode="u" horiz-adv-x="555" 
d="M421 500h140l-106 -500h-140l7 34q-64 -47 -133 -47q-78 0 -122.5 59t-22.5 164l62 290h140l-62 -290q-8 -37 14 -57.5t57 -20.5q36 0 66 20.5t38 57.5z" />
    <glyph glyph-name="v" unicode="v" horiz-adv-x="555" 
d="M287 2l1 -2h-141l1 2l-42 498h140l23 -277l152 277h140z" />
    <glyph glyph-name="w" unicode="w" horiz-adv-x="842" 
d="M574 2l1 -2h-141l-14 257l-133 -255l1 -2h-141l-41 500h140l22 -267l139 267h140l14 -267l147 267h140z" />
    <glyph glyph-name="x" unicode="x" horiz-adv-x="520" 
d="M526 500l-193 -250l87 -250h-140l-44 125l-96 -125h-140l193 250l-87 250h140l43 -125l97 125h140z" />
    <glyph glyph-name="y" unicode="y" horiz-adv-x="555" 
d="M421 500h140l-421 -750h-140l141 250h-3l-32 500h140l17 -281z" />
    <glyph glyph-name="z" unicode="z" horiz-adv-x="520" 
d="M526 500l-30 -140l-278 -220h231l-29 -140h-420l29 140l277 220h-230l30 140h420z" />
    <glyph glyph-name="braceleft" unicode="{" horiz-adv-x="449" 
d="M328 561l-50 -235l-84 -69l54 -71l-49 -233h140l-30 -140h-140h-140l79 373h-69l30 141h69l80 374h280l-30 -140h-140z" />
    <glyph glyph-name="bar" unicode="|" horiz-adv-x="240" 
d="M178 839h140l-208 -979h-139z" />
    <glyph glyph-name="braceright" unicode="}" horiz-adv-x="449" 
d="M209 326l50 235h-140l30 140h280l-80 -374h69l-30 -141h-69l-79 -373h-140h-139l30 140h139l49 233l84 71z" />
    <glyph glyph-name="asciitilde" unicode="~" 
d="M498 370h140q-51 -240 -191 -240q-48 0 -87 14t-58.5 31.5t-41.5 31.5t-39 14q-12 0 -21 -6.5t-15.5 -23.5t-9.5 -27t-8 -34h-140q10 46 24.5 85.5t37 76t56 57.5t73.5 21q49 0 87 -14t56.5 -31.5t40 -31.5t41.5 -14q17 0 29 17.5t16 31.5t10 42z" />
    </font>
</defs>
</svg>
