<?xml version="1.0" standalone="no"?>
<!DOCTYPE svg PUBLIC "-//W3C//DTD SVG 1.1//EN" "http://www.w3.org/Graphics/SVG/1.1/DTD/svg11.dtd" >
<svg xmlns="http://www.w3.org/2000/svg" xmlns:xlink="http://www.w3.org/1999/xlink" version="1.1">
<metadata>
Created by FontForge 20170731 at Mon Feb 15 22:07:16 2016
 By Aleksey,,,
Copyright (c)2016, Radnika designed by Alfredo Marco Pradil (ammpradil@gmail.com). Radnika is a trademark of Alfredo Marco Pradil.
</metadata>
<defs>
<font id="Radnika-Medium" horiz-adv-x="0" >
  <font-face 
    font-family="Radnika Medium"
    font-weight="500"
    font-stretch="normal"
    units-per-em="1000"
    panose-1="0 0 6 0 0 0 0 0 0 0"
    ascent="800"
    descent="-200"
    x-height="512"
    cap-height="690"
    bbox="-639 -245 1042 1045"
    underline-thickness="40"
    underline-position="-180"
    unicode-range="U+0020-FB02"
  />
<missing-glyph horiz-adv-x="433" 
d="M16 0v488h400v-488h-400zM66 50h300v388h-300v-388z" />
    <glyph glyph-name="arrowleft" unicode="&#x3c;&#x2d;" horiz-adv-x="1076" 
d="M1039 353v-86h-776l246 -132v-89l-474 266l474 262v-89l-246 -132h776z" />
    <glyph glyph-name="arrowright" unicode="&#x2d;&#x3e;" horiz-adv-x="1077" 
d="M568 46v89l246 132h-777v86h777l-246 132v89l474 -262z" />
    <glyph glyph-name="fi" unicode="fi" horiz-adv-x="579" 
d="M500 512v-512h-105v438h-184v-438h-105v438h-90v74h91v51q0 58 39.5 92.5t100.5 34.5h67v-83h-50q-53 0 -53 -50v-45h289zM391 690h113v-103h-113v103z" />
    <glyph glyph-name="fl" unicode="fl" horiz-adv-x="586" 
d="M106 0v438h-90v74h91v51q0 58 39.5 92.5t100.5 34.5h81v-83h-64q-53 0 -53 -50v-45h117v-74h-117v-438h-105zM406 0v690h104v-690h-104z" />
    <glyph glyph-name="f_f" unicode="ff" horiz-adv-x="627" 
d="M552 610q-26 0 -41 -16.5t-15 -42.5v-39h121v-74h-121v-438h-104v438h-58h-121v-438h-104v438h-93v74h94v34q0 66 40.5 105t113.5 39h70v-80h-66q-26 0 -40.5 -16.5t-14.5 -42.5v-39h121h59v34q0 66 40.5 105t114.5 39h69v-80h-65z" />
    <glyph glyph-name="f_f_i" unicode="ffi" horiz-adv-x="867" 
d="M394 546q0 66 40.5 105t113.5 39h70v-80h-66q-26 0 -40.5 -16.5t-14.5 -42.5v-39h121v-74h-121v-438h-104v438h-59h-121v-438h-104v438h-93v74h94v34q0 66 40.5 105t113.5 39h70v-80h-66q-26 0 -40.5 -16.5t-14.5 -42.5v-39h121h60v34zM679 690h113v-103h-113v103zM683 0
v512h105v-512h-105z" />
    <glyph glyph-name="f_f_l" unicode="ffl" horiz-adv-x="837" 
d="M383 546q0 66 40.5 105t113.5 39h70v-80h-66q-26 0 -40.5 -16.5t-14.5 -42.5v-39h121v-74h-121v-438h-104v438h-48h-121v-438h-104v438h-93v74h94v34q0 66 40.5 105t113.5 39h70v-80h-66q-26 0 -40.5 -16.5t-14.5 -42.5v-39h121h49v34zM656 690h105v-690h-105v690z" />
    <glyph glyph-name=".notdef" horiz-adv-x="433" 
d="M16 0v488h400v-488h-400zM66 50h300v388h-300v-388z" />
    <glyph glyph-name=".null" 
 />
    <glyph glyph-name="nonmarkingreturn" horiz-adv-x="333" 
 />
    <glyph glyph-name="space" unicode=" " horiz-adv-x="229" 
 />
    <glyph glyph-name="exclam" unicode="!" horiz-adv-x="273" 
d="M97 201l-14 489h106l-14 -489h-78zM77 0v117h118v-117h-118z" />
    <glyph glyph-name="quotedbl" unicode="&#x22;" horiz-adv-x="375" 
d="M62 418v272h88v-272h-88zM224 418v272h89v-272h-89z" />
    <glyph glyph-name="numbersign" unicode="#" horiz-adv-x="637" 
d="M103 0l42 208h-110v70h125l28 144h-114v67h129l42 201h73l-41 -194h141l41 194h73l-40 -199h110v-69h-125l-28 -144h114v-68h-129l-43 -210h-74l43 203h-141l-42 -203h-74zM234 278h141l28 144h-141z" />
    <glyph glyph-name="dollar" unicode="$" horiz-adv-x="552" 
d="M510 199q0 -88 -58 -144.5t-152 -61.5v-73h-40v73q-78 5 -142.5 48.5t-101.5 124.5l84 55q54 -119 160 -132v227l-7 3q-47 17 -73 29t-59.5 35t-49.5 56t-16 77q0 83 56.5 132.5t148.5 51.5v70h40v-72q108 -11 183 -103l-64 -66q-52 64 -119 77v-193l2 -1h2
q39 -15 59.5 -24t53 -28.5t49.5 -39t30.5 -51.5t13.5 -70zM163 528q0 -33 25 -56t72 -43v181q-44 -2 -70.5 -24t-26.5 -58zM300 89q46 5 74 31t28 68q0 41 -26 66.5t-76 46.5v-212z" />
    <glyph glyph-name="percent" unicode="%" horiz-adv-x="758" 
d="M136 -8l382 713h96l-382 -713h-96zM179 379q-38 0 -66 16t-42.5 41.5t-21 51.5t-6.5 51q0 37 10.5 71t42.5 62.5t80 28.5q65 0 99.5 -49.5t34.5 -113.5q0 -62 -34 -110.5t-97 -48.5zM177 455q24 0 38 25t14 59q0 35 -14 59.5t-39 24.5t-39.5 -24.5t-14.5 -59.5
q0 -34 14.5 -59t40.5 -25zM583 -3q-71 0 -103.5 50.5t-32.5 110.5q0 27 6.5 53.5t20.5 52.5t41.5 42t64.5 16q65 0 99.5 -49.5t34.5 -114.5q0 -63 -34 -112t-97 -49zM582 74q23 0 37 25.5t14 59.5q0 36 -14 61t-39 25t-39.5 -25.5t-14.5 -61.5q0 -35 15 -59.5t41 -24.5z" />
    <glyph glyph-name="ampersand" unicode="&#x26;" horiz-adv-x="679" 
d="M529 161l157 -161h-145l-78 82q-76 -95 -200 -95q-95 0 -160.5 51.5t-65.5 142.5q0 71 43.5 120.5t116.5 73.5q-86 70 -86 154q0 81 55 125t132 44t129.5 -43.5t52.5 -122.5q0 -52 -33 -94.5t-108 -83.5l123 -125l121 187l79 -55zM299 611q-35 0 -58.5 -24t-23.5 -61
q0 -48 62 -110q54 29 77 55t23 57q0 35 -22.5 59t-57.5 24zM266 76q77 0 128 77l-147 156q-98 -42 -98 -123q0 -49 35 -79.5t82 -30.5z" />
    <glyph glyph-name="quotesingle" unicode="'" horiz-adv-x="212" 
d="M62 432v272h88v-272h-88z" />
    <glyph glyph-name="parenleft" unicode="(" horiz-adv-x="286" 
d="M177 -157q-57 67 -95 191t-38 251q0 135 36 249t94 196h84q-128 -175 -128 -442q0 -264 127 -445h-80z" />
    <glyph glyph-name="parenright" unicode=")" horiz-adv-x="285" 
d="M116 -157h-80q127 181 127 445q0 267 -128 442h83q58 -82 94 -196t36 -249q0 -127 -37.5 -251t-94.5 -191z" />
    <glyph glyph-name="asterisk" unicode="*" horiz-adv-x="347" 
d="M115 395l-51 40l84 99l-121 18l19 66l111 -48l-15 120h65l-16 -120l111 48l18 -66l-117 -18l83 -99l-52 -40l-59 112z" />
    <glyph glyph-name="plus" unicode="+" horiz-adv-x="655" 
d="M289 52v214h-223v78h223v214h78v-214h223v-78h-223v-214h-78z" />
    <glyph glyph-name="comma" unicode="," horiz-adv-x="268" 
d="M57 127h135v-127l-72 -151h-59l45 151h-49v127z" />
    <glyph glyph-name="hyphen" unicode="-" horiz-adv-x="330" 
d="M28 211v81h273v-81h-273z" />
    <glyph glyph-name="period" unicode="." horiz-adv-x="236" 
d="M54 0v127h134v-127h-134z" />
    <glyph glyph-name="slash" unicode="/" horiz-adv-x="483" 
d="M40 -76l304 765h99l-305 -765h-98z" />
    <glyph glyph-name="zero" unicode="0" horiz-adv-x="561" 
d="M284 -10q-68 0 -118.5 29.5t-78.5 81.5t-41.5 112.5t-13.5 131.5q0 56 8 106.5t26 96.5t46 79.5t70 53.5t95 20q124 0 188 -100t64 -257q0 -156 -62.5 -255t-182.5 -99zM281 88q39 0 67 23t42 62.5t20 81.5t6 91q0 50 -6 91.5t-20.5 80.5t-43.5 61t-69 22
q-138 0 -138 -256q0 -50 6 -91.5t21 -81t44.5 -62t70.5 -22.5z" />
    <glyph glyph-name="one" unicode="1" horiz-adv-x="416" 
d="M201 0v585l-160 -97v104l166 98h101v-690h-107z" />
    <glyph glyph-name="two" unicode="2" horiz-adv-x="565" 
d="M62 0v88q0 53 18.5 94.5t48.5 67.5t65.5 47.5t71.5 40t66 38t48.5 48t18.5 64.5q0 51 -30.5 83t-79.5 32q-59 0 -92.5 -42.5t-29.5 -113.5l-107 8q0 112 60.5 178t171.5 66q95 0 155 -57.5t60 -147.5q0 -67 -34.5 -116.5t-83.5 -78.5t-98.5 -54t-84.5 -57t-36 -73v-19
h351v-96h-459z" />
    <glyph glyph-name="three" unicode="3" horiz-adv-x="549" 
d="M275 -10q-104 0 -173.5 57t-69.5 163l103 7q0 -61 40.5 -97t99.5 -36q57 0 98 32.5t41 89.5q0 56 -37.5 85.5t-94.5 29.5h-46v90h46q43 0 69.5 25.5t26.5 69.5q0 46 -32 72.5t-83 26.5t-84 -30t-34 -80l-101 8q0 91 61.5 144t156.5 53q93 0 155.5 -50t62.5 -135
q0 -53 -27.5 -91t-67.5 -50v-6q58 -10 94 -52t38 -113q0 -102 -69.5 -157.5t-172.5 -55.5z" />
    <glyph glyph-name="four" unicode="4" horiz-adv-x="553" 
d="M431 260h100v-90h-100v-170h-106v170h-297v94l311 426h92v-430zM325 260v280l-199 -280h199z" />
    <glyph glyph-name="five" unicode="5" horiz-adv-x="559" 
d="M314 460q92 0 153 -64t61 -163q0 -106 -69 -174.5t-174 -68.5q-86 0 -153 54.5t-89 141.5l100 30q14 -57 53 -93t88 -36q57 0 95 41.5t38 104.5q0 60 -38 99t-95 39q-36 0 -70 -18.5t-53 -46.5l-97 32l63 352h370v-93h-288l-34 -191l2 -1q21 23 59 39t78 16z" />
    <glyph glyph-name="six" unicode="6" horiz-adv-x="544" 
d="M276 -9q-109 0 -176 77t-68 232q-3 400 258 400q155 0 218 -142l-84 -42q-41 93 -132 93q-37 0 -65.5 -15.5t-45 -38.5t-28 -55t-15.5 -59.5t-5 -56.5q60 63 157 63q99 0 160.5 -60.5t61.5 -162.5q0 -99 -67.5 -166t-168.5 -67zM272 85q59 0 96.5 38.5t37.5 98.5
t-37.5 98t-96.5 38t-95 -37t-36 -97t36.5 -99.5t94.5 -39.5z" />
    <glyph glyph-name="seven" unicode="7" horiz-adv-x="461" 
d="M115 0q32 384 224 594v3h-316v93h421v-102q-62 -65 -104 -138t-64 -152.5t-32 -145.5t-16 -152h-113z" />
    <glyph glyph-name="eight" unicode="8" horiz-adv-x="553" 
d="M277 -10q-107 0 -176.5 55.5t-69.5 144.5q0 65 38 115.5t100 64.5v4q-45 14 -74 55.5t-29 91.5q0 78 59.5 128.5t151.5 50.5t151 -50.5t59 -128.5q0 -50 -29 -92t-74 -55v-4q62 -16 100 -66t38 -114q0 -89 -69 -144.5t-176 -55.5zM279 409q46 0 76 29t30 73q0 45 -30 74
t-76 29q-47 0 -77.5 -28.5t-30.5 -72.5q0 -45 30.5 -74.5t77.5 -29.5zM276 78q61 0 99.5 35.5t38.5 90.5q0 54 -39 89.5t-99 35.5t-99 -35.5t-39 -89.5q0 -55 38.5 -90.5t99.5 -35.5z" />
    <glyph glyph-name="nine" unicode="9" horiz-adv-x="544" 
d="M268 699q109 0 176 -77t68 -232q3 -400 -258 -400q-155 0 -218 142l84 42q41 -93 132 -93q37 0 65.5 15.5t45 38.5t28 55t15.5 59.5t5 56.5q-60 -63 -157 -63q-99 0 -160.5 60.5t-61.5 162.5q0 99 67.5 166t168.5 67zM272 605q-59 0 -96.5 -38.5t-37.5 -98.5t37.5 -98
t96.5 -38t95 37t36 97t-36.5 99.5t-94.5 39.5z" />
    <glyph glyph-name="colon" unicode=":" horiz-adv-x="243" 
d="M54 365v127h135v-127h-135zM54 0v127h135v-127h-135z" />
    <glyph glyph-name="semicolon" unicode=";" horiz-adv-x="272" 
d="M197 492v-127h-134v127h134zM65 127h135v-127l-72 -151h-59l45 151h-49v127z" />
    <glyph glyph-name="less" unicode="&#x3c;" horiz-adv-x="606" 
d="M530 70l-481 259l481 259v-95l-308 -164l308 -162v-97z" />
    <glyph glyph-name="equal" unicode="=" horiz-adv-x="524" 
d="M66 380v90h393v-90h-393zM66 186v90h393v-90h-393z" />
    <glyph glyph-name="greater" unicode="&#x3e;" horiz-adv-x="617" 
d="M89 70v97l308 162l-308 164v95l481 -259z" />
    <glyph glyph-name="question" unicode="?" horiz-adv-x="468" 
d="M187 199v85q0 43 16 71t38.5 42t45 27t38.5 36t16 58q0 46 -29.5 70.5t-77.5 24.5q-49 0 -80.5 -31.5t-32.5 -85.5h-91q0 90 54.5 147t144.5 57q87 0 145 -46.5t58 -134.5q0 -39 -11.5 -67.5t-29 -43t-38 -28t-38 -23.5t-29 -29t-11.5 -45v-84h-88zM175 0v117h115v-117
h-115z" />
    <glyph glyph-name="at" unicode="@" horiz-adv-x="962" 
d="M481 -170q-181 0 -305.5 127.5t-124.5 307.5t124.5 307t305.5 127q182 0 311 -128t129 -306q0 -54 -13.5 -105.5t-39.5 -95.5t-70 -71t-100 -27q-62 0 -96.5 33t-36.5 89q-62 -64 -147 -64q-78 0 -119 55.5t-41 138.5q0 71 29 138.5t84 112t122 44.5q44 0 79 -20.5
t47 -57.5l11 56h89q-6 -31 -27 -114.5t-34 -149.5t-13 -107q0 -38 12.5 -54t42.5 -14q64 1 100 64t36 147q0 146 -104.5 249.5t-249.5 103.5t-245.5 -102.5t-100.5 -246.5t100 -246.5t244 -102.5q49 0 100 14l27 -82q-62 -20 -126 -20zM426 113q75 0 119.5 67.5t44.5 146.5
q0 99 -85 99q-76 0 -120.5 -67t-44.5 -145q0 -101 86 -101z" />
    <glyph glyph-name="A" unicode="A" horiz-adv-x="617" 
d="M499 0l-50 155h-280l-50 -155h-116l234 690h145l233 -690h-116zM197 244h224l-100 314q-9 33 -10 41h-3q0 -10 -11 -41z" />
    <glyph glyph-name="B" unicode="B" horiz-adv-x="650" 
d="M87 0v690h275q102 0 159.5 -49.5t57.5 -136.5q0 -56 -31 -93.5t-70 -48.5v-3q57 -6 96 -52.5t39 -114.5q0 -90 -59 -141t-158 -51h-309zM195 397h159q50 0 84.5 27.5t34.5 75.5q0 97 -112 97h-166v-200zM195 99h190q60 0 90 28t30 77q0 48 -34.5 76t-85.5 28h-190v-209z
" />
    <glyph glyph-name="C" unicode="C" horiz-adv-x="656" 
d="M351 -10q-149 0 -231.5 98t-82.5 257t82.5 257.5t230.5 98.5q100 0 174.5 -51t105.5 -142l-98 -40q-18 64 -66 100t-117 36q-95 0 -150 -68.5t-55 -186.5q0 -120 56.5 -191t149.5 -71q64 0 112.5 36.5t71.5 101.5l97 -41q-31 -91 -106 -142.5t-174 -51.5z" />
    <glyph glyph-name="D" unicode="D" horiz-adv-x="671" 
d="M87 0v690h192q173 0 264 -90t91 -258q0 -164 -92.5 -253t-263.5 -89h-191zM195 98h71q259 0 259 248q0 246 -248 246h-82v-494z" />
    <glyph glyph-name="E" unicode="E" horiz-adv-x="592" 
d="M87 0v690h455v-94h-347v-204h312v-94h-312v-204h347v-94h-455z" />
    <glyph glyph-name="F" unicode="F" horiz-adv-x="577" 
d="M87 0v690h461v-94h-353v-204h310v-94h-310v-298h-108z" />
    <glyph glyph-name="G" unicode="G" horiz-adv-x="729" 
d="M400 365h255v-365h-88l-3 108q-30 -51 -89 -84.5t-135 -33.5q-142 0 -222.5 102t-80.5 256q0 152 84 252.5t239 100.5q103 0 175.5 -49.5t109.5 -138.5l-95 -38q-56 130 -192 130q-107 0 -160 -72.5t-53 -184.5q0 -113 53 -186.5t157 -73.5q87 0 141.5 51.5t56.5 136.5
h-153v89z" />
    <glyph glyph-name="H" unicode="H" horiz-adv-x="708" 
d="M87 0v689h108v-296h318v296h108v-689h-108v297h-318v-297h-108z" />
    <glyph glyph-name="I" unicode="I" horiz-adv-x="282" 
d="M87 0v690h108v-690h-108z" />
    <glyph glyph-name="J" unicode="J" horiz-adv-x="373" 
d="M13 100q48 -12 76 -12q112 0 112 151v450h109v-465q0 -110 -52.5 -172t-158.5 -62q-53 0 -86 10v100z" />
    <glyph glyph-name="K" unicode="K" horiz-adv-x="650" 
d="M508 0l-236 315l-77 -82v-233h-108v689h108v-322l287 322h137l-278 -299l306 -390h-139z" />
    <glyph glyph-name="L" unicode="L" horiz-adv-x="499" 
d="M87 0v690h108v-596h295v-94h-403z" />
    <glyph glyph-name="M" unicode="M" horiz-adv-x="879" 
d="M87 0v689h166l186 -573l186 573h168v-689h-109v573h-4q-1 -12 -14 -53l-170 -520h-114l-170 526q-12 30 -13 47h-5v-573h-107z" />
    <glyph glyph-name="N" unicode="N" horiz-adv-x="740" 
d="M87 0v690h131l295 -495q23 -41 27 -53h4v548h109v-690h-133l-292 491q-22 35 -29 63h-4v-554h-108z" />
    <glyph glyph-name="O" unicode="O" horiz-adv-x="714" 
d="M357 -10q-146 0 -233 96t-87 259t87 259t233 96t233 -96t87 -259t-87 -259t-233 -96zM357 86q95 0 151.5 70t56.5 189t-56.5 189t-151.5 70t-151.5 -70t-56.5 -189t56.5 -189t151.5 -70z" />
    <glyph glyph-name="P" unicode="P" horiz-adv-x="641" 
d="M87 0v690h298q108 0 170 -59t62 -161q0 -101 -61 -157t-171 -56h-190v-257h-108zM195 351h187q127 0 127 120q0 59 -32.5 91.5t-94.5 32.5h-187v-244z" />
    <glyph glyph-name="Q" unicode="Q" horiz-adv-x="717" 
d="M680 -2l-61 -62l-95 97q-72 -43 -167 -43q-146 0 -233 96t-87 259t87 259t233 96t233 -96t87 -259t-86 -258zM357 86q51 0 93 22l-109 110l58 60l115 -115q51 70 51 182q0 119 -56.5 189t-151.5 70t-151.5 -70t-56.5 -189t56.5 -189t151.5 -70z" />
    <glyph glyph-name="R" unicode="R" horiz-adv-x="660" 
d="M87 -1v691h304q99 0 161 -53t62 -143q0 -70 -36.5 -116.5t-101.5 -66.5l165 -312h-122l-147 298h-178v-298h-107zM195 391h206q52 2 79.5 29t27.5 73q0 49 -31 76.5t-86 27.5h-196v-206z" />
    <glyph glyph-name="S" unicode="S" horiz-adv-x="552" 
d="M280 -8q-84 0 -154.5 43.5t-109.5 130.5l84 55q60 -133 181 -133q55 0 88 27t33 73q0 26 -10.5 46t-34 36t-44.5 25.5t-60 23.5q-47 17 -73 29t-59.5 35t-49.5 56t-16 77q0 85 59.5 134.5t154.5 49.5q128 0 214 -105l-64 -66q-66 81 -154 81q-45 0 -73.5 -22.5
t-28.5 -59.5q0 -17 8 -32t18.5 -25.5t31.5 -22t37.5 -18.5t45.5 -18q39 -15 59.5 -24t53 -28.5t49.5 -39t30.5 -51.5t13.5 -70q0 -92 -64.5 -149.5t-165.5 -57.5z" />
    <glyph glyph-name="T" unicode="T" horiz-adv-x="569" 
d="M230 0v600h-222v90h553v-90h-222v-600h-109z" />
    <glyph glyph-name="U" unicode="U" horiz-adv-x="670" 
d="M335 -10q-123 0 -189.5 68.5t-66.5 191.5v440h108v-444q0 -74 39 -115.5t109 -41.5q69 0 108.5 42t39.5 115v444h108v-435q0 -126 -66.5 -195.5t-189.5 -69.5z" />
    <glyph glyph-name="V" unicode="V" horiz-adv-x="628" 
d="M509 690h113l-233 -690h-149l-234 690h112l196 -606z" />
    <glyph glyph-name="W" unicode="W" horiz-adv-x="921" 
d="M172 0l-164 690h112l124 -553q4 -20 4 -38h5l143 591h128l143 -591h5q0 19 4 38l124 553h112l-165 -690h-147l-141 556l-139 -556h-148z" />
    <glyph glyph-name="X" unicode="X" horiz-adv-x="612" 
d="M4 0l230 345l-229 345h133l168 -267l168 267h133l-230 -345l231 -345h-133l-170 262l-168 -262h-133z" />
    <glyph glyph-name="Y" unicode="Y" horiz-adv-x="666" 
d="M278 0v269l-276 421h125l206 -322l207 322h125l-278 -421v-269h-109z" />
    <glyph glyph-name="Z" unicode="Z" horiz-adv-x="582" 
d="M565 690v-82l-402 -514h402v-94h-548v78l406 518h-384v94h526z" />
    <glyph glyph-name="bracketleft" unicode="[" horiz-adv-x="280" 
d="M71 -160v890h195v-81h-108v-726h108v-83h-195z" />
    <glyph glyph-name="backslash" unicode="\" horiz-adv-x="483" 
d="M344 -76l-304 765h98l305 -765h-99z" />
    <glyph glyph-name="bracketright" unicode="]" horiz-adv-x="280" 
d="M15 -160v83h107v726h-107v81h194v-890h-194z" />
    <glyph glyph-name="asciicircum" unicode="^" horiz-adv-x="412" 
d="M8 315l198 374l198 -374h-101l-97 203l-97 -203h-101z" />
    <glyph glyph-name="underscore" unicode="_" horiz-adv-x="400" 
d="M-2 -78v78h403v-78h-403z" />
    <glyph glyph-name="grave" unicode="`" horiz-adv-x="196" 
d="M126 547l-144 119h120l108 -119h-84z" />
    <glyph glyph-name="a" unicode="a" horiz-adv-x="539" 
d="M265 522q93 0 153.5 -42t60.5 -121v-359h-95v62q-33 -32 -82.5 -52.5t-91.5 -20.5q-77 0 -123 39t-46 106q0 91 94 137q21 10 51.5 21t54 17.5t71.5 20t72 20.5q-1 86 -114 86q-90 0 -143 -68l-74 51q78 103 212 103zM217 79q98 0 167 85v106q-145 -47 -179 -63
q-54 -25 -54 -68q0 -28 18.5 -44t47.5 -16z" />
    <glyph glyph-name="b" unicode="b" horiz-adv-x="608" 
d="M348 522q108 0 165 -73t57 -193t-57.5 -193.5t-165.5 -73.5q-109 0 -167 76h-3v-65h-102v690h104v-245h1q61 77 168 77zM317 79q148 0 148 178q0 84 -37.5 129t-110.5 45q-65 0 -103.5 -47t-38.5 -127q0 -83 38 -130.5t104 -47.5z" />
    <glyph glyph-name="c" unicode="c" horiz-adv-x="514" 
d="M278 -11q-115 0 -177.5 76.5t-62.5 189.5q0 115 62.5 191t176.5 76q159 0 214 -143l-88 -34q-12 43 -45 67.5t-79 24.5q-68 0 -102.5 -54t-34.5 -129q0 -74 34.5 -126.5t102.5 -52.5q47 0 80 24.5t45 66.5l84 -31q-50 -146 -210 -146z" />
    <glyph glyph-name="d" unicode="d" horiz-adv-x="608" 
d="M429 690h104v-690h-102v65h-3q-58 -76 -167 -76q-108 0 -165.5 73.5t-57.5 193.5t57 193t165 73q107 0 168 -77h1v245zM291 79q66 0 104 47.5t38 130.5q0 80 -38.5 127t-103.5 47q-73 0 -110.5 -45t-37.5 -129q0 -178 148 -178z" />
    <glyph glyph-name="e" unicode="e" horiz-adv-x="536" 
d="M497 265q0 -27 -3 -39h-352q11 -146 147 -146q71 0 126 49l67 -59q-83 -80 -195 -80q-117 0 -183 74t-66 189t62 192t174 77q109 0 166 -74t57 -183zM272 433q-55 0 -89 -33t-41 -94l252 -1q-3 57 -34 92.5t-88 35.5z" />
    <glyph glyph-name="f" unicode="f" horiz-adv-x="347" 
d="M109 0v438h-93v74h94v34q0 66 40.5 105t113.5 39h70v-80h-66q-26 0 -40.5 -16.5t-14.5 -42.5v-39h121v-74h-121v-438h-104z" />
    <glyph glyph-name="g" unicode="g" horiz-adv-x="612" 
d="M295 -188q-180 0 -240 104l58 55q25 -41 73 -60t100 -19q66 0 104.5 32.5t38.5 88.5v71q-52 -74 -165 -74q-106 0 -166 71.5t-60 186.5q0 114 60.5 184t169.5 70q105 0 158 -73h2v63h105v-496q0 -101 -66 -152.5t-172 -51.5zM292 95q72 0 107.5 44.5t35.5 119.5
q0 76 -36 126.5t-110 50.5q-71 0 -108 -48t-37 -123t37 -122.5t111 -47.5z" />
    <glyph glyph-name="h" unicode="h" horiz-adv-x="576" 
d="M75 0v690h104v-250h5q51 82 152 82q81 0 126.5 -51t45.5 -136v-335h-104v319q0 114 -99 114q-55 0 -90.5 -37.5t-35.5 -93.5v-302h-104z" />
    <glyph glyph-name="i" unicode="i" horiz-adv-x="262" 
d="M75 587v103h112v-103h-112zM79 0v512h104v-512h-104z" />
    <glyph glyph-name="j" unicode="j" horiz-adv-x="263" 
d="M75 586v104h113v-104h-113zM-22 -178v84q49 0 75.5 26t26.5 69v511h105v-504q0 -186 -207 -186z" />
    <glyph glyph-name="k" unicode="k" horiz-adv-x="536" 
d="M422 0l-177 242l-66 -64v-178h-104v690h104v-389l215 211h127l-209 -205l235 -307h-125z" />
    <glyph glyph-name="l" unicode="l" horiz-adv-x="257" 
d="M76 0v690h105v-690h-105z" />
    <glyph glyph-name="m" unicode="m" horiz-adv-x="848" 
d="M75 0v512h103v-70h3q45 80 140 80q98 0 139 -92h3q29 47 65 70t88 22q80 -1 122.5 -51t42.5 -137v-334h-104v323q0 108 -94 108q-53 0 -78.5 -36.5t-25.5 -95.5v-299h-104v324q0 107 -91 107q-54 0 -79.5 -36.5t-25.5 -95.5v-299h-104z" />
    <glyph glyph-name="n" unicode="n" horiz-adv-x="576" 
d="M75 0v512h103v-72h5q52 82 152 82q79 0 126 -50.5t47 -136.5v-335h-104v319q0 114 -97 114q-57 0 -92.5 -36t-35.5 -95v-302h-104z" />
    <glyph glyph-name="o" unicode="o" horiz-adv-x="574" 
d="M287 -11q-111 0 -180 69.5t-69 195.5q0 128 69 198t180 70t180 -70t69 -198q0 -126 -69 -195.5t-180 -69.5zM288 79q68 0 107 43.5t39 131.5q0 90 -39 134t-107 44t-106.5 -44t-38.5 -134q0 -88 38.5 -131.5t106.5 -43.5z" />
    <glyph glyph-name="p" unicode="p" horiz-adv-x="607" 
d="M75 -178v690h103v-81l2 8q23 38 67 60.5t101 22.5q102 0 161.5 -74t59.5 -192t-60 -192.5t-162 -74.5q-59 0 -103 24t-66 63l-1 8v-262h-102zM317 77q69 0 108.5 47t39.5 133q0 84 -39.5 130.5t-108.5 46.5q-66 0 -106 -47.5t-40 -129.5q0 -85 39.5 -132.5t106.5 -47.5z
" />
    <glyph glyph-name="q" unicode="q" horiz-adv-x="607" 
d="M430 512h103v-690h-103v254q-23 -39 -67 -63t-103 -24q-102 0 -162 74.5t-60 192.5t59.5 192t161.5 74q118 0 168 -83l3 -8v81zM291 77q67 0 106 47.5t39 132.5q0 82 -39.5 129.5t-105.5 47.5q-69 0 -108.5 -46.5t-39.5 -130.5q0 -86 39.5 -133t108.5 -47z" />
    <glyph glyph-name="r" unicode="r" horiz-adv-x="383" 
d="M75 0v512h103v-81h3q18 42 50 65.5t71 23.5q40 0 63 -9v-89q-33 6 -58 3q-61 -7 -94.5 -58.5t-33.5 -141.5v-225h-104z" />
    <glyph glyph-name="s" unicode="s" horiz-adv-x="482" 
d="M245 -11q-67 0 -127 29.5t-91 76.5l63 60q20 -33 57.5 -57t88.5 -25q48 -2 80 15.5t33 53.5q0 13 -3.5 23t-14.5 18t-18 13t-28 11t-29 8.5t-35 8.5q-40 9 -64 17t-53 24t-43 42t-14 62q0 74 54 113.5t140 39.5q120 0 192 -88l-55 -60q-51 61 -129 65q-45 2 -74.5 -13.5
t-30.5 -43.5q-4 -34 55 -55q19 -7 83 -23q30 -7 50.5 -14t44.5 -19t38.5 -27t24.5 -38.5t10 -53.5q0 -76 -57.5 -119.5t-147.5 -43.5z" />
    <glyph glyph-name="t" unicode="t" horiz-adv-x="343" 
d="M217 0q-128 0 -128 134v304h-75v74h75v178h104v-178h125v-74h-125v-280q0 -41 14.5 -58t49.5 -17h53v-83h-93z" />
    <glyph glyph-name="u" unicode="u" horiz-adv-x="579" 
d="M504 512v-512h-103v72h-8q-49 -82 -149 -82q-81 0 -127 51.5t-46 136.5v334h104v-314q0 -55 26 -83t74 -28q56 0 90.5 36t34.5 92v297h104z" />
    <glyph glyph-name="v" unicode="v" horiz-adv-x="496" 
d="M372 512h112l-169 -512h-134l-169 512h113l124 -434z" />
    <glyph glyph-name="w" unicode="w" horiz-adv-x="753" 
d="M630 512h111l-122 -512h-139l-105 382l-102 -383h-141l-120 513h111l84 -435l121 435h95l122 -433z" />
    <glyph glyph-name="x" unicode="x" horiz-adv-x="488" 
d="M7 0l173 258l-173 254h121l115 -179l116 179h122l-175 -254l175 -258h-122l-116 183l-115 -183h-121z" />
    <glyph glyph-name="y" unicode="y" horiz-adv-x="474" 
d="M34 -178v84q49 0 82.5 16.5t46 35t25.5 48.5l-182 506h112l104 -322q15 -41 15 -74h6q0 29 14 75l103 321h113l-191 -531q-35 -98 -91 -128.5t-157 -30.5z" />
    <glyph glyph-name="z" unicode="z" horiz-adv-x="470" 
d="M443 512v-81l-283 -345h281v-86h-413v75l290 352h-282v85h407z" />
    <glyph glyph-name="braceleft" unicode="{" horiz-adv-x="304" 
d="M206 -163q-57 0 -88 49q-17 25 -17 83v209q0 21 -17 32.5t-47 21.5v74q34 11 49 26.5t15 43.5v241q0 122 116 122h25q4 0 37 -3v-84q-38 9 -44 2h-6q-14 0 -20 -1t-10.5 -8t-4.5 -22v-254q0 -53 -52 -103q52 -43 52 -86v-195q0 -32 13.5 -50t38.5 -14q10 -4 33 3v-85
q-5 0 -18 -1t-20 -1h-35z" />
    <glyph glyph-name="bar" unicode="|" horiz-adv-x="253" 
d="M88 -76v825h76v-825h-76z" />
    <glyph glyph-name="braceright" unicode="}" horiz-adv-x="302" 
d="M63 -163q-7 0 -20 1t-18 1v85q28 -9 34 -3q28 2 39.5 14t11.5 50v195q0 43 52 86q-52 50 -52 103v254q0 34 -41 31q-13 6 -44 -2v84q33 3 37 3h25q116 0 116 -122v-241q0 -28 15 -43.5t49 -26.5v-74q-19 -7 -30.5 -12t-22.5 -16.5t-11 -25.5v-209q0 -58 -17 -83
q-32 -49 -88 -49h-35z" />
    <glyph glyph-name="asciitilde" unicode="~" horiz-adv-x="432" 
d="M297 182q-35 0 -64 21t-53 42t-46 21q-42 0 -39 -71h-60q-1 58 25 94t73 36q34 0 61 -13t41 -28.5t31 -28.5t34 -13q26 0 36 19.5t9 60.5h63q2 -66 -27.5 -103t-83.5 -37z" />
    <glyph glyph-name="exclamdown" unicode="&#xa1;" horiz-adv-x="273" 
d="M77 395v117h118v-117h-118zM83 -189l14 500h78l14 -500h-106z" />
    <glyph glyph-name="cent" unicode="&#xa2;" horiz-adv-x="491" 
d="M223 -100v91q-89 14 -137 85t-48 167t48 167t137 85v91h76v-91q116 -17 168 -137l-94 -38q-24 90 -111 90q-63 0 -94 -48.5t-31 -118.5q0 -71 30.5 -119t94.5 -48q86 0 111 90l88 -36q-44 -123 -162 -139v-91h-76z" />
    <glyph glyph-name="sterling" unicode="&#xa3;" horiz-adv-x="556" 
d="M33 0v84q5 2 13 7t28.5 20t36.5 32t29 43t13 53q0 35 -11 62h-107v86h87q-21 58 -21 109q0 94 54.5 150.5t142.5 56.5q76 0 125 -40.5t72 -105.5l-80 -29q-35 90 -118 90q-51 0 -80 -32t-29 -95q0 -54 22 -104h205v-86h-184q6 -24 6 -60q0 -33 -7 -61t-17.5 -44.5
t-21 -28.5t-17.5 -17l-7 -4h381v-86h-515z" />
    <glyph glyph-name="currency" unicode="&#xa4;" horiz-adv-x="631" 
d="M129 23l-89 85l97 89q-32 47 -32 110q0 62 32 108l-105 83l88 86l79 -100q52 34 112 34q59 0 111 -34l83 97l88 -85l-108 -81q31 -44 31 -108t-31 -110l104 -89l-89 -85l-78 107q-53 -34 -111 -34q-61 0 -111 34zM311 190q49 1 78 33t29 84t-29 84t-78 33q-49 -1 -78 -33
t-29 -84t29 -84t78 -33z" />
    <glyph glyph-name="yen" unicode="&#xa5;" horiz-adv-x="622" 
d="M266 -4v83h-147v73h147v103h-147v72h114l-231 363h104l204 -333l206 333h104l-232 -364h114v-71h-146v-103h146v-73h-146v-83h-90z" />
    <glyph glyph-name="brokenbar" unicode="&#xa6;" horiz-adv-x="260" 
d="M87 373v317h86v-317h-86zM87 -76v303h86v-303h-86z" />
    <glyph glyph-name="section" unicode="&#xa7;" horiz-adv-x="528" 
d="M272 -9q-75 0 -130 36.5t-78 106.5l90 24q21 -81 120 -81q44 0 74 16t30 48q0 28 -30 43.5t-73 23t-86 18.5t-73 42.5t-30 83.5q0 62 44 106q-43 35 -43 95q0 68 54.5 107.5t129.5 39.5q142 0 186 -132l-84 -24q-21 72 -105 72q-44 0 -69 -20.5t-25 -48.5q0 -26 30 -39.5
t73 -21t86 -19t73 -44t30 -86.5q0 -60 -41 -103q41 -35 41 -95q0 -73 -58 -110.5t-136 -37.5zM333 272q45 18 45 64q0 20 -9 34t-28.5 22.5t-34.5 13t-45 10.5t-42 9q-21 -9 -33 -28t-12 -38q0 -17 9 -30t29.5 -22.5t34.5 -14t45.5 -11.5z" />
    <glyph glyph-name="dieresis" unicode="&#xa8;" horiz-adv-x="298" 
d="M18 562v104h92v-104h-92zM188 562v104h92v-104h-92z" />
    <glyph glyph-name="copyright" unicode="&#xa9;" horiz-adv-x="815" 
d="M407 -27q-152 0 -261 109.5t-109 263.5t109 263t261 109q153 0 262 -109t109 -263t-109 -263.5t-262 -109.5zM407 28q129 0 222 94t93 224t-92.5 223.5t-222.5 93.5q-128 0 -221.5 -93.5t-93.5 -223.5t93.5 -224t221.5 -94zM414 135q-90 0 -138 60t-48 149t48 149t137 60
q114 0 164 -110l-73 -31q-31 60 -90 60q-53 0 -80 -36t-27 -93q0 -56 26.5 -91t79.5 -35q59 0 90 60l74 -31q-49 -111 -163 -111z" />
    <glyph glyph-name="ordfeminine" unicode="&#xaa;" horiz-adv-x="354" 
d="M181 718q64 0 105 -29t41 -83v-245h-65v42q-22 -21 -56.5 -35.5t-62.5 -14.5q-53 0 -84 27t-31 73q0 61 64 93q30 15 170 54q0 59 -78 59q-61 0 -98 -47l-50 35q52 71 145 71zM148 415q68 0 114 59v71q-92 -27 -122 -43q-37 -17 -37 -46q0 -20 12.5 -30.5t32.5 -10.5z
" />
    <glyph glyph-name="guillemotleft" unicode="&#xab;" horiz-adv-x="528" 
d="M258 80l-200 169l200 169v-95l-91 -74l91 -73v-96zM468 80l-199 169l199 169v-95l-91 -74l91 -73v-96z" />
    <glyph glyph-name="logicalnot" unicode="&#xac;" horiz-adv-x="582" 
d="M418 122v175h-352v92h451v-267h-99z" />
    <glyph glyph-name="registered" unicode="&#xae;" horiz-adv-x="624" 
d="M311 172q-107 0 -182.5 77t-75.5 187t75.5 187t182.5 77t183 -77.5t76 -186.5t-76 -186.5t-183 -77.5zM311 219q88 0 151.5 64t63.5 153t-63.5 153.5t-151.5 64.5q-87 0 -150 -64.5t-63 -153.5t63 -153t150 -64zM220 292v283h111q48 0 73.5 -22.5t25.5 -62.5
q0 -58 -51 -81l69 -117h-69l-61 110h-37v-110h-61zM277 454h54q42 0 42 36q0 35 -42 35h-54v-71z" />
    <glyph glyph-name="macron" unicode="&#xaf;" horiz-adv-x="320" 
d="M26 579v61h270v-61h-270z" />
    <glyph glyph-name="degree" unicode="&#xb0;" horiz-adv-x="378" 
d="M189 394q-66 0 -110.5 44t-44.5 109t44.5 109t110.5 44t110.5 -44t44.5 -109t-44.5 -109t-110.5 -44zM189 467q35 0 58 23t23 57q0 35 -23 58t-58 23t-58 -23t-23 -58q0 -34 23 -57t58 -23z" />
    <glyph glyph-name="plusminus" unicode="&#xb1;" horiz-adv-x="655" 
d="M289 52v214h-223v78h223v214h78v-214h223v-78h-223v-214h-78zM67 -78v78h522v-78h-522z" />
    <glyph glyph-name="acute" unicode="&#xb4;" horiz-adv-x="196" 
d="M-11 548l109 118h119l-151 -118h-77z" />
    <glyph glyph-name="uni00B5" unicode="&#xb5;" horiz-adv-x="502" 
d="M71 -130v618h99v-287q0 -121 89 -121q54 0 94 40t40 93v275h99v-488h-99v73q-20 -34 -58.5 -59t-83.5 -25q-43 0 -81 18l-10 -137h-89z" />
    <glyph glyph-name="paragraph" unicode="&#xb6;" horiz-adv-x="564" 
d="M259 -140v444q-90 0 -155.5 52.5t-65.5 140.5t65.5 140.5t155.5 52.5h70v-830h-70zM417 -140v830h71v-830h-71z" />
    <glyph glyph-name="periodcentered" unicode="&#xb7;" horiz-adv-x="244" 
d="M122 326q-29 0 -48.5 20t-19.5 48q0 30 19.5 49.5t48.5 19.5t49 -19.5t20 -49.5q0 -28 -20.5 -48t-48.5 -20z" />
    <glyph glyph-name="cedilla" unicode="&#xb8;" horiz-adv-x="184" 
d="M97 -244q-35 0 -61.5 18t-37.5 47l53 26q3 -15 14.5 -25t27.5 -10q17 0 28.5 11.5t12.5 29.5q3 30 -38 44l-66 20l45 83h72l-40 -60q44 -12 67 -32t23 -53q0 -44 -30 -71.5t-70 -27.5z" />
    <glyph glyph-name="ordmasculine" unicode="&#xba;" horiz-adv-x="392" 
d="M197 349q-75 0 -123.5 51.5t-48.5 125.5q0 73 48.5 124.5t123.5 51.5q74 0 121.5 -51.5t47.5 -124.5q0 -74 -47.5 -125.5t-121.5 -51.5zM197 411q48 0 71.5 32t23.5 82t-23.5 82t-71.5 32q-50 0 -74 -32t-24 -82t24 -82t74 -32z" />
    <glyph glyph-name="guillemotright" unicode="&#xbb;" horiz-adv-x="531" 
d="M62 80v96l91 73l-91 74v95l199 -169zM272 80v96l91 73l-91 74v95l200 -169z" />
    <glyph glyph-name="questiondown" unicode="&#xbf;" horiz-adv-x="457" 
d="M304 512v-117h-116v117h116zM291 313v-85q0 -43 -16 -71t-38.5 -42t-45 -27t-38.5 -36t-16 -58q0 -46 29.5 -70.5t77.5 -24.5q50 0 81.5 31.5t31.5 85.5h92q-1 -90 -55 -147t-144 -57q-87 0 -145 46.5t-58 134.5q0 39 11.5 67.5t29 43t37.5 28t37.5 23.5t29 29t11.5 45
v84h88z" />
    <glyph glyph-name="Agrave" unicode="&#xc0;" horiz-adv-x="617" 
d="M351 748h-84l-144 119h120zM499 0l-50 155h-280l-50 -155h-116l234 690h145l233 -690h-116zM197 244h224l-100 314q-9 33 -10 41h-3q0 -10 -11 -41z" />
    <glyph glyph-name="Aacute" unicode="&#xc1;" horiz-adv-x="617" 
d="M499 867l-151 -118h-77l109 118h119zM499 0l-50 155h-280l-50 -155h-116l234 690h145l233 -690h-116zM197 244h224l-100 314q-9 33 -10 41h-3q0 -10 -11 -41z" />
    <glyph glyph-name="Acircumflex" unicode="&#xc2;" horiz-adv-x="617" 
d="M310 809l-62 -72h-84l123 131h45l124 -131h-84zM499 0l-50 155h-280l-50 -155h-116l234 690h145l233 -690h-116zM197 244h224l-100 314q-9 33 -10 41h-3q0 -10 -11 -41z" />
    <glyph glyph-name="Atilde" unicode="&#xc3;" horiz-adv-x="617" 
d="M238 810q-43 0 -43 -62h-62q0 120 97 120q35 0 61.5 -17t47.5 -34t41 -17q44 0 44 68h64q0 -62 -26.5 -94t-74.5 -32q-34 0 -60.5 17t-47.5 34t-41 17zM499 0l-50 155h-280l-50 -155h-116l234 690h145l233 -690h-116zM197 244h224l-100 314q-9 33 -10 41h-3
q0 -10 -11 -41z" />
    <glyph glyph-name="Adieresis" unicode="&#xc4;" horiz-adv-x="617" 
d="M271 867v-104h-92v104h92zM441 867v-104h-92v104h92zM499 0l-50 155h-280l-50 -155h-116l234 690h145l233 -690h-116zM197 244h224l-100 314q-9 33 -10 41h-3q0 -10 -11 -41z" />
    <glyph glyph-name="Aring" unicode="&#xc5;" horiz-adv-x="617" 
d="M499 0l-50 155h-280l-50 -155h-116l228 673q-24 29 -24 66q0 42 29.5 72t72.5 30q42 0 72 -29.5t30 -72.5q0 -37 -24 -66l228 -673h-116zM309 791q-23 0 -37 -14t-14 -37q0 -38 33 -50h36q34 12 34 50q0 22 -14.5 36.5t-37.5 14.5zM197 244h224l-100 314q-9 33 -10 41h-3
q0 -10 -11 -41z" />
    <glyph glyph-name="AE" unicode="&#xc6;" horiz-adv-x="890" 
d="M841 594h-365v-201h322v-96h-322v-199h365v-98h-469v148h-202l-55 -148h-112l268 690h570v-96zM205 240h167v362h-32z" />
    <glyph glyph-name="Ccedilla" unicode="&#xc7;" horiz-adv-x="656" 
d="M631 184q-28 -80 -90 -130t-146 -61l-35 -53q44 -12 67 -32t23 -53q0 -44 -30 -71.5t-70 -27.5q-35 0 -61.5 18t-37.5 47l53 26q3 -15 14.5 -25t27.5 -10q17 0 28.5 11.5t12.5 29.5q3 30 -38 44l-66 20l40 74q-136 10 -211 106.5t-75 247.5q0 159 82.5 257.5t230.5 98.5
q100 0 174.5 -51t105.5 -142l-98 -40q-18 64 -66 100t-117 36q-95 0 -150 -68.5t-55 -186.5q0 -120 56.5 -191t149.5 -71q64 0 112.5 36.5t71.5 101.5z" />
    <glyph glyph-name="Egrave" unicode="&#xc8;" horiz-adv-x="592" 
d="M273 748l-144 119h120l108 -119h-84zM87 0v690h455v-94h-347v-204h312v-94h-312v-204h347v-94h-455z" />
    <glyph glyph-name="Eacute" unicode="&#xc9;" horiz-adv-x="592" 
d="M276 749l109 118h119l-151 -118h-77zM87 0v690h455v-94h-347v-204h312v-94h-312v-204h347v-94h-455z" />
    <glyph glyph-name="Ecircumflex" unicode="&#xca;" horiz-adv-x="592" 
d="M169 737l123 131h45l124 -131h-84l-62 72l-62 -72h-84zM87 0v690h455v-94h-347v-204h312v-94h-312v-204h347v-94h-455z" />
    <glyph glyph-name="Edieresis" unicode="&#xcb;" horiz-adv-x="592" 
d="M184 763v104h92v-104h-92zM354 763v104h92v-104h-92zM87 0v690h455v-94h-347v-204h312v-94h-312v-204h347v-94h-455z" />
    <glyph glyph-name="Igrave" unicode="&#xcc;" horiz-adv-x="282" 
d="M98 748l-144 119h120l108 -119h-84zM87 0v690h108v-690h-108z" />
    <glyph glyph-name="Iacute" unicode="&#xcd;" horiz-adv-x="282" 
d="M102 749l109 118h119l-151 -118h-77zM87 0v690h108v-690h-108z" />
    <glyph glyph-name="Icircumflex" unicode="&#xce;" horiz-adv-x="282" 
d="M-5 737l123 131h45l124 -131h-84l-62 72l-62 -72h-84zM87 0v690h108v-690h-108z" />
    <glyph glyph-name="Idieresis" unicode="&#xcf;" horiz-adv-x="282" 
d="M9 763v104h92v-104h-92zM179 763v104h92v-104h-92zM87 0v690h108v-690h-108z" />
    <glyph glyph-name="Eth" unicode="&#xd0;" horiz-adv-x="662" 
d="M77 0v310h-58v76h58v304h189q173 0 265.5 -90.5t92.5 -259.5q0 -163 -94 -251.5t-265 -88.5h-188zM179 95h74q124 0 196 61.5t72 188.5q0 251 -257 251h-85v-210h176v-76h-176v-215z" />
    <glyph glyph-name="Ntilde" unicode="&#xd1;" horiz-adv-x="740" 
d="M446 742q-34 0 -60.5 17t-47.5 34t-41 17q-43 0 -43 -62h-62q0 120 97 120q35 0 61.5 -17t47.5 -34t41 -17q44 0 44 68h64q0 -62 -26.5 -94t-74.5 -32zM87 0v690h131l295 -495q23 -41 27 -53h4v548h109v-690h-133l-292 491q-22 35 -29 63h-4v-554h-108z" />
    <glyph glyph-name="Ograve" unicode="&#xd2;" horiz-adv-x="714" 
d="M314 748l-144 119h120l108 -119h-84zM357 -10q-146 0 -233 96t-87 259t87 259t233 96t233 -96t87 -259t-87 -259t-233 -96zM357 86q95 0 151.5 70t56.5 189t-56.5 189t-151.5 70t-151.5 -70t-56.5 -189t56.5 -189t151.5 -70z" />
    <glyph glyph-name="Oacute" unicode="&#xd3;" horiz-adv-x="714" 
d="M318 749l109 118h119l-151 -118h-77zM357 -10q-146 0 -233 96t-87 259t87 259t233 96t233 -96t87 -259t-87 -259t-233 -96zM357 86q95 0 151.5 70t56.5 189t-56.5 189t-151.5 70t-151.5 -70t-56.5 -189t56.5 -189t151.5 -70z" />
    <glyph glyph-name="Ocircumflex" unicode="&#xd4;" horiz-adv-x="714" 
d="M211 737l123 131h45l124 -131h-84l-62 72l-62 -72h-84zM357 -10q-146 0 -233 96t-87 259t87 259t233 96t233 -96t87 -259t-87 -259t-233 -96zM357 86q95 0 151.5 70t56.5 189t-56.5 189t-151.5 70t-151.5 -70t-56.5 -189t56.5 -189t151.5 -70z" />
    <glyph glyph-name="Otilde" unicode="&#xd5;" horiz-adv-x="714" 
d="M433 742q-34 0 -60.5 17t-47.5 34t-41 17q-43 0 -43 -62h-62q0 120 97 120q35 0 61.5 -17t47.5 -34t41 -17q44 0 44 68h64q0 -62 -26.5 -94t-74.5 -32zM357 -10q-146 0 -233 96t-87 259t87 259t233 96t233 -96t87 -259t-87 -259t-233 -96zM357 86q95 0 151.5 70t56.5 189
t-56.5 189t-151.5 70t-151.5 -70t-56.5 -189t56.5 -189t151.5 -70z" />
    <glyph glyph-name="Odieresis" unicode="&#xd6;" horiz-adv-x="714" 
d="M225 763v104h92v-104h-92zM395 763v104h92v-104h-92zM357 -10q-146 0 -233 96t-87 259t87 259t233 96t233 -96t87 -259t-87 -259t-233 -96zM357 86q95 0 151.5 70t56.5 189t-56.5 189t-151.5 70t-151.5 -70t-56.5 -189t56.5 -189t151.5 -70z" />
    <glyph glyph-name="multiply" unicode="&#xd7;" horiz-adv-x="482" 
d="M90 97l-56 58l150 151l-150 150l56 56l151 -150l151 151l56 -58l-150 -150l150 -151l-56 -56l-151 150z" />
    <glyph glyph-name="Oslash" unicode="&#xd8;" horiz-adv-x="714" 
d="M683 611l-57 -57q51 -87 51 -209q0 -163 -87 -259t-233 -96q-132 0 -216 79l-50 -50l-61 61l57 57q-50 87 -50 208q0 163 87 259t233 96q130 0 216 -78l49 49zM149 345q0 -67 21 -125l327 327q-55 57 -140 57q-95 0 -151.5 -70t-56.5 -189zM565 345q0 73 -21 127
l-328 -328q55 -58 141 -58q95 0 151.5 70t56.5 189z" />
    <glyph glyph-name="Ugrave" unicode="&#xd9;" horiz-adv-x="670" 
d="M293 748l-144 119h120l108 -119h-84zM335 -10q-123 0 -189.5 68.5t-66.5 191.5v440h108v-444q0 -74 39 -115.5t109 -41.5q69 0 108.5 42t39.5 115v444h108v-435q0 -126 -66.5 -195.5t-189.5 -69.5z" />
    <glyph glyph-name="Uacute" unicode="&#xda;" horiz-adv-x="670" 
d="M296 749l109 118h119l-151 -118h-77zM335 -10q-123 0 -189.5 68.5t-66.5 191.5v440h108v-444q0 -74 39 -115.5t109 -41.5q69 0 108.5 42t39.5 115v444h108v-435q0 -126 -66.5 -195.5t-189.5 -69.5z" />
    <glyph glyph-name="Ucircumflex" unicode="&#xdb;" horiz-adv-x="670" 
d="M189 737l123 131h45l124 -131h-84l-62 72l-62 -72h-84zM335 -10q-123 0 -189.5 68.5t-66.5 191.5v440h108v-444q0 -74 39 -115.5t109 -41.5q69 0 108.5 42t39.5 115v444h108v-435q0 -126 -66.5 -195.5t-189.5 -69.5z" />
    <glyph glyph-name="Udieresis" unicode="&#xdc;" horiz-adv-x="670" 
d="M204 763v104h92v-104h-92zM374 763v104h92v-104h-92zM335 -10q-123 0 -189.5 68.5t-66.5 191.5v440h108v-444q0 -74 39 -115.5t109 -41.5q69 0 108.5 42t39.5 115v444h108v-435q0 -126 -66.5 -195.5t-189.5 -69.5z" />
    <glyph glyph-name="Yacute" unicode="&#xdd;" horiz-adv-x="666" 
d="M294 749l109 118h119l-151 -118h-77zM278 0v269l-276 421h125l206 -322l207 322h125l-278 -421v-269h-109z" />
    <glyph glyph-name="Thorn" unicode="&#xde;" horiz-adv-x="592" 
d="M87 0v690h101v-88h156q100 0 162 -54.5t62 -151.5q0 -93 -62.5 -144.5t-161.5 -51.5h-156v-200h-101zM188 294h156q60 0 91.5 27t31.5 78t-31.5 79.5t-91.5 28.5h-156v-213z" />
    <glyph glyph-name="germandbls" unicode="&#xdf;" horiz-adv-x="561" 
d="M349 -9q-40 0 -90 15v103q45 -24 87 -24q34 0 54 19t20 48q0 28 -22.5 54t-49 44.5t-49 51.5t-22.5 73q0 35 16.5 58.5t36 33.5t36 27.5t16.5 41.5q0 32 -25 54t-72 22q-53 0 -82 -29.5t-29 -77.5v-505h-102v506q0 89 59.5 141.5t144.5 52.5q83 0 146.5 -48t63.5 -125
q0 -33 -17 -57t-38 -35.5t-38 -28t-17 -36.5q0 -19 15.5 -35.5t37.5 -32t44.5 -33.5t38 -48t15.5 -68q0 -71 -50.5 -116.5t-127.5 -45.5z" />
    <glyph glyph-name="agrave" unicode="&#xe0;" horiz-adv-x="539" 
d="M307 571h-84l-144 119h120zM265 522q93 0 153.5 -42t60.5 -121v-359h-95v62q-33 -32 -82.5 -52.5t-91.5 -20.5q-77 0 -123 39t-46 106q0 91 94 137q21 10 51.5 21t54 17.5t71.5 20t72 20.5q-1 86 -114 86q-90 0 -143 -68l-74 51q78 103 212 103zM217 79q98 0 167 85v106
q-145 -47 -179 -63q-54 -25 -54 -68q0 -28 18.5 -44t47.5 -16z" />
    <glyph glyph-name="aacute" unicode="&#xe1;" horiz-adv-x="539" 
d="M455 690l-151 -118h-77l109 118h119zM265 522q93 0 153.5 -42t60.5 -121v-359h-95v62q-33 -32 -82.5 -52.5t-91.5 -20.5q-77 0 -123 39t-46 106q0 91 94 137q21 10 51.5 21t54 17.5t71.5 20t72 20.5q-1 86 -114 86q-90 0 -143 -68l-74 51q78 103 212 103zM217 79
q98 0 167 85v106q-145 -47 -179 -63q-54 -25 -54 -68q0 -28 18.5 -44t47.5 -16z" />
    <glyph glyph-name="acircumflex" unicode="&#xe2;" horiz-adv-x="539" 
d="M266 631l-62 -72h-84l123 131h45l124 -131h-84zM265 522q93 0 153.5 -42t60.5 -121v-359h-95v62q-33 -32 -82.5 -52.5t-91.5 -20.5q-77 0 -123 39t-46 106q0 91 94 137q21 10 51.5 21t54 17.5t71.5 20t72 20.5q-1 86 -114 86q-90 0 -143 -68l-74 51q78 103 212 103z
M217 79q98 0 167 85v106q-145 -47 -179 -63q-54 -25 -54 -68q0 -28 18.5 -44t47.5 -16z" />
    <glyph glyph-name="atilde" unicode="&#xe3;" horiz-adv-x="539" 
d="M194 632q-43 0 -43 -62h-62q0 120 97 120q35 0 61.5 -17t47.5 -34t41 -17q44 0 44 68h64q0 -62 -26.5 -94t-74.5 -32q-34 0 -60.5 17t-47.5 34t-41 17zM265 522q93 0 153.5 -42t60.5 -121v-359h-95v62q-33 -32 -82.5 -52.5t-91.5 -20.5q-77 0 -123 39t-46 106
q0 91 94 137q21 10 51.5 21t54 17.5t71.5 20t72 20.5q-1 86 -114 86q-90 0 -143 -68l-74 51q78 103 212 103zM217 79q98 0 167 85v106q-145 -47 -179 -63q-54 -25 -54 -68q0 -28 18.5 -44t47.5 -16z" />
    <glyph glyph-name="adieresis" unicode="&#xe4;" horiz-adv-x="539" 
d="M227 690v-104h-92v104h92zM397 690v-104h-92v104h92zM265 522q93 0 153.5 -42t60.5 -121v-359h-95v62q-33 -32 -82.5 -52.5t-91.5 -20.5q-77 0 -123 39t-46 106q0 91 94 137q21 10 51.5 21t54 17.5t71.5 20t72 20.5q-1 86 -114 86q-90 0 -143 -68l-74 51q78 103 212 103z
M217 79q98 0 167 85v106q-145 -47 -179 -63q-54 -25 -54 -68q0 -28 18.5 -44t47.5 -16z" />
    <glyph glyph-name="aring" unicode="&#xe5;" horiz-adv-x="539" 
d="M265 554q-43 0 -72 30t-29 73q0 42 29 71.5t72 29.5q42 0 72.5 -29.5t30.5 -71.5q0 -43 -30 -73t-73 -30zM265 708q-23 0 -37 -14t-14 -37t14.5 -38t36.5 -15q23 0 38 15t15 38q0 22 -14.5 36.5t-38.5 14.5zM265 522q93 0 153.5 -42t60.5 -121v-359h-95v62
q-33 -32 -82.5 -52.5t-91.5 -20.5q-77 0 -123 39t-46 106q0 91 94 137q21 10 51.5 21t54 17.5t71.5 20t72 20.5q-1 86 -114 86q-90 0 -143 -68l-74 51q78 103 212 103zM217 79q98 0 167 85v106q-145 -47 -179 -63q-54 -25 -54 -68q0 -28 18.5 -44t47.5 -16z" />
    <glyph glyph-name="ae" unicode="&#xe6;" horiz-adv-x="886" 
d="M830 226h-351v-9q14 -137 146 -137q71 0 126 49l67 -59q-83 -80 -195 -80q-145 0 -210 111q-70 -112 -202 -112q-78 0 -124 39t-46 107q0 90 94 136q73 36 248 63q0 3 2 7v8q0 87 -107 87q-98 0 -157 -74l-71 53q37 50 95 78t129 28q116 0 171 -65q63 66 165 66
q109 0 166 -74t57 -183q0 -27 -3 -39zM608 433q-55 0 -88.5 -32.5t-40.5 -92.5v-2l251 -1q-3 57 -34 92.5t-88 35.5zM239 74q48 0 89 26.5t53 83.5q-7 31 -7 69v7q-127 -22 -178 -50q-44 -26 -44 -68q0 -32 23.5 -50t63.5 -18z" />
    <glyph glyph-name="ccedilla" unicode="&#xe7;" horiz-adv-x="514" 
d="M279 75q47 0 80 24.5t45 66.5l84 -31q-40 -120 -158 -141l-36 -54q44 -12 67 -32t23 -53q0 -44 -30 -71.5t-70 -27.5q-35 0 -61.5 18t-37.5 47l53 26q3 -15 14.5 -25t27.5 -10q17 0 28.5 11.5t12.5 29.5q3 30 -38 44l-66 20l39 73q-104 7 -161 82.5t-57 182.5
q0 115 62.5 191t176.5 76q159 0 214 -143l-88 -34q-12 43 -45 67.5t-79 24.5q-68 0 -102.5 -54t-34.5 -129q0 -74 34.5 -126.5t102.5 -52.5z" />
    <glyph glyph-name="egrave" unicode="&#xe8;" horiz-adv-x="536" 
d="M313 571h-84l-144 119h120zM497 265q0 -27 -3 -39h-352q11 -146 147 -146q71 0 126 49l67 -59q-83 -80 -195 -80q-117 0 -183 74t-66 189t62 192t174 77q109 0 166 -74t57 -183zM272 433q-55 0 -89 -33t-41 -94l252 -1q-3 57 -34 92.5t-88 35.5z" />
    <glyph glyph-name="eacute" unicode="&#xe9;" horiz-adv-x="536" 
d="M461 690l-151 -118h-77l109 118h119zM497 265q0 -27 -3 -39h-352q11 -146 147 -146q71 0 126 49l67 -59q-83 -80 -195 -80q-117 0 -183 74t-66 189t62 192t174 77q109 0 166 -74t57 -183zM272 433q-55 0 -89 -33t-41 -94l252 -1q-3 57 -34 92.5t-88 35.5z" />
    <glyph glyph-name="ecircumflex" unicode="&#xea;" horiz-adv-x="536" 
d="M272 631l-62 -72h-84l123 131h45l124 -131h-84zM497 265q0 -27 -3 -39h-352q11 -146 147 -146q71 0 126 49l67 -59q-83 -80 -195 -80q-117 0 -183 74t-66 189t62 192t174 77q109 0 166 -74t57 -183zM272 433q-55 0 -89 -33t-41 -94l252 -1q-3 57 -34 92.5t-88 35.5z" />
    <glyph glyph-name="edieresis" unicode="&#xeb;" horiz-adv-x="536" 
d="M233 690v-104h-92v104h92zM403 690v-104h-92v104h92zM497 265q0 -27 -3 -39h-352q11 -146 147 -146q71 0 126 49l67 -59q-83 -80 -195 -80q-117 0 -183 74t-66 189t62 192t174 77q109 0 166 -74t57 -183zM272 433q-55 0 -89 -33t-41 -94l252 -1q-3 57 -34 92.5t-88 35.5z
" />
    <glyph glyph-name="igrave" unicode="&#xec;" horiz-adv-x="256" 
d="M85 571l-144 119h120l108 -119h-84zM76 0v512h104v-512h-104z" />
    <glyph glyph-name="iacute" unicode="&#xed;" horiz-adv-x="256" 
d="M89 572l109 118h119l-151 -118h-77zM76 0v512h104v-512h-104z" />
    <glyph glyph-name="icircumflex" unicode="&#xee;" horiz-adv-x="256" 
d="M-18 559l123 131h45l124 -131h-84l-62 72l-62 -72h-84zM76 0v512h104v-512h-104z" />
    <glyph glyph-name="idieresis" unicode="&#xef;" horiz-adv-x="256" 
d="M-3 586v104h92v-104h-92zM167 586v104h92v-104h-92zM76 0v512h104v-512h-104z" />
    <glyph glyph-name="eth" unicode="&#xf0;" horiz-adv-x="557" 
d="M304 682q116 -68 166 -171t50 -259q0 -107 -65.5 -183.5t-175.5 -76.5q-112 0 -177.5 76t-65.5 184q0 107 64.5 183.5t171.5 76.5q40 0 76 -16t52 -39q-30 96 -140 157l-41 -63l-44 27l40 59q-15 7 -76 31l39 72q49 -18 83 -35l41 62l41 -25zM279 82q65 0 99 49t34 121
q0 73 -34.5 121.5t-98.5 48.5q-66 0 -100.5 -49t-34.5 -121t34.5 -121t100.5 -49z" />
    <glyph glyph-name="ntilde" unicode="&#xf1;" horiz-adv-x="576" 
d="M360 566q-34 0 -60.5 17t-47.5 34t-41 17q-43 0 -43 -62h-62q0 120 97 120q35 0 61.5 -17t47.5 -34t41 -17q44 0 44 68h64q0 -62 -26.5 -94t-74.5 -32zM75 0v512h103v-72h5q52 82 152 82q79 0 126 -50.5t47 -136.5v-335h-104v319q0 114 -97 114q-57 0 -92.5 -36
t-35.5 -95v-302h-104z" />
    <glyph glyph-name="ograve" unicode="&#xf2;" horiz-adv-x="574" 
d="M244 571l-144 119h120l108 -119h-84zM287 -11q-111 0 -180 69.5t-69 195.5q0 128 69 198t180 70t180 -70t69 -198q0 -126 -69 -195.5t-180 -69.5zM288 79q68 0 107 43.5t39 131.5q0 90 -39 134t-107 44t-106.5 -44t-38.5 -134q0 -88 38.5 -131.5t106.5 -43.5z" />
    <glyph glyph-name="oacute" unicode="&#xf3;" horiz-adv-x="574" 
d="M248 572l109 118h119l-151 -118h-77zM287 -11q-111 0 -180 69.5t-69 195.5q0 128 69 198t180 70t180 -70t69 -198q0 -126 -69 -195.5t-180 -69.5zM288 79q68 0 107 43.5t39 131.5q0 90 -39 134t-107 44t-106.5 -44t-38.5 -134q0 -88 38.5 -131.5t106.5 -43.5z" />
    <glyph glyph-name="ocircumflex" unicode="&#xf4;" horiz-adv-x="574" 
d="M141 559l123 131h45l124 -131h-84l-62 72l-62 -72h-84zM287 -11q-111 0 -180 69.5t-69 195.5q0 128 69 198t180 70t180 -70t69 -198q0 -126 -69 -195.5t-180 -69.5zM288 79q68 0 107 43.5t39 131.5q0 90 -39 134t-107 44t-106.5 -44t-38.5 -134q0 -88 38.5 -131.5
t106.5 -43.5z" />
    <glyph glyph-name="otilde" unicode="&#xf5;" horiz-adv-x="574" 
d="M364 564q-34 0 -60.5 17t-47.5 34t-41 17q-43 0 -43 -62h-62q0 120 97 120q35 0 61.5 -17t47.5 -34t41 -17q44 0 44 68h64q0 -62 -26.5 -94t-74.5 -32zM287 -11q-111 0 -180 69.5t-69 195.5q0 128 69 198t180 70t180 -70t69 -198q0 -126 -69 -195.5t-180 -69.5zM288 79
q68 0 107 43.5t39 131.5q0 90 -39 134t-107 44t-106.5 -44t-38.5 -134q0 -88 38.5 -131.5t106.5 -43.5z" />
    <glyph glyph-name="odieresis" unicode="&#xf6;" horiz-adv-x="574" 
d="M156 586v104h92v-104h-92zM326 586v104h92v-104h-92zM287 -11q-111 0 -180 69.5t-69 195.5q0 128 69 198t180 70t180 -70t69 -198q0 -126 -69 -195.5t-180 -69.5zM288 79q68 0 107 43.5t39 131.5q0 90 -39 134t-107 44t-106.5 -44t-38.5 -134q0 -88 38.5 -131.5
t106.5 -43.5z" />
    <glyph glyph-name="divide" unicode="&#xf7;" horiz-adv-x="602" 
d="M242 425v118h118v-118h-118zM66 234v79h471v-79h-471zM242 -3v117h118v-117h-118z" />
    <glyph glyph-name="oslash" unicode="&#xf8;" horiz-adv-x="574" 
d="M492 419q44 -66 44 -165q0 -126 -69 -195.5t-180 -69.5q-101 0 -167 58l-21 -21l-42 43l23 23q-42 68 -42 162q0 128 69 198t180 70q100 0 166 -57l21 20l42 -42zM143 254q0 -53 13 -86l230 229q-36 35 -98 35q-68 0 -106.5 -44t-38.5 -134zM288 79q68 0 107 43.5
t39 131.5q0 54 -15 92l-231 -231q39 -36 100 -36z" />
    <glyph glyph-name="ugrave" unicode="&#xf9;" horiz-adv-x="579" 
d="M245 571l-144 119h120l108 -119h-84zM504 512v-512h-103v72h-8q-49 -82 -149 -82q-81 0 -127 51.5t-46 136.5v334h104v-314q0 -55 26 -83t74 -28q56 0 90.5 36t34.5 92v297h104z" />
    <glyph glyph-name="uacute" unicode="&#xfa;" horiz-adv-x="579" 
d="M248 572l109 118h119l-151 -118h-77zM504 512v-512h-103v72h-8q-49 -82 -149 -82q-81 0 -127 51.5t-46 136.5v334h104v-314q0 -55 26 -83t74 -28q56 0 90.5 36t34.5 92v297h104z" />
    <glyph glyph-name="ucircumflex" unicode="&#xfb;" horiz-adv-x="579" 
d="M141 559l123 131h45l124 -131h-84l-62 72l-62 -72h-84zM504 512v-512h-103v72h-8q-49 -82 -149 -82q-81 0 -127 51.5t-46 136.5v334h104v-314q0 -55 26 -83t74 -28q56 0 90.5 36t34.5 92v297h104z" />
    <glyph glyph-name="udieresis" unicode="&#xfc;" horiz-adv-x="579" 
d="M156 586v104h92v-104h-92zM326 586v104h92v-104h-92zM504 512v-512h-103v72h-8q-49 -82 -149 -82q-81 0 -127 51.5t-46 136.5v334h104v-314q0 -55 26 -83t74 -28q56 0 90.5 36t34.5 92v297h104z" />
    <glyph glyph-name="yacute" unicode="&#xfd;" horiz-adv-x="474" 
d="M200 572l109 118h119l-151 -118h-77zM34 -178v84q49 0 82.5 16.5t46 35t25.5 48.5l-182 506h112l104 -322q15 -41 15 -74h6q0 29 14 75l103 321h113l-191 -531q-35 -98 -91 -128.5t-157 -30.5z" />
    <glyph glyph-name="thorn" unicode="&#xfe;" horiz-adv-x="590" 
d="M75 -178v868h105v-261h4q61 69 157 69q97 0 154 -71.5t57 -182.5t-57 -182.5t-154 -71.5q-102 0 -158 68h-4v-236h-104zM312 77q69 0 104.5 47t35.5 123t-35.5 123.5t-104.5 47.5q-67 0 -102.5 -48t-35.5 -123t35.5 -122.5t102.5 -47.5z" />
    <glyph glyph-name="ydieresis" unicode="&#xff;" horiz-adv-x="474" 
d="M108 586v104h92v-104h-92zM278 586v104h92v-104h-92zM34 -178v84q49 0 82.5 16.5t46 35t25.5 48.5l-182 506h112l104 -322q15 -41 15 -74h6q0 29 14 75l103 321h113l-191 -531q-35 -98 -91 -128.5t-157 -30.5z" />
    <glyph glyph-name="Amacron" unicode="&#x100;" horiz-adv-x="617" 
d="M446 841v-61h-270v61h270zM499 0l-50 155h-280l-50 -155h-116l234 690h145l233 -690h-116zM197 244h224l-100 314q-9 33 -10 41h-3q0 -10 -11 -41z" />
    <glyph glyph-name="amacron" unicode="&#x101;" horiz-adv-x="539" 
d="M402 664v-61h-270v61h270zM265 522q93 0 153.5 -42t60.5 -121v-359h-95v62q-33 -32 -82.5 -52.5t-91.5 -20.5q-77 0 -123 39t-46 106q0 91 94 137q21 10 51.5 21t54 17.5t71.5 20t72 20.5q-1 86 -114 86q-90 0 -143 -68l-74 51q78 103 212 103zM217 79q98 0 167 85v106
q-145 -47 -179 -63q-54 -25 -54 -68q0 -28 18.5 -44t47.5 -16z" />
    <glyph glyph-name="Abreve" unicode="&#x102;" horiz-adv-x="617" 
d="M310 735q-68 0 -110 35t-42 97h74q0 -33 22 -51.5t56 -18.5t55.5 19t21.5 51h75q0 -63 -42 -97.5t-110 -34.5zM499 0l-50 155h-280l-50 -155h-116l234 690h145l233 -690h-116zM197 244h224l-100 314q-9 33 -10 41h-3q0 -10 -11 -41z" />
    <glyph glyph-name="abreve" unicode="&#x103;" horiz-adv-x="539" 
d="M266 558q-68 0 -110 35t-42 97h74q0 -33 22 -51.5t56 -18.5t55.5 19t21.5 51h75q0 -63 -42 -97.5t-110 -34.5zM265 522q93 0 153.5 -42t60.5 -121v-359h-95v62q-33 -32 -82.5 -52.5t-91.5 -20.5q-77 0 -123 39t-46 106q0 91 94 137q21 10 51.5 21t54 17.5t71.5 20
t72 20.5q-1 86 -114 86q-90 0 -143 -68l-74 51q78 103 212 103zM217 79q98 0 167 85v106q-145 -47 -179 -63q-54 -25 -54 -68q0 -28 18.5 -44t47.5 -16z" />
    <glyph glyph-name="Aogonek" unicode="&#x104;" horiz-adv-x="617" 
d="M629 -130l54 -36q-38 -58 -103 -58q-46 0 -76.5 26.5t-30.5 74.5q0 72 74 123h-48l-50 155h-280l-50 -155h-116l234 690h145l233 -690q-41 -35 -60 -59.5t-19 -52.5q0 -24 13 -36.5t32 -10.5q28 2 48 29zM197 244h224l-100 314q-9 33 -10 41h-3q0 -10 -11 -41z" />
    <glyph glyph-name="aogonek" unicode="&#x105;" horiz-adv-x="539" 
d="M493 -130l54 -36q-38 -58 -103 -58q-46 0 -76.5 26.5t-30.5 74.5q0 72 74 123h-27v62q-33 -32 -82.5 -52.5t-91.5 -20.5q-77 0 -123 39t-46 106q0 91 94 137q21 10 51.5 21t54 17.5t71.5 20t72 20.5q-1 86 -114 86q-90 0 -143 -68l-74 51q78 103 212 103q93 0 153.5 -42
t60.5 -121v-359q-41 -35 -60 -59.5t-19 -52.5q0 -24 13 -36.5t32 -10.5q28 2 48 29zM217 79q98 0 167 85v106q-145 -47 -179 -63q-54 -25 -54 -68q0 -28 18.5 -44t47.5 -16z" />
    <glyph glyph-name="Cacute" unicode="&#x106;" horiz-adv-x="656" 
d="M297 749l109 118h119l-151 -118h-77zM351 -10q-149 0 -231.5 98t-82.5 257t82.5 257.5t230.5 98.5q100 0 174.5 -51t105.5 -142l-98 -40q-18 64 -66 100t-117 36q-95 0 -150 -68.5t-55 -186.5q0 -120 56.5 -191t149.5 -71q64 0 112.5 36.5t71.5 101.5l97 -41
q-31 -91 -106 -142.5t-174 -51.5z" />
    <glyph glyph-name="cacute" unicode="&#x107;" horiz-adv-x="514" 
d="M224 572l109 118h119l-151 -118h-77zM278 -11q-115 0 -177.5 76.5t-62.5 189.5q0 115 62.5 191t176.5 76q159 0 214 -143l-88 -34q-12 43 -45 67.5t-79 24.5q-68 0 -102.5 -54t-34.5 -129q0 -74 34.5 -126.5t102.5 -52.5q47 0 80 24.5t45 66.5l84 -31q-50 -146 -210 -146
z" />
    <glyph glyph-name="Cdotaccent" unicode="&#x10a;" horiz-adv-x="656" 
d="M292 765v102h88v-102h-88zM351 -10q-149 0 -231.5 98t-82.5 257t82.5 257.5t230.5 98.5q100 0 174.5 -51t105.5 -142l-98 -40q-18 64 -66 100t-117 36q-95 0 -150 -68.5t-55 -186.5q0 -120 56.5 -191t149.5 -71q64 0 112.5 36.5t71.5 101.5l97 -41q-31 -91 -106 -142.5
t-174 -51.5z" />
    <glyph glyph-name="cdotaccent" unicode="&#x10b;" horiz-adv-x="514" 
d="M218 588v102h88v-102h-88zM278 -11q-115 0 -177.5 76.5t-62.5 189.5q0 115 62.5 191t176.5 76q159 0 214 -143l-88 -34q-12 43 -45 67.5t-79 24.5q-68 0 -102.5 -54t-34.5 -129q0 -74 34.5 -126.5t102.5 -52.5q47 0 80 24.5t45 66.5l84 -31q-50 -146 -210 -146z" />
    <glyph glyph-name="Ccaron" unicode="&#x10c;" horiz-adv-x="656" 
d="M313 737l-122 130h83l62 -69l62 69h84l-124 -130h-45zM351 -10q-149 0 -231.5 98t-82.5 257t82.5 257.5t230.5 98.5q100 0 174.5 -51t105.5 -142l-98 -40q-18 64 -66 100t-117 36q-95 0 -150 -68.5t-55 -186.5q0 -120 56.5 -191t149.5 -71q64 0 112.5 36.5t71.5 101.5
l97 -41q-31 -91 -106 -142.5t-174 -51.5z" />
    <glyph glyph-name="ccaron" unicode="&#x10d;" horiz-adv-x="514" 
d="M239 560l-122 130h83l62 -69l62 69h84l-124 -130h-45zM278 -11q-115 0 -177.5 76.5t-62.5 189.5q0 115 62.5 191t176.5 76q159 0 214 -143l-88 -34q-12 43 -45 67.5t-79 24.5q-68 0 -102.5 -54t-34.5 -129q0 -74 34.5 -126.5t102.5 -52.5q47 0 80 24.5t45 66.5l84 -31
q-50 -146 -210 -146z" />
    <glyph glyph-name="Dcaron" unicode="&#x10e;" horiz-adv-x="671" 
d="M304 737l-122 130h83l62 -69l62 69h84l-124 -130h-45zM87 0v690h192q173 0 264 -90t91 -258q0 -164 -92.5 -253t-263.5 -89h-191zM195 98h71q259 0 259 248q0 246 -248 246h-82v-494z" />
    <glyph glyph-name="dcaron" unicode="&#x10f;" horiz-adv-x="643" 
d="M429 445v245h104v-690h-102v65h-3q-58 -76 -167 -76q-108 0 -165.5 73.5t-57.5 193.5t57 193t165 73q107 0 168 -77h1zM590 689h116v-109l-62 -130h-51l39 130h-42v109zM291 79q66 0 104 47.5t38 130.5q0 80 -38.5 127t-103.5 47q-73 0 -110.5 -45t-37.5 -129
q0 -178 148 -178z" />
    <glyph glyph-name="Dcroat" unicode="&#x110;" horiz-adv-x="662" 
d="M77 0v310h-58v76h58v304h189q173 0 265.5 -90.5t92.5 -259.5q0 -163 -94 -251.5t-265 -88.5h-188zM179 95h74q124 0 196 61.5t72 188.5q0 251 -257 251h-85v-210h176v-76h-176v-215z" />
    <glyph glyph-name="dcroat" unicode="&#x111;" horiz-adv-x="608" 
d="M615 645v-53h-82v-592h-102v65h-3q-58 -76 -167 -76q-108 0 -165.5 73.5t-57.5 193.5t57 193t165 73q107 0 168 -77h1v147h-130v53h130v45h104v-45h82zM291 79q66 0 104 47.5t38 130.5q0 80 -38.5 127t-103.5 47q-73 0 -110.5 -45t-37.5 -129q0 -178 148 -178z" />
    <glyph glyph-name="Emacron" unicode="&#x112;" horiz-adv-x="592" 
d="M181 780v61h270v-61h-270zM87 0v690h455v-94h-347v-204h312v-94h-312v-204h347v-94h-455z" />
    <glyph glyph-name="emacron" unicode="&#x113;" horiz-adv-x="536" 
d="M408 664v-61h-270v61h270zM497 265q0 -27 -3 -39h-352q11 -146 147 -146q71 0 126 49l67 -59q-83 -80 -195 -80q-117 0 -183 74t-66 189t62 192t174 77q109 0 166 -74t57 -183zM272 433q-55 0 -89 -33t-41 -94l252 -1q-3 57 -34 92.5t-88 35.5z" />
    <glyph glyph-name="Edotaccent" unicode="&#x116;" horiz-adv-x="592" 
d="M271 765v102h88v-102h-88zM87 0v690h455v-94h-347v-204h312v-94h-312v-204h347v-94h-455z" />
    <glyph glyph-name="edotaccent" unicode="&#x117;" horiz-adv-x="536" 
d="M316 690v-102h-88v102h88zM497 265q0 -27 -3 -39h-352q11 -146 147 -146q71 0 126 49l67 -59q-83 -80 -195 -80q-117 0 -183 74t-66 189t62 192t174 77q109 0 166 -74t57 -183zM272 433q-55 0 -89 -33t-41 -94l252 -1q-3 57 -34 92.5t-88 35.5z" />
    <glyph glyph-name="Eogonek" unicode="&#x118;" horiz-adv-x="592" 
d="M556 -130l54 -36q-38 -58 -103 -58q-46 0 -76.5 26.5t-30.5 74.5q0 72 74 123h-387v690h455v-94h-347v-204h312v-94h-312v-204h347v-94q-41 -35 -60 -59.5t-19 -52.5q0 -24 13 -36.5t32 -10.5q28 2 48 29z" />
    <glyph glyph-name="eogonek" unicode="&#x119;" horiz-adv-x="536" 
d="M496 -60l54 -36q-38 -58 -103 -58q-46 0 -76.5 26.5t-30.5 74.5q0 24 10 49q-30 -6 -63 -6q-117 0 -183 74t-66 189t62 192t174 77q109 0 166 -74t57 -183q0 -27 -3 -39h-352q11 -146 147 -146q71 0 126 49l67 -59q-1 -1 -25 -22q-54 -51 -54 -90q0 -24 13 -36.5
t32 -10.5q28 2 48 29zM272 433q-55 0 -89 -33t-41 -94l252 -1q-3 57 -34 92.5t-88 35.5z" />
    <glyph glyph-name="Ecaron" unicode="&#x11a;" horiz-adv-x="592" 
d="M292 737l-122 130h83l62 -69l62 69h84l-124 -130h-45zM87 0v690h455v-94h-347v-204h312v-94h-312v-204h347v-94h-455z" />
    <glyph glyph-name="ecaron" unicode="&#x11b;" horiz-adv-x="536" 
d="M294 560h-45l-122 130h83l62 -69l62 69h84zM497 265q0 -27 -3 -39h-352q11 -146 147 -146q71 0 126 49l67 -59q-83 -80 -195 -80q-117 0 -183 74t-66 189t62 192t174 77q109 0 166 -74t57 -183zM272 433q-55 0 -89 -33t-41 -94l252 -1q-3 57 -34 92.5t-88 35.5z" />
    <glyph glyph-name="Gbreve" unicode="&#x11e;" horiz-adv-x="729" 
d="M356 735q-68 0 -110 35t-42 97h74q0 -33 22 -51.5t56 -18.5t55.5 19t21.5 51h75q0 -63 -42 -97.5t-110 -34.5zM400 365h255v-365h-88l-3 108q-30 -51 -89 -84.5t-135 -33.5q-142 0 -222.5 102t-80.5 256q0 152 84 252.5t239 100.5q103 0 175.5 -49.5t109.5 -138.5
l-95 -38q-56 130 -192 130q-107 0 -160 -72.5t-53 -184.5q0 -113 53 -186.5t157 -73.5q87 0 141.5 51.5t56.5 136.5h-153v89z" />
    <glyph glyph-name="gbreve" unicode="&#x11f;" horiz-adv-x="612" 
d="M287 558q-68 0 -110 35t-42 97h74q0 -33 22 -51.5t56 -18.5t55.5 19t21.5 51h75q0 -63 -42 -97.5t-110 -34.5zM295 -188q-180 0 -240 104l58 55q25 -41 73 -60t100 -19q66 0 104.5 32.5t38.5 88.5v71q-52 -74 -165 -74q-106 0 -166 71.5t-60 186.5q0 114 60.5 184
t169.5 70q105 0 158 -73h2v63h105v-496q0 -101 -66 -152.5t-172 -51.5zM292 95q72 0 107.5 44.5t35.5 119.5q0 76 -36 126.5t-110 50.5q-71 0 -108 -48t-37 -123t37 -122.5t111 -47.5z" />
    <glyph glyph-name="Gdotaccent" unicode="&#x120;" horiz-adv-x="729" 
d="M399 867v-102h-88v102h88zM400 365h255v-365h-88l-3 108q-30 -51 -89 -84.5t-135 -33.5q-142 0 -222.5 102t-80.5 256q0 152 84 252.5t239 100.5q103 0 175.5 -49.5t109.5 -138.5l-95 -38q-56 130 -192 130q-107 0 -160 -72.5t-53 -184.5q0 -113 53 -186.5t157 -73.5
q87 0 141.5 51.5t56.5 136.5h-153v89z" />
    <glyph glyph-name="gdotaccent" unicode="&#x121;" horiz-adv-x="612" 
d="M242 588v102h88v-102h-88zM295 -188q-180 0 -240 104l58 55q25 -41 73 -60t100 -19q66 0 104.5 32.5t38.5 88.5v71q-52 -74 -165 -74q-106 0 -166 71.5t-60 186.5q0 114 60.5 184t169.5 70q105 0 158 -73h2v63h105v-496q0 -101 -66 -152.5t-172 -51.5zM292 95
q72 0 107.5 44.5t35.5 119.5q0 76 -36 126.5t-110 50.5q-71 0 -108 -48t-37 -123t37 -122.5t111 -47.5z" />
    <glyph glyph-name="Gcommaaccent" unicode="&#x122;" horiz-adv-x="729" 
d="M400 365h255v-365h-88l-3 108q-30 -51 -89 -84.5t-135 -33.5q-142 0 -222.5 102t-80.5 256q0 152 84 252.5t239 100.5q103 0 175.5 -49.5t109.5 -138.5l-95 -38q-56 130 -192 130q-107 0 -160 -72.5t-53 -184.5q0 -113 53 -186.5t157 -73.5q87 0 141.5 51.5t56.5 136.5
h-153v89zM238 -215l63 147h115l-117 -147h-61z" />
    <glyph glyph-name="gcommaaccent" unicode="&#x123;" horiz-adv-x="612" 
d="M394 690l-63 -132h-115l117 132h61zM295 -188q-180 0 -240 104l58 55q25 -41 73 -60t100 -19q66 0 104.5 32.5t38.5 88.5v71q-52 -74 -165 -74q-106 0 -166 71.5t-60 186.5q0 114 60.5 184t169.5 70q105 0 158 -73h2v63h105v-496q0 -101 -66 -152.5t-172 -51.5zM292 95
q72 0 107.5 44.5t35.5 119.5q0 76 -36 126.5t-110 50.5q-71 0 -108 -48t-37 -123t37 -122.5t111 -47.5z" />
    <glyph glyph-name="Hbar" unicode="&#x126;" horiz-adv-x="708" 
d="M671 571v-54h-50v-517h-108v297h-318v-297h-108v517h-51v54h51v118h108v-118h318v118h108v-118h50zM513 393v124h-318v-124h318z" />
    <glyph glyph-name="hbar" unicode="&#x127;" horiz-adv-x="576" 
d="M336 522q81 0 126.5 -51t45.5 -136v-335h-104v319q0 114 -99 114q-55 0 -90.5 -37.5t-35.5 -93.5v-302h-104v572h-79v53h79v65h104v-65h133v-53h-133v-132h5q51 82 152 82z" />
    <glyph glyph-name="Itilde" unicode="&#x128;" horiz-adv-x="282" 
d="M217 742q-34 0 -60.5 17t-47.5 34t-41 17q-43 0 -43 -62h-62q0 120 97 120q35 0 61.5 -17t47.5 -34t41 -17q44 0 44 68h64q0 -62 -26.5 -94t-74.5 -32zM87 0v690h108v-690h-108z" />
    <glyph glyph-name="itilde" unicode="&#x129;" horiz-adv-x="256" 
d="M205 564q-34 0 -60.5 17t-47.5 34t-41 17q-43 0 -43 -62h-62q0 120 97 120q35 0 61.5 -17t47.5 -34t41 -17q44 0 44 68h64q0 -62 -26.5 -94t-74.5 -32zM76 0v512h104v-512h-104z" />
    <glyph glyph-name="Imacron" unicode="&#x12a;" horiz-adv-x="282" 
d="M7 780v61h270v-61h-270zM87 0v690h108v-690h-108z" />
    <glyph glyph-name="imacron" unicode="&#x12b;" horiz-adv-x="256" 
d="M-6 603v61h270v-61h-270zM76 0v512h104v-512h-104z" />
    <glyph glyph-name="Iogonek" unicode="&#x12e;" horiz-adv-x="282" 
d="M209 -130l54 -36q-38 -58 -103 -58q-46 0 -76.5 26.5t-30.5 74.5q0 72 74 123h-40v690h108v-690q-41 -35 -60 -59.5t-19 -52.5q0 -24 13 -36.5t32 -10.5q28 2 48 29z" />
    <glyph glyph-name="iogonek" unicode="&#x12f;" horiz-adv-x="262" 
d="M187 690v-103h-112v103h112zM192 -130l54 -36q-38 -58 -103 -58q-46 0 -76.5 26.5t-30.5 74.5q0 72 74 123h-31v512h104v-512h-5q-41 -35 -60 -59.5t-19 -52.5q0 -24 13 -36.5t32 -10.5q28 2 48 29z" />
    <glyph glyph-name="Idotaccent" unicode="&#x130;" horiz-adv-x="282" 
d="M96 765v102h88v-102h-88zM87 0v690h108v-690h-108z" />
    <glyph glyph-name="dotlessi" unicode="&#x131;" horiz-adv-x="256" 
d="M76 0v512h104v-512h-104z" />
    <glyph glyph-name="Kcommaaccent" unicode="&#x136;" horiz-adv-x="650" 
d="M341 390l306 -390h-139l-236 315l-77 -82v-233h-108v689h108v-322l287 322h137zM227 -215l63 147h115l-117 -147h-61z" />
    <glyph glyph-name="kcommaaccent" unicode="&#x137;" horiz-adv-x="536" 
d="M312 307l235 -307h-125l-177 242l-66 -64v-178h-104v690h104v-389l215 211h127zM174 -215l63 147h115l-117 -147h-61z" />
    <glyph glyph-name="kgreenlandic" unicode="&#x138;" horiz-adv-x="536" 
d="M419 0l-176 240l-64 -62v-178h-104v512h104v-211l211 211h131l-209 -205l235 -307h-128z" />
    <glyph glyph-name="Lacute" unicode="&#x139;" horiz-adv-x="499" 
d="M106 750l109 118h119l-151 -118h-77zM87 0v690h108v-596h295v-94h-403z" />
    <glyph glyph-name="lacute" unicode="&#x13a;" horiz-adv-x="257" 
d="M89 750l109 118h119l-151 -118h-77zM76 0v690h105v-690h-105z" />
    <glyph glyph-name="Lcommaaccent" unicode="&#x13b;" horiz-adv-x="499" 
d="M87 0v690h108v-596h295v-94h-403zM150 -215l63 147h115l-117 -147h-61z" />
    <glyph glyph-name="lcommaaccent" unicode="&#x13c;" horiz-adv-x="257" 
d="M76 0v690h105v-690h-105zM7 -215l63 147h115l-117 -147h-61z" />
    <glyph glyph-name="Lcaron" unicode="&#x13d;" horiz-adv-x="499" 
d="M363 691h129v-121l-69 -144h-56l43 144h-47v121zM195 690v-596h295v-94h-403v690h108z" />
    <glyph glyph-name="lcaron" unicode="&#x13e;" horiz-adv-x="331" 
d="M76 0v690h105v-690h-105zM245 690h129v-121l-69 -144h-56l43 144h-47v121z" />
    <glyph glyph-name="Lslash" unicode="&#x141;" horiz-adv-x="499" 
d="M195 94h295v-94h-403v232l-89 -66v78l89 67v379h108v-296l100 76v-82l-100 -74v-220z" />
    <glyph glyph-name="lslash" unicode="&#x142;" horiz-adv-x="257" 
d="M282 512v-84l-101 -76v-352h-105v274l-97 -73v80l97 74v335h105v-255z" />
    <glyph glyph-name="Nacute" unicode="&#x143;" horiz-adv-x="740" 
d="M331 749l109 118h119l-151 -118h-77zM87 0v690h131l295 -495q23 -41 27 -53h4v548h109v-690h-133l-292 491q-22 35 -29 63h-4v-554h-108z" />
    <glyph glyph-name="nacute" unicode="&#x144;" horiz-adv-x="576" 
d="M245 574l109 118h119l-151 -118h-77zM75 0v512h103v-72h5q52 82 152 82q79 0 126 -50.5t47 -136.5v-335h-104v319q0 114 -97 114q-57 0 -92.5 -36t-35.5 -95v-302h-104z" />
    <glyph glyph-name="Ncommaaccent" unicode="&#x145;" horiz-adv-x="740" 
d="M87 0v690h131l295 -495q23 -41 27 -53h4v548h109v-690h-133l-292 491q-22 35 -29 63h-4v-554h-108zM248 -215l63 147h115l-117 -147h-61z" />
    <glyph glyph-name="ncommaaccent" unicode="&#x146;" horiz-adv-x="576" 
d="M75 0v512h103v-72h5q52 82 152 82q79 0 126 -50.5t47 -136.5v-335h-104v319q0 114 -97 114q-57 0 -92.5 -36t-35.5 -95v-302h-104zM170 -215l63 147h115l-117 -147h-61z" />
    <glyph glyph-name="Ncaron" unicode="&#x147;" horiz-adv-x="740" 
d="M346 737l-122 130h83l62 -69l62 69h84l-124 -130h-45zM87 0v690h131l295 -495q23 -41 27 -53h4v548h109v-690h-133l-292 491q-22 35 -29 63h-4v-554h-108z" />
    <glyph glyph-name="ncaron" unicode="&#x148;" horiz-adv-x="576" 
d="M260 562l-122 130h83l62 -69l62 69h84l-124 -130h-45zM75 0v512h103v-72h5q52 82 152 82q79 0 126 -50.5t47 -136.5v-335h-104v319q0 114 -97 114q-57 0 -92.5 -36t-35.5 -95v-302h-104z" />
    <glyph glyph-name="Eng" unicode="&#x14a;" horiz-adv-x="740" 
d="M544 690h109v-690q0 -69 -31 -105t-122 -36h-47v62h34q17 0 29.5 5.5t18.5 13t9 20t3.5 20t0.5 20.5h-28l-292 491q-22 35 -29 63h-4v-554h-108v690h131l295 -495q23 -41 27 -53h4v548z" />
    <glyph glyph-name="eng" unicode="&#x14b;" horiz-adv-x="578" 
d="M73 0v488h101v-79h7q48 87 154 87q88 0 130 -57.5t42 -143.5v-294q0 -18 -1 -31t-9 -36t-22.5 -37.5t-45 -26t-73.5 -11.5h-53v71h31q70 0 70 72v277q0 53 -24 88t-75 35q-54 0 -91.5 -38.5t-37.5 -94.5v-269h-103z" />
    <glyph glyph-name="Omacron" unicode="&#x14c;" horiz-adv-x="714" 
d="M223 780v61h270v-61h-270zM357 -10q-146 0 -233 96t-87 259t87 259t233 96t233 -96t87 -259t-87 -259t-233 -96zM357 86q95 0 151.5 70t56.5 189t-56.5 189t-151.5 70t-151.5 -70t-56.5 -189t56.5 -189t151.5 -70z" />
    <glyph glyph-name="omacron" unicode="&#x14d;" horiz-adv-x="574" 
d="M153 603v61h270v-61h-270zM287 -11q-111 0 -180 69.5t-69 195.5q0 128 69 198t180 70t180 -70t69 -198q0 -126 -69 -195.5t-180 -69.5zM288 79q68 0 107 43.5t39 131.5q0 90 -39 134t-107 44t-106.5 -44t-38.5 -134q0 -88 38.5 -131.5t106.5 -43.5z" />
    <glyph glyph-name="Ohungarumlaut" unicode="&#x150;" horiz-adv-x="714" 
d="M215 753l102 114h105l-123 -114h-84zM388 753l103 114h114l-134 -114h-83zM357 -10q-146 0 -233 96t-87 259t87 259t233 96t233 -96t87 -259t-87 -259t-233 -96zM357 86q95 0 151.5 70t56.5 189t-56.5 189t-151.5 70t-151.5 -70t-56.5 -189t56.5 -189t151.5 -70z" />
    <glyph glyph-name="ohungarumlaut" unicode="&#x151;" horiz-adv-x="574" 
d="M145 576l102 114h105l-123 -114h-84zM318 576l103 114h114l-134 -114h-83zM287 -11q-111 0 -180 69.5t-69 195.5q0 128 69 198t180 70t180 -70t69 -198q0 -126 -69 -195.5t-180 -69.5zM288 79q68 0 107 43.5t39 131.5q0 90 -39 134t-107 44t-106.5 -44t-38.5 -134
q0 -88 38.5 -131.5t106.5 -43.5z" />
    <glyph glyph-name="OE" unicode="&#x152;" horiz-adv-x="1091" 
d="M1041 596h-347v-204h312v-94h-312v-204h347v-94h-455v82q-86 -92 -229 -92q-146 0 -233 96t-87 259t87 259t233 96q143 0 229 -92v82h455v-94zM357 86q95 0 151.5 70t56.5 189t-56.5 189t-151.5 70t-151.5 -70t-56.5 -189t56.5 -189t151.5 -70z" />
    <glyph glyph-name="oe" unicode="&#x153;" horiz-adv-x="951" 
d="M898 265q0 -27 -3 -39h-352q11 -146 147 -146q71 0 126 49l67 -59q-83 -80 -195 -80q-131 0 -200 95q-67 -96 -201 -96q-111 0 -180 69.5t-69 195.5q0 128 69 198t180 70q134 0 200 -95q64 95 188 95q109 0 166 -74t57 -183zM673 433q-55 0 -89 -33t-41 -94l252 -1
q-3 57 -34 92.5t-88 35.5zM288 79q68 0 107 43.5t39 131.5q0 90 -39 134t-107 44t-106.5 -44t-38.5 -134q0 -88 38.5 -131.5t106.5 -43.5z" />
    <glyph glyph-name="Racute" unicode="&#x154;" horiz-adv-x="660" 
d="M274 749l109 118h119l-151 -118h-77zM87 -1v691h304q99 0 161 -53t62 -143q0 -70 -36.5 -116.5t-101.5 -66.5l165 -312h-122l-147 298h-178v-298h-107zM195 391h206q52 2 79.5 29t27.5 73q0 49 -31 76.5t-86 27.5h-196v-206z" />
    <glyph glyph-name="racute" unicode="&#x155;" horiz-adv-x="383" 
d="M181 572l109 118h119l-151 -118h-77zM75 0v512h103v-81h3q18 42 50 65.5t71 23.5q40 0 63 -9v-89q-33 6 -58 3q-61 -7 -94.5 -58.5t-33.5 -141.5v-225h-104z" />
    <glyph glyph-name="Rcommaaccent" unicode="&#x156;" horiz-adv-x="660" 
d="M87 -1v691h304q99 0 161 -53t62 -143q0 -70 -36.5 -116.5t-101.5 -66.5l165 -312h-122l-147 298h-178v-298h-107zM195 391h206q52 2 79.5 29t27.5 73q0 49 -31 76.5t-86 27.5h-196v-206zM208 -215l63 147h115l-117 -147h-61z" />
    <glyph glyph-name="rcommaaccent" unicode="&#x157;" horiz-adv-x="383" 
d="M75 0v512h103v-81h3q18 42 50 65.5t71 23.5q40 0 63 -9v-89q-33 6 -58 3q-61 -7 -94.5 -58.5t-33.5 -141.5v-225h-104zM5 -215l63 147h115l-117 -147h-61z" />
    <glyph glyph-name="Rcaron" unicode="&#x158;" horiz-adv-x="660" 
d="M290 737l-122 130h83l62 -69l62 69h84l-124 -130h-45zM87 -1v691h304q99 0 161 -53t62 -143q0 -70 -36.5 -116.5t-101.5 -66.5l165 -312h-122l-147 298h-178v-298h-107zM195 391h206q52 2 79.5 29t27.5 73q0 49 -31 76.5t-86 27.5h-196v-206z" />
    <glyph glyph-name="rcaron" unicode="&#x159;" horiz-adv-x="383" 
d="M197 560l-122 130h83l62 -69l62 69h84l-124 -130h-45zM75 0v512h103v-81h3q18 42 50 65.5t71 23.5q40 0 63 -9v-89q-33 6 -58 3q-61 -7 -94.5 -58.5t-33.5 -141.5v-225h-104z" />
    <glyph glyph-name="Sacute" unicode="&#x15a;" horiz-adv-x="552" 
d="M230 749l109 118h119l-151 -118h-77zM280 -8q-84 0 -154.5 43.5t-109.5 130.5l84 55q60 -133 181 -133q55 0 88 27t33 73q0 26 -10.5 46t-34 36t-44.5 25.5t-60 23.5q-47 17 -73 29t-59.5 35t-49.5 56t-16 77q0 85 59.5 134.5t154.5 49.5q128 0 214 -105l-64 -66
q-66 81 -154 81q-45 0 -73.5 -22.5t-28.5 -59.5q0 -17 8 -32t18.5 -25.5t31.5 -22t37.5 -18.5t45.5 -18q39 -15 59.5 -24t53 -28.5t49.5 -39t30.5 -51.5t13.5 -70q0 -92 -64.5 -149.5t-165.5 -57.5z" />
    <glyph glyph-name="sacute" unicode="&#x15b;" horiz-adv-x="482" 
d="M197 572l109 118h119l-151 -118h-77zM245 -11q-67 0 -127 29.5t-91 76.5l63 60q20 -33 57.5 -57t88.5 -25q48 -2 80 15.5t33 53.5q0 13 -3.5 23t-14.5 18t-18 13t-28 11t-29 8.5t-35 8.5q-40 9 -64 17t-53 24t-43 42t-14 62q0 74 54 113.5t140 39.5q120 0 192 -88
l-55 -60q-51 61 -129 65q-45 2 -74.5 -13.5t-30.5 -43.5q-4 -34 55 -55q19 -7 83 -23q30 -7 50.5 -14t44.5 -19t38.5 -27t24.5 -38.5t10 -53.5q0 -76 -57.5 -119.5t-147.5 -43.5z" />
    <glyph glyph-name="Scedilla" unicode="&#x15e;" horiz-adv-x="552" 
d="M510 199q0 -88 -58 -144t-151 -62l-36 -54q44 -12 67 -32t23 -53q0 -44 -30 -71.5t-70 -27.5q-35 0 -61.5 18t-37.5 47l53 26q3 -15 14.5 -25t27.5 -10q17 0 28.5 11.5t12.5 29.5q3 30 -38 44l-66 20l43 80q-148 24 -215 170l84 55q60 -133 181 -133q55 0 88 27t33 73
q0 26 -10.5 46t-34 36t-44.5 25.5t-60 23.5q-47 17 -73 29t-59.5 35t-49.5 56t-16 77q0 85 59.5 134.5t154.5 49.5q128 0 214 -105l-64 -66q-66 81 -154 81q-45 0 -73.5 -22.5t-28.5 -59.5q0 -17 8 -32t18.5 -25.5t31.5 -22t37.5 -18.5t45.5 -18q39 -15 59.5 -24t53 -28.5
t49.5 -39t30.5 -51.5t13.5 -70z" />
    <glyph glyph-name="scedilla" unicode="&#x15f;" horiz-adv-x="482" 
d="M450 152q0 -65 -43.5 -107t-115.5 -53l-35 -52q44 -12 67 -32t23 -53q0 -44 -30 -71.5t-70 -27.5q-35 0 -61.5 18t-37.5 47l53 26q3 -15 14.5 -25t27.5 -10q17 0 28.5 11.5t12.5 29.5q3 30 -38 44l-66 20l40 73q-60 6 -112 34.5t-80 70.5l63 60q20 -33 57.5 -57t88.5 -25
q48 -2 80 15.5t33 53.5q0 13 -3.5 23t-14.5 18t-18 13t-28 11t-29 8.5t-35 8.5q-40 9 -64 17t-53 24t-43 42t-14 62q0 74 54 113.5t140 39.5q120 0 192 -88l-55 -60q-51 61 -129 65q-45 2 -74.5 -13.5t-30.5 -43.5q-4 -34 55 -55q19 -7 83 -23q30 -7 50.5 -14t44.5 -19
t38.5 -27t24.5 -38.5t10 -53.5z" />
    <glyph glyph-name="Scaron" unicode="&#x160;" horiz-adv-x="552" 
d="M246 737l-122 130h83l62 -69l62 69h84l-124 -130h-45zM280 -8q-84 0 -154.5 43.5t-109.5 130.5l84 55q60 -133 181 -133q55 0 88 27t33 73q0 26 -10.5 46t-34 36t-44.5 25.5t-60 23.5q-47 17 -73 29t-59.5 35t-49.5 56t-16 77q0 85 59.5 134.5t154.5 49.5q128 0 214 -105
l-64 -66q-66 81 -154 81q-45 0 -73.5 -22.5t-28.5 -59.5q0 -17 8 -32t18.5 -25.5t31.5 -22t37.5 -18.5t45.5 -18q39 -15 59.5 -24t53 -28.5t49.5 -39t30.5 -51.5t13.5 -70q0 -92 -64.5 -149.5t-165.5 -57.5z" />
    <glyph glyph-name="scaron" unicode="&#x161;" horiz-adv-x="482" 
d="M212 560l-122 130h83l62 -69l62 69h84l-124 -130h-45zM245 -11q-67 0 -127 29.5t-91 76.5l63 60q20 -33 57.5 -57t88.5 -25q48 -2 80 15.5t33 53.5q0 13 -3.5 23t-14.5 18t-18 13t-28 11t-29 8.5t-35 8.5q-40 9 -64 17t-53 24t-43 42t-14 62q0 74 54 113.5t140 39.5
q120 0 192 -88l-55 -60q-51 61 -129 65q-45 2 -74.5 -13.5t-30.5 -43.5q-4 -34 55 -55q19 -7 83 -23q30 -7 50.5 -14t44.5 -19t38.5 -27t24.5 -38.5t10 -53.5q0 -76 -57.5 -119.5t-147.5 -43.5z" />
    <glyph glyph-name="uni0162" unicode="&#x162;" horiz-adv-x="569" 
d="M339 0h-17l-40 -60q44 -12 67 -32t23 -53q0 -44 -30 -71.5t-70 -27.5q-35 0 -61.5 18t-37.5 47l53 26q3 -15 14.5 -25t27.5 -10q17 0 28.5 11.5t12.5 29.5q3 30 -38 44l-66 20l45 83h-20v600h-222v90h553v-90h-222v-600z" />
    <glyph glyph-name="uni0163" unicode="&#x163;" horiz-adv-x="343" 
d="M318 438h-125v-280q0 -41 14.5 -58t49.5 -17h53v-83h-47l-40 -60q44 -12 67 -32t23 -53q0 -44 -30 -71.5t-70 -27.5q-35 0 -61.5 18t-37.5 47l53 26q3 -15 14.5 -25t27.5 -10q17 0 28.5 11.5t12.5 29.5q3 30 -38 44l-66 20l45 83h26q-128 0 -128 134v304h-75v74h75v178
h104v-178h125v-74z" />
    <glyph glyph-name="Tcaron" unicode="&#x164;" horiz-adv-x="569" 
d="M260 737l-122 130h83l62 -69l62 69h84l-124 -130h-45zM230 0v600h-222v90h553v-90h-222v-600h-109z" />
    <glyph glyph-name="tcaron" unicode="&#x165;" horiz-adv-x="343" 
d="M276 826h129v-121l-69 -144h-56l43 144h-47v121zM193 690v-178h125v-74h-125v-280q0 -41 14.5 -58t49.5 -17h53v-83h-93q-128 0 -128 134v304h-75v74h75v178h104z" />
    <glyph glyph-name="Tbar" unicode="&#x166;" horiz-adv-x="569" 
d="M561 600h-222v-228h103v-53h-103v-319h-109v319h-104v53h104v228h-222v90h553v-90z" />
    <glyph glyph-name="tbar" unicode="&#x167;" horiz-adv-x="343" 
d="M318 438h-125v-155h107v-53h-107v-72q0 -41 14.5 -58t49.5 -17h53v-83h-93q-128 0 -128 134v96h-79v53h79v155h-75v74h75v178h104v-178h125v-74z" />
    <glyph glyph-name="Utilde" unicode="&#x168;" horiz-adv-x="670" 
d="M412 742q-34 0 -60.5 17t-47.5 34t-41 17q-43 0 -43 -62h-62q0 120 97 120q35 0 61.5 -17t47.5 -34t41 -17q44 0 44 68h64q0 -62 -26.5 -94t-74.5 -32zM335 -10q-123 0 -189.5 68.5t-66.5 191.5v440h108v-444q0 -74 39 -115.5t109 -41.5q69 0 108.5 42t39.5 115v444h108
v-435q0 -126 -66.5 -195.5t-189.5 -69.5z" />
    <glyph glyph-name="utilde" unicode="&#x169;" horiz-adv-x="579" 
d="M364 564q-34 0 -60.5 17t-47.5 34t-41 17q-43 0 -43 -62h-62q0 120 97 120q35 0 61.5 -17t47.5 -34t41 -17q44 0 44 68h64q0 -62 -26.5 -94t-74.5 -32zM504 512v-512h-103v72h-8q-49 -82 -149 -82q-81 0 -127 51.5t-46 136.5v334h104v-314q0 -55 26 -83t74 -28
q56 0 90.5 36t34.5 92v297h104z" />
    <glyph glyph-name="Umacron" unicode="&#x16a;" horiz-adv-x="670" 
d="M201 780v61h270v-61h-270zM335 -10q-123 0 -189.5 68.5t-66.5 191.5v440h108v-444q0 -74 39 -115.5t109 -41.5q69 0 108.5 42t39.5 115v444h108v-435q0 -126 -66.5 -195.5t-189.5 -69.5z" />
    <glyph glyph-name="umacron" unicode="&#x16b;" horiz-adv-x="579" 
d="M153 603v61h270v-61h-270zM504 512v-512h-103v72h-8q-49 -82 -149 -82q-81 0 -127 51.5t-46 136.5v334h104v-314q0 -55 26 -83t74 -28q56 0 90.5 36t34.5 92v297h104z" />
    <glyph glyph-name="Uring" unicode="&#x16e;" horiz-adv-x="670" 
d="M334 731q-43 0 -72 30t-29 73q0 42 29 71.5t72 29.5q42 0 72.5 -29.5t30.5 -71.5q0 -43 -30 -73t-73 -30zM334 781q22 0 37.5 15.5t15.5 37.5t-14.5 36.5t-38.5 14.5q-23 0 -37 -14t-14 -37t14.5 -38t36.5 -15zM335 -10q-123 0 -189.5 68.5t-66.5 191.5v440h108v-444
q0 -74 39 -115.5t109 -41.5q69 0 108.5 42t39.5 115v444h108v-435q0 -126 -66.5 -195.5t-189.5 -69.5z" />
    <glyph glyph-name="uring" unicode="&#x16f;" horiz-adv-x="579" 
d="M286 554q-43 0 -72 30t-29 73q0 42 29 71.5t72 29.5q42 0 72.5 -29.5t30.5 -71.5q0 -43 -30 -73t-73 -30zM286 604q22 0 37.5 15t15.5 38q0 22 -14.5 36.5t-38.5 14.5q-23 0 -37 -14t-14 -37t14.5 -38t36.5 -15zM504 512v-512h-103v72h-8q-49 -82 -149 -82
q-81 0 -127 51.5t-46 136.5v334h104v-314q0 -55 26 -83t74 -28q56 0 90.5 36t34.5 92v297h104z" />
    <glyph glyph-name="Uhungarumlaut" unicode="&#x170;" horiz-adv-x="670" 
d="M194 753l102 114h105l-123 -114h-84zM367 753l103 114h114l-134 -114h-83zM335 -10q-123 0 -189.5 68.5t-66.5 191.5v440h108v-444q0 -74 39 -115.5t109 -41.5q69 0 108.5 42t39.5 115v444h108v-435q0 -126 -66.5 -195.5t-189.5 -69.5z" />
    <glyph glyph-name="uhungarumlaut" unicode="&#x171;" horiz-adv-x="579" 
d="M146 576l102 114h105l-123 -114h-84zM319 576l103 114h114l-134 -114h-83zM504 512v-512h-103v72h-8q-49 -82 -149 -82q-81 0 -127 51.5t-46 136.5v334h104v-314q0 -55 26 -83t74 -28q56 0 90.5 36t34.5 92v297h104z" />
    <glyph glyph-name="Uogonek" unicode="&#x172;" horiz-adv-x="670" 
d="M498 36q-36 -31 -53 -54.5t-17 -49.5q0 -24 13 -36.5t32 -10.5q28 2 48 29l54 -36q-38 -58 -103 -58q-46 0 -76.5 26.5t-30.5 74.5q0 39 23 73q-23 -4 -53 -4q-123 0 -189.5 68.5t-66.5 191.5v440h108v-444q0 -74 39 -115.5t109 -41.5q69 0 108.5 42t39.5 115v444h108
v-435q0 -150 -93 -219z" />
    <glyph glyph-name="uogonek" unicode="&#x173;" horiz-adv-x="579" 
d="M520 -130l54 -36q-38 -58 -103 -58q-46 0 -76.5 26.5t-30.5 74.5q0 72 74 123h-37v72h-8q-49 -82 -149 -82q-81 0 -127 51.5t-46 136.5v334h104v-314q0 -55 26 -83t74 -28q56 0 90.5 36t34.5 92v297h104v-512h2q-41 -35 -60 -59.5t-19 -52.5q0 -24 13 -36.5t32 -10.5
q28 2 48 29z" />
    <glyph glyph-name="Wcircumflex" unicode="&#x174;" horiz-adv-x="921" 
d="M315 737l123 131h45l124 -131h-84l-62 72l-62 -72h-84zM172 0l-164 690h112l124 -553q4 -20 4 -38h5l143 591h128l143 -591h5q0 19 4 38l124 553h112l-165 -690h-147l-141 556l-139 -556h-148z" />
    <glyph glyph-name="wcircumflex" unicode="&#x175;" horiz-adv-x="753" 
d="M376 631l-62 -72h-84l123 131h45l124 -131h-84zM630 512h111l-122 -512h-139l-105 382l-102 -383h-141l-120 513h111l84 -435l121 435h95l122 -433z" />
    <glyph glyph-name="Ycircumflex" unicode="&#x176;" horiz-adv-x="666" 
d="M187 737l123 131h45l124 -131h-84l-62 72l-62 -72h-84zM278 0v269l-276 421h125l206 -322l207 322h125l-278 -421v-269h-109z" />
    <glyph glyph-name="ycircumflex" unicode="&#x177;" horiz-adv-x="474" 
d="M93 559l123 131h45l124 -131h-84l-62 72l-62 -72h-84zM34 -178v84q49 0 82.5 16.5t46 35t25.5 48.5l-182 506h112l104 -322q15 -41 15 -74h6q0 29 14 75l103 321h113l-191 -531q-35 -98 -91 -128.5t-157 -30.5z" />
    <glyph glyph-name="Ydieresis" unicode="&#x178;" horiz-adv-x="666" 
d="M202 763v104h92v-104h-92zM372 763v104h92v-104h-92zM278 0v269l-276 421h125l206 -322l207 322h125l-278 -421v-269h-109z" />
    <glyph glyph-name="Zacute" unicode="&#x179;" horiz-adv-x="582" 
d="M481 867l-151 -118h-77l109 118h119zM565 690v-82l-402 -514h402v-94h-548v78l406 518h-384v94h526z" />
    <glyph glyph-name="zacute" unicode="&#x17a;" horiz-adv-x="470" 
d="M424 690l-151 -118h-77l109 118h119zM443 512v-81l-283 -345h281v-86h-413v75l290 352h-282v85h407z" />
    <glyph glyph-name="Zdotaccent" unicode="&#x17b;" horiz-adv-x="582" 
d="M335 867v-102h-88v102h88zM565 690v-82l-402 -514h402v-94h-548v78l406 518h-384v94h526z" />
    <glyph glyph-name="zdotaccent" unicode="&#x17c;" horiz-adv-x="470" 
d="M278 690v-102h-88v102h88zM443 512v-81l-283 -345h281v-86h-413v75l290 352h-282v85h407z" />
    <glyph glyph-name="Zcaron" unicode="&#x17d;" horiz-adv-x="582" 
d="M313 737h-45l-122 130h83l62 -69l62 69h84zM565 690v-82l-402 -514h402v-94h-548v78l406 518h-384v94h526z" />
    <glyph glyph-name="zcaron" unicode="&#x17e;" horiz-adv-x="470" 
d="M256 560h-45l-122 130h83l62 -69l62 69h84zM443 512v-81l-283 -345h281v-86h-413v75l290 352h-282v85h407z" />
    <glyph glyph-name="florin" unicode="&#x192;" horiz-adv-x="459" 
d="M20 -223v88q91 0 128 31.5t37 112.5v392h-87v87h87v67q0 65 41 108.5t100 43.5t114 -46l-59 -69q-28 27 -55 27q-22 0 -37.5 -16.5t-15.5 -47.5v-67h149v-87h-149v-392q0 -112 -65.5 -172t-187.5 -60z" />
    <glyph glyph-name="uni01CD" unicode="&#x1cd;" horiz-adv-x="617" 
d="M332 737h-45l-122 130h83l62 -69l62 69h84zM499 0l-50 155h-280l-50 -155h-116l234 690h145l233 -690h-116zM197 244h224l-100 314q-9 33 -10 41h-3q0 -10 -11 -41z" />
    <glyph glyph-name="uni01CE" unicode="&#x1ce;" horiz-adv-x="539" 
d="M288 560h-45l-122 130h83l62 -69l62 69h84zM265 522q93 0 153.5 -42t60.5 -121v-359h-95v62q-33 -32 -82.5 -52.5t-91.5 -20.5q-77 0 -123 39t-46 106q0 91 94 137q21 10 51.5 21t54 17.5t71.5 20t72 20.5q-1 86 -114 86q-90 0 -143 -68l-74 51q78 103 212 103zM217 79
q98 0 167 85v106q-145 -47 -179 -63q-54 -25 -54 -68q0 -28 18.5 -44t47.5 -16z" />
    <glyph glyph-name="uni01CF" unicode="&#x1cf;" horiz-adv-x="282" 
d="M117 737l-122 130h83l62 -69l62 69h84l-124 -130h-45zM87 0v690h108v-690h-108z" />
    <glyph glyph-name="uni01D0" unicode="&#x1d0;" horiz-adv-x="256" 
d="M105 560l-122 130h83l62 -69l62 69h84l-124 -130h-45zM76 0v512h104v-512h-104z" />
    <glyph glyph-name="uni01D1" unicode="&#x1d1;" horiz-adv-x="714" 
d="M333 737l-122 130h83l62 -69l62 69h84l-124 -130h-45zM357 -10q-146 0 -233 96t-87 259t87 259t233 96t233 -96t87 -259t-87 -259t-233 -96zM357 86q95 0 151.5 70t56.5 189t-56.5 189t-151.5 70t-151.5 -70t-56.5 -189t56.5 -189t151.5 -70z" />
    <glyph glyph-name="uni01D2" unicode="&#x1d2;" horiz-adv-x="574" 
d="M264 560l-122 130h83l62 -69l62 69h84l-124 -130h-45zM287 -11q-111 0 -180 69.5t-69 195.5q0 128 69 198t180 70t180 -70t69 -198q0 -126 -69 -195.5t-180 -69.5zM288 79q68 0 107 43.5t39 131.5q0 90 -39 134t-107 44t-106.5 -44t-38.5 -134q0 -88 38.5 -131.5
t106.5 -43.5z" />
    <glyph glyph-name="uni01D3" unicode="&#x1d3;" horiz-adv-x="670" 
d="M312 737l-122 130h83l62 -69l62 69h84l-124 -130h-45zM335 -10q-123 0 -189.5 68.5t-66.5 191.5v440h108v-444q0 -74 39 -115.5t109 -41.5q69 0 108.5 42t39.5 115v444h108v-435q0 -126 -66.5 -195.5t-189.5 -69.5z" />
    <glyph glyph-name="uni01D4" unicode="&#x1d4;" horiz-adv-x="579" 
d="M264 560l-122 130h83l62 -69l62 69h84l-124 -130h-45zM504 512v-512h-103v72h-8q-49 -82 -149 -82q-81 0 -127 51.5t-46 136.5v334h104v-314q0 -55 26 -83t74 -28q56 0 90.5 36t34.5 92v297h104z" />
    <glyph glyph-name="uni01D5" unicode="&#x1d5;" horiz-adv-x="670" 
d="M201 958v61h270v-61h-270zM204 763v104h92v-104h-92zM374 763v104h92v-104h-92zM335 -10q-123 0 -189.5 68.5t-66.5 191.5v440h108v-444q0 -74 39 -115.5t109 -41.5q69 0 108.5 42t39.5 115v444h108v-435q0 -126 -66.5 -195.5t-189.5 -69.5z" />
    <glyph glyph-name="uni01D6" unicode="&#x1d6;" horiz-adv-x="579" 
d="M153 781v61h270v-61h-270zM156 586v104h92v-104h-92zM326 586v104h92v-104h-92zM504 512v-512h-103v72h-8q-49 -82 -149 -82q-81 0 -127 51.5t-46 136.5v334h104v-314q0 -55 26 -83t74 -28q56 0 90.5 36t34.5 92v297h104z" />
    <glyph glyph-name="uni01D7" unicode="&#x1d7;" horiz-adv-x="670" 
d="M296 927l109 118h119l-151 -118h-77zM204 763v104h92v-104h-92zM374 763v104h92v-104h-92zM335 -10q-123 0 -189.5 68.5t-66.5 191.5v440h108v-444q0 -74 39 -115.5t109 -41.5q69 0 108.5 42t39.5 115v444h108v-435q0 -126 -66.5 -195.5t-189.5 -69.5z" />
    <glyph glyph-name="uni01D8" unicode="&#x1d8;" horiz-adv-x="579" 
d="M248 750l109 118h119l-151 -118h-77zM156 586v104h92v-104h-92zM326 586v104h92v-104h-92zM504 512v-512h-103v72h-8q-49 -82 -149 -82q-81 0 -127 51.5t-46 136.5v334h104v-314q0 -55 26 -83t74 -28q56 0 90.5 36t34.5 92v297h104z" />
    <glyph glyph-name="uni01D9" unicode="&#x1d9;" horiz-adv-x="670" 
d="M312 915l-122 130h83l62 -69l62 69h84l-124 -130h-45zM204 763v104h92v-104h-92zM374 763v104h92v-104h-92zM335 -10q-123 0 -189.5 68.5t-66.5 191.5v440h108v-444q0 -74 39 -115.5t109 -41.5q69 0 108.5 42t39.5 115v444h108v-435q0 -126 -66.5 -195.5t-189.5 -69.5z
" />
    <glyph glyph-name="uni01DA" unicode="&#x1da;" horiz-adv-x="579" 
d="M264 738l-122 130h83l62 -69l62 69h84l-124 -130h-45zM156 586v104h92v-104h-92zM326 586v104h92v-104h-92zM504 512v-512h-103v72h-8q-49 -82 -149 -82q-81 0 -127 51.5t-46 136.5v334h104v-314q0 -55 26 -83t74 -28q56 0 90.5 36t34.5 92v297h104z" />
    <glyph glyph-name="uni01DB" unicode="&#x1db;" horiz-adv-x="670" 
d="M293 926l-144 119h120l108 -119h-84zM204 763v104h92v-104h-92zM374 763v104h92v-104h-92zM335 -10q-123 0 -189.5 68.5t-66.5 191.5v440h108v-444q0 -74 39 -115.5t109 -41.5q69 0 108.5 42t39.5 115v444h108v-435q0 -126 -66.5 -195.5t-189.5 -69.5z" />
    <glyph glyph-name="uni01DC" unicode="&#x1dc;" horiz-adv-x="579" 
d="M245 749l-144 119h120l108 -119h-84zM156 586v104h92v-104h-92zM326 586v104h92v-104h-92zM504 512v-512h-103v72h-8q-49 -82 -149 -82q-81 0 -127 51.5t-46 136.5v334h104v-314q0 -55 26 -83t74 -28q56 0 90.5 36t34.5 92v297h104z" />
    <glyph glyph-name="Oslashacute" unicode="&#x1fe;" horiz-adv-x="714" 
d="M546 867l-151 -118h-77l109 118h119zM683 611l-57 -57q51 -87 51 -209q0 -163 -87 -259t-233 -96q-132 0 -216 79l-50 -50l-61 61l57 57q-50 87 -50 208q0 163 87 259t233 96q130 0 216 -78l49 49zM149 345q0 -67 21 -125l327 327q-55 57 -140 57q-95 0 -151.5 -70
t-56.5 -189zM565 345q0 73 -21 127l-328 -328q55 -58 141 -58q95 0 151.5 70t56.5 189z" />
    <glyph glyph-name="oslashacute" unicode="&#x1ff;" horiz-adv-x="574" 
d="M476 690l-151 -118h-77l109 118h119zM492 419q44 -66 44 -165q0 -126 -69 -195.5t-180 -69.5q-101 0 -167 58l-21 -21l-42 43l23 23q-42 68 -42 162q0 128 69 198t180 70q100 0 166 -57l21 20l42 -42zM143 254q0 -53 13 -86l230 229q-36 35 -98 35q-68 0 -106.5 -44
t-38.5 -134zM288 79q68 0 107 43.5t39 131.5q0 54 -15 92l-231 -231q39 -36 100 -36z" />
    <glyph glyph-name="Scommaaccent" unicode="&#x218;" horiz-adv-x="552" 
d="M280 -8q-84 0 -154.5 43.5t-109.5 130.5l84 55q60 -133 181 -133q55 0 88 27t33 73q0 26 -10.5 46t-34 36t-44.5 25.5t-60 23.5q-47 17 -73 29t-59.5 35t-49.5 56t-16 77q0 85 59.5 134.5t154.5 49.5q128 0 214 -105l-64 -66q-66 81 -154 81q-45 0 -73.5 -22.5
t-28.5 -59.5q0 -17 8 -32t18.5 -25.5t31.5 -22t37.5 -18.5t45.5 -18q39 -15 59.5 -24t53 -28.5t49.5 -39t30.5 -51.5t13.5 -70q0 -92 -64.5 -149.5t-165.5 -57.5zM146 -216l63 147h115l-117 -147h-61z" />
    <glyph glyph-name="scommaaccent" unicode="&#x219;" horiz-adv-x="482" 
d="M245 -11q-67 0 -127 29.5t-91 76.5l63 60q20 -33 57.5 -57t88.5 -25q48 -2 80 15.5t33 53.5q0 13 -3.5 23t-14.5 18t-18 13t-28 11t-29 8.5t-35 8.5q-40 9 -64 17t-53 24t-43 42t-14 62q0 74 54 113.5t140 39.5q120 0 192 -88l-55 -60q-51 61 -129 65q-45 2 -74.5 -13.5
t-30.5 -43.5q-4 -34 55 -55q19 -7 83 -23q30 -7 50.5 -14t44.5 -19t38.5 -27t24.5 -38.5t10 -53.5q0 -76 -57.5 -119.5t-147.5 -43.5zM136 -215l63 147h115l-117 -147h-61z" />
    <glyph glyph-name="uni021A" unicode="&#x21a;" horiz-adv-x="569" 
d="M230 0v600h-222v90h553v-90h-222v-600h-109zM162 -215l63 147h115l-117 -147h-61z" />
    <glyph glyph-name="uni021B" unicode="&#x21b;" horiz-adv-x="343" 
d="M217 0q-128 0 -128 134v304h-75v74h75v178h104v-178h125v-74h-125v-280q0 -41 14.5 -58t49.5 -17h53v-83h-93zM103 -215l63 147h115l-117 -147h-61z" />
    <glyph glyph-name="uni0237" unicode="&#x237;" horiz-adv-x="255" 
d="M40 -178h-62v84h45q53 0 53 57v549h105v-544q0 -146 -141 -146z" />
    <glyph glyph-name="circumflex" unicode="&#x2c6;" horiz-adv-x="319" 
d="M14 537l123 131h45l124 -131h-84l-62 72l-62 -72h-84z" />
    <glyph glyph-name="caron" unicode="&#x2c7;" horiz-adv-x="319" 
d="M136 536l-122 130h83l62 -69l62 69h84l-124 -130h-45z" />
    <glyph glyph-name="breve" unicode="&#x2d8;" horiz-adv-x="294" 
d="M148 534q-68 0 -110 35t-42 97h74q0 -33 22 -51.5t56 -18.5t55.5 19t21.5 51h75q0 -63 -42 -97.5t-110 -34.5z" />
    <glyph glyph-name="dotaccent" unicode="&#x2d9;" horiz-adv-x="124" 
d="M18 564v102h88v-102h-88z" />
    <glyph glyph-name="ring" unicode="&#x2da;" horiz-adv-x="192" 
d="M95 530q-43 0 -72 30t-29 73q0 42 29 71.5t72 29.5q42 0 72.5 -29.5t30.5 -71.5q0 -43 -30 -73t-73 -30zM95 580q23 0 38 15t15 38q0 22 -14.5 36.5t-38.5 14.5q-23 0 -37 -14t-14 -37t14.5 -38t36.5 -15z" />
    <glyph glyph-name="ogonek" unicode="&#x2db;" horiz-adv-x="221" 
d="M154 -224q-46 0 -76.5 26.5t-30.5 74.5q0 77 85 130l57 -7q-41 -35 -60 -59.5t-19 -52.5q0 -24 13 -36.5t32 -10.5q28 2 48 29l54 -36q-38 -58 -103 -58z" />
    <glyph glyph-name="tilde" unicode="&#x2dc;" horiz-adv-x="345" 
d="M250 523q-34 0 -60.5 17t-47.5 34t-41 17q-43 0 -43 -62h-62q0 120 97 120q35 0 61.5 -17t47.5 -34t41 -17q44 0 44 68h64q0 -62 -26.5 -94t-74.5 -32z" />
    <glyph glyph-name="hungarumlaut" unicode="&#x2dd;" horiz-adv-x="362" 
d="M-13 552l102 114h105l-123 -114h-84zM160 552l103 114h114l-134 -114h-83z" />
    <glyph glyph-name="gravecomb" unicode="&#x300;" 
d="M-70 547l-144 119h120l108 -119h-84z" />
    <glyph glyph-name="acutecomb" unicode="&#x301;" 
d="M-207 548l109 118h119l-151 -118h-77z" />
    <glyph glyph-name="uni0302" unicode="&#x302;" 
d="M-305 537l123 131h45l124 -131h-84l-62 72l-62 -72h-84z" />
    <glyph glyph-name="tildecomb" unicode="&#x303;" 
d="M-95 523q-34 0 -60.5 17t-47.5 34t-41 17q-43 0 -43 -62h-62q0 120 97 120q35 0 61.5 -17t47.5 -34t41 -17q44 0 44 68h64q0 -62 -26.5 -94t-74.5 -32z" />
    <glyph glyph-name="uni0304" unicode="&#x304;" 
d="M-294 579v61h270v-61h-270z" />
    <glyph glyph-name="uni0306" unicode="&#x306;" 
d="M-146 534q-68 0 -110 35t-42 97h74q0 -33 22 -51.5t56 -18.5t55.5 19t21.5 51h75q0 -63 -42 -97.5t-110 -34.5z" />
    <glyph glyph-name="uni0307" unicode="&#x307;" 
d="M-106 564v102h88v-102h-88z" />
    <glyph glyph-name="uni0308" unicode="&#x308;" 
d="M-280 562v104h92v-104h-92zM-110 562v104h92v-104h-92z" />
    <glyph glyph-name="uni030A" unicode="&#x30a;" 
d="M-97 530q-43 0 -72 30t-29 73q0 42 29 71.5t72 29.5q42 0 72.5 -29.5t30.5 -71.5q0 -43 -30 -73t-73 -30zM-97 580q23 0 38 15t15 38q0 22 -14.5 36.5t-38.5 14.5q-23 0 -37 -14t-14 -37t14.5 -38t36.5 -15z" />
    <glyph glyph-name="uni030B" unicode="&#x30b;" 
d="M-375 552l102 114h105l-123 -114h-84zM-202 552l103 114h114l-134 -114h-83z" />
    <glyph glyph-name="uni030C" unicode="&#x30c;" 
d="M-183 536l-122 130h83l62 -69l62 69h84l-124 -130h-45z" />
    <glyph glyph-name="uni0312" unicode="&#x312;" 
d="M161 693l-63 -133h-115l117 133h61z" />
    <glyph glyph-name="uni0326" unicode="&#x326;" 
d="M-184 -215l63 147h115l-117 -147h-61z" />
    <glyph glyph-name="uni0327" unicode="&#x327;" 
d="M-87 -244q-35 0 -61.5 18t-37.5 47l53 26q3 -15 14.5 -25t27.5 -10q17 0 28.5 11.5t12.5 29.5q3 30 -38 44l-66 20l45 83h72l-40 -60q44 -12 67 -32t23 -53q0 -44 -30 -71.5t-70 -27.5z" />
    <glyph glyph-name="uni0328" unicode="&#x328;" 
d="M-67 -224q-46 0 -76.5 26.5t-30.5 74.5q0 77 85 130l57 -7q-41 -35 -60 -59.5t-19 -52.5q0 -24 13 -36.5t32 -10.5q28 2 48 29l54 -36q-38 -58 -103 -58z" />
    <glyph glyph-name="uni0335" unicode="&#x335;" 
d="M-472 255v53h316v-53h-316z" />
    <glyph glyph-name="uni0336" unicode="&#x336;" 
d="M-616 251v54h635v-54h-635z" />
    <glyph glyph-name="uni0337" unicode="&#x337;" 
d="M-507 71v104l396 303v-111z" />
    <glyph glyph-name="uni0338" unicode="&#x338;" 
d="M-578 21l-61 61l592 591l61 -60z" />
    <glyph glyph-name="pi" unicode="&#x3c0;" horiz-adv-x="582" 
d="M435 -10q-47 0 -77.5 34.5t-30.5 78.5v297h-123v-400h-88v400h-40v88h379v-88h-40v-289q0 -20 9 -32t24 -11q7 0 27 10l27 -69q-37 -19 -67 -19z" />
    <glyph glyph-name="Wgrave" unicode="&#x1e80;" horiz-adv-x="921" 
d="M418 749l-144 119h120l108 -119h-84zM172 0l-164 690h112l124 -553q4 -20 4 -38h5l143 591h128l143 -591h5q0 19 4 38l124 553h112l-165 -690h-147l-141 556l-139 -556h-148z" />
    <glyph glyph-name="wgrave" unicode="&#x1e81;" horiz-adv-x="753" 
d="M418 571h-84l-144 119h120zM630 512h111l-122 -512h-139l-105 382l-102 -383h-141l-120 513h111l84 -435l121 435h95l122 -433z" />
    <glyph glyph-name="Wacute" unicode="&#x1e82;" horiz-adv-x="921" 
d="M422 750l109 118h119l-151 -118h-77zM172 0l-164 690h112l124 -553q4 -20 4 -38h5l143 591h128l143 -591h5q0 19 4 38l124 553h112l-165 -690h-147l-141 556l-139 -556h-148z" />
    <glyph glyph-name="wacute" unicode="&#x1e83;" horiz-adv-x="753" 
d="M565 690l-151 -118h-77l109 118h119zM630 512h111l-122 -512h-139l-105 382l-102 -383h-141l-120 513h111l84 -435l121 435h95l122 -433z" />
    <glyph glyph-name="Wdieresis" unicode="&#x1e84;" horiz-adv-x="921" 
d="M329 764v104h92v-104h-92zM499 764v104h92v-104h-92zM172 0l-164 690h112l124 -553q4 -20 4 -38h5l143 591h128l143 -591h5q0 19 4 38l124 553h112l-165 -690h-147l-141 556l-139 -556h-148z" />
    <glyph glyph-name="wdieresis" unicode="&#x1e85;" horiz-adv-x="753" 
d="M337 690v-104h-92v104h92zM507 690v-104h-92v104h92zM630 512h111l-122 -512h-139l-105 382l-102 -383h-141l-120 513h111l84 -435l121 435h95l122 -433z" />
    <glyph glyph-name="uni1EBC" unicode="&#x1ebc;" horiz-adv-x="592" 
d="M392 742q-34 0 -60.5 17t-47.5 34t-41 17q-43 0 -43 -62h-62q0 120 97 120q35 0 61.5 -17t47.5 -34t41 -17q44 0 44 68h64q0 -62 -26.5 -94t-74.5 -32zM87 0v690h455v-94h-347v-204h312v-94h-312v-204h347v-94h-455z" />
    <glyph glyph-name="uni1EBD" unicode="&#x1ebd;" horiz-adv-x="536" 
d="M200 632q-43 0 -43 -62h-62q0 120 97 120q35 0 61.5 -17t47.5 -34t41 -17q44 0 44 68h64q0 -62 -26.5 -94t-74.5 -32q-34 0 -60.5 17t-47.5 34t-41 17zM497 265q0 -27 -3 -39h-352q11 -146 147 -146q71 0 126 49l67 -59q-83 -80 -195 -80q-117 0 -183 74t-66 189t62 192
t174 77q109 0 166 -74t57 -183zM272 433q-55 0 -89 -33t-41 -94l252 -1q-3 57 -34 92.5t-88 35.5z" />
    <glyph glyph-name="Ygrave" unicode="&#x1ef2;" horiz-adv-x="666" 
d="M291 748l-144 119h120l108 -119h-84zM278 0v269l-276 421h125l206 -322l207 322h125l-278 -421v-269h-109z" />
    <glyph glyph-name="ygrave" unicode="&#x1ef3;" horiz-adv-x="474" 
d="M196 571l-144 119h120l108 -119h-84zM34 -178v84q49 0 82.5 16.5t46 35t25.5 48.5l-182 506h112l104 -322q15 -41 15 -74h6q0 29 14 75l103 321h113l-191 -531q-35 -98 -91 -128.5t-157 -30.5z" />
    <glyph glyph-name="uni1EF8" unicode="&#x1ef8;" horiz-adv-x="666" 
d="M410 742q-34 0 -60.5 17t-47.5 34t-41 17q-43 0 -43 -62h-62q0 120 97 120q35 0 61.5 -17t47.5 -34t41 -17q44 0 44 68h64q0 -62 -26.5 -94t-74.5 -32zM278 0v269l-276 421h125l206 -322l207 322h125l-278 -421v-269h-109z" />
    <glyph glyph-name="uni1EF9" unicode="&#x1ef9;" horiz-adv-x="474" 
d="M316 564q-34 0 -60.5 17t-47.5 34t-41 17q-43 0 -43 -62h-62q0 120 97 120q35 0 61.5 -17t47.5 -34t41 -17q44 0 44 68h64q0 -62 -26.5 -94t-74.5 -32zM34 -178v84q49 0 82.5 16.5t46 35t25.5 48.5l-182 506h112l104 -322q15 -41 15 -74h6q0 29 14 75l103 321h113
l-191 -531q-35 -98 -91 -128.5t-157 -30.5z" />
    <glyph glyph-name="endash" unicode="&#x2013;" horiz-adv-x="400" 
d="M18 211v81h363v-81h-363z" />
    <glyph glyph-name="emdash" unicode="&#x2014;" horiz-adv-x="1000" 
d="M0 211v81h1000v-81h-1000z" />
    <glyph glyph-name="quoteleft" unicode="&#x2018;" horiz-adv-x="233" 
d="M124 539h49v-127h-135v127l72 151h59z" />
    <glyph glyph-name="quoteright" unicode="&#x2019;" horiz-adv-x="244" 
d="M61 690h135v-127h-1l-72 -151h-59l46 151h-49v127z" />
    <glyph glyph-name="quotesinglbase" unicode="&#x201a;" horiz-adv-x="268" 
d="M57 127h135v-127l-72 -151h-59l45 151h-49v127z" />
    <glyph glyph-name="quotedblleft" unicode="&#x201c;" horiz-adv-x="446" 
d="M169 690l-45 -151h49v-127h-135v127l72 151h59zM337 539h49v-127h-135v127l72 151h59z" />
    <glyph glyph-name="quotedblright" unicode="&#x201d;" horiz-adv-x="464" 
d="M61 563v127h135v-127l-72 -151h-59l45 151h-49zM281 690h135v-127l-72 -151h-59l45 151h-49v127z" />
    <glyph glyph-name="quotedblbase" unicode="&#x201e;" horiz-adv-x="488" 
d="M57 0v127h135v-127l-72 -151h-59l45 151h-49zM277 127h135v-127l-72 -151h-59l45 151h-49v127z" />
    <glyph glyph-name="dagger" unicode="&#x2020;" horiz-adv-x="409" 
d="M160 -100v505h-108v88h108v197h88v-197h108v-88h-108v-505h-88z" />
    <glyph glyph-name="daggerdbl" unicode="&#x2021;" horiz-adv-x="409" 
d="M160 -100v197h-108v88h108v220h-108v88h108v197h88v-197h108v-88h-108v-220h108v-88h-108v-197h-88z" />
    <glyph glyph-name="bullet" unicode="&#x2022;" horiz-adv-x="419" 
d="M210 80q-74 0 -126.5 53t-52.5 127t52.5 126.5t126.5 52.5t126 -52.5t52 -126.5t-52.5 -127t-125.5 -53z" />
    <glyph glyph-name="twodotenleader" unicode="&#x2025;" horiz-adv-x="401" 
d="M43 0v117h112v-117h-112zM245 0v117h112v-117h-112z" />
    <glyph glyph-name="ellipsis" unicode="&#x2026;" horiz-adv-x="812" 
d="M54 0v127h134v-127h-134zM342 0v127h134v-127h-134zM630 0v127h134v-127h-134z" />
    <glyph glyph-name="perthousand" unicode="&#x2030;" horiz-adv-x="1036" 
d="M121 -8l382 713h96l-382 -713h-96zM164 379q-38 0 -66 16t-42.5 41.5t-21 51.5t-6.5 51q0 37 10.5 71t42.5 62.5t80 28.5q65 0 99.5 -49.5t34.5 -113.5q0 -62 -34 -110.5t-97 -48.5zM162 455q24 0 38 25t14 59q0 35 -14 59.5t-39 24.5t-39.5 -24.5t-14.5 -59.5
q0 -34 14.5 -59t40.5 -25zM568 -3q-71 0 -103.5 50.5t-32.5 110.5q0 27 6.5 53.5t20.5 52.5t41.5 42t64.5 16q65 0 99.5 -49.5t34.5 -114.5q0 -63 -34 -112t-97 -49zM875 -3q-48 0 -80.5 28t-44 62.5t-11.5 70.5q0 60 32.5 112t100.5 52q65 0 100.5 -50t35.5 -114
q0 -63 -34.5 -112t-98.5 -49zM567 74q23 0 37 25.5t14 59.5q0 36 -14 61t-39 25t-39.5 -25.5t-14.5 -61.5q0 -35 15 -59.5t41 -24.5zM873 74q24 0 38 25.5t14 59.5q0 37 -14 61.5t-39 24.5t-38.5 -25t-13.5 -62q0 -35 13.5 -59.5t39.5 -24.5z" />
    <glyph glyph-name="guilsinglleft" unicode="&#x2039;" horiz-adv-x="288" 
d="M244 80l-200 169l200 170v-96l-91 -74l91 -73v-96z" />
    <glyph glyph-name="guilsinglright" unicode="&#x203a;" horiz-adv-x="288" 
d="M44 80v96l91 73l-91 74v96l200 -170z" />
    <glyph glyph-name="fraction" unicode="&#x2044;" horiz-adv-x="166" 
d="M-157 0l379 690h102l-381 -690h-100z" />
    <glyph glyph-name="Euro" unicode="&#x20ac;" horiz-adv-x="652" 
d="M563 140l64 -62q-83 -88 -218 -88q-120 0 -197 69.5t-101 183.5h-117l29 58h80q-2 28 -2 45q0 20 1 29l-114 1l31 59h90q21 120 97.5 193t201.5 73q110 0 184 -59l-33 -89q-57 61 -149 61q-86 0 -137.5 -48.5t-69.5 -130.5h309l-26 -61l-291 1v-27q0 -32 2 -47h260
l-23 -58h-226q20 -75 71 -119.5t134 -44.5q92 0 150 61z" />
    <glyph glyph-name="trademark" unicode="&#x2122;" horiz-adv-x="603" 
d="M6 634v56h221v-56h-79v-206h-63v206h-79zM469 690h87v-262h-64v180l-54 -180h-52l-57 181v-181h-63v262h88l57 -195z" />
    <glyph glyph-name="uni2126" unicode="&#x2126;" horiz-adv-x="729" 
d="M33 0v87h145q-66 40 -104.5 113t-38.5 156q0 137 97 234t233 97q137 0 233.5 -98t96.5 -237q0 -82 -36 -154t-100 -113h138v-85h-261v84q73 17 120 90.5t47 169.5q0 116 -68.5 185.5t-169.5 69.5q-102 0 -170 -71t-68 -182q0 -92 48 -163t119 -99v-84h-261z" />
    <glyph glyph-name="partialdiff" unicode="&#x2202;" horiz-adv-x="603" 
d="M260 -6q-103 0 -161.5 61.5t-58.5 163.5q0 124 79.5 211.5t193.5 87.5q102 0 138 -71q-7 86 -46 128.5t-99 42.5q-68 0 -102 -57l-70 45q52 92 174 92q119 0 177.5 -89t58.5 -235q0 -170 -74.5 -275t-209.5 -105zM259 84q79 0 129 63t50 150q0 64 -29.5 98.5t-85.5 34.5
q-81 0 -132.5 -65.5t-51.5 -148.5q0 -61 31.5 -96.5t88.5 -35.5z" />
    <glyph glyph-name="uni2206" unicode="&#x2206;" horiz-adv-x="572" 
d="M3 0l283 718l285 -718h-568zM132 88h310l-156 407z" />
    <glyph glyph-name="product" unicode="&#x220f;" horiz-adv-x="667" 
d="M127 0v602h-40v88h494v-88h-40v-602h-88v602h-238v-602h-88z" />
    <glyph glyph-name="summation" unicode="&#x2211;" horiz-adv-x="583" 
d="M33 0v45l280 300l-280 301v44h516v-88h-358l248 -257l-248 -257h358v-88h-516z" />
    <glyph glyph-name="radical" unicode="&#x221a;" horiz-adv-x="557" 
d="M232 -107l-133 377h-76v88h140l74 -236l219 573l83 -30z" />
    <glyph glyph-name="infinity" unicode="&#x221e;" horiz-adv-x="799" 
d="M201 173q-88 0 -138 51t-50 135t50 135t138 51q113 0 198 -108q41 52 93 80t105 28q88 0 138 -51t50 -135t-50 -135t-138 -51q-53 0 -105 28.5t-93 79.5q-40 -52 -92.5 -80t-105.5 -28zM216 257q34 0 72.5 27.5t65.5 74.5q-28 47 -66 74.5t-72 27.5q-50 0 -79.5 -26.5
t-29.5 -75.5q0 -48 29.5 -75t79.5 -27zM582 257q51 0 80 27t29 75q0 49 -29 75.5t-80 26.5q-34 0 -72 -27.5t-64 -74.5q27 -47 65 -74.5t71 -27.5z" />
    <glyph glyph-name="integral" unicode="&#x222b;" horiz-adv-x="418" 
d="M8 -223v88q85 0 120.5 32.5t35.5 109.5v551q0 65 41 107t100 42q58 0 106 -40l-58 -68q-24 20 -48 20q-22 0 -37.5 -16t-15.5 -47v-552q0 -110 -65.5 -168.5t-178.5 -58.5z" />
    <glyph glyph-name="approxequal" unicode="&#x2248;" horiz-adv-x="509" 
d="M325 348q-35 0 -64.5 21.5t-53 42.5t-45.5 21q-44 0 -40 -72h-59q-2 59 24 94.5t74 35.5q33 0 60 -13t41 -29t31.5 -29t34.5 -13q45 0 45 81h63q1 -66 -28.5 -103t-82.5 -37zM325 165q-28 0 -52.5 13t-39.5 29t-34 29t-37 13q-43 0 -40 -71h-59q-2 59 24 94.5t74 35.5
q43 0 73 -21t51.5 -41.5t42.5 -20.5q45 0 45 80h63q1 -66 -28.5 -103t-82.5 -37z" />
    <glyph glyph-name="notequal" unicode="&#x2260;" horiz-adv-x="600" 
d="M66 0l111 201h-99v85h144l46 84h-190v85h235l129 235h93l-125 -235h105v-85h-153l-47 -84h200v-85h-244l-111 -201h-94z" />
    <glyph glyph-name="lessequal" unicode="&#x2264;" horiz-adv-x="616" 
d="M531 48l-481 259l481 259v-95l-308 -164l308 -162v-97zM531 -78h-484v78h484v-78z" />
    <glyph glyph-name="greaterequal" unicode="&#x2265;" horiz-adv-x="610" 
d="M79 48v97l308 162l-308 164v95l481 -259zM79 -78v78h484v-78h-484z" />
    <glyph glyph-name="lozenge" unicode="&#x25ca;" horiz-adv-x="539" 
d="M224 0l-186 350l186 350h93l184 -350l-184 -350h-93zM270 98l126 252l-126 252l-127 -252z" />
    <glyph glyph-name="i.loclTRK" horiz-adv-x="256" 
d="M84 588v102h88v-102h-88zM76 0v512h104v-512h-104z" />
    <glyph glyph-name="f_t" horiz-adv-x="630" 
d="M606 438h-125v-280q0 -41 14.5 -58t49.5 -17h53v-83h-93q-128 0 -128 134v304h-43h-121v-438h-104v438h-93v74h94v34q0 66 40.5 105t113.5 39h70v-80h-66q-26 0 -40.5 -16.5t-14.5 -42.5v-39h121h43v178h104v-178h125v-74z" />
    <glyph glyph-name="t_t" horiz-adv-x="625" 
d="M601 438h-125v-280q0 -41 14.5 -58t49.5 -17h53v-83h-93q-128 0 -128 134v304h-54h-125v-280q0 -41 14.5 -58t49.5 -17h53v-83h-93q-128 0 -128 134v304h-75v74h75v178h104v-178h125h54v178h104v-178h125v-74z" />
    <glyph glyph-name="HankenDesign" horiz-adv-x="903" 
d="M451 -30q-157 0 -267.5 110.5t-110.5 267.5t110.5 267.5t267.5 110.5t267.5 -110.5t110.5 -267.5t-110.5 -267.5t-267.5 -110.5zM451 5q143 0 243 100.5t100 242.5t-100 242.5t-243 100.5t-243 -100.5t-100 -242.5t100 -242.5t243 -100.5zM254 200q-7 0 -12 5t-5 12v262
q0 7 5 12.5t12 5.5q8 0 13 -5.5t5 -12.5v-262q0 -17 -18 -17zM451 200q-17 0 -17 17v262q0 18 17 18t17 -18v-262q0 -17 -17 -17zM647 200q-7 0 -11 5l-132 131q-4 5 -4 12q0 8 4 12l132 131q4 6 11 6t12.5 -5.5t5.5 -12.5t-5 -12l-119 -119l119 -119q5 -5 5 -12t-5.5 -12
t-12.5 -5zM320 331q-17 0 -17 17t17 17h65q18 0 18 -17t-18 -17h-65z" />
    </font>
</defs>
</svg>
