<svg xmlns="http://www.w3.org/2000/svg">
<defs>
<font id="Blauth-SemiBoldDEMO" horiz-adv-x="1330" >
  <font-face 
    font-family="Blauth SemiBold DEMO"
    font-weight="600"
    font-stretch="normal"
    units-per-em="1000"
    panose-1="0 0 7 0 0 0 0 0 0 0"
    ascent="800"
    descent="-200"
    x-height="419"
    cap-height="720"
    bbox="-1230 -232 1230 770"
    underline-thickness="50"
    underline-position="-200"
    unicode-range="U+0020-FB02"
  />
<missing-glyph 
d="M100 -50v668h191v-668h-191zM199 429q29 0 45 18.5t16 44.5q0 28 -16.5 45.5t-44.5 17.5q-30 0 -46.5 -18.5t-16.5 -44.5q0 -28 17 -45.5t46 -17.5zM820 452q-18 0 -30 11.5t-12 28.5t12 28.5t30 11.5q17 0 29 -11.5t12 -28.5t-12 -28.5t-29 -11.5zM199 467q-30 0 -30 25
t30 25q28 0 28 -25t-28 -25zM380 283q0 105 4 204h68q4 -100 6 -204h-78zM721 279q-28 0 -42 11t-13 36l1 49h-17v49l60 48h22l2 -33h118q4 -69 4 -156h-77q0 62 1 92h-41l3 -28q0 -12 11 -12q7 0 11 2v-48q-10 -10 -43 -10zM529 280q-28 0 -44 20t-16 54q0 42 24 65t68 23
q36 0 58 -14t22 -34l-1 -111h-56l-5 30q-10 -33 -50 -33zM871 283q2 104 5 156h56l5 -34q14 37 53 37q54 0 55 -69l2 -90h-78l2 73q0 19 -11 19q-13 0 -12 -19l1 -73h-78zM1144 280q-41 0 -63.5 21t-22.5 59t23 60t63 22t63 -22t23 -60t-22.5 -59t-63.5 -21zM258 265v35
l-57 1v1l43 24v17l-43 22v1l57 3v34l-119 -8v-29l55 -31l-55 -32v-31zM554 337q18 0 18 18q0 5 -2 15q-4 6 -14 6q-18 0 -18 -20q0 -19 16 -19zM1144 337q18 0 18 20q0 19 -18 19q-17 0 -17 -19q0 -20 17 -20zM562 54q-31 0 -46 9v55h1q20 -10 40 -10q35 2 37 26
q0 -10 -32 -10q-22 0 -39.5 16t-17.5 38v17h-36l2 -29q1 -11 12 -11q8 0 10 2h1v-48q-17 -10 -43 -10q-29 0 -42.5 11t-12.5 32l1 53h-17v49l63 30h22l-1 -16h111l-2 -63q0 -19 11 -19q13 0 12 19l-1 63h71q3 -51 3 -80q0 -67 -24.5 -95.5t-82.5 -28.5zM683 62q0 101 3 197
h58l2 -31q10 34 50 34q28 0 43.5 -19.5t15.5 -54.5q0 -41 -21.5 -64t-58.5 -23q-5 0 -17 2l2 -41h-77zM963 100q-98 0 -98 79q0 39 22.5 61t63.5 22q77 0 77 -76q0 -11 -2 -21l-87 -4q7 -12 42 -12q23 0 35 5v-47q-21 -7 -53 -7zM139 154h119v82h-29v-46h-18v42h-28v-42h-15

<glyph glyph-name="fi" unicode="fi" 
d="M100 -50v668h191v-668h-191zM199 429q29 0 45 18.5t16 44.5q0 28 -16.5 45.5t-44.5 17.5q-30 0 -46.5 -18.5t-16.5 -44.5q0 -28 17 -45.5t46 -17.5zM820 452q-18 0 -30 11.5t-12 28.5t12 28.5t30 11.5q17 0 29 -11.5t12 -28.5t-12 -28.5t-29 -11.5zM199 467q-30 0 -30 25
t30 25q28 0 28 -25t-28 -25zM380 283q0 105 4 204h68q4 -100 6 -204h-78zM721 279q-28 0 -42 11t-13 36l1 49h-17v49l60 48h22l2 -33h118q4 -69 4 -156h-77q0 62 1 92h-41l3 -28q0 -12 11 -12q7 0 11 2v-48q-10 -10 -43 -10zM529 280q-28 0 -44 20t-16 54q0 42 24 65t68 23
q36 0 58 -14t22 -34l-1 -111h-56l-5 30q-10 -33 -50 -33zM871 283q2 104 5 156h56l5 -34q14 37 53 37q54 0 55 -69l2 -90h-78l2 73q0 19 -11 19q-13 0 -12 -19l1 -73h-78zM1144 280q-41 0 -63.5 21t-22.5 59t23 60t63 22t63 -22t23 -60t-22.5 -59t-63.5 -21zM258 265v35
l-57 1v1l43 24v17l-43 22v1l57 3v34l-119 -8v-29l55 -31l-55 -32v-31zM554 337q18 0 18 18q0 5 -2 15q-4 6 -14 6q-18 0 -18 -20q0 -19 16 -19zM1144 337q18 0 18 20q0 19 -18 19q-17 0 -17 -19q0 -20 17 -20zM562 54q-31 0 -46 9v55h1q20 -10 40 -10q35 2 37 26
q0 -10 -32 -10q-22 0 -39.5 16t-17.5 38v17h-36l2 -29q1 -11 12 -11q8 0 10 2h1v-48q-17 -10 -43 -10q-29 0 -42.5 11t-12.5 32l1 53h-17v49l63 30h22l-1 -16h111l-2 -63q0 -19 11 -19q13 0 12 19l-1 63h71q3 -51 3 -80q0 -67 -24.5 -95.5t-82.5 -28.5zM683 62q0 101 3 197
h58l2 -31q10 34 50 34q28 0 43.5 -19.5t15.5 -54.5q0 -41 -21.5 -64t-58.5 -23q-5 0 -17 2l2 -41h-77zM963 100q-98 0 -98 79q0 39 22.5 61t63.5 22q77 0 77 -76q0 -11 -2 -21l-87 -4q7 -12 42 -12q23 0 35 5v-47q-21 -7 -53 -7zM139 154h119v82h-29v-46h-18v42h-28v-42h-15
v45h-29v-81zM934 183l38 3q2 20 -19 20q-19 0 -19 -23zM765 157q21 0 21 20q0 19 -16 19q-19 0 -19 -19q0 -6 4 -19q3 -1 10 -1zM1050 97q-15 0 -15 15q0 14 15 14q14 0 14 -14q0 -15 -14 -15zM139 11h119v45q0 31 -16 49.5t-45 18.5q-28 0 -44 -18t-16 -47q0 -11 0.5 -22
t1 -17.5t0.5 -8.5zM1050 100q11 0 11 12q0 11 -11 11q-12 0 -12 -11q0 -12 12 -12zM1043 104v15h7q7 0 7 -5q0 -4 -5 -4l4 -6h-4l-2 6h-4v-6h-3zM1046 112h4q3 0 3 2t-3 2h-4v-4zM171 47q0 2 -0.5 5t-0.5 7q0 27 28 27t28 -27v-12h-55z" />
    <glyph glyph-name="fl" unicode="fl" 
d="M100 -50v668h191v-668h-191zM199 429q29 0 45 18.5t16 44.5q0 28 -16.5 45.5t-44.5 17.5q-30 0 -46.5 -18.5t-16.5 -44.5q0 -28 17 -45.5t46 -17.5zM820 452q-18 0 -30 11.5t-12 28.5t12 28.5t30 11.5q17 0 29 -11.5t12 -28.5t-12 -28.5t-29 -11.5zM199 467q-30 0 -30 25
t30 25q28 0 28 -25t-28 -25zM380 283q0 105 4 204h68q4 -100 6 -204h-78zM721 279q-28 0 -42 11t-13 36l1 49h-17v49l60 48h22l2 -33h118q4 -69 4 -156h-77q0 62 1 92h-41l3 -28q0 -12 11 -12q7 0 11 2v-48q-10 -10 -43 -10zM529 280q-28 0 -44 20t-16 54q0 42 24 65t68 23
q36 0 58 -14t22 -34l-1 -111h-56l-5 30q-10 -33 -50 -33zM871 283q2 104 5 156h56l5 -34q14 37 53 37q54 0 55 -69l2 -90h-78l2 73q0 19 -11 19q-13 0 -12 -19l1 -73h-78zM1144 280q-41 0 -63.5 21t-22.5 59t23 60t63 22t63 -22t23 -60t-22.5 -59t-63.5 -21zM258 265v35
l-57 1v1l43 24v17l-43 22v1l57 3v34l-119 -8v-29l55 -31l-55 -32v-31zM554 337q18 0 18 18q0 5 -2 15q-4 6 -14 6q-18 0 -18 -20q0 -19 16 -19zM1144 337q18 0 18 20q0 19 -18 19q-17 0 -17 -19q0 -20 17 -20zM562 54q-31 0 -46 9v55h1q20 -10 40 -10q35 2 37 26
q0 -10 -32 -10q-22 0 -39.5 16t-17.5 38v17h-36l2 -29q1 -11 12 -11q8 0 10 2h1v-48q-17 -10 -43 -10q-29 0 -42.5 11t-12.5 32l1 53h-17v49l63 30h22l-1 -16h111l-2 -63q0 -19 11 -19q13 0 12 19l-1 63h71q3 -51 3 -80q0 -67 -24.5 -95.5t-82.5 -28.5zM683 62q0 101 3 197
h58l2 -31q10 34 50 34q28 0 43.5 -19.5t15.5 -54.5q0 -41 -21.5 -64t-58.5 -23q-5 0 -17 2l2 -41h-77zM963 100q-98 0 -98 79q0 39 22.5 61t63.5 22q77 0 77 -76q0 -11 -2 -21l-87 -4q7 -12 42 -12q23 0 35 5v-47q-21 -7 -53 -7zM139 154h119v82h-29v-46h-18v42h-28v-42h-15
v45h-29v-81zM934 183l38 3q2 20 -19 20q-19 0 -19 -23zM765 157q21 0 21 20q0 19 -16 19q-19 0 -19 -19q0 -6 4 -19q3 -1 10 -1zM1050 97q-15 0 -15 15q0 14 15 14q14 0 14 -14q0 -15 -14 -15zM139 11h119v45q0 31 -16 49.5t-45 18.5q-28 0 -44 -18t-16 -47q0 -11 0.5 -22
t1 -17.5t0.5 -8.5zM1050 100q11 0 11 12q0 11 -11 11q-12 0 -12 -11q0 -12 12 -12zM1043 104v15h7q7 0 7 -5q0 -4 -5 -4l4 -6h-4l-2 6h-4v-6h-3zM1046 112h4q3 0 3 2t-3 2h-4v-4zM171 47q0 2 -0.5 5t-0.5 7q0 27 28 27t28 -27v-12h-55z" />
    <glyph glyph-name="f_f" unicode="ff" 
d="M100 -50v668h191v-668h-191zM199 429q29 0 45 18.5t16 44.5q0 28 -16.5 45.5t-44.5 17.5q-30 0 -46.5 -18.5t-16.5 -44.5q0 -28 17 -45.5t46 -17.5zM820 452q-18 0 -30 11.5t-12 28.5t12 28.5t30 11.5q17 0 29 -11.5t12 -28.5t-12 -28.5t-29 -11.5zM199 467q-30 0 -30 25
t30 25q28 0 28 -25t-28 -25zM380 283q0 105 4 204h68q4 -100 6 -204h-78zM721 279q-28 0 -42 11t-13 36l1 49h-17v49l60 48h22l2 -33h118q4 -69 4 -156h-77q0 62 1 92h-41l3 -28q0 -12 11 -12q7 0 11 2v-48q-10 -10 -43 -10zM529 280q-28 0 -44 20t-16 54q0 42 24 65t68 23
q36 0 58 -14t22 -34l-1 -111h-56l-5 30q-10 -33 -50 -33zM871 283q2 104 5 156h56l5 -34q14 37 53 37q54 0 55 -69l2 -90h-78l2 73q0 19 -11 19q-13 0 -12 -19l1 -73h-78zM1144 280q-41 0 -63.5 21t-22.5 59t23 60t63 22t63 -22t23 -60t-22.5 -59t-63.5 -21zM258 265v35
l-57 1v1l43 24v17l-43 22v1l57 3v34l-119 -8v-29l55 -31l-55 -32v-31zM554 337q18 0 18 18q0 5 -2 15q-4 6 -14 6q-18 0 -18 -20q0 -19 16 -19zM1144 337q18 0 18 20q0 19 -18 19q-17 0 -17 -19q0 -20 17 -20zM562 54q-31 0 -46 9v55h1q20 -10 40 -10q35 2 37 26
q0 -10 -32 -10q-22 0 -39.5 16t-17.5 38v17h-36l2 -29q1 -11 12 -11q8 0 10 2h1v-48q-17 -10 -43 -10q-29 0 -42.5 11t-12.5 32l1 53h-17v49l63 30h22l-1 -16h111l-2 -63q0 -19 11 -19q13 0 12 19l-1 63h71q3 -51 3 -80q0 -67 -24.5 -95.5t-82.5 -28.5zM683 62q0 101 3 197
h58l2 -31q10 34 50 34q28 0 43.5 -19.5t15.5 -54.5q0 -41 -21.5 -64t-58.5 -23q-5 0 -17 2l2 -41h-77zM963 100q-98 0 -98 79q0 39 22.5 61t63.5 22q77 0 77 -76q0 -11 -2 -21l-87 -4q7 -12 42 -12q23 0 35 5v-47q-21 -7 -53 -7zM139 154h119v82h-29v-46h-18v42h-28v-42h-15
v45h-29v-81zM934 183l38 3q2 20 -19 20q-19 0 -19 -23zM765 157q21 0 21 20q0 19 -16 19q-19 0 -19 -19q0 -6 4 -19q3 -1 10 -1zM1050 97q-15 0 -15 15q0 14 15 14q14 0 14 -14q0 -15 -14 -15zM139 11h119v45q0 31 -16 49.5t-45 18.5q-28 0 -44 -18t-16 -47q0 -11 0.5 -22
t1 -17.5t0.5 -8.5zM1050 100q11 0 11 12q0 11 -11 11q-12 0 -12 -11q0 -12 12 -12zM1043 104v15h7q7 0 7 -5q0 -4 -5 -4l4 -6h-4l-2 6h-4v-6h-3zM1046 112h4q3 0 3 2t-3 2h-4v-4zM171 47q0 2 -0.5 5t-0.5 7q0 27 28 27t28 -27v-12h-55z" />
    <glyph glyph-name="f_f_i" unicode="ffi" 
d="M100 -50v668h191v-668h-191zM199 429q29 0 45 18.5t16 44.5q0 28 -16.5 45.5t-44.5 17.5q-30 0 -46.5 -18.5t-16.5 -44.5q0 -28 17 -45.5t46 -17.5zM820 452q-18 0 -30 11.5t-12 28.5t12 28.5t30 11.5q17 0 29 -11.5t12 -28.5t-12 -28.5t-29 -11.5zM199 467q-30 0 -30 25
t30 25q28 0 28 -25t-28 -25zM380 283q0 105 4 204h68q4 -100 6 -204h-78zM721 279q-28 0 -42 11t-13 36l1 49h-17v49l60 48h22l2 -33h118q4 -69 4 -156h-77q0 62 1 92h-41l3 -28q0 -12 11 -12q7 0 11 2v-48q-10 -10 -43 -10zM529 280q-28 0 -44 20t-16 54q0 42 24 65t68 23
q36 0 58 -14t22 -34l-1 -111h-56l-5 30q-10 -33 -50 -33zM871 283q2 104 5 156h56l5 -34q14 37 53 37q54 0 55 -69l2 -90h-78l2 73q0 19 -11 19q-13 0 -12 -19l1 -73h-78zM1144 280q-41 0 -63.5 21t-22.5 59t23 60t63 22t63 -22t23 -60t-22.5 -59t-63.5 -21zM258 265v35
l-57 1v1l43 24v17l-43 22v1l57 3v34l-119 -8v-29l55 -31l-55 -32v-31zM554 337q18 0 18 18q0 5 -2 15q-4 6 -14 6q-18 0 -18 -20q0 -19 16 -19zM1144 337q18 0 18 20q0 19 -18 19q-17 0 -17 -19q0 -20 17 -20zM562 54q-31 0 -46 9v55h1q20 -10 40 -10q35 2 37 26
q0 -10 -32 -10q-22 0 -39.5 16t-17.5 38v17h-36l2 -29q1 -11 12 -11q8 0 10 2h1v-48q-17 -10 -43 -10q-29 0 -42.5 11t-12.5 32l1 53h-17v49l63 30h22l-1 -16h111l-2 -63q0 -19 11 -19q13 0 12 19l-1 63h71q3 -51 3 -80q0 -67 -24.5 -95.5t-82.5 -28.5zM683 62q0 101 3 197
h58l2 -31q10 34 50 34q28 0 43.5 -19.5t15.5 -54.5q0 -41 -21.5 -64t-58.5 -23q-5 0 -17 2l2 -41h-77zM963 100q-98 0 -98 79q0 39 22.5 61t63.5 22q77 0 77 -76q0 -11 -2 -21l-87 -4q7 -12 42 -12q23 0 35 5v-47q-21 -7 -53 -7zM139 154h119v82h-29v-46h-18v42h-28v-42h-15
v45h-29v-81zM934 183l38 3q2 20 -19 20q-19 0 -19 -23zM765 157q21 0 21 20q0 19 -16 19q-19 0 -19 -19q0 -6 4 -19q3 -1 10 -1zM1050 97q-15 0 -15 15q0 14 15 14q14 0 14 -14q0 -15 -14 -15zM139 11h119v45q0 31 -16 49.5t-45 18.5q-28 0 -44 -18t-16 -47q0 -11 0.5 -22
t1 -17.5t0.5 -8.5zM1050 100q11 0 11 12q0 11 -11 11q-12 0 -12 -11q0 -12 12 -12zM1043 104v15h7q7 0 7 -5q0 -4 -5 -4l4 -6h-4l-2 6h-4v-6h-3zM1046 112h4q3 0 3 2t-3 2h-4v-4zM171 47q0 2 -0.5 5t-0.5 7q0 27 28 27t28 -27v-12h-55z" />
    <glyph glyph-name="f_f_l" unicode="ffl" 
d="M100 -50v668h191v-668h-191zM199 429q29 0 45 18.5t16 44.5q0 28 -16.5 45.5t-44.5 17.5q-30 0 -46.5 -18.5t-16.5 -44.5q0 -28 17 -45.5t46 -17.5zM820 452q-18 0 -30 11.5t-12 28.5t12 28.5t30 11.5q17 0 29 -11.5t12 -28.5t-12 -28.5t-29 -11.5zM199 467q-30 0 -30 25
t30 25q28 0 28 -25t-28 -25zM380 283q0 105 4 204h68q4 -100 6 -204h-78zM721 279q-28 0 -42 11t-13 36l1 49h-17v49l60 48h22l2 -33h118q4 -69 4 -156h-77q0 62 1 92h-41l3 -28q0 -12 11 -12q7 0 11 2v-48q-10 -10 -43 -10zM529 280q-28 0 -44 20t-16 54q0 42 24 65t68 23
q36 0 58 -14t22 -34l-1 -111h-56l-5 30q-10 -33 -50 -33zM871 283q2 104 5 156h56l5 -34q14 37 53 37q54 0 55 -69l2 -90h-78l2 73q0 19 -11 19q-13 0 -12 -19l1 -73h-78zM1144 280q-41 0 -63.5 21t-22.5 59t23 60t63 22t63 -22t23 -60t-22.5 -59t-63.5 -21zM258 265v35
l-57 1v1l43 24v17l-43 22v1l57 3v34l-119 -8v-29l55 -31l-55 -32v-31zM554 337q18 0 18 18q0 5 -2 15q-4 6 -14 6q-18 0 -18 -20q0 -19 16 -19zM1144 337q18 0 18 20q0 19 -18 19q-17 0 -17 -19q0 -20 17 -20zM562 54q-31 0 -46 9v55h1q20 -10 40 -10q35 2 37 26
q0 -10 -32 -10q-22 0 -39.5 16t-17.5 38v17h-36l2 -29q1 -11 12 -11q8 0 10 2h1v-48q-17 -10 -43 -10q-29 0 -42.5 11t-12.5 32l1 53h-17v49l63 30h22l-1 -16h111l-2 -63q0 -19 11 -19q13 0 12 19l-1 63h71q3 -51 3 -80q0 -67 -24.5 -95.5t-82.5 -28.5zM683 62q0 101 3 197
h58l2 -31q10 34 50 34q28 0 43.5 -19.5t15.5 -54.5q0 -41 -21.5 -64t-58.5 -23q-5 0 -17 2l2 -41h-77zM963 100q-98 0 -98 79q0 39 22.5 61t63.5 22q77 0 77 -76q0 -11 -2 -21l-87 -4q7 -12 42 -12q23 0 35 5v-47q-21 -7 -53 -7zM139 154h119v82h-29v-46h-18v42h-28v-42h-15
v45h-29v-81zM934 183l38 3q2 20 -19 20q-19 0 -19 -23zM765 157q21 0 21 20q0 19 -16 19q-19 0 -19 -19q0 -6 4 -19q3 -1 10 -1zM1050 97q-15 0 -15 15q0 14 15 14q14 0 14 -14q0 -15 -14 -15zM139 11h119v45q0 31 -16 49.5t-45 18.5q-28 0 -44 -18t-16 -47q0 -11 0.5 -22
t1 -17.5t0.5 -8.5zM1050 100q11 0 11 12q0 11 -11 11q-12 0 -12 -11q0 -12 12 -12zM1043 104v15h7q7 0 7 -5q0 -4 -5 -4l4 -6h-4l-2 6h-4v-6h-3zM1046 112h4q3 0 3 2t-3 2h-4v-4zM171 47q0 2 -0.5 5t-0.5 7q0 27 28 27t28 -27v-12h-55z" />
    <glyph glyph-name="f_t" unicode="ft" 
d="M100 -50v668h191v-668h-191zM199 429q29 0 45 18.5t16 44.5q0 28 -16.5 45.5t-44.5 17.5q-30 0 -46.5 -18.5t-16.5 -44.5q0 -28 17 -45.5t46 -17.5zM820 452q-18 0 -30 11.5t-12 28.5t12 28.5t30 11.5q17 0 29 -11.5t12 -28.5t-12 -28.5t-29 -11.5zM199 467q-30 0 -30 25
t30 25q28 0 28 -25t-28 -25zM380 283q0 105 4 204h68q4 -100 6 -204h-78zM721 279q-28 0 -42 11t-13 36l1 49h-17v49l60 48h22l2 -33h118q4 -69 4 -156h-77q0 62 1 92h-41l3 -28q0 -12 11 -12q7 0 11 2v-48q-10 -10 -43 -10zM529 280q-28 0 -44 20t-16 54q0 42 24 65t68 23
q36 0 58 -14t22 -34l-1 -111h-56l-5 30q-10 -33 -50 -33zM871 283q2 104 5 156h56l5 -34q14 37 53 37q54 0 55 -69l2 -90h-78l2 73q0 19 -11 19q-13 0 -12 -19l1 -73h-78zM1144 280q-41 0 -63.5 21t-22.5 59t23 60t63 22t63 -22t23 -60t-22.5 -59t-63.5 -21zM258 265v35
l-57 1v1l43 24v17l-43 22v1l57 3v34l-119 -8v-29l55 -31l-55 -32v-31zM554 337q18 0 18 18q0 5 -2 15q-4 6 -14 6q-18 0 -18 -20q0 -19 16 -19zM1144 337q18 0 18 20q0 19 -18 19q-17 0 -17 -19q0 -20 17 -20zM562 54q-31 0 -46 9v55h1q20 -10 40 -10q35 2 37 26
q0 -10 -32 -10q-22 0 -39.5 16t-17.5 38v17h-36l2 -29q1 -11 12 -11q8 0 10 2h1v-48q-17 -10 -43 -10q-29 0 -42.5 11t-12.5 32l1 53h-17v49l63 30h22l-1 -16h111l-2 -63q0 -19 11 -19q13 0 12 19l-1 63h71q3 -51 3 -80q0 -67 -24.5 -95.5t-82.5 -28.5zM683 62q0 101 3 197
h58l2 -31q10 34 50 34q28 0 43.5 -19.5t15.5 -54.5q0 -41 -21.5 -64t-58.5 -23q-5 0 -17 2l2 -41h-77zM963 100q-98 0 -98 79q0 39 22.5 61t63.5 22q77 0 77 -76q0 -11 -2 -21l-87 -4q7 -12 42 -12q23 0 35 5v-47q-21 -7 -53 -7zM139 154h119v82h-29v-46h-18v42h-28v-42h-15
v45h-29v-81zM934 183l38 3q2 20 -19 20q-19 0 -19 -23zM765 157q21 0 21 20q0 19 -16 19q-19 0 -19 -19q0 -6 4 -19q3 -1 10 -1zM1050 97q-15 0 -15 15q0 14 15 14q14 0 14 -14q0 -15 -14 -15zM139 11h119v45q0 31 -16 49.5t-45 18.5q-28 0 -44 -18t-16 -47q0 -11 0.5 -22
t1 -17.5t0.5 -8.5zM1050 100q11 0 11 12q0 11 -11 11q-12 0 -12 -11q0 -12 12 -12zM1043 104v15h7q7 0 7 -5q0 -4 -5 -4l4 -6h-4l-2 6h-4v-6h-3zM1046 112h4q3 0 3 2t-3 2h-4v-4zM171 47q0 2 -0.5 5t-0.5 7q0 27 28 27t28 -27v-12h-55z" />
    <glyph glyph-name="t_t" unicode="tt" 
d="M100 -50v668h191v-668h-191zM199 429q29 0 45 18.5t16 44.5q0 28 -16.5 45.5t-44.5 17.5q-30 0 -46.5 -18.5t-16.5 -44.5q0 -28 17 -45.5t46 -17.5zM820 452q-18 0 -30 11.5t-12 28.5t12 28.5t30 11.5q17 0 29 -11.5t12 -28.5t-12 -28.5t-29 -11.5zM199 467q-30 0 -30 25
t30 25q28 0 28 -25t-28 -25zM380 283q0 105 4 204h68q4 -100 6 -204h-78zM721 279q-28 0 -42 11t-13 36l1 49h-17v49l60 48h22l2 -33h118q4 -69 4 -156h-77q0 62 1 92h-41l3 -28q0 -12 11 -12q7 0 11 2v-48q-10 -10 -43 -10zM529 280q-28 0 -44 20t-16 54q0 42 24 65t68 23
q36 0 58 -14t22 -34l-1 -111h-56l-5 30q-10 -33 -50 -33zM871 283q2 104 5 156h56l5 -34q14 37 53 37q54 0 55 -69l2 -90h-78l2 73q0 19 -11 19q-13 0 -12 -19l1 -73h-78zM1144 280q-41 0 -63.5 21t-22.5 59t23 60t63 22t63 -22t23 -60t-22.5 -59t-63.5 -21zM258 265v35
l-57 1v1l43 24v17l-43 22v1l57 3v34l-119 -8v-29l55 -31l-55 -32v-31zM554 337q18 0 18 18q0 5 -2 15q-4 6 -14 6q-18 0 -18 -20q0 -19 16 -19zM1144 337q18 0 18 20q0 19 -18 19q-17 0 -17 -19q0 -20 17 -20zM562 54q-31 0 -46 9v55h1q20 -10 40 -10q35 2 37 26
q0 -10 -32 -10q-22 0 -39.5 16t-17.5 38v17h-36l2 -29q1 -11 12 -11q8 0 10 2h1v-48q-17 -10 -43 -10q-29 0 -42.5 11t-12.5 32l1 53h-17v49l63 30h22l-1 -16h111l-2 -63q0 -19 11 -19q13 0 12 19l-1 63h71q3 -51 3 -80q0 -67 -24.5 -95.5t-82.5 -28.5zM683 62q0 101 3 197
h58l2 -31q10 34 50 34q28 0 43.5 -19.5t15.5 -54.5q0 -41 -21.5 -64t-58.5 -23q-5 0 -17 2l2 -41h-77zM963 100q-98 0 -98 79q0 39 22.5 61t63.5 22q77 0 77 -76q0 -11 -2 -21l-87 -4q7 -12 42 -12q23 0 35 5v-47q-21 -7 -53 -7zM139 154h119v82h-29v-46h-18v42h-28v-42h-15
v45h-29v-81zM934 183l38 3q2 20 -19 20q-19 0 -19 -23zM765 157q21 0 21 20q0 19 -16 19q-19 0 -19 -19q0 -6 4 -19q3 -1 10 -1zM1050 97q-15 0 -15 15q0 14 15 14q14 0 14 -14q0 -15 -14 -15zM139 11h119v45q0 31 -16 49.5t-45 18.5q-28 0 -44 -18t-16 -47q0 -11 0.5 -22
t1 -17.5t0.5 -8.5zM1050 100q11 0 11 12q0 11 -11 11q-12 0 -12 -11q0 -12 12 -12zM1043 104v15h7q7 0 7 -5q0 -4 -5 -4l4 -6h-4l-2 6h-4v-6h-3zM1046 112h4q3 0 3 2t-3 2h-4v-4zM171 47q0 2 -0.5 5t-0.5 7q0 27 28 27t28 -27v-12h-55z" />
    <glyph glyph-name=".notdef" 
d="M100 -50v668h191v-668h-191zM199 429q29 0 45 18.5t16 44.5q0 28 -16.5 45.5t-44.5 17.5q-30 0 -46.5 -18.5t-16.5 -44.5q0 -28 17 -45.5t46 -17.5zM820 452q-18 0 -30 11.5t-12 28.5t12 28.5t30 11.5q17 0 29 -11.5t12 -28.5t-12 -28.5t-29 -11.5zM199 467q-30 0 -30 25
t30 25q28 0 28 -25t-28 -25zM380 283q0 105 4 204h68q4 -100 6 -204h-78zM721 279q-28 0 -42 11t-13 36l1 49h-17v49l60 48h22l2 -33h118q4 -69 4 -156h-77q0 62 1 92h-41l3 -28q0 -12 11 -12q7 0 11 2v-48q-10 -10 -43 -10zM529 280q-28 0 -44 20t-16 54q0 42 24 65t68 23
q36 0 58 -14t22 -34l-1 -111h-56l-5 30q-10 -33 -50 -33zM871 283q2 104 5 156h56l5 -34q14 37 53 37q54 0 55 -69l2 -90h-78l2 73q0 19 -11 19q-13 0 -12 -19l1 -73h-78zM1144 280q-41 0 -63.5 21t-22.5 59t23 60t63 22t63 -22t23 -60t-22.5 -59t-63.5 -21zM258 265v35
l-57 1v1l43 24v17l-43 22v1l57 3v34l-119 -8v-29l55 -31l-55 -32v-31zM554 337q18 0 18 18q0 5 -2 15q-4 6 -14 6q-18 0 -18 -20q0 -19 16 -19zM1144 337q18 0 18 20q0 19 -18 19q-17 0 -17 -19q0 -20 17 -20zM562 54q-31 0 -46 9v55h1q20 -10 40 -10q35 2 37 26
q0 -10 -32 -10q-22 0 -39.5 16t-17.5 38v17h-36l2 -29q1 -11 12 -11q8 0 10 2h1v-48q-17 -10 -43 -10q-29 0 -42.5 11t-12.5 32l1 53h-17v49l63 30h22l-1 -16h111l-2 -63q0 -19 11 -19q13 0 12 19l-1 63h71q3 -51 3 -80q0 -67 -24.5 -95.5t-82.5 -28.5zM683 62q0 101 3 197
h58l2 -31q10 34 50 34q28 0 43.5 -19.5t15.5 -54.5q0 -41 -21.5 -64t-58.5 -23q-5 0 -17 2l2 -41h-77zM963 100q-98 0 -98 79q0 39 22.5 61t63.5 22q77 0 77 -76q0 -11 -2 -21l-87 -4q7 -12 42 -12q23 0 35 5v-47q-21 -7 -53 -7zM139 154h119v82h-29v-46h-18v42h-28v-42h-15
v45h-29v-81zM934 183l38 3q2 20 -19 20q-19 0 -19 -23zM765 157q21 0 21 20q0 19 -16 19q-19 0 -19 -19q0 -6 4 -19q3 -1 10 -1zM1050 97q-15 0 -15 15q0 14 15 14q14 0 14 -14q0 -15 -14 -15zM139 11h119v45q0 31 -16 49.5t-45 18.5q-28 0 -44 -18t-16 -47q0 -11 0.5 -22
t1 -17.5t0.5 -8.5zM1050 100q11 0 11 12q0 11 -11 11q-12 0 -12 -11q0 -12 12 -12zM1043 104v15h7q7 0 7 -5q0 -4 -5 -4l4 -6h-4l-2 6h-4v-6h-3zM1046 112h4q3 0 3 2t-3 2h-4v-4zM171 47q0 2 -0.5 5t-0.5 7q0 27 28 27t28 -27v-12h-55z" />
    <glyph glyph-name=".null" horiz-adv-x="0" 
 />
    <glyph glyph-name="nonmarkingreturn" horiz-adv-x="333" 
 />
    <glyph glyph-name="space" unicode=" " horiz-adv-x="194" 
 />
    <glyph glyph-name="exclam" unicode="!" horiz-adv-x="293" 
d="M92 233q-15 0 -15 15l-10 458q0 15 15 15h127q15 0 15 -15l-8 -458q0 -15 -15 -15h-109zM146 -15q-42 0 -69 26t-27 68t26.5 67t69.5 25t69.5 -25t26.5 -67q0 -43 -26 -68.5t-70 -25.5z" />
    <glyph glyph-name="quotedbl" unicode="&#x22;" horiz-adv-x="415" 
d="M72 450q-14 0 -16 15l-15 240q-1 15 14 15h108q17 0 15 -15l-16 -241q-2 -14 -16 -14h-74zM268 450q-14 0 -16 15l-15 240q-1 15 14 15h108q17 0 15 -15l-16 -241q-2 -14 -16 -14h-74z" />
    <glyph glyph-name="numbersign" unicode="#" horiz-adv-x="816" 
d="M776 562q18 0 13 -17l-26 -98q-3 -13 -16 -13h-108l-35 -136h106q18 0 13 -17l-27 -98q-3 -13 -16 -13h-109l-41 -157q-3 -13 -16 -13h-103q-18 0 -13 17l39 153h-166l-41 -157q-3 -13 -16 -13h-104q-18 0 -13 17l39 153h-95q-18 0 -13 17l26 98q3 13 16 13h99l36 136
h-97q-18 0 -13 17l26 98q3 13 16 13h101l37 145q3 13 16 13h104q18 0 13 -17l-36 -141h167l37 145q3 13 16 13h103q18 0 13 -17l-36 -141h104zM470 298l36 136h-167l-35 -136h166z" />
    <glyph glyph-name="dollar" unicode="$" horiz-adv-x="528" 
d="M496 250q0 -65 -44.5 -110.5t-140.5 -54.5v-84q0 -15 -15 -15h-52q-15 0 -15 15v83q-96 7 -173 43q-11 4 -11 17l1 93q0 8 5 11t12 -1q42 -20 102 -35t106 -15q74 0 74 39q0 28 -55 45q-15 4 -48 12l-10 2q-40 9 -67 18.5t-58 27.5t-47 47t-16 68q0 64 49 107.5t136 51.5
v79q0 15 15 15h52q15 0 15 -15v-80q72 -5 132 -22q12 -4 12 -17v-93q0 -19 -17 -12q-95 33 -171 33q-72 0 -72 -38q0 -22 23 -32.5t81 -22.5l15 -3q29 -6 49 -12t47.5 -18.5t44.5 -28t29 -41t12 -57.5z" />
    <glyph glyph-name="percent" unicode="%" 
d="M100 -50v668h191v-668h-191zM199 429q29 0 45 18.5t16 44.5q0 28 -16.5 45.5t-44.5 17.5q-30 0 -46.5 -18.5t-16.5 -44.5q0 -28 17 -45.5t46 -17.5zM820 452q-18 0 -30 11.5t-12 28.5t12 28.5t30 11.5q17 0 29 -11.5t12 -28.5t-12 -28.5t-29 -11.5zM199 467q-30 0 -30 25
t30 25q28 0 28 -25t-28 -25zM380 283q0 105 4 204h68q4 -100 6 -204h-78zM721 279q-28 0 -42 11t-13 36l1 49h-17v49l60 48h22l2 -33h118q4 -69 4 -156h-77q0 62 1 92h-41l3 -28q0 -12 11 -12q7 0 11 2v-48q-10 -10 -43 -10zM529 280q-28 0 -44 20t-16 54q0 42 24 65t68 23
q36 0 58 -14t22 -34l-1 -111h-56l-5 30q-10 -33 -50 -33zM871 283q2 104 5 156h56l5 -34q14 37 53 37q54 0 55 -69l2 -90h-78l2 73q0 19 -11 19q-13 0 -12 -19l1 -73h-78zM1144 280q-41 0 -63.5 21t-22.5 59t23 60t63 22t63 -22t23 -60t-22.5 -59t-63.5 -21zM258 265v35
l-57 1v1l43 24v17l-43 22v1l57 3v34l-119 -8v-29l55 -31l-55 -32v-31zM554 337q18 0 18 18q0 5 -2 15q-4 6 -14 6q-18 0 -18 -20q0 -19 16 -19zM1144 337q18 0 18 20q0 19 -18 19q-17 0 -17 -19q0 -20 17 -20zM562 54q-31 0 -46 9v55h1q20 -10 40 -10q35 2 37 26
q0 -10 -32 -10q-22 0 -39.5 16t-17.5 38v17h-36l2 -29q1 -11 12 -11q8 0 10 2h1v-48q-17 -10 -43 -10q-29 0 -42.5 11t-12.5 32l1 53h-17v49l63 30h22l-1 -16h111l-2 -63q0 -19 11 -19q13 0 12 19l-1 63h71q3 -51 3 -80q0 -67 -24.5 -95.5t-82.5 -28.5zM683 62q0 101 3 197
h58l2 -31q10 34 50 34q28 0 43.5 -19.5t15.5 -54.5q0 -41 -21.5 -64t-58.5 -23q-5 0 -17 2l2 -41h-77zM963 100q-98 0 -98 79q0 39 22.5 61t63.5 22q77 0 77 -76q0 -11 -2 -21l-87 -4q7 -12 42 -12q23 0 35 5v-47q-21 -7 -53 -7zM139 154h119v82h-29v-46h-18v42h-28v-42h-15
v45h-29v-81zM934 183l38 3q2 20 -19 20q-19 0 -19 -23zM765 157q21 0 21 20q0 19 -16 19q-19 0 -19 -19q0 -6 4 -19q3 -1 10 -1zM1050 97q-15 0 -15 15q0 14 15 14q14 0 14 -14q0 -15 -14 -15zM139 11h119v45q0 31 -16 49.5t-45 18.5q-28 0 -44 -18t-16 -47q0 -11 0.5 -22
t1 -17.5t0.5 -8.5zM1050 100q11 0 11 12q0 11 -11 11q-12 0 -12 -11q0 -12 12 -12zM1043 104v15h7q7 0 7 -5q0 -4 -5 -4l4 -6h-4l-2 6h-4v-6h-3zM1046 112h4q3 0 3 2t-3 2h-4v-4zM171 47q0 2 -0.5 5t-0.5 7q0 27 28 27t28 -27v-12h-55z" />
    <glyph glyph-name="ampersand" unicode="&#x26;" horiz-adv-x="678" 
d="M657 18q6 -8 4 -13t-12 -5h-132q-11 0 -18 9l-20 24q-85 -47 -193 -47q-106 0 -179.5 56t-73.5 146q0 119 147 202q-60 81 -61 164q-2 79 56.5 130t162.5 51q90 0 147.5 -47t57.5 -118q0 -73 -44.5 -121t-127.5 -92l116 -138q19 45 22 97q0 15 15 15h109q15 0 15 -17
q-4 -116 -72 -200zM337 620q-85 0 -85 -72q0 -41 45 -100q58 29 85.5 54.5t27.5 58.5q0 28 -20 43.5t-53 15.5zM305 101q51 0 95 24l-145 171q-38 -20 -56.5 -42.5t-18.5 -58.5q0 -94 125 -94z" />
    <glyph glyph-name="quotesingle" unicode="'" horiz-adv-x="219" 
d="M72 450q-14 0 -16 15l-15 240q-1 15 14 15h108q17 0 15 -15l-16 -241q-2 -14 -16 -14h-74z" />
    <glyph glyph-name="parenleft" unicode="(" horiz-adv-x="339" 
d="M216 -188q-12 0 -18 9q-164 198 -164 470q0 130 42 248t122 208q7 8 18 8h111q9 0 11.5 -5.5t-2.5 -12.5q-157 -206 -157 -443q0 -240 159 -464q5 -8 2.5 -13t-11.5 -5h-113z" />
    <glyph glyph-name="parenright" unicode=")" horiz-adv-x="339" 
d="M10 -188q-9 0 -11.5 5t2.5 13q159 224 159 464q0 237 -157 443q-5 7 -2.5 12.5t11.5 5.5h111q11 0 18 -8q80 -90 122 -208t42 -248q0 -272 -164 -470q-6 -9 -18 -9h-113z" />
    <glyph glyph-name="asterisk" unicode="*" horiz-adv-x="421" 
d="M122 358l-44 31q-13 8 -4 21l66 87l-99 36q-13 4 -9 19l17 50q4 14 19 9l99 -32v106q0 15 15 15h55q15 0 15 -15v-106l103 34q15 5 19 -9l16 -52q4 -15 -9 -19l-101 -36l63 -84q9 -11 -3 -21l-43 -33q-11 -9 -21 3l-67 88l-66 -88q-10 -11 -21 -4z" />
    <glyph glyph-name="plus" unicode="+" horiz-adv-x="483" 
d="M194 158q-15 0 -15 15v125h-123q-15 0 -15 15v95q0 15 15 15h123v125q0 15 15 15h95q15 0 15 -15v-125h123q15 0 15 -15v-95q0 -15 -15 -15h-123v-125q0 -15 -15 -15h-95z" />
    <glyph glyph-name="comma" unicode="," horiz-adv-x="236" 
d="M44 -191q-16 0 -13 16q16 103 18 239q0 15 15 15h109q15 0 15 -15q-4 -152 -50 -244q-6 -11 -18 -11h-76z" />
    <glyph glyph-name="hyphen" unicode="-" horiz-adv-x="472" 
d="M65 203q-15 0 -15 15v95q0 15 15 15h342q15 0 15 -15v-95q0 -15 -15 -15h-342z" />
    <glyph glyph-name="period" unicode="." horiz-adv-x="264" 
d="M132 -15q-42 0 -69 26t-27 68t26.5 67t69.5 25t69.5 -25t26.5 -67q0 -43 -26 -68.5t-70 -25.5z" />
    <glyph glyph-name="slash" unicode="/" horiz-adv-x="516" 
d="M33 -215q-17 0 -12 17l327 941q4 12 17 12h119q17 0 12 -17l-327 -941q-4 -12 -17 -12h-119z" />
    <glyph glyph-name="zero" unicode="0" horiz-adv-x="752" 
d="M378 -17q-68 0 -127.5 24t-106 69t-74 118t-27.5 165q0 176 98 276t236 100t235 -100t97 -276q0 -180 -95.5 -278t-235.5 -98zM377 117q77 0 128.5 60.5t51.5 181.5t-52.5 181.5t-127.5 60.5q-76 0 -128 -60.5t-52 -181.5t51.5 -181.5t128.5 -60.5z" />
    <glyph glyph-name="one" unicode="1" horiz-adv-x="375" 
d="M161 0q-15 0 -15 15v522l-100 -43q-8 -4 -13 -0.5t-5 11.5v125q0 14 12 18l163 68q8 4 19 4h57q15 0 15 -15v-690q0 -15 -15 -15h-118z" />
    <glyph glyph-name="two" unicode="2" horiz-adv-x="602" 
d="M54 0q-15 0 -15 15v92q0 12 10 18q141 86 231.5 180t92.5 178q0 65 -37.5 92.5t-110.5 27.5q-72 0 -155 -35q-18 -8 -18 11v100q0 13 11 17q90 40 209 40q128 0 196 -57.5t68 -166.5q0 -100 -66.5 -196.5t-179.5 -175.5v-7h254q15 0 15 -15v-103q0 -15 -15 -15h-490z" />
    <glyph glyph-name="three" unicode="3" horiz-adv-x="571" 
d="M254 -17q-103 0 -198 25q-13 3 -13 16v101q0 18 17 13q73 -20 150 -20q151 0 151 96q0 92 -134 92h-111q-15 0 -15 15v98q0 15 15 15h117q119 0 119 91q0 77 -129 77q-77 0 -151 -24q-17 -7 -17 12v98q0 13 13 17q106 30 197 30q113 0 181 -48t68 -147q0 -118 -122 -162
v-7q62 -15 97.5 -60.5t35.5 -112.5q0 -100 -74.5 -157.5t-196.5 -57.5z" />
    <glyph glyph-name="four" unicode="4" horiz-adv-x="611" 
d="M571 270q15 0 15 -15v-103q0 -15 -15 -15h-45v-122q0 -15 -15 -15h-123q-15 0 -15 15v122h-332q-15 0 -15 15v108q0 9 5 19l239 430q6 11 18 11h134q9 0 12 -5t-1 -13l-245 -432h185v115q0 15 15 15h123q15 0 15 -15v-115h45z" />
    <glyph glyph-name="five" unicode="5" horiz-adv-x="583" 
d="M257 -17q-105 0 -194 34q-12 5 -12 18v101q0 19 17 12q77 -30 162 -30q160 0 160 113q0 32 -13 53t-39 31.5t-54.5 14t-68.5 3.5q-59 0 -131 -13q-16 -3 -16 14v371q0 15 15 15h399q15 0 15 -15v-98q0 -15 -15 -15h-278v-142q41 7 83 7q119 0 192 -57.5t73 -170.5
q0 -119 -82.5 -182.5t-212.5 -63.5z" />
    <glyph glyph-name="six" unicode="6" horiz-adv-x="628" 
d="M322 -14q-129 0 -205.5 75t-76.5 188q0 120 85 245l153 217q6 9 19 9h125q20 0 9 -18l-157 -228h6q31 16 84 16q105 0 172.5 -66.5t67.5 -176.5q0 -108 -76.5 -184.5t-205.5 -76.5zM322 112q63 0 99.5 38.5t36.5 96.5q0 57 -38 94t-99 37q-57 0 -96 -33t-39 -98
q0 -60 37 -97.5t99 -37.5z" />
    <glyph glyph-name="seven" unicode="7" horiz-adv-x="541" 
d="M101 0q-19 0 -11 18l270 577h-323q-15 0 -15 15v95q0 15 15 15h467q15 0 15 -15v-76l-286 -618q-5 -11 -17 -11h-115z" />
    <glyph glyph-name="eight" unicode="8" horiz-adv-x="662" 
d="M333 -17q-137 0 -215 59.5t-78 161.5q0 136 144 183v7q-104 42 -104 157q0 84 68.5 134t183.5 50t183.5 -49t68.5 -134q0 -115 -107 -158v-7q145 -42 145 -184q0 -100 -77.5 -160t-211.5 -60zM331 444q50 0 75 28t25 66q0 32 -24.5 57.5t-74.5 25.5q-48 0 -73.5 -24.5
t-24.5 -59.5q1 -41 24.5 -67t72.5 -26zM330 97q63 0 99.5 34t36.5 83q0 51 -38 83.5t-96 32.5q-59 0 -97 -30t-38 -86q0 -52 35.5 -84.5t97.5 -32.5z" />
    <glyph glyph-name="nine" unicode="9" horiz-adv-x="628" 
d="M206 0q-20 0 -9 18l157 228h-6q-31 -16 -84 -16q-105 0 -172.5 66.5t-67.5 176.5q0 108 76.5 185t205.5 77t205.5 -75.5t76.5 -188.5q0 -120 -85 -245l-153 -217q-6 -9 -19 -9h-125zM307 342q57 0 96 33t39 98q0 61 -37 98.5t-99 37.5q-63 0 -99.5 -39t-36.5 -97
q0 -57 38 -94t99 -37z" />
    <glyph glyph-name="colon" unicode=":" horiz-adv-x="295" 
d="M147 332q-42 0 -69 26t-27 68t26.5 67t69.5 25t69.5 -25t26.5 -67q0 -43 -26 -68.5t-70 -25.5zM147 -15q-42 0 -69 26t-27 68t26.5 67t69.5 25t69.5 -25t26.5 -67q0 -43 -26 -68.5t-70 -25.5z" />
    <glyph glyph-name="semicolon" unicode=";" horiz-adv-x="289" 
d="M145 332q-42 0 -69 26t-27 68t26.5 67t69.5 25t69.5 -25t26.5 -67q0 -43 -26 -68.5t-70 -25.5zM70 -191q-16 0 -13 16q16 103 18 239q0 15 15 15h109q15 0 15 -15q-4 -152 -50 -244q-6 -11 -18 -11h-76z" />
    <glyph glyph-name="less" unicode="&#x3c;" 
d="M100 -50v668h191v-668h-191zM199 429q29 0 45 18.5t16 44.5q0 28 -16.5 45.5t-44.5 17.5q-30 0 -46.5 -18.5t-16.5 -44.5q0 -28 17 -45.5t46 -17.5zM820 452q-18 0 -30 11.5t-12 28.5t12 28.5t30 11.5q17 0 29 -11.5t12 -28.5t-12 -28.5t-29 -11.5zM199 467q-30 0 -30 25
t30 25q28 0 28 -25t-28 -25zM380 283q0 105 4 204h68q4 -100 6 -204h-78zM721 279q-28 0 -42 11t-13 36l1 49h-17v49l60 48h22l2 -33h118q4 -69 4 -156h-77q0 62 1 92h-41l3 -28q0 -12 11 -12q7 0 11 2v-48q-10 -10 -43 -10zM529 280q-28 0 -44 20t-16 54q0 42 24 65t68 23
q36 0 58 -14t22 -34l-1 -111h-56l-5 30q-10 -33 -50 -33zM871 283q2 104 5 156h56l5 -34q14 37 53 37q54 0 55 -69l2 -90h-78l2 73q0 19 -11 19q-13 0 -12 -19l1 -73h-78zM1144 280q-41 0 -63.5 21t-22.5 59t23 60t63 22t63 -22t23 -60t-22.5 -59t-63.5 -21zM258 265v35
l-57 1v1l43 24v17l-43 22v1l57 3v34l-119 -8v-29l55 -31l-55 -32v-31zM554 337q18 0 18 18q0 5 -2 15q-4 6 -14 6q-18 0 -18 -20q0 -19 16 -19zM1144 337q18 0 18 20q0 19 -18 19q-17 0 -17 -19q0 -20 17 -20zM562 54q-31 0 -46 9v55h1q20 -10 40 -10q35 2 37 26
q0 -10 -32 -10q-22 0 -39.5 16t-17.5 38v17h-36l2 -29q1 -11 12 -11q8 0 10 2h1v-48q-17 -10 -43 -10q-29 0 -42.5 11t-12.5 32l1 53h-17v49l63 30h22l-1 -16h111l-2 -63q0 -19 11 -19q13 0 12 19l-1 63h71q3 -51 3 -80q0 -67 -24.5 -95.5t-82.5 -28.5zM683 62q0 101 3 197
h58l2 -31q10 34 50 34q28 0 43.5 -19.5t15.5 -54.5q0 -41 -21.5 -64t-58.5 -23q-5 0 -17 2l2 -41h-77zM963 100q-98 0 -98 79q0 39 22.5 61t63.5 22q77 0 77 -76q0 -11 -2 -21l-87 -4q7 -12 42 -12q23 0 35 5v-47q-21 -7 -53 -7zM139 154h119v82h-29v-46h-18v42h-28v-42h-15
v45h-29v-81zM934 183l38 3q2 20 -19 20q-19 0 -19 -23zM765 157q21 0 21 20q0 19 -16 19q-19 0 -19 -19q0 -6 4 -19q3 -1 10 -1zM1050 97q-15 0 -15 15q0 14 15 14q14 0 14 -14q0 -15 -14 -15zM139 11h119v45q0 31 -16 49.5t-45 18.5q-28 0 -44 -18t-16 -47q0 -11 0.5 -22
t1 -17.5t0.5 -8.5zM1050 100q11 0 11 12q0 11 -11 11q-12 0 -12 -11q0 -12 12 -12zM1043 104v15h7q7 0 7 -5q0 -4 -5 -4l4 -6h-4l-2 6h-4v-6h-3zM1046 112h4q3 0 3 2t-3 2h-4v-4zM171 47q0 2 -0.5 5t-0.5 7q0 27 28 27t28 -27v-12h-55z" />
    <glyph glyph-name="equal" unicode="=" 
d="M100 -50v668h191v-668h-191zM199 429q29 0 45 18.5t16 44.5q0 28 -16.5 45.5t-44.5 17.5q-30 0 -46.5 -18.5t-16.5 -44.5q0 -28 17 -45.5t46 -17.5zM820 452q-18 0 -30 11.5t-12 28.5t12 28.5t30 11.5q17 0 29 -11.5t12 -28.5t-12 -28.5t-29 -11.5zM199 467q-30 0 -30 25
t30 25q28 0 28 -25t-28 -25zM380 283q0 105 4 204h68q4 -100 6 -204h-78zM721 279q-28 0 -42 11t-13 36l1 49h-17v49l60 48h22l2 -33h118q4 -69 4 -156h-77q0 62 1 92h-41l3 -28q0 -12 11 -12q7 0 11 2v-48q-10 -10 -43 -10zM529 280q-28 0 -44 20t-16 54q0 42 24 65t68 23
q36 0 58 -14t22 -34l-1 -111h-56l-5 30q-10 -33 -50 -33zM871 283q2 104 5 156h56l5 -34q14 37 53 37q54 0 55 -69l2 -90h-78l2 73q0 19 -11 19q-13 0 -12 -19l1 -73h-78zM1144 280q-41 0 -63.5 21t-22.5 59t23 60t63 22t63 -22t23 -60t-22.5 -59t-63.5 -21zM258 265v35
l-57 1v1l43 24v17l-43 22v1l57 3v34l-119 -8v-29l55 -31l-55 -32v-31zM554 337q18 0 18 18q0 5 -2 15q-4 6 -14 6q-18 0 -18 -20q0 -19 16 -19zM1144 337q18 0 18 20q0 19 -18 19q-17 0 -17 -19q0 -20 17 -20zM562 54q-31 0 -46 9v55h1q20 -10 40 -10q35 2 37 26
q0 -10 -32 -10q-22 0 -39.5 16t-17.5 38v17h-36l2 -29q1 -11 12 -11q8 0 10 2h1v-48q-17 -10 -43 -10q-29 0 -42.5 11t-12.5 32l1 53h-17v49l63 30h22l-1 -16h111l-2 -63q0 -19 11 -19q13 0 12 19l-1 63h71q3 -51 3 -80q0 -67 -24.5 -95.5t-82.5 -28.5zM683 62q0 101 3 197
h58l2 -31q10 34 50 34q28 0 43.5 -19.5t15.5 -54.5q0 -41 -21.5 -64t-58.5 -23q-5 0 -17 2l2 -41h-77zM963 100q-98 0 -98 79q0 39 22.5 61t63.5 22q77 0 77 -76q0 -11 -2 -21l-87 -4q7 -12 42 -12q23 0 35 5v-47q-21 -7 -53 -7zM139 154h119v82h-29v-46h-18v42h-28v-42h-15
v45h-29v-81zM934 183l38 3q2 20 -19 20q-19 0 -19 -23zM765 157q21 0 21 20q0 19 -16 19q-19 0 -19 -19q0 -6 4 -19q3 -1 10 -1zM1050 97q-15 0 -15 15q0 14 15 14q14 0 14 -14q0 -15 -14 -15zM139 11h119v45q0 31 -16 49.5t-45 18.5q-28 0 -44 -18t-16 -47q0 -11 0.5 -22
t1 -17.5t0.5 -8.5zM1050 100q11 0 11 12q0 11 -11 11q-12 0 -12 -11q0 -12 12 -12zM1043 104v15h7q7 0 7 -5q0 -4 -5 -4l4 -6h-4l-2 6h-4v-6h-3zM1046 112h4q3 0 3 2t-3 2h-4v-4zM171 47q0 2 -0.5 5t-0.5 7q0 27 28 27t28 -27v-12h-55z" />
    <glyph glyph-name="greater" unicode="&#x3e;" 
d="M100 -50v668h191v-668h-191zM199 429q29 0 45 18.5t16 44.5q0 28 -16.5 45.5t-44.5 17.5q-30 0 -46.5 -18.5t-16.5 -44.5q0 -28 17 -45.5t46 -17.5zM820 452q-18 0 -30 11.5t-12 28.5t12 28.5t30 11.5q17 0 29 -11.5t12 -28.5t-12 -28.5t-29 -11.5zM199 467q-30 0 -30 25
t30 25q28 0 28 -25t-28 -25zM380 283q0 105 4 204h68q4 -100 6 -204h-78zM721 279q-28 0 -42 11t-13 36l1 49h-17v49l60 48h22l2 -33h118q4 -69 4 -156h-77q0 62 1 92h-41l3 -28q0 -12 11 -12q7 0 11 2v-48q-10 -10 -43 -10zM529 280q-28 0 -44 20t-16 54q0 42 24 65t68 23
q36 0 58 -14t22 -34l-1 -111h-56l-5 30q-10 -33 -50 -33zM871 283q2 104 5 156h56l5 -34q14 37 53 37q54 0 55 -69l2 -90h-78l2 73q0 19 -11 19q-13 0 -12 -19l1 -73h-78zM1144 280q-41 0 -63.5 21t-22.5 59t23 60t63 22t63 -22t23 -60t-22.5 -59t-63.5 -21zM258 265v35
l-57 1v1l43 24v17l-43 22v1l57 3v34l-119 -8v-29l55 -31l-55 -32v-31zM554 337q18 0 18 18q0 5 -2 15q-4 6 -14 6q-18 0 -18 -20q0 -19 16 -19zM1144 337q18 0 18 20q0 19 -18 19q-17 0 -17 -19q0 -20 17 -20zM562 54q-31 0 -46 9v55h1q20 -10 40 -10q35 2 37 26
q0 -10 -32 -10q-22 0 -39.5 16t-17.5 38v17h-36l2 -29q1 -11 12 -11q8 0 10 2h1v-48q-17 -10 -43 -10q-29 0 -42.5 11t-12.5 32l1 53h-17v49l63 30h22l-1 -16h111l-2 -63q0 -19 11 -19q13 0 12 19l-1 63h71q3 -51 3 -80q0 -67 -24.5 -95.5t-82.5 -28.5zM683 62q0 101 3 197
h58l2 -31q10 34 50 34q28 0 43.5 -19.5t15.5 -54.5q0 -41 -21.5 -64t-58.5 -23q-5 0 -17 2l2 -41h-77zM963 100q-98 0 -98 79q0 39 22.5 61t63.5 22q77 0 77 -76q0 -11 -2 -21l-87 -4q7 -12 42 -12q23 0 35 5v-47q-21 -7 -53 -7zM139 154h119v82h-29v-46h-18v42h-28v-42h-15
v45h-29v-81zM934 183l38 3q2 20 -19 20q-19 0 -19 -23zM765 157q21 0 21 20q0 19 -16 19q-19 0 -19 -19q0 -6 4 -19q3 -1 10 -1zM1050 97q-15 0 -15 15q0 14 15 14q14 0 14 -14q0 -15 -14 -15zM139 11h119v45q0 31 -16 49.5t-45 18.5q-28 0 -44 -18t-16 -47q0 -11 0.5 -22
t1 -17.5t0.5 -8.5zM1050 100q11 0 11 12q0 11 -11 11q-12 0 -12 -11q0 -12 12 -12zM1043 104v15h7q7 0 7 -5q0 -4 -5 -4l4 -6h-4l-2 6h-4v-6h-3zM1046 112h4q3 0 3 2t-3 2h-4v-4zM171 47q0 2 -0.5 5t-0.5 7q0 27 28 27t28 -27v-12h-55z" />
    <glyph glyph-name="question" unicode="?" horiz-adv-x="522" 
d="M494 550q0 80 -62 133t-201 53q-107 0 -193 -26q-12 -4 -12 -17v-98q0 -18 17 -13q90 26 185 26q68 0 93.5 -15.5t25.5 -46.5q0 -27 -18.5 -46t-54 -29.5t-55.5 -14.5t-54 -8v-201q0 -15 15 -15h113q15 0 15 15v103q78 18 132 66.5t54 133.5zM238 -15q-42 0 -69 26
t-27 68t26.5 67t69.5 25t69.5 -25t26.5 -67q0 -43 -26 -68.5t-70 -25.5z" />
    <glyph glyph-name="at" unicode="@" horiz-adv-x="1002" 
d="M520 -216q-232 0 -360.5 129t-128.5 341q0 209 135 344.5t359 135.5q113 0 200.5 -35t139 -96t77 -136t25.5 -161q0 -139 -60 -209t-156 -70q-104 0 -141 80h-6q-53 -74 -146 -74q-90 0 -141 61t-51 162q0 97 50.5 158.5t138.5 61.5q113 0 148 -78h6q3 29 11 52
q4 13 17 13h63q15 0 15 -15v-237q0 -47 12 -64t37 -17q38 0 65.5 47.5t27.5 124.5q0 151 -81 240.5t-251 89.5q-176 0 -280.5 -102t-104.5 -276q0 -175 103 -271.5t277 -96.5q96 0 165 22q17 5 17 -13l3 -79q0 -13 -13 -16q-63 -16 -172 -16zM491 134q45 0 72.5 32.5
t27.5 90.5t-26.5 87.5t-74.5 29.5q-44 0 -71 -33.5t-27 -86.5t26.5 -86.5t72.5 -33.5z" />
    <glyph glyph-name="A" unicode="A" horiz-adv-x="693" 
d="M685 17q6 -17 -12 -17h-116q-13 0 -17 12l-52 147h-283l-52 -147q-4 -12 -17 -12h-116q-18 0 -12 17l257 691q4 12 17 12h129q13 0 17 -12zM250 287h193l-91 256h-11z" />
    <glyph glyph-name="B" unicode="B" horiz-adv-x="644" 
d="M95 0q-15 0 -15 15v690q0 15 15 15h242q131 0 185.5 -49t54.5 -136q0 -126 -102 -160v-6q130 -39 130 -167q0 -202 -275 -202h-235zM224 428h106q46 0 73 22t27 63q0 43 -26.5 62.5t-82.5 19.5h-97v-167zM223 125h105q67 0 98.5 18t31.5 70q0 93 -122 93h-113v-181z" />
    <glyph glyph-name="C" unicode="C" horiz-adv-x="639" 
d="M429 -16q-174 0 -282 105.5t-108 269.5q0 169 104.5 272.5t285.5 103.5q92 0 159 -26q12 -5 12 -18v-110q0 -20 -18 -10q-58 29 -156 29q-108 0 -174 -64.5t-66 -176.5t68 -176t175 -64q101 0 156 30q18 10 18 -10v-111q0 -13 -11 -17q-64 -27 -163 -27z" />
    <glyph glyph-name="D" unicode="D" horiz-adv-x="741" 
d="M95 0q-15 0 -15 15v690q0 15 15 15h234q178 0 274 -94t96 -266t-95.5 -266t-274.5 -94h-234zM223 128h106q223 0 223 232t-223 232h-106v-464z" />
    <glyph glyph-name="E" unicode="E" horiz-adv-x="572" 
d="M95 0q-15 0 -15 15v690q0 15 15 15h412q15 0 15 -15v-98q0 -15 -15 -15h-286l1 -168h256q15 0 15 -15v-98q0 -15 -15 -15h-256l1 -168h286q15 0 15 -15v-98q0 -15 -15 -15h-414z" />
    <glyph glyph-name="F" unicode="F" horiz-adv-x="549" 
d="M95 0q-15 0 -15 15v690q0 15 15 15h412q15 0 15 -15v-98q0 -15 -15 -15h-286l1 -208h256q15 0 15 -15v-98q0 -15 -15 -15h-256l1 -241q0 -15 -15 -15h-113z" />
    <glyph glyph-name="G" unicode="G" horiz-adv-x="712" 
d="M426 -14q-174 0 -280 100t-106 274t103.5 274.5t278.5 100.5q113 0 210 -41q11 -5 11 -17v-111q0 -20 -18 -10q-76 44 -182 44q-112 0 -184 -63t-72 -177q0 -113 66.5 -176t180.5 -63q45 0 80 13v242q0 15 15 15h113q15 0 15 -15v-329q0 -13 -12 -18q-105 -43 -219 -43z
" />
    <glyph glyph-name="H" unicode="H" horiz-adv-x="789" 
d="M95 0q-15 0 -15 15v690q0 15 15 15h113q15 0 15 -15l1 -281h341l1 281q0 15 15 15h113q15 0 15 -15v-690q0 -15 -15 -15h-113q-15 0 -15 15v281h-343v-281q0 -15 -15 -15h-113z" />
    <glyph glyph-name="I" unicode="I" horiz-adv-x="302" 
d="M95 0q-15 0 -15 15v690q0 15 15 15h111q15 0 15 -15l2 -690q0 -15 -15 -15h-113z" />
    <glyph glyph-name="J" unicode="J" horiz-adv-x="405" 
d="M110 -12q-42 0 -79 6q-13 3 -13 17v103q0 17 16 14q27 -5 46 -5q53 0 80 25.5t27 95.5v461q0 15 15 15h113q15 0 15 -15v-478q0 -239 -220 -239z" />
    <glyph glyph-name="K" unicode="K" horiz-adv-x="690" 
d="M95 0q-15 0 -15 15v690q0 15 15 15h113q15 0 15 -15v-271h107l176 276q6 10 18 10h137q21 0 10 -18l-221 -333l235 -351q11 -18 -10 -18h-137q-11 0 -18 10l-190 284h-107v-279q0 -15 -15 -15h-113z" />
    <glyph glyph-name="L" unicode="L" horiz-adv-x="522" 
d="M95 0q-15 0 -15 15v690q0 15 15 15h113q15 0 15 -15l2 -577h266q15 0 15 -15v-98q0 -15 -15 -15h-396z" />
    <glyph glyph-name="M" unicode="M" horiz-adv-x="926" 
d="M420 0q-14 0 -18 12l-183 431h-6v-428q0 -15 -15 -15h-103q-15 0 -15 15v689q0 15 15 15h138q13 0 17 -11l211 -497h6l208 496q5 12 18 12h138q15 0 15 -15l1 -689q0 -15 -15 -15h-103q-15 0 -15 15v428h-6l-183 -431q-5 -12 -18 -12h-87z" />
    <glyph glyph-name="N" unicode="N" horiz-adv-x="780" 
d="M95 0q-15 0 -15 15v689q0 15 15 15h117q13 0 19 -9l323 -467h6l-3 461q0 15 15 15h113q15 0 15 -15v-689q0 -15 -15 -15h-108q-12 0 -18 9l-333 467h-6l3 -461q0 -15 -15 -15h-113z" />
    <glyph glyph-name="O" unicode="O" horiz-adv-x="822" 
d="M411 -16q-171 0 -271.5 107t-100.5 268q0 163 100.5 269.5t271.5 106.5t271.5 -106.5t100.5 -269.5q0 -161 -100 -268t-272 -107zM411 112q108 0 166.5 66.5t58.5 180.5t-59.5 181t-167.5 67q-105 0 -164 -67.5t-59 -180.5t60.5 -180t164.5 -67z" />
    <glyph glyph-name="P" unicode="P" horiz-adv-x="642" 
d="M95 0q-15 0 -15 15v690q0 15 15 15h229q149 0 220 -66.5t71 -185.5t-73.5 -184.5t-217.5 -65.5h-101v-203q0 -15 -15 -15h-113zM223 346h103q142 0 142 122q0 57 -35 90.5t-107 33.5h-103v-246z" />
    <glyph glyph-name="Q" unicode="Q" horiz-adv-x="822" 
d="M783 359q0 -144 -81 -246.5t-224 -123.5q4 -30 16.5 -48.5t33 -25.5t33 -8.5t32.5 -1.5q9 0 31 2q16 3 16 -13v-103q0 -15 -14 -16q-26 -5 -67 -5q-92 0 -149.5 55.5t-64.5 163.5q-142 21 -224 123.5t-82 246.5q0 163 100.5 269.5t271.5 106.5t271.5 -106.5t100.5 -269.5
zM411 112q108 0 166.5 66.5t58.5 180.5t-59.5 181t-167.5 67q-105 0 -164 -67.5t-59 -180.5t60.5 -180t164.5 -67z" />
    <glyph glyph-name="R" unicode="R" horiz-adv-x="680" 
d="M95 0q-15 0 -15 15v688q0 15 15 15h260q132 0 203.5 -57.5t71.5 -176.5q0 -71 -39.5 -130t-97.5 -83l153 -253q10 -18 -10 -18h-128q-12 0 -18 10l-144 241h-123v-236q0 -15 -15 -15h-113zM223 379h149q53 0 82 27t29 78t-33 78.5t-88 27.5h-139v-211z" />
    <glyph glyph-name="S" unicode="S" horiz-adv-x="607" 
d="M309 -14q-140 0 -253 58q-11 6 -11 18v106q0 20 18 10q53 -31 117 -47.5t117 -16.5q131 0 131 87q0 19 -8 33.5t-20 23.5t-33.5 17.5t-39 13t-46.5 12t-47 13.5q-86 26 -136 75.5t-50 140.5q0 98 68.5 151.5t184.5 53.5q129 0 224 -50q10 -6 10 -18v-103q0 -9 -5.5 -11.5
t-12.5 2.5q-86 52 -194 52q-128 0 -128 -75q0 -21 8 -36.5t26 -26.5t34 -17t45 -15l21 -6q32 -9 49 -14.5t47.5 -16.5t47.5 -21.5t39.5 -28t34 -37t20 -46.5t8.5 -59q0 -107 -71 -164.5t-195 -57.5z" />
    <glyph glyph-name="T" unicode="T" horiz-adv-x="584" 
d="M235 0q-15 0 -15 15l-2 577h-188q-15 0 -15 15v98q0 15 15 15h524q15 0 15 -15v-98q0 -15 -15 -15h-189l-2 -577q0 -15 -15 -15h-113z" />
    <glyph glyph-name="U" unicode="U" horiz-adv-x="767" 
d="M383 -16q-145 0 -227.5 75t-82.5 212v434q0 15 15 15h113q15 0 15 -15v-426q0 -167 167 -167q168 0 168 167v426q0 15 15 15h113q15 0 15 -15v-434q0 -136 -83 -211.5t-228 -75.5z" />
    <glyph glyph-name="V" unicode="V" horiz-adv-x="722" 
d="M285 0q-13 0 -17 12l-261 691q-6 17 11 17h128q13 0 17 -12l201 -573h6l202 573q4 12 17 12h115q17 0 11 -17l-261 -691q-5 -12 -17 -12h-152z" />
    <glyph glyph-name="W" unicode="W" horiz-adv-x="1044" 
d="M233 0q-14 0 -17 13l-206 690q-5 17 13 17h123q13 0 16 -13l140 -536h6l133 536q3 13 16 13h130q13 0 16 -13l133 -536h6l140 536q3 13 16 13h123q18 0 13 -17l-206 -690q-3 -13 -17 -13h-150q-13 0 -16 13l-120 474h-6l-120 -474q-3 -13 -16 -13h-150z" />
    <glyph glyph-name="X" unicode="X" horiz-adv-x="662" 
d="M15 0q-21 0 -10 18l239 355l-224 329q-11 18 10 18h134q12 0 18 -10l146 -230h6l145 230q6 10 18 10h135q21 0 10 -18l-224 -329l239 -355q11 -18 -10 -18h-135q-12 0 -18 10l-160 255h-6l-161 -255q-6 -10 -18 -10h-134z" />
    <glyph glyph-name="Y" unicode="Y" horiz-adv-x="623" 
d="M256 0q-15 0 -15 15v263l-230 424q-4 8 -1 13t11 5h130q13 0 18 -11l138 -273h9l138 273q6 11 18 11h126q8 0 11.5 -5t-0.5 -13l-225 -424v-263q0 -15 -15 -15h-113z" />
    <glyph glyph-name="Z" unicode="Z" horiz-adv-x="677" 
d="M45 0q-15 0 -15 15v82q0 12 7 19l408 476h-385q-15 0 -15 15v98q0 15 15 15h561q15 0 15 -15v-82q0 -12 -7 -19l-409 -476h413q15 0 15 -15v-98q0 -15 -15 -15h-588z" />
    <glyph glyph-name="bracketleft" unicode="[" horiz-adv-x="371" 
d="M86 -180q-15 0 -15 15v905q0 15 15 15h247q15 0 15 -15v-106q0 -15 -15 -15h-123v-663h123q15 0 15 -15v-106q0 -15 -15 -15h-247z" />
    <glyph glyph-name="backslash" unicode="\" horiz-adv-x="516" 
d="M364 -215q-13 0 -17 12l-327 941q-5 17 12 17h119q13 0 17 -12l327 -941q5 -17 -12 -17h-119z" />
    <glyph glyph-name="bracketright" unicode="]" horiz-adv-x="371" 
d="M38 -180q-15 0 -15 15v106q0 15 15 15h123v663h-123q-15 0 -15 15v106q0 15 15 15h247q15 0 15 -15v-905q0 -15 -15 -15h-247z" />
    <glyph glyph-name="asciicircum" unicode="^" 
d="M100 -50v668h191v-668h-191zM199 429q29 0 45 18.5t16 44.5q0 28 -16.5 45.5t-44.5 17.5q-30 0 -46.5 -18.5t-16.5 -44.5q0 -28 17 -45.5t46 -17.5zM820 452q-18 0 -30 11.5t-12 28.5t12 28.5t30 11.5q17 0 29 -11.5t12 -28.5t-12 -28.5t-29 -11.5zM199 467q-30 0 -30 25
t30 25q28 0 28 -25t-28 -25zM380 283q0 105 4 204h68q4 -100 6 -204h-78zM721 279q-28 0 -42 11t-13 36l1 49h-17v49l60 48h22l2 -33h118q4 -69 4 -156h-77q0 62 1 92h-41l3 -28q0 -12 11 -12q7 0 11 2v-48q-10 -10 -43 -10zM529 280q-28 0 -44 20t-16 54q0 42 24 65t68 23
q36 0 58 -14t22 -34l-1 -111h-56l-5 30q-10 -33 -50 -33zM871 283q2 104 5 156h56l5 -34q14 37 53 37q54 0 55 -69l2 -90h-78l2 73q0 19 -11 19q-13 0 -12 -19l1 -73h-78zM1144 280q-41 0 -63.5 21t-22.5 59t23 60t63 22t63 -22t23 -60t-22.5 -59t-63.5 -21zM258 265v35
l-57 1v1l43 24v17l-43 22v1l57 3v34l-119 -8v-29l55 -31l-55 -32v-31zM554 337q18 0 18 18q0 5 -2 15q-4 6 -14 6q-18 0 -18 -20q0 -19 16 -19zM1144 337q18 0 18 20q0 19 -18 19q-17 0 -17 -19q0 -20 17 -20zM562 54q-31 0 -46 9v55h1q20 -10 40 -10q35 2 37 26
q0 -10 -32 -10q-22 0 -39.5 16t-17.5 38v17h-36l2 -29q1 -11 12 -11q8 0 10 2h1v-48q-17 -10 -43 -10q-29 0 -42.5 11t-12.5 32l1 53h-17v49l63 30h22l-1 -16h111l-2 -63q0 -19 11 -19q13 0 12 19l-1 63h71q3 -51 3 -80q0 -67 -24.5 -95.5t-82.5 -28.5zM683 62q0 101 3 197
h58l2 -31q10 34 50 34q28 0 43.5 -19.5t15.5 -54.5q0 -41 -21.5 -64t-58.5 -23q-5 0 -17 2l2 -41h-77zM963 100q-98 0 -98 79q0 39 22.5 61t63.5 22q77 0 77 -76q0 -11 -2 -21l-87 -4q7 -12 42 -12q23 0 35 5v-47q-21 -7 -53 -7zM139 154h119v82h-29v-46h-18v42h-28v-42h-15
v45h-29v-81zM934 183l38 3q2 20 -19 20q-19 0 -19 -23zM765 157q21 0 21 20q0 19 -16 19q-19 0 -19 -19q0 -6 4 -19q3 -1 10 -1zM1050 97q-15 0 -15 15q0 14 15 14q14 0 14 -14q0 -15 -14 -15zM139 11h119v45q0 31 -16 49.5t-45 18.5q-28 0 -44 -18t-16 -47q0 -11 0.5 -22
t1 -17.5t0.5 -8.5zM1050 100q11 0 11 12q0 11 -11 11q-12 0 -12 -11q0 -12 12 -12zM1043 104v15h7q7 0 7 -5q0 -4 -5 -4l4 -6h-4l-2 6h-4v-6h-3zM1046 112h4q3 0 3 2t-3 2h-4v-4zM171 47q0 2 -0.5 5t-0.5 7q0 27 28 27t28 -27v-12h-55z" />
    <glyph glyph-name="underscore" unicode="_" horiz-adv-x="601" 
d="M60 -42q-15 0 -15 15v95q0 15 15 15h481q15 0 15 -15v-95q0 -15 -15 -15h-481z" />
    <glyph glyph-name="grave" unicode="`" 
d="M100 -50v668h191v-668h-191zM199 429q29 0 45 18.5t16 44.5q0 28 -16.5 45.5t-44.5 17.5q-30 0 -46.5 -18.5t-16.5 -44.5q0 -28 17 -45.5t46 -17.5zM820 452q-18 0 -30 11.5t-12 28.5t12 28.5t30 11.5q17 0 29 -11.5t12 -28.5t-12 -28.5t-29 -11.5zM199 467q-30 0 -30 25
t30 25q28 0 28 -25t-28 -25zM380 283q0 105 4 204h68q4 -100 6 -204h-78zM721 279q-28 0 -42 11t-13 36l1 49h-17v49l60 48h22l2 -33h118q4 -69 4 -156h-77q0 62 1 92h-41l3 -28q0 -12 11 -12q7 0 11 2v-48q-10 -10 -43 -10zM529 280q-28 0 -44 20t-16 54q0 42 24 65t68 23
q36 0 58 -14t22 -34l-1 -111h-56l-5 30q-10 -33 -50 -33zM871 283q2 104 5 156h56l5 -34q14 37 53 37q54 0 55 -69l2 -90h-78l2 73q0 19 -11 19q-13 0 -12 -19l1 -73h-78zM1144 280q-41 0 -63.5 21t-22.5 59t23 60t63 22t63 -22t23 -60t-22.5 -59t-63.5 -21zM258 265v35
l-57 1v1l43 24v17l-43 22v1l57 3v34l-119 -8v-29l55 -31l-55 -32v-31zM554 337q18 0 18 18q0 5 -2 15q-4 6 -14 6q-18 0 -18 -20q0 -19 16 -19zM1144 337q18 0 18 20q0 19 -18 19q-17 0 -17 -19q0 -20 17 -20zM562 54q-31 0 -46 9v55h1q20 -10 40 -10q35 2 37 26
q0 -10 -32 -10q-22 0 -39.5 16t-17.5 38v17h-36l2 -29q1 -11 12 -11q8 0 10 2h1v-48q-17 -10 -43 -10q-29 0 -42.5 11t-12.5 32l1 53h-17v49l63 30h22l-1 -16h111l-2 -63q0 -19 11 -19q13 0 12 19l-1 63h71q3 -51 3 -80q0 -67 -24.5 -95.5t-82.5 -28.5zM683 62q0 101 3 197
h58l2 -31q10 34 50 34q28 0 43.5 -19.5t15.5 -54.5q0 -41 -21.5 -64t-58.5 -23q-5 0 -17 2l2 -41h-77zM963 100q-98 0 -98 79q0 39 22.5 61t63.5 22q77 0 77 -76q0 -11 -2 -21l-87 -4q7 -12 42 -12q23 0 35 5v-47q-21 -7 -53 -7zM139 154h119v82h-29v-46h-18v42h-28v-42h-15
v45h-29v-81zM934 183l38 3q2 20 -19 20q-19 0 -19 -23zM765 157q21 0 21 20q0 19 -16 19q-19 0 -19 -19q0 -6 4 -19q3 -1 10 -1zM1050 97q-15 0 -15 15q0 14 15 14q14 0 14 -14q0 -15 -14 -15zM139 11h119v45q0 31 -16 49.5t-45 18.5q-28 0 -44 -18t-16 -47q0 -11 0.5 -22
t1 -17.5t0.5 -8.5zM1050 100q11 0 11 12q0 11 -11 11q-12 0 -12 -11q0 -12 12 -12zM1043 104v15h7q7 0 7 -5q0 -4 -5 -4l4 -6h-4l-2 6h-4v-6h-3zM1046 112h4q3 0 3 2t-3 2h-4v-4zM171 47q0 2 -0.5 5t-0.5 7q0 27 28 27t28 -27v-12h-55z" />
    <glyph glyph-name="a" unicode="a" horiz-adv-x="546" 
d="M217 -13q-88 0 -138.5 61.5t-50.5 160.5t52.5 160.5t140.5 61.5q95 0 131 -72h6q5 23 16 48q6 13 18 13h67q15 0 15 -15v-245q0 -46 15 -54q6 -3 13 -3q17 0 17 -14v-74q0 -13 -12 -18q-31 -9 -56 -9q-85 0 -92 67h-7q-36 -68 -135 -68zM257 109q38 0 59.5 26t21.5 74
q0 47 -22 73t-60 26q-36 0 -58 -27t-22 -72t22 -72.5t59 -27.5z" />
    <glyph glyph-name="b" unicode="b" horiz-adv-x="528" 
d="M500 209q0 -99 -50.5 -160.5t-138.5 -61.5q-45 0 -82 19.5t-55 55.5h-6q-8 -30 -17 -51q-5 -12 -17 -12h-67q-15 0 -15 15v726q0 15 15 15h115q15 0 15 -15v-353h5q39 44 105 44q88 0 140.5 -61.5t52.5 -160.5zM352 209q0 45 -22 72t-58 27q-38 0 -60 -26t-22 -73
q0 -48 21.5 -74t59.5 -26q37 0 59 27.5t22 72.5z" />
    <glyph glyph-name="c" unicode="c" horiz-adv-x="426" 
d="M263 -12q-111 0 -173.5 60t-62.5 161q0 103 64.5 162.5t169.5 59.5l11 -1q12 0 23.5 -1t27.5 -4t32.5 -9t31.5 -14q10 -6 10 -18v-85q0 -19 -18 -11q-47 22 -102 22q-47 0 -76 -26.5t-29 -73.5q0 -50 29 -76t77 -26q50 0 97 22q18 8 18 -11v-85q0 -14 -19 -23
q-48 -23 -111 -23z" />
    <glyph glyph-name="d" unicode="d" horiz-adv-x="546" 
d="M28 206q0 98 52.5 161.5t140.5 63.5q32 0 60.5 -11t42.5 -28h5v348q0 15 15 15h115q15 0 15 -15v-581q0 -33 6 -44.5t22 -11.5h11q6 0 6 -14v-74q0 -12 -12 -17q-30 -10 -56 -10q-47 0 -68.5 19.5t-24.5 45.5h-6q-36 -66 -135 -66q-88 0 -138.5 60.5t-50.5 158.5z
M176 209q0 -45 22 -72.5t59 -27.5q38 0 59.5 26t21.5 74q0 47 -22 73t-60 26q-36 0 -58 -27t-22 -72z" />
    <glyph glyph-name="e" unicode="e" horiz-adv-x="476" 
d="M271 -13q-120 0 -182 60t-62 165q0 97 61 158.5t157 61.5q99 0 151.5 -54t52.5 -143q0 -62 -26 -62h-253q0 -29 29 -51t87 -22q65 0 120 16q17 5 17 -13v-74q0 -12 -11 -17q-56 -25 -141 -25zM167 249h148v11q0 27 -18 44.5t-53 17.5q-33 0 -55 -20.5t-22 -52.5z" />
    <glyph glyph-name="f" unicode="f" horiz-adv-x="334" 
d="M323 763q13 -3 13 -16v-93q0 -14 -17 -14q-4 0 -11 0.5t-9 0.5q-72 0 -72 -78v-143h58q15 0 15 -15v-89q0 -15 -15 -15h-58v-286q0 -15 -15 -15h-114q-16 0 -16 15v286h-35q-15 0 -15 15v89q0 15 15 15h35v126q0 113 42 168.5t133 55.5q33 0 66 -7z" />
    <glyph glyph-name="g" unicode="g" horiz-adv-x="528" 
d="M228 -13q-89 0 -144.5 62.5t-55.5 160.5q0 99 52 160t143 61q95 0 132 -74h6q8 28 16 52q4 11 18 11l66 -1q15 0 15 -15v-329q0 -71 -11 -122.5t-39 -95t-80 -65.5t-129 -22q-70 0 -147 27q-11 4 -11 17v82q0 19 17 12q55 -21 125 -21q136 0 136 129v11h-5
q-32 -40 -104 -40zM257 113q84 0 84 96q0 48 -22 72.5t-61 24.5q-37 0 -59.5 -25.5t-22.5 -70.5q0 -46 22 -71.5t59 -25.5z" />
    <glyph glyph-name="h" unicode="h" horiz-adv-x="533" 
d="M67 0q-15 0 -15 15v724q0 15 15 15h115q15 0 15 -15v-354h5q32 39 111 39q173 0 173 -211v-198q0 -15 -15 -15h-114q-15 0 -15 15v196q0 87 -67 87q-37 0 -57 -23t-21 -62l-1 -198q0 -15 -14 -15h-115z" />
    <glyph glyph-name="i" unicode="i" horiz-adv-x="251" 
d="M126 515q-43 0 -69 25t-26 66t26.5 65.5t68.5 24.5t68 -24.5t26 -65.5t-25.5 -66t-68.5 -25zM69 0q-16 0 -16 15v390q0 15 16 15h113q16 0 16 -15v-390q0 -15 -16 -15h-113z" />
    <glyph glyph-name="j" unicode="j" horiz-adv-x="257" 
d="M132 515q-43 0 -69 25t-26 66t26.5 65.5t68.5 24.5t68 -24.5t26 -65.5t-25.5 -66t-68.5 -25zM33 -230q-33 0 -77 14q-13 4 -13 18v76q0 18 18 13t36 -5q33 0 48 16.5t15 60.5v442q0 15 15 15h114q15 0 15 -15v-448q0 -103 -43.5 -145t-127.5 -42z" />
    <glyph glyph-name="k" unicode="k" horiz-adv-x="488" 
d="M67 0q-15 0 -15 15l1 724q0 15 15 15h114q15 0 15 -15l1 -472h39l79 135q7 11 19 11h123q20 0 9 -18l-115 -186l126 -191q5 -8 2 -13t-12 -5h-132q-12 0 -18 10l-86 141h-34v-136q0 -15 -15 -15h-116z" />
    <glyph glyph-name="l" unicode="l" horiz-adv-x="251" 
d="M69 0q-16 0 -16 15v725q0 15 16 15h113q16 0 16 -15v-725q0 -15 -16 -15h-113z" />
    <glyph glyph-name="m" unicode="m" horiz-adv-x="786" 
d="M67 0q-15 0 -15 15v389q0 15 15 15h68q13 0 17 -11q6 -15 17 -54h5q16 35 51 56t79 21q93 0 131 -77h5q18 35 54 56t76 21q80 0 124.5 -53.5t44.5 -160.5v-202q0 -15 -15 -15h-115q-15 0 -15 15v196q0 91 -61 91q-31 0 -48.5 -24.5t-16.5 -65.5v-197q0 -15 -15 -15h-115
q-15 0 -15 15v196q0 91 -57 91q-34 0 -51 -24t-17 -66l-1 -197q0 -15 -15 -15h-115z" />
    <glyph glyph-name="n" unicode="n" horiz-adv-x="533" 
d="M67 0q-15 0 -15 15v389q0 15 15 15h68q12 0 16 -11q8 -18 18 -54h5q17 35 55.5 56t83.5 21q173 0 173 -214v-202q0 -15 -15 -15h-114q-15 0 -15 15v196q0 91 -67 91q-37 0 -57 -24t-21 -65l-1 -198q0 -15 -14 -15h-115z" />
    <glyph glyph-name="o" unicode="o" horiz-adv-x="518" 
d="M259 -12q-107 0 -169.5 60t-62.5 161q0 102 62.5 162t169.5 60q106 0 169 -60t63 -162q0 -101 -62.5 -161t-169.5 -60zM259 112q40 0 63.5 26t23.5 71t-24 71.5t-64 26.5q-39 0 -62.5 -25.5t-23.5 -72.5t24 -72t63 -25z" />
    <glyph glyph-name="p" unicode="p" horiz-adv-x="527" 
d="M66 -215q-15 0 -15 16l1 604q0 15 15 15h66q13 0 17 -12q7 -18 17 -54h6q18 37 55 57t82 20q88 0 139 -62t51 -157q0 -97 -54 -161t-141 -64q-72 0 -104 40h-5v-226q0 -16 -15 -16h-115zM270 110q36 0 58.5 27t22.5 72t-22 72.5t-59 27.5q-39 0 -60.5 -26t-21.5 -74
t21.5 -73.5t60.5 -25.5z" />
    <glyph glyph-name="q" unicode="q" horiz-adv-x="528" 
d="M347 -215q-15 0 -15 16v226h-6q-32 -40 -104 -40q-86 0 -140 62.5t-54 159.5q0 96 51.5 159t142.5 63q44 0 79.5 -19t52.5 -54h6q10 34 16 50q4 12 18 12l67 -1q15 0 15 -15v-603q0 -16 -15 -16h-114zM257 113q83 0 83 96q0 48 -21.5 72.5t-60.5 24.5q-37 0 -59.5 -25.5
t-22.5 -70.5q0 -46 22 -71.5t59 -25.5z" />
    <glyph glyph-name="r" unicode="r" horiz-adv-x="337" 
d="M66 0q-14 0 -14 15v389q0 15 16 15h67q13 0 17 -11q7 -17 18 -58h5q16 32 52 53.5t75 26.5q7 1 11 -3t4 -12v-130q0 -15 -15 -15q-44 0 -73.5 -23t-30.5 -75l-1 -157q0 -15 -13 -15h-118z" />
    <glyph glyph-name="s" unicode="s" horiz-adv-x="439" 
d="M414 125q0 -137 -193 -137q-90 0 -176 35q-11 4 -11 16l1 86q0 8 5 11t13 -1q86 -43 157 -43q52 0 52 28q0 24 -73 41q-2 1 -3.5 1.5t-3.5 0.5q-69 16 -108.5 46t-39.5 90q0 59 48.5 96t136.5 37q77 0 155 -20q12 -3 12 -17v-84q0 -19 -17 -12q-75 28 -136 28
q-50 0 -50 -27q0 -17 14.5 -24t53.5 -16q6 -1 9 -2q25 -5 41.5 -9.5t40 -15t37.5 -23.5t24.5 -35t10.5 -50z" />
    <glyph glyph-name="t" unicode="t" horiz-adv-x="357" 
d="M316 110q16 2 16 -13v-79q0 -14 -10 -17q-39 -13 -81 -13q-160 0 -160 168v145h-41q-16 0 -16 15v89q0 15 16 15h43q6 60 26 142q3 12 18 12h83q14 0 14 -15v-139h84q15 0 15 -15v-89q0 -15 -15 -15h-83v-131q1 -39 16.5 -50.5t47.5 -11.5q7 0 27 2z" />
    <glyph glyph-name="u" unicode="u" horiz-adv-x="518" 
d="M212 -12q-165 0 -165 214v202q0 15 15 15h113q15 0 15 -15v-197q0 -90 61 -90q34 0 52.5 24t18.5 65v198q0 15 16 15h112q16 0 16 -15v-389q0 -15 -16 -15h-66q-14 0 -18 12q-9 25 -15 53h-6q-16 -36 -52.5 -56.5t-80.5 -20.5z" />
    <glyph glyph-name="v" unicode="v" horiz-adv-x="485" 
d="M173 0q-13 0 -17 12l-146 391q-5 17 12 17h119q14 0 17 -13l82 -271h8l80 271q4 13 18 13h117q20 0 12 -17l-146 -391q-4 -12 -17 -12h-139z" />
    <glyph glyph-name="w" unicode="w" horiz-adv-x="711" 
d="M150 0q-14 0 -17 14l-115 389q-5 17 13 17h115q15 0 18 -13l55 -253h6l55 253q2 13 17 13h116q14 0 17 -13l55 -253h8l54 253q3 13 16 13h116q19 0 14 -17l-116 -390q-3 -13 -17 -13h-129q-13 0 -16 13l-56 226h-7l-56 -226q-3 -13 -17 -13h-129z" />
    <glyph glyph-name="x" unicode="x" horiz-adv-x="470" 
d="M20 0q-10 0 -12 5t3 13l130 191l-125 193q-11 18 9 18h119q12 0 19 -11l67 -112h8l68 112q6 11 17 11h119q20 0 10 -18l-121 -193l129 -191q5 -8 2 -13t-13 -5h-118q-12 0 -18 10l-73 110h-9l-74 -110q-7 -10 -19 -10h-118z" />
    <glyph glyph-name="y" unicode="y" horiz-adv-x="518" 
d="M210 -232q-63 0 -136 27q-10 4 -10 17v82q0 19 17 12q53 -21 114 -21q60 0 97.5 26t37.5 97v16h-6q-30 -40 -103 -40q-174 0 -174 210v211q0 15 15 15h113q15 0 15 -15v-206q0 -90 61 -90q34 0 52.5 24t18.5 65v207q0 15 16 15h112q16 0 16 -15v-343q0 -142 -58.5 -218
t-197.5 -76z" />
    <glyph glyph-name="z" unicode="z" horiz-adv-x="449" 
d="M46 0q-16 0 -16 15v68q0 10 7 19l182 201h-166q-15 0 -15 15v86q0 15 15 15h342q15 0 15 -15v-68q0 -12 -7 -19l-182 -199h185q15 0 15 -15v-88q0 -15 -15 -15h-360z" />
    <glyph glyph-name="braceleft" unicode="{" horiz-adv-x="371" 
d="M294 -195q-96 0 -144 56.5t-48 187.5v97q0 40 -15 58.5t-48 20.5q-15 1 -15 16v92q0 15 15 16q33 2 48 20.5t15 58.5v98q0 130 48.5 187t143.5 57q9 0 42 -3q14 -2 14 -16v-85q0 -15 -15 -15q-52 -3 -73 -35.5t-22 -119.5v-73q0 -34 -9 -60.5t-22 -39.5t-26 -21t-22 -10
l-9 -2v-7q4 0 9.5 -1.5t21 -9.5t27 -20.5t21 -39t9.5 -61.5v-69q0 -89 21 -122t74 -36q15 0 15 -15v-85q0 -14 -14 -16q-33 -3 -42 -3z" />
    <glyph glyph-name="bar" unicode="|" 
d="M100 -50v668h191v-668h-191zM199 429q29 0 45 18.5t16 44.5q0 28 -16.5 45.5t-44.5 17.5q-30 0 -46.5 -18.5t-16.5 -44.5q0 -28 17 -45.5t46 -17.5zM820 452q-18 0 -30 11.5t-12 28.5t12 28.5t30 11.5q17 0 29 -11.5t12 -28.5t-12 -28.5t-29 -11.5zM199 467q-30 0 -30 25
t30 25q28 0 28 -25t-28 -25zM380 283q0 105 4 204h68q4 -100 6 -204h-78zM721 279q-28 0 -42 11t-13 36l1 49h-17v49l60 48h22l2 -33h118q4 -69 4 -156h-77q0 62 1 92h-41l3 -28q0 -12 11 -12q7 0 11 2v-48q-10 -10 -43 -10zM529 280q-28 0 -44 20t-16 54q0 42 24 65t68 23
q36 0 58 -14t22 -34l-1 -111h-56l-5 30q-10 -33 -50 -33zM871 283q2 104 5 156h56l5 -34q14 37 53 37q54 0 55 -69l2 -90h-78l2 73q0 19 -11 19q-13 0 -12 -19l1 -73h-78zM1144 280q-41 0 -63.5 21t-22.5 59t23 60t63 22t63 -22t23 -60t-22.5 -59t-63.5 -21zM258 265v35
l-57 1v1l43 24v17l-43 22v1l57 3v34l-119 -8v-29l55 -31l-55 -32v-31zM554 337q18 0 18 18q0 5 -2 15q-4 6 -14 6q-18 0 -18 -20q0 -19 16 -19zM1144 337q18 0 18 20q0 19 -18 19q-17 0 -17 -19q0 -20 17 -20zM562 54q-31 0 -46 9v55h1q20 -10 40 -10q35 2 37 26
q0 -10 -32 -10q-22 0 -39.5 16t-17.5 38v17h-36l2 -29q1 -11 12 -11q8 0 10 2h1v-48q-17 -10 -43 -10q-29 0 -42.5 11t-12.5 32l1 53h-17v49l63 30h22l-1 -16h111l-2 -63q0 -19 11 -19q13 0 12 19l-1 63h71q3 -51 3 -80q0 -67 -24.5 -95.5t-82.5 -28.5zM683 62q0 101 3 197
h58l2 -31q10 34 50 34q28 0 43.5 -19.5t15.5 -54.5q0 -41 -21.5 -64t-58.5 -23q-5 0 -17 2l2 -41h-77zM963 100q-98 0 -98 79q0 39 22.5 61t63.5 22q77 0 77 -76q0 -11 -2 -21l-87 -4q7 -12 42 -12q23 0 35 5v-47q-21 -7 -53 -7zM139 154h119v82h-29v-46h-18v42h-28v-42h-15
v45h-29v-81zM934 183l38 3q2 20 -19 20q-19 0 -19 -23zM765 157q21 0 21 20q0 19 -16 19q-19 0 -19 -19q0 -6 4 -19q3 -1 10 -1zM1050 97q-15 0 -15 15q0 14 15 14q14 0 14 -14q0 -15 -14 -15zM139 11h119v45q0 31 -16 49.5t-45 18.5q-28 0 -44 -18t-16 -47q0 -11 0.5 -22
t1 -17.5t0.5 -8.5zM1050 100q11 0 11 12q0 11 -11 11q-12 0 -12 -11q0 -12 12 -12zM1043 104v15h7q7 0 7 -5q0 -4 -5 -4l4 -6h-4l-2 6h-4v-6h-3zM1046 112h4q3 0 3 2t-3 2h-4v-4zM171 47q0 2 -0.5 5t-0.5 7q0 27 28 27t28 -27v-12h-55z" />
    <glyph glyph-name="braceright" unicode="}" horiz-adv-x="371" 
d="M77 -195q-9 0 -42 3q-14 2 -14 16v85q0 15 15 15q53 3 74 36t21 122v69q0 35 9 61t22 39t26 21t22 10l9 1v7q-4 0 -9.5 1.5t-21 10t-27 21.5t-21 39.5t-9.5 60.5v73q-1 87 -22 119.5t-73 35.5q-15 0 -15 15v85q0 14 14 16q33 3 42 3q95 0 143.5 -57t48.5 -187v-98
q0 -40 15 -58.5t48 -20.5q15 -1 15 -16v-92q0 -15 -15 -16q-33 -2 -48 -20.5t-15 -58.5v-97q0 -131 -48 -187.5t-144 -56.5z" />
    <glyph glyph-name="asciitilde" unicode="~" 
d="M100 -50v668h191v-668h-191zM199 429q29 0 45 18.5t16 44.5q0 28 -16.5 45.5t-44.5 17.5q-30 0 -46.5 -18.5t-16.5 -44.5q0 -28 17 -45.5t46 -17.5zM820 452q-18 0 -30 11.5t-12 28.5t12 28.5t30 11.5q17 0 29 -11.5t12 -28.5t-12 -28.5t-29 -11.5zM199 467q-30 0 -30 25
t30 25q28 0 28 -25t-28 -25zM380 283q0 105 4 204h68q4 -100 6 -204h-78zM721 279q-28 0 -42 11t-13 36l1 49h-17v49l60 48h22l2 -33h118q4 -69 4 -156h-77q0 62 1 92h-41l3 -28q0 -12 11 -12q7 0 11 2v-48q-10 -10 -43 -10zM529 280q-28 0 -44 20t-16 54q0 42 24 65t68 23
q36 0 58 -14t22 -34l-1 -111h-56l-5 30q-10 -33 -50 -33zM871 283q2 104 5 156h56l5 -34q14 37 53 37q54 0 55 -69l2 -90h-78l2 73q0 19 -11 19q-13 0 -12 -19l1 -73h-78zM1144 280q-41 0 -63.5 21t-22.5 59t23 60t63 22t63 -22t23 -60t-22.5 -59t-63.5 -21zM258 265v35
l-57 1v1l43 24v17l-43 22v1l57 3v34l-119 -8v-29l55 -31l-55 -32v-31zM554 337q18 0 18 18q0 5 -2 15q-4 6 -14 6q-18 0 -18 -20q0 -19 16 -19zM1144 337q18 0 18 20q0 19 -18 19q-17 0 -17 -19q0 -20 17 -20zM562 54q-31 0 -46 9v55h1q20 -10 40 -10q35 2 37 26
q0 -10 -32 -10q-22 0 -39.5 16t-17.5 38v17h-36l2 -29q1 -11 12 -11q8 0 10 2h1v-48q-17 -10 -43 -10q-29 0 -42.5 11t-12.5 32l1 53h-17v49l63 30h22l-1 -16h111l-2 -63q0 -19 11 -19q13 0 12 19l-1 63h71q3 -51 3 -80q0 -67 -24.5 -95.5t-82.5 -28.5zM683 62q0 101 3 197
h58l2 -31q10 34 50 34q28 0 43.5 -19.5t15.5 -54.5q0 -41 -21.5 -64t-58.5 -23q-5 0 -17 2l2 -41h-77zM963 100q-98 0 -98 79q0 39 22.5 61t63.5 22q77 0 77 -76q0 -11 -2 -21l-87 -4q7 -12 42 -12q23 0 35 5v-47q-21 -7 -53 -7zM139 154h119v82h-29v-46h-18v42h-28v-42h-15
v45h-29v-81zM934 183l38 3q2 20 -19 20q-19 0 -19 -23zM765 157q21 0 21 20q0 19 -16 19q-19 0 -19 -19q0 -6 4 -19q3 -1 10 -1zM1050 97q-15 0 -15 15q0 14 15 14q14 0 14 -14q0 -15 -14 -15zM139 11h119v45q0 31 -16 49.5t-45 18.5q-28 0 -44 -18t-16 -47q0 -11 0.5 -22
t1 -17.5t0.5 -8.5zM1050 100q11 0 11 12q0 11 -11 11q-12 0 -12 -11q0 -12 12 -12zM1043 104v15h7q7 0 7 -5q0 -4 -5 -4l4 -6h-4l-2 6h-4v-6h-3zM1046 112h4q3 0 3 2t-3 2h-4v-4zM171 47q0 2 -0.5 5t-0.5 7q0 27 28 27t28 -27v-12h-55z" />
    <glyph glyph-name="exclamdown" unicode="&#xa1;" 
d="M100 -50v668h191v-668h-191zM199 429q29 0 45 18.5t16 44.5q0 28 -16.5 45.5t-44.5 17.5q-30 0 -46.5 -18.5t-16.5 -44.5q0 -28 17 -45.5t46 -17.5zM820 452q-18 0 -30 11.5t-12 28.5t12 28.5t30 11.5q17 0 29 -11.5t12 -28.5t-12 -28.5t-29 -11.5zM199 467q-30 0 -30 25
t30 25q28 0 28 -25t-28 -25zM380 283q0 105 4 204h68q4 -100 6 -204h-78zM721 279q-28 0 -42 11t-13 36l1 49h-17v49l60 48h22l2 -33h118q4 -69 4 -156h-77q0 62 1 92h-41l3 -28q0 -12 11 -12q7 0 11 2v-48q-10 -10 -43 -10zM529 280q-28 0 -44 20t-16 54q0 42 24 65t68 23
q36 0 58 -14t22 -34l-1 -111h-56l-5 30q-10 -33 -50 -33zM871 283q2 104 5 156h56l5 -34q14 37 53 37q54 0 55 -69l2 -90h-78l2 73q0 19 -11 19q-13 0 -12 -19l1 -73h-78zM1144 280q-41 0 -63.5 21t-22.5 59t23 60t63 22t63 -22t23 -60t-22.5 -59t-63.5 -21zM258 265v35
l-57 1v1l43 24v17l-43 22v1l57 3v34l-119 -8v-29l55 -31l-55 -32v-31zM554 337q18 0 18 18q0 5 -2 15q-4 6 -14 6q-18 0 -18 -20q0 -19 16 -19zM1144 337q18 0 18 20q0 19 -18 19q-17 0 -17 -19q0 -20 17 -20zM562 54q-31 0 -46 9v55h1q20 -10 40 -10q35 2 37 26
q0 -10 -32 -10q-22 0 -39.5 16t-17.5 38v17h-36l2 -29q1 -11 12 -11q8 0 10 2h1v-48q-17 -10 -43 -10q-29 0 -42.5 11t-12.5 32l1 53h-17v49l63 30h22l-1 -16h111l-2 -63q0 -19 11 -19q13 0 12 19l-1 63h71q3 -51 3 -80q0 -67 -24.5 -95.5t-82.5 -28.5zM683 62q0 101 3 197
h58l2 -31q10 34 50 34q28 0 43.5 -19.5t15.5 -54.5q0 -41 -21.5 -64t-58.5 -23q-5 0 -17 2l2 -41h-77zM963 100q-98 0 -98 79q0 39 22.5 61t63.5 22q77 0 77 -76q0 -11 -2 -21l-87 -4q7 -12 42 -12q23 0 35 5v-47q-21 -7 -53 -7zM139 154h119v82h-29v-46h-18v42h-28v-42h-15
v45h-29v-81zM934 183l38 3q2 20 -19 20q-19 0 -19 -23zM765 157q21 0 21 20q0 19 -16 19q-19 0 -19 -19q0 -6 4 -19q3 -1 10 -1zM1050 97q-15 0 -15 15q0 14 15 14q14 0 14 -14q0 -15 -14 -15zM139 11h119v45q0 31 -16 49.5t-45 18.5q-28 0 -44 -18t-16 -47q0 -11 0.5 -22
t1 -17.5t0.5 -8.5zM1050 100q11 0 11 12q0 11 -11 11q-12 0 -12 -11q0 -12 12 -12zM1043 104v15h7q7 0 7 -5q0 -4 -5 -4l4 -6h-4l-2 6h-4v-6h-3zM1046 112h4q3 0 3 2t-3 2h-4v-4zM171 47q0 2 -0.5 5t-0.5 7q0 27 28 27t28 -27v-12h-55z" />
    <glyph glyph-name="cent" unicode="&#xa2;" horiz-adv-x="452" 
d="M397 500q10 -6 10 -18v-85q0 -19 -18 -11q-47 22 -102 22q-47 0 -76 -26.5t-29 -73.5q0 -50 29 -76t77 -26q50 0 97 22q18 8 18 -11v-85q0 -14 -19 -23q-31 -15 -78 -21v-87q0 -15 -15 -15h-52q-15 0 -15 15v88q-89 13 -138 71t-49 147q0 91 50.5 148.5t136.5 70.5v98
q0 15 15 15h52q15 0 15 -15v-97q56 -7 91 -27z" />
    <glyph glyph-name="sterling" unicode="&#xa3;" 
d="M100 -50v668h191v-668h-191zM199 429q29 0 45 18.5t16 44.5q0 28 -16.5 45.5t-44.5 17.5q-30 0 -46.5 -18.5t-16.5 -44.5q0 -28 17 -45.5t46 -17.5zM820 452q-18 0 -30 11.5t-12 28.5t12 28.5t30 11.5q17 0 29 -11.5t12 -28.5t-12 -28.5t-29 -11.5zM199 467q-30 0 -30 25
t30 25q28 0 28 -25t-28 -25zM380 283q0 105 4 204h68q4 -100 6 -204h-78zM721 279q-28 0 -42 11t-13 36l1 49h-17v49l60 48h22l2 -33h118q4 -69 4 -156h-77q0 62 1 92h-41l3 -28q0 -12 11 -12q7 0 11 2v-48q-10 -10 -43 -10zM529 280q-28 0 -44 20t-16 54q0 42 24 65t68 23
q36 0 58 -14t22 -34l-1 -111h-56l-5 30q-10 -33 -50 -33zM871 283q2 104 5 156h56l5 -34q14 37 53 37q54 0 55 -69l2 -90h-78l2 73q0 19 -11 19q-13 0 -12 -19l1 -73h-78zM1144 280q-41 0 -63.5 21t-22.5 59t23 60t63 22t63 -22t23 -60t-22.5 -59t-63.5 -21zM258 265v35
l-57 1v1l43 24v17l-43 22v1l57 3v34l-119 -8v-29l55 -31l-55 -32v-31zM554 337q18 0 18 18q0 5 -2 15q-4 6 -14 6q-18 0 -18 -20q0 -19 16 -19zM1144 337q18 0 18 20q0 19 -18 19q-17 0 -17 -19q0 -20 17 -20zM562 54q-31 0 -46 9v55h1q20 -10 40 -10q35 2 37 26
q0 -10 -32 -10q-22 0 -39.5 16t-17.5 38v17h-36l2 -29q1 -11 12 -11q8 0 10 2h1v-48q-17 -10 -43 -10q-29 0 -42.5 11t-12.5 32l1 53h-17v49l63 30h22l-1 -16h111l-2 -63q0 -19 11 -19q13 0 12 19l-1 63h71q3 -51 3 -80q0 -67 -24.5 -95.5t-82.5 -28.5zM683 62q0 101 3 197
h58l2 -31q10 34 50 34q28 0 43.5 -19.5t15.5 -54.5q0 -41 -21.5 -64t-58.5 -23q-5 0 -17 2l2 -41h-77zM963 100q-98 0 -98 79q0 39 22.5 61t63.5 22q77 0 77 -76q0 -11 -2 -21l-87 -4q7 -12 42 -12q23 0 35 5v-47q-21 -7 -53 -7zM139 154h119v82h-29v-46h-18v42h-28v-42h-15
v45h-29v-81zM934 183l38 3q2 20 -19 20q-19 0 -19 -23zM765 157q21 0 21 20q0 19 -16 19q-19 0 -19 -19q0 -6 4 -19q3 -1 10 -1zM1050 97q-15 0 -15 15q0 14 15 14q14 0 14 -14q0 -15 -14 -15zM139 11h119v45q0 31 -16 49.5t-45 18.5q-28 0 -44 -18t-16 -47q0 -11 0.5 -22
t1 -17.5t0.5 -8.5zM1050 100q11 0 11 12q0 11 -11 11q-12 0 -12 -11q0 -12 12 -12zM1043 104v15h7q7 0 7 -5q0 -4 -5 -4l4 -6h-4l-2 6h-4v-6h-3zM1046 112h4q3 0 3 2t-3 2h-4v-4zM171 47q0 2 -0.5 5t-0.5 7q0 27 28 27t28 -27v-12h-55z" />
    <glyph glyph-name="currency" unicode="&#xa4;" 
d="M100 -50v668h191v-668h-191zM199 429q29 0 45 18.5t16 44.5q0 28 -16.5 45.5t-44.5 17.5q-30 0 -46.5 -18.5t-16.5 -44.5q0 -28 17 -45.5t46 -17.5zM820 452q-18 0 -30 11.5t-12 28.5t12 28.5t30 11.5q17 0 29 -11.5t12 -28.5t-12 -28.5t-29 -11.5zM199 467q-30 0 -30 25
t30 25q28 0 28 -25t-28 -25zM380 283q0 105 4 204h68q4 -100 6 -204h-78zM721 279q-28 0 -42 11t-13 36l1 49h-17v49l60 48h22l2 -33h118q4 -69 4 -156h-77q0 62 1 92h-41l3 -28q0 -12 11 -12q7 0 11 2v-48q-10 -10 -43 -10zM529 280q-28 0 -44 20t-16 54q0 42 24 65t68 23
q36 0 58 -14t22 -34l-1 -111h-56l-5 30q-10 -33 -50 -33zM871 283q2 104 5 156h56l5 -34q14 37 53 37q54 0 55 -69l2 -90h-78l2 73q0 19 -11 19q-13 0 -12 -19l1 -73h-78zM1144 280q-41 0 -63.5 21t-22.5 59t23 60t63 22t63 -22t23 -60t-22.5 -59t-63.5 -21zM258 265v35
l-57 1v1l43 24v17l-43 22v1l57 3v34l-119 -8v-29l55 -31l-55 -32v-31zM554 337q18 0 18 18q0 5 -2 15q-4 6 -14 6q-18 0 -18 -20q0 -19 16 -19zM1144 337q18 0 18 20q0 19 -18 19q-17 0 -17 -19q0 -20 17 -20zM562 54q-31 0 -46 9v55h1q20 -10 40 -10q35 2 37 26
q0 -10 -32 -10q-22 0 -39.5 16t-17.5 38v17h-36l2 -29q1 -11 12 -11q8 0 10 2h1v-48q-17 -10 -43 -10q-29 0 -42.5 11t-12.5 32l1 53h-17v49l63 30h22l-1 -16h111l-2 -63q0 -19 11 -19q13 0 12 19l-1 63h71q3 -51 3 -80q0 -67 -24.5 -95.5t-82.5 -28.5zM683 62q0 101 3 197
h58l2 -31q10 34 50 34q28 0 43.5 -19.5t15.5 -54.5q0 -41 -21.5 -64t-58.5 -23q-5 0 -17 2l2 -41h-77zM963 100q-98 0 -98 79q0 39 22.5 61t63.5 22q77 0 77 -76q0 -11 -2 -21l-87 -4q7 -12 42 -12q23 0 35 5v-47q-21 -7 -53 -7zM139 154h119v82h-29v-46h-18v42h-28v-42h-15
v45h-29v-81zM934 183l38 3q2 20 -19 20q-19 0 -19 -23zM765 157q21 0 21 20q0 19 -16 19q-19 0 -19 -19q0 -6 4 -19q3 -1 10 -1zM1050 97q-15 0 -15 15q0 14 15 14q14 0 14 -14q0 -15 -14 -15zM139 11h119v45q0 31 -16 49.5t-45 18.5q-28 0 -44 -18t-16 -47q0 -11 0.5 -22
t1 -17.5t0.5 -8.5zM1050 100q11 0 11 12q0 11 -11 11q-12 0 -12 -11q0 -12 12 -12zM1043 104v15h7q7 0 7 -5q0 -4 -5 -4l4 -6h-4l-2 6h-4v-6h-3zM1046 112h4q3 0 3 2t-3 2h-4v-4zM171 47q0 2 -0.5 5t-0.5 7q0 27 28 27t28 -27v-12h-55z" />
    <glyph glyph-name="yen" unicode="&#xa5;" 
d="M100 -50v668h191v-668h-191zM199 429q29 0 45 18.5t16 44.5q0 28 -16.5 45.5t-44.5 17.5q-30 0 -46.5 -18.5t-16.5 -44.5q0 -28 17 -45.5t46 -17.5zM820 452q-18 0 -30 11.5t-12 28.5t12 28.5t30 11.5q17 0 29 -11.5t12 -28.5t-12 -28.5t-29 -11.5zM199 467q-30 0 -30 25
t30 25q28 0 28 -25t-28 -25zM380 283q0 105 4 204h68q4 -100 6 -204h-78zM721 279q-28 0 -42 11t-13 36l1 49h-17v49l60 48h22l2 -33h118q4 -69 4 -156h-77q0 62 1 92h-41l3 -28q0 -12 11 -12q7 0 11 2v-48q-10 -10 -43 -10zM529 280q-28 0 -44 20t-16 54q0 42 24 65t68 23
q36 0 58 -14t22 -34l-1 -111h-56l-5 30q-10 -33 -50 -33zM871 283q2 104 5 156h56l5 -34q14 37 53 37q54 0 55 -69l2 -90h-78l2 73q0 19 -11 19q-13 0 -12 -19l1 -73h-78zM1144 280q-41 0 -63.5 21t-22.5 59t23 60t63 22t63 -22t23 -60t-22.5 -59t-63.5 -21zM258 265v35
l-57 1v1l43 24v17l-43 22v1l57 3v34l-119 -8v-29l55 -31l-55 -32v-31zM554 337q18 0 18 18q0 5 -2 15q-4 6 -14 6q-18 0 -18 -20q0 -19 16 -19zM1144 337q18 0 18 20q0 19 -18 19q-17 0 -17 -19q0 -20 17 -20zM562 54q-31 0 -46 9v55h1q20 -10 40 -10q35 2 37 26
q0 -10 -32 -10q-22 0 -39.5 16t-17.5 38v17h-36l2 -29q1 -11 12 -11q8 0 10 2h1v-48q-17 -10 -43 -10q-29 0 -42.5 11t-12.5 32l1 53h-17v49l63 30h22l-1 -16h111l-2 -63q0 -19 11 -19q13 0 12 19l-1 63h71q3 -51 3 -80q0 -67 -24.5 -95.5t-82.5 -28.5zM683 62q0 101 3 197
h58l2 -31q10 34 50 34q28 0 43.5 -19.5t15.5 -54.5q0 -41 -21.5 -64t-58.5 -23q-5 0 -17 2l2 -41h-77zM963 100q-98 0 -98 79q0 39 22.5 61t63.5 22q77 0 77 -76q0 -11 -2 -21l-87 -4q7 -12 42 -12q23 0 35 5v-47q-21 -7 -53 -7zM139 154h119v82h-29v-46h-18v42h-28v-42h-15
v45h-29v-81zM934 183l38 3q2 20 -19 20q-19 0 -19 -23zM765 157q21 0 21 20q0 19 -16 19q-19 0 -19 -19q0 -6 4 -19q3 -1 10 -1zM1050 97q-15 0 -15 15q0 14 15 14q14 0 14 -14q0 -15 -14 -15zM139 11h119v45q0 31 -16 49.5t-45 18.5q-28 0 -44 -18t-16 -47q0 -11 0.5 -22
t1 -17.5t0.5 -8.5zM1050 100q11 0 11 12q0 11 -11 11q-12 0 -12 -11q0 -12 12 -12zM1043 104v15h7q7 0 7 -5q0 -4 -5 -4l4 -6h-4l-2 6h-4v-6h-3zM1046 112h4q3 0 3 2t-3 2h-4v-4zM171 47q0 2 -0.5 5t-0.5 7q0 27 28 27t28 -27v-12h-55z" />
    <glyph glyph-name="brokenbar" unicode="&#xa6;" 
d="M100 -50v668h191v-668h-191zM199 429q29 0 45 18.5t16 44.5q0 28 -16.5 45.5t-44.5 17.5q-30 0 -46.5 -18.5t-16.5 -44.5q0 -28 17 -45.5t46 -17.5zM820 452q-18 0 -30 11.5t-12 28.5t12 28.5t30 11.5q17 0 29 -11.5t12 -28.5t-12 -28.5t-29 -11.5zM199 467q-30 0 -30 25
t30 25q28 0 28 -25t-28 -25zM380 283q0 105 4 204h68q4 -100 6 -204h-78zM721 279q-28 0 -42 11t-13 36l1 49h-17v49l60 48h22l2 -33h118q4 -69 4 -156h-77q0 62 1 92h-41l3 -28q0 -12 11 -12q7 0 11 2v-48q-10 -10 -43 -10zM529 280q-28 0 -44 20t-16 54q0 42 24 65t68 23
q36 0 58 -14t22 -34l-1 -111h-56l-5 30q-10 -33 -50 -33zM871 283q2 104 5 156h56l5 -34q14 37 53 37q54 0 55 -69l2 -90h-78l2 73q0 19 -11 19q-13 0 -12 -19l1 -73h-78zM1144 280q-41 0 -63.5 21t-22.5 59t23 60t63 22t63 -22t23 -60t-22.5 -59t-63.5 -21zM258 265v35
l-57 1v1l43 24v17l-43 22v1l57 3v34l-119 -8v-29l55 -31l-55 -32v-31zM554 337q18 0 18 18q0 5 -2 15q-4 6 -14 6q-18 0 -18 -20q0 -19 16 -19zM1144 337q18 0 18 20q0 19 -18 19q-17 0 -17 -19q0 -20 17 -20zM562 54q-31 0 -46 9v55h1q20 -10 40 -10q35 2 37 26
q0 -10 -32 -10q-22 0 -39.5 16t-17.5 38v17h-36l2 -29q1 -11 12 -11q8 0 10 2h1v-48q-17 -10 -43 -10q-29 0 -42.5 11t-12.5 32l1 53h-17v49l63 30h22l-1 -16h111l-2 -63q0 -19 11 -19q13 0 12 19l-1 63h71q3 -51 3 -80q0 -67 -24.5 -95.5t-82.5 -28.5zM683 62q0 101 3 197
h58l2 -31q10 34 50 34q28 0 43.5 -19.5t15.5 -54.5q0 -41 -21.5 -64t-58.5 -23q-5 0 -17 2l2 -41h-77zM963 100q-98 0 -98 79q0 39 22.5 61t63.5 22q77 0 77 -76q0 -11 -2 -21l-87 -4q7 -12 42 -12q23 0 35 5v-47q-21 -7 -53 -7zM139 154h119v82h-29v-46h-18v42h-28v-42h-15
v45h-29v-81zM934 183l38 3q2 20 -19 20q-19 0 -19 -23zM765 157q21 0 21 20q0 19 -16 19q-19 0 -19 -19q0 -6 4 -19q3 -1 10 -1zM1050 97q-15 0 -15 15q0 14 15 14q14 0 14 -14q0 -15 -14 -15zM139 11h119v45q0 31 -16 49.5t-45 18.5q-28 0 -44 -18t-16 -47q0 -11 0.5 -22
t1 -17.5t0.5 -8.5zM1050 100q11 0 11 12q0 11 -11 11q-12 0 -12 -11q0 -12 12 -12zM1043 104v15h7q7 0 7 -5q0 -4 -5 -4l4 -6h-4l-2 6h-4v-6h-3zM1046 112h4q3 0 3 2t-3 2h-4v-4zM171 47q0 2 -0.5 5t-0.5 7q0 27 28 27t28 -27v-12h-55z" />
    <glyph glyph-name="section" unicode="&#xa7;" 
d="M100 -50v668h191v-668h-191zM199 429q29 0 45 18.5t16 44.5q0 28 -16.5 45.5t-44.5 17.5q-30 0 -46.5 -18.5t-16.5 -44.5q0 -28 17 -45.5t46 -17.5zM820 452q-18 0 -30 11.5t-12 28.5t12 28.5t30 11.5q17 0 29 -11.5t12 -28.5t-12 -28.5t-29 -11.5zM199 467q-30 0 -30 25
t30 25q28 0 28 -25t-28 -25zM380 283q0 105 4 204h68q4 -100 6 -204h-78zM721 279q-28 0 -42 11t-13 36l1 49h-17v49l60 48h22l2 -33h118q4 -69 4 -156h-77q0 62 1 92h-41l3 -28q0 -12 11 -12q7 0 11 2v-48q-10 -10 -43 -10zM529 280q-28 0 -44 20t-16 54q0 42 24 65t68 23
q36 0 58 -14t22 -34l-1 -111h-56l-5 30q-10 -33 -50 -33zM871 283q2 104 5 156h56l5 -34q14 37 53 37q54 0 55 -69l2 -90h-78l2 73q0 19 -11 19q-13 0 -12 -19l1 -73h-78zM1144 280q-41 0 -63.5 21t-22.5 59t23 60t63 22t63 -22t23 -60t-22.5 -59t-63.5 -21zM258 265v35
l-57 1v1l43 24v17l-43 22v1l57 3v34l-119 -8v-29l55 -31l-55 -32v-31zM554 337q18 0 18 18q0 5 -2 15q-4 6 -14 6q-18 0 -18 -20q0 -19 16 -19zM1144 337q18 0 18 20q0 19 -18 19q-17 0 -17 -19q0 -20 17 -20zM562 54q-31 0 -46 9v55h1q20 -10 40 -10q35 2 37 26
q0 -10 -32 -10q-22 0 -39.5 16t-17.5 38v17h-36l2 -29q1 -11 12 -11q8 0 10 2h1v-48q-17 -10 -43 -10q-29 0 -42.5 11t-12.5 32l1 53h-17v49l63 30h22l-1 -16h111l-2 -63q0 -19 11 -19q13 0 12 19l-1 63h71q3 -51 3 -80q0 -67 -24.5 -95.5t-82.5 -28.5zM683 62q0 101 3 197
h58l2 -31q10 34 50 34q28 0 43.5 -19.5t15.5 -54.5q0 -41 -21.5 -64t-58.5 -23q-5 0 -17 2l2 -41h-77zM963 100q-98 0 -98 79q0 39 22.5 61t63.5 22q77 0 77 -76q0 -11 -2 -21l-87 -4q7 -12 42 -12q23 0 35 5v-47q-21 -7 -53 -7zM139 154h119v82h-29v-46h-18v42h-28v-42h-15
v45h-29v-81zM934 183l38 3q2 20 -19 20q-19 0 -19 -23zM765 157q21 0 21 20q0 19 -16 19q-19 0 -19 -19q0 -6 4 -19q3 -1 10 -1zM1050 97q-15 0 -15 15q0 14 15 14q14 0 14 -14q0 -15 -14 -15zM139 11h119v45q0 31 -16 49.5t-45 18.5q-28 0 -44 -18t-16 -47q0 -11 0.5 -22
t1 -17.5t0.5 -8.5zM1050 100q11 0 11 12q0 11 -11 11q-12 0 -12 -11q0 -12 12 -12zM1043 104v15h7q7 0 7 -5q0 -4 -5 -4l4 -6h-4l-2 6h-4v-6h-3zM1046 112h4q3 0 3 2t-3 2h-4v-4zM171 47q0 2 -0.5 5t-0.5 7q0 27 28 27t28 -27v-12h-55z" />
    <glyph glyph-name="dieresis" unicode="&#xa8;" 
d="M100 -50v668h191v-668h-191zM199 429q29 0 45 18.5t16 44.5q0 28 -16.5 45.5t-44.5 17.5q-30 0 -46.5 -18.5t-16.5 -44.5q0 -28 17 -45.5t46 -17.5zM820 452q-18 0 -30 11.5t-12 28.5t12 28.5t30 11.5q17 0 29 -11.5t12 -28.5t-12 -28.5t-29 -11.5zM199 467q-30 0 -30 25
t30 25q28 0 28 -25t-28 -25zM380 283q0 105 4 204h68q4 -100 6 -204h-78zM721 279q-28 0 -42 11t-13 36l1 49h-17v49l60 48h22l2 -33h118q4 -69 4 -156h-77q0 62 1 92h-41l3 -28q0 -12 11 -12q7 0 11 2v-48q-10 -10 -43 -10zM529 280q-28 0 -44 20t-16 54q0 42 24 65t68 23
q36 0 58 -14t22 -34l-1 -111h-56l-5 30q-10 -33 -50 -33zM871 283q2 104 5 156h56l5 -34q14 37 53 37q54 0 55 -69l2 -90h-78l2 73q0 19 -11 19q-13 0 -12 -19l1 -73h-78zM1144 280q-41 0 -63.5 21t-22.5 59t23 60t63 22t63 -22t23 -60t-22.5 -59t-63.5 -21zM258 265v35
l-57 1v1l43 24v17l-43 22v1l57 3v34l-119 -8v-29l55 -31l-55 -32v-31zM554 337q18 0 18 18q0 5 -2 15q-4 6 -14 6q-18 0 -18 -20q0 -19 16 -19zM1144 337q18 0 18 20q0 19 -18 19q-17 0 -17 -19q0 -20 17 -20zM562 54q-31 0 -46 9v55h1q20 -10 40 -10q35 2 37 26
q0 -10 -32 -10q-22 0 -39.5 16t-17.5 38v17h-36l2 -29q1 -11 12 -11q8 0 10 2h1v-48q-17 -10 -43 -10q-29 0 -42.5 11t-12.5 32l1 53h-17v49l63 30h22l-1 -16h111l-2 -63q0 -19 11 -19q13 0 12 19l-1 63h71q3 -51 3 -80q0 -67 -24.5 -95.5t-82.5 -28.5zM683 62q0 101 3 197
h58l2 -31q10 34 50 34q28 0 43.5 -19.5t15.5 -54.5q0 -41 -21.5 -64t-58.5 -23q-5 0 -17 2l2 -41h-77zM963 100q-98 0 -98 79q0 39 22.5 61t63.5 22q77 0 77 -76q0 -11 -2 -21l-87 -4q7 -12 42 -12q23 0 35 5v-47q-21 -7 -53 -7zM139 154h119v82h-29v-46h-18v42h-28v-42h-15
v45h-29v-81zM934 183l38 3q2 20 -19 20q-19 0 -19 -23zM765 157q21 0 21 20q0 19 -16 19q-19 0 -19 -19q0 -6 4 -19q3 -1 10 -1zM1050 97q-15 0 -15 15q0 14 15 14q14 0 14 -14q0 -15 -14 -15zM139 11h119v45q0 31 -16 49.5t-45 18.5q-28 0 -44 -18t-16 -47q0 -11 0.5 -22
t1 -17.5t0.5 -8.5zM1050 100q11 0 11 12q0 11 -11 11q-12 0 -12 -11q0 -12 12 -12zM1043 104v15h7q7 0 7 -5q0 -4 -5 -4l4 -6h-4l-2 6h-4v-6h-3zM1046 112h4q3 0 3 2t-3 2h-4v-4zM171 47q0 2 -0.5 5t-0.5 7q0 27 28 27t28 -27v-12h-55z" />
    <glyph glyph-name="copyright" unicode="&#xa9;" 
d="M100 -50v668h191v-668h-191zM199 429q29 0 45 18.5t16 44.5q0 28 -16.5 45.5t-44.5 17.5q-30 0 -46.5 -18.5t-16.5 -44.5q0 -28 17 -45.5t46 -17.5zM820 452q-18 0 -30 11.5t-12 28.5t12 28.5t30 11.5q17 0 29 -11.5t12 -28.5t-12 -28.5t-29 -11.5zM199 467q-30 0 -30 25
t30 25q28 0 28 -25t-28 -25zM380 283q0 105 4 204h68q4 -100 6 -204h-78zM721 279q-28 0 -42 11t-13 36l1 49h-17v49l60 48h22l2 -33h118q4 -69 4 -156h-77q0 62 1 92h-41l3 -28q0 -12 11 -12q7 0 11 2v-48q-10 -10 -43 -10zM529 280q-28 0 -44 20t-16 54q0 42 24 65t68 23
q36 0 58 -14t22 -34l-1 -111h-56l-5 30q-10 -33 -50 -33zM871 283q2 104 5 156h56l5 -34q14 37 53 37q54 0 55 -69l2 -90h-78l2 73q0 19 -11 19q-13 0 -12 -19l1 -73h-78zM1144 280q-41 0 -63.5 21t-22.5 59t23 60t63 22t63 -22t23 -60t-22.5 -59t-63.5 -21zM258 265v35
l-57 1v1l43 24v17l-43 22v1l57 3v34l-119 -8v-29l55 -31l-55 -32v-31zM554 337q18 0 18 18q0 5 -2 15q-4 6 -14 6q-18 0 -18 -20q0 -19 16 -19zM1144 337q18 0 18 20q0 19 -18 19q-17 0 -17 -19q0 -20 17 -20zM562 54q-31 0 -46 9v55h1q20 -10 40 -10q35 2 37 26
q0 -10 -32 -10q-22 0 -39.5 16t-17.5 38v17h-36l2 -29q1 -11 12 -11q8 0 10 2h1v-48q-17 -10 -43 -10q-29 0 -42.5 11t-12.5 32l1 53h-17v49l63 30h22l-1 -16h111l-2 -63q0 -19 11 -19q13 0 12 19l-1 63h71q3 -51 3 -80q0 -67 -24.5 -95.5t-82.5 -28.5zM683 62q0 101 3 197
h58l2 -31q10 34 50 34q28 0 43.5 -19.5t15.5 -54.5q0 -41 -21.5 -64t-58.5 -23q-5 0 -17 2l2 -41h-77zM963 100q-98 0 -98 79q0 39 22.5 61t63.5 22q77 0 77 -76q0 -11 -2 -21l-87 -4q7 -12 42 -12q23 0 35 5v-47q-21 -7 -53 -7zM139 154h119v82h-29v-46h-18v42h-28v-42h-15
v45h-29v-81zM934 183l38 3q2 20 -19 20q-19 0 -19 -23zM765 157q21 0 21 20q0 19 -16 19q-19 0 -19 -19q0 -6 4 -19q3 -1 10 -1zM1050 97q-15 0 -15 15q0 14 15 14q14 0 14 -14q0 -15 -14 -15zM139 11h119v45q0 31 -16 49.5t-45 18.5q-28 0 -44 -18t-16 -47q0 -11 0.5 -22
t1 -17.5t0.5 -8.5zM1050 100q11 0 11 12q0 11 -11 11q-12 0 -12 -11q0 -12 12 -12zM1043 104v15h7q7 0 7 -5q0 -4 -5 -4l4 -6h-4l-2 6h-4v-6h-3zM1046 112h4q3 0 3 2t-3 2h-4v-4zM171 47q0 2 -0.5 5t-0.5 7q0 27 28 27t28 -27v-12h-55z" />
    <glyph glyph-name="ordfeminine" unicode="&#xaa;" horiz-adv-x="467" 
d="M414 405q16 3 16 20v60q0 11 -15 18q-16 8 -16 45v181q0 18 -17 18h-59q-14 0 -20 -14q-6 -15 -9 -39h-6q-26 63 -111 63q-69 0 -108 -49t-39 -126q0 -81 39.5 -130t110.5 -49t110 57h5q0 -11 6 -22.5t28 -23t57 -11.5q16 0 28 2zM214 502q-29 0 -44.5 21t-15.5 56
t16.5 57t43.5 22q61 0 61 -77q0 -39 -16.5 -59t-44.5 -20z" />
    <glyph glyph-name="guillemotleft" unicode="&#xab;" 
d="M100 -50v668h191v-668h-191zM199 429q29 0 45 18.5t16 44.5q0 28 -16.5 45.5t-44.5 17.5q-30 0 -46.5 -18.5t-16.5 -44.5q0 -28 17 -45.5t46 -17.5zM820 452q-18 0 -30 11.5t-12 28.5t12 28.5t30 11.5q17 0 29 -11.5t12 -28.5t-12 -28.5t-29 -11.5zM199 467q-30 0 -30 25
t30 25q28 0 28 -25t-28 -25zM380 283q0 105 4 204h68q4 -100 6 -204h-78zM721 279q-28 0 -42 11t-13 36l1 49h-17v49l60 48h22l2 -33h118q4 -69 4 -156h-77q0 62 1 92h-41l3 -28q0 -12 11 -12q7 0 11 2v-48q-10 -10 -43 -10zM529 280q-28 0 -44 20t-16 54q0 42 24 65t68 23
q36 0 58 -14t22 -34l-1 -111h-56l-5 30q-10 -33 -50 -33zM871 283q2 104 5 156h56l5 -34q14 37 53 37q54 0 55 -69l2 -90h-78l2 73q0 19 -11 19q-13 0 -12 -19l1 -73h-78zM1144 280q-41 0 -63.5 21t-22.5 59t23 60t63 22t63 -22t23 -60t-22.5 -59t-63.5 -21zM258 265v35
l-57 1v1l43 24v17l-43 22v1l57 3v34l-119 -8v-29l55 -31l-55 -32v-31zM554 337q18 0 18 18q0 5 -2 15q-4 6 -14 6q-18 0 -18 -20q0 -19 16 -19zM1144 337q18 0 18 20q0 19 -18 19q-17 0 -17 -19q0 -20 17 -20zM562 54q-31 0 -46 9v55h1q20 -10 40 -10q35 2 37 26
q0 -10 -32 -10q-22 0 -39.5 16t-17.5 38v17h-36l2 -29q1 -11 12 -11q8 0 10 2h1v-48q-17 -10 -43 -10q-29 0 -42.5 11t-12.5 32l1 53h-17v49l63 30h22l-1 -16h111l-2 -63q0 -19 11 -19q13 0 12 19l-1 63h71q3 -51 3 -80q0 -67 -24.5 -95.5t-82.5 -28.5zM683 62q0 101 3 197
h58l2 -31q10 34 50 34q28 0 43.5 -19.5t15.5 -54.5q0 -41 -21.5 -64t-58.5 -23q-5 0 -17 2l2 -41h-77zM963 100q-98 0 -98 79q0 39 22.5 61t63.5 22q77 0 77 -76q0 -11 -2 -21l-87 -4q7 -12 42 -12q23 0 35 5v-47q-21 -7 -53 -7zM139 154h119v82h-29v-46h-18v42h-28v-42h-15
v45h-29v-81zM934 183l38 3q2 20 -19 20q-19 0 -19 -23zM765 157q21 0 21 20q0 19 -16 19q-19 0 -19 -19q0 -6 4 -19q3 -1 10 -1zM1050 97q-15 0 -15 15q0 14 15 14q14 0 14 -14q0 -15 -14 -15zM139 11h119v45q0 31 -16 49.5t-45 18.5q-28 0 -44 -18t-16 -47q0 -11 0.5 -22
t1 -17.5t0.5 -8.5zM1050 100q11 0 11 12q0 11 -11 11q-12 0 -12 -11q0 -12 12 -12zM1043 104v15h7q7 0 7 -5q0 -4 -5 -4l4 -6h-4l-2 6h-4v-6h-3zM1046 112h4q3 0 3 2t-3 2h-4v-4zM171 47q0 2 -0.5 5t-0.5 7q0 27 28 27t28 -27v-12h-55z" />
    <glyph glyph-name="registered" unicode="&#xae;" 
d="M100 -50v668h191v-668h-191zM199 429q29 0 45 18.5t16 44.5q0 28 -16.5 45.5t-44.5 17.5q-30 0 -46.5 -18.5t-16.5 -44.5q0 -28 17 -45.5t46 -17.5zM820 452q-18 0 -30 11.5t-12 28.5t12 28.5t30 11.5q17 0 29 -11.5t12 -28.5t-12 -28.5t-29 -11.5zM199 467q-30 0 -30 25
t30 25q28 0 28 -25t-28 -25zM380 283q0 105 4 204h68q4 -100 6 -204h-78zM721 279q-28 0 -42 11t-13 36l1 49h-17v49l60 48h22l2 -33h118q4 -69 4 -156h-77q0 62 1 92h-41l3 -28q0 -12 11 -12q7 0 11 2v-48q-10 -10 -43 -10zM529 280q-28 0 -44 20t-16 54q0 42 24 65t68 23
q36 0 58 -14t22 -34l-1 -111h-56l-5 30q-10 -33 -50 -33zM871 283q2 104 5 156h56l5 -34q14 37 53 37q54 0 55 -69l2 -90h-78l2 73q0 19 -11 19q-13 0 -12 -19l1 -73h-78zM1144 280q-41 0 -63.5 21t-22.5 59t23 60t63 22t63 -22t23 -60t-22.5 -59t-63.5 -21zM258 265v35
l-57 1v1l43 24v17l-43 22v1l57 3v34l-119 -8v-29l55 -31l-55 -32v-31zM554 337q18 0 18 18q0 5 -2 15q-4 6 -14 6q-18 0 -18 -20q0 -19 16 -19zM1144 337q18 0 18 20q0 19 -18 19q-17 0 -17 -19q0 -20 17 -20zM562 54q-31 0 -46 9v55h1q20 -10 40 -10q35 2 37 26
q0 -10 -32 -10q-22 0 -39.5 16t-17.5 38v17h-36l2 -29q1 -11 12 -11q8 0 10 2h1v-48q-17 -10 -43 -10q-29 0 -42.5 11t-12.5 32l1 53h-17v49l63 30h22l-1 -16h111l-2 -63q0 -19 11 -19q13 0 12 19l-1 63h71q3 -51 3 -80q0 -67 -24.5 -95.5t-82.5 -28.5zM683 62q0 101 3 197
h58l2 -31q10 34 50 34q28 0 43.5 -19.5t15.5 -54.5q0 -41 -21.5 -64t-58.5 -23q-5 0 -17 2l2 -41h-77zM963 100q-98 0 -98 79q0 39 22.5 61t63.5 22q77 0 77 -76q0 -11 -2 -21l-87 -4q7 -12 42 -12q23 0 35 5v-47q-21 -7 -53 -7zM139 154h119v82h-29v-46h-18v42h-28v-42h-15
v45h-29v-81zM934 183l38 3q2 20 -19 20q-19 0 -19 -23zM765 157q21 0 21 20q0 19 -16 19q-19 0 -19 -19q0 -6 4 -19q3 -1 10 -1zM1050 97q-15 0 -15 15q0 14 15 14q14 0 14 -14q0 -15 -14 -15zM139 11h119v45q0 31 -16 49.5t-45 18.5q-28 0 -44 -18t-16 -47q0 -11 0.5 -22
t1 -17.5t0.5 -8.5zM1050 100q11 0 11 12q0 11 -11 11q-12 0 -12 -11q0 -12 12 -12zM1043 104v15h7q7 0 7 -5q0 -4 -5 -4l4 -6h-4l-2 6h-4v-6h-3zM1046 112h4q3 0 3 2t-3 2h-4v-4zM171 47q0 2 -0.5 5t-0.5 7q0 27 28 27t28 -27v-12h-55z" />
    <glyph glyph-name="macron" unicode="&#xaf;" 
d="M100 -50v668h191v-668h-191zM199 429q29 0 45 18.5t16 44.5q0 28 -16.5 45.5t-44.5 17.5q-30 0 -46.5 -18.5t-16.5 -44.5q0 -28 17 -45.5t46 -17.5zM820 452q-18 0 -30 11.5t-12 28.5t12 28.5t30 11.5q17 0 29 -11.5t12 -28.5t-12 -28.5t-29 -11.5zM199 467q-30 0 -30 25
t30 25q28 0 28 -25t-28 -25zM380 283q0 105 4 204h68q4 -100 6 -204h-78zM721 279q-28 0 -42 11t-13 36l1 49h-17v49l60 48h22l2 -33h118q4 -69 4 -156h-77q0 62 1 92h-41l3 -28q0 -12 11 -12q7 0 11 2v-48q-10 -10 -43 -10zM529 280q-28 0 -44 20t-16 54q0 42 24 65t68 23
q36 0 58 -14t22 -34l-1 -111h-56l-5 30q-10 -33 -50 -33zM871 283q2 104 5 156h56l5 -34q14 37 53 37q54 0 55 -69l2 -90h-78l2 73q0 19 -11 19q-13 0 -12 -19l1 -73h-78zM1144 280q-41 0 -63.5 21t-22.5 59t23 60t63 22t63 -22t23 -60t-22.5 -59t-63.5 -21zM258 265v35
l-57 1v1l43 24v17l-43 22v1l57 3v34l-119 -8v-29l55 -31l-55 -32v-31zM554 337q18 0 18 18q0 5 -2 15q-4 6 -14 6q-18 0 -18 -20q0 -19 16 -19zM1144 337q18 0 18 20q0 19 -18 19q-17 0 -17 -19q0 -20 17 -20zM562 54q-31 0 -46 9v55h1q20 -10 40 -10q35 2 37 26
q0 -10 -32 -10q-22 0 -39.5 16t-17.5 38v17h-36l2 -29q1 -11 12 -11q8 0 10 2h1v-48q-17 -10 -43 -10q-29 0 -42.5 11t-12.5 32l1 53h-17v49l63 30h22l-1 -16h111l-2 -63q0 -19 11 -19q13 0 12 19l-1 63h71q3 -51 3 -80q0 -67 -24.5 -95.5t-82.5 -28.5zM683 62q0 101 3 197
h58l2 -31q10 34 50 34q28 0 43.5 -19.5t15.5 -54.5q0 -41 -21.5 -64t-58.5 -23q-5 0 -17 2l2 -41h-77zM963 100q-98 0 -98 79q0 39 22.5 61t63.5 22q77 0 77 -76q0 -11 -2 -21l-87 -4q7 -12 42 -12q23 0 35 5v-47q-21 -7 -53 -7zM139 154h119v82h-29v-46h-18v42h-28v-42h-15
v45h-29v-81zM934 183l38 3q2 20 -19 20q-19 0 -19 -23zM765 157q21 0 21 20q0 19 -16 19q-19 0 -19 -19q0 -6 4 -19q3 -1 10 -1zM1050 97q-15 0 -15 15q0 14 15 14q14 0 14 -14q0 -15 -14 -15zM139 11h119v45q0 31 -16 49.5t-45 18.5q-28 0 -44 -18t-16 -47q0 -11 0.5 -22
t1 -17.5t0.5 -8.5zM1050 100q11 0 11 12q0 11 -11 11q-12 0 -12 -11q0 -12 12 -12zM1043 104v15h7q7 0 7 -5q0 -4 -5 -4l4 -6h-4l-2 6h-4v-6h-3zM1046 112h4q3 0 3 2t-3 2h-4v-4zM171 47q0 2 -0.5 5t-0.5 7q0 27 28 27t28 -27v-12h-55z" />
    <glyph glyph-name="degree" unicode="&#xb0;" 
d="M100 -50v668h191v-668h-191zM199 429q29 0 45 18.5t16 44.5q0 28 -16.5 45.5t-44.5 17.5q-30 0 -46.5 -18.5t-16.5 -44.5q0 -28 17 -45.5t46 -17.5zM820 452q-18 0 -30 11.5t-12 28.5t12 28.5t30 11.5q17 0 29 -11.5t12 -28.5t-12 -28.5t-29 -11.5zM199 467q-30 0 -30 25
t30 25q28 0 28 -25t-28 -25zM380 283q0 105 4 204h68q4 -100 6 -204h-78zM721 279q-28 0 -42 11t-13 36l1 49h-17v49l60 48h22l2 -33h118q4 -69 4 -156h-77q0 62 1 92h-41l3 -28q0 -12 11 -12q7 0 11 2v-48q-10 -10 -43 -10zM529 280q-28 0 -44 20t-16 54q0 42 24 65t68 23
q36 0 58 -14t22 -34l-1 -111h-56l-5 30q-10 -33 -50 -33zM871 283q2 104 5 156h56l5 -34q14 37 53 37q54 0 55 -69l2 -90h-78l2 73q0 19 -11 19q-13 0 -12 -19l1 -73h-78zM1144 280q-41 0 -63.5 21t-22.5 59t23 60t63 22t63 -22t23 -60t-22.5 -59t-63.5 -21zM258 265v35
l-57 1v1l43 24v17l-43 22v1l57 3v34l-119 -8v-29l55 -31l-55 -32v-31zM554 337q18 0 18 18q0 5 -2 15q-4 6 -14 6q-18 0 -18 -20q0 -19 16 -19zM1144 337q18 0 18 20q0 19 -18 19q-17 0 -17 -19q0 -20 17 -20zM562 54q-31 0 -46 9v55h1q20 -10 40 -10q35 2 37 26
q0 -10 -32 -10q-22 0 -39.5 16t-17.5 38v17h-36l2 -29q1 -11 12 -11q8 0 10 2h1v-48q-17 -10 -43 -10q-29 0 -42.5 11t-12.5 32l1 53h-17v49l63 30h22l-1 -16h111l-2 -63q0 -19 11 -19q13 0 12 19l-1 63h71q3 -51 3 -80q0 -67 -24.5 -95.5t-82.5 -28.5zM683 62q0 101 3 197
h58l2 -31q10 34 50 34q28 0 43.5 -19.5t15.5 -54.5q0 -41 -21.5 -64t-58.5 -23q-5 0 -17 2l2 -41h-77zM963 100q-98 0 -98 79q0 39 22.5 61t63.5 22q77 0 77 -76q0 -11 -2 -21l-87 -4q7 -12 42 -12q23 0 35 5v-47q-21 -7 -53 -7zM139 154h119v82h-29v-46h-18v42h-28v-42h-15
v45h-29v-81zM934 183l38 3q2 20 -19 20q-19 0 -19 -23zM765 157q21 0 21 20q0 19 -16 19q-19 0 -19 -19q0 -6 4 -19q3 -1 10 -1zM1050 97q-15 0 -15 15q0 14 15 14q14 0 14 -14q0 -15 -14 -15zM139 11h119v45q0 31 -16 49.5t-45 18.5q-28 0 -44 -18t-16 -47q0 -11 0.5 -22
t1 -17.5t0.5 -8.5zM1050 100q11 0 11 12q0 11 -11 11q-12 0 -12 -11q0 -12 12 -12zM1043 104v15h7q7 0 7 -5q0 -4 -5 -4l4 -6h-4l-2 6h-4v-6h-3zM1046 112h4q3 0 3 2t-3 2h-4v-4zM171 47q0 2 -0.5 5t-0.5 7q0 27 28 27t28 -27v-12h-55z" />
    <glyph glyph-name="plusminus" unicode="&#xb1;" 
d="M100 -50v668h191v-668h-191zM199 429q29 0 45 18.5t16 44.5q0 28 -16.5 45.5t-44.5 17.5q-30 0 -46.5 -18.5t-16.5 -44.5q0 -28 17 -45.5t46 -17.5zM820 452q-18 0 -30 11.5t-12 28.5t12 28.5t30 11.5q17 0 29 -11.5t12 -28.5t-12 -28.5t-29 -11.5zM199 467q-30 0 -30 25
t30 25q28 0 28 -25t-28 -25zM380 283q0 105 4 204h68q4 -100 6 -204h-78zM721 279q-28 0 -42 11t-13 36l1 49h-17v49l60 48h22l2 -33h118q4 -69 4 -156h-77q0 62 1 92h-41l3 -28q0 -12 11 -12q7 0 11 2v-48q-10 -10 -43 -10zM529 280q-28 0 -44 20t-16 54q0 42 24 65t68 23
q36 0 58 -14t22 -34l-1 -111h-56l-5 30q-10 -33 -50 -33zM871 283q2 104 5 156h56l5 -34q14 37 53 37q54 0 55 -69l2 -90h-78l2 73q0 19 -11 19q-13 0 -12 -19l1 -73h-78zM1144 280q-41 0 -63.5 21t-22.5 59t23 60t63 22t63 -22t23 -60t-22.5 -59t-63.5 -21zM258 265v35
l-57 1v1l43 24v17l-43 22v1l57 3v34l-119 -8v-29l55 -31l-55 -32v-31zM554 337q18 0 18 18q0 5 -2 15q-4 6 -14 6q-18 0 -18 -20q0 -19 16 -19zM1144 337q18 0 18 20q0 19 -18 19q-17 0 -17 -19q0 -20 17 -20zM562 54q-31 0 -46 9v55h1q20 -10 40 -10q35 2 37 26
q0 -10 -32 -10q-22 0 -39.5 16t-17.5 38v17h-36l2 -29q1 -11 12 -11q8 0 10 2h1v-48q-17 -10 -43 -10q-29 0 -42.5 11t-12.5 32l1 53h-17v49l63 30h22l-1 -16h111l-2 -63q0 -19 11 -19q13 0 12 19l-1 63h71q3 -51 3 -80q0 -67 -24.5 -95.5t-82.5 -28.5zM683 62q0 101 3 197
h58l2 -31q10 34 50 34q28 0 43.5 -19.5t15.5 -54.5q0 -41 -21.5 -64t-58.5 -23q-5 0 -17 2l2 -41h-77zM963 100q-98 0 -98 79q0 39 22.5 61t63.5 22q77 0 77 -76q0 -11 -2 -21l-87 -4q7 -12 42 -12q23 0 35 5v-47q-21 -7 -53 -7zM139 154h119v82h-29v-46h-18v42h-28v-42h-15
v45h-29v-81zM934 183l38 3q2 20 -19 20q-19 0 -19 -23zM765 157q21 0 21 20q0 19 -16 19q-19 0 -19 -19q0 -6 4 -19q3 -1 10 -1zM1050 97q-15 0 -15 15q0 14 15 14q14 0 14 -14q0 -15 -14 -15zM139 11h119v45q0 31 -16 49.5t-45 18.5q-28 0 -44 -18t-16 -47q0 -11 0.5 -22
t1 -17.5t0.5 -8.5zM1050 100q11 0 11 12q0 11 -11 11q-12 0 -12 -11q0 -12 12 -12zM1043 104v15h7q7 0 7 -5q0 -4 -5 -4l4 -6h-4l-2 6h-4v-6h-3zM1046 112h4q3 0 3 2t-3 2h-4v-4zM171 47q0 2 -0.5 5t-0.5 7q0 27 28 27t28 -27v-12h-55z" />
    <glyph glyph-name="acute" unicode="&#xb4;" 
d="M100 -50v668h191v-668h-191zM199 429q29 0 45 18.5t16 44.5q0 28 -16.5 45.5t-44.5 17.5q-30 0 -46.5 -18.5t-16.5 -44.5q0 -28 17 -45.5t46 -17.5zM820 452q-18 0 -30 11.5t-12 28.5t12 28.5t30 11.5q17 0 29 -11.5t12 -28.5t-12 -28.5t-29 -11.5zM199 467q-30 0 -30 25
t30 25q28 0 28 -25t-28 -25zM380 283q0 105 4 204h68q4 -100 6 -204h-78zM721 279q-28 0 -42 11t-13 36l1 49h-17v49l60 48h22l2 -33h118q4 -69 4 -156h-77q0 62 1 92h-41l3 -28q0 -12 11 -12q7 0 11 2v-48q-10 -10 -43 -10zM529 280q-28 0 -44 20t-16 54q0 42 24 65t68 23
q36 0 58 -14t22 -34l-1 -111h-56l-5 30q-10 -33 -50 -33zM871 283q2 104 5 156h56l5 -34q14 37 53 37q54 0 55 -69l2 -90h-78l2 73q0 19 -11 19q-13 0 -12 -19l1 -73h-78zM1144 280q-41 0 -63.5 21t-22.5 59t23 60t63 22t63 -22t23 -60t-22.5 -59t-63.5 -21zM258 265v35
l-57 1v1l43 24v17l-43 22v1l57 3v34l-119 -8v-29l55 -31l-55 -32v-31zM554 337q18 0 18 18q0 5 -2 15q-4 6 -14 6q-18 0 -18 -20q0 -19 16 -19zM1144 337q18 0 18 20q0 19 -18 19q-17 0 -17 -19q0 -20 17 -20zM562 54q-31 0 -46 9v55h1q20 -10 40 -10q35 2 37 26
q0 -10 -32 -10q-22 0 -39.5 16t-17.5 38v17h-36l2 -29q1 -11 12 -11q8 0 10 2h1v-48q-17 -10 -43 -10q-29 0 -42.5 11t-12.5 32l1 53h-17v49l63 30h22l-1 -16h111l-2 -63q0 -19 11 -19q13 0 12 19l-1 63h71q3 -51 3 -80q0 -67 -24.5 -95.5t-82.5 -28.5zM683 62q0 101 3 197
h58l2 -31q10 34 50 34q28 0 43.5 -19.5t15.5 -54.5q0 -41 -21.5 -64t-58.5 -23q-5 0 -17 2l2 -41h-77zM963 100q-98 0 -98 79q0 39 22.5 61t63.5 22q77 0 77 -76q0 -11 -2 -21l-87 -4q7 -12 42 -12q23 0 35 5v-47q-21 -7 -53 -7zM139 154h119v82h-29v-46h-18v42h-28v-42h-15
v45h-29v-81zM934 183l38 3q2 20 -19 20q-19 0 -19 -23zM765 157q21 0 21 20q0 19 -16 19q-19 0 -19 -19q0 -6 4 -19q3 -1 10 -1zM1050 97q-15 0 -15 15q0 14 15 14q14 0 14 -14q0 -15 -14 -15zM139 11h119v45q0 31 -16 49.5t-45 18.5q-28 0 -44 -18t-16 -47q0 -11 0.5 -22
t1 -17.5t0.5 -8.5zM1050 100q11 0 11 12q0 11 -11 11q-12 0 -12 -11q0 -12 12 -12zM1043 104v15h7q7 0 7 -5q0 -4 -5 -4l4 -6h-4l-2 6h-4v-6h-3zM1046 112h4q3 0 3 2t-3 2h-4v-4zM171 47q0 2 -0.5 5t-0.5 7q0 27 28 27t28 -27v-12h-55z" />
    <glyph glyph-name="paragraph" unicode="&#xb6;" 
d="M100 -50v668h191v-668h-191zM199 429q29 0 45 18.5t16 44.5q0 28 -16.5 45.5t-44.5 17.5q-30 0 -46.5 -18.5t-16.5 -44.5q0 -28 17 -45.5t46 -17.5zM820 452q-18 0 -30 11.5t-12 28.5t12 28.5t30 11.5q17 0 29 -11.5t12 -28.5t-12 -28.5t-29 -11.5zM199 467q-30 0 -30 25
t30 25q28 0 28 -25t-28 -25zM380 283q0 105 4 204h68q4 -100 6 -204h-78zM721 279q-28 0 -42 11t-13 36l1 49h-17v49l60 48h22l2 -33h118q4 -69 4 -156h-77q0 62 1 92h-41l3 -28q0 -12 11 -12q7 0 11 2v-48q-10 -10 -43 -10zM529 280q-28 0 -44 20t-16 54q0 42 24 65t68 23
q36 0 58 -14t22 -34l-1 -111h-56l-5 30q-10 -33 -50 -33zM871 283q2 104 5 156h56l5 -34q14 37 53 37q54 0 55 -69l2 -90h-78l2 73q0 19 -11 19q-13 0 -12 -19l1 -73h-78zM1144 280q-41 0 -63.5 21t-22.5 59t23 60t63 22t63 -22t23 -60t-22.5 -59t-63.5 -21zM258 265v35
l-57 1v1l43 24v17l-43 22v1l57 3v34l-119 -8v-29l55 -31l-55 -32v-31zM554 337q18 0 18 18q0 5 -2 15q-4 6 -14 6q-18 0 -18 -20q0 -19 16 -19zM1144 337q18 0 18 20q0 19 -18 19q-17 0 -17 -19q0 -20 17 -20zM562 54q-31 0 -46 9v55h1q20 -10 40 -10q35 2 37 26
q0 -10 -32 -10q-22 0 -39.5 16t-17.5 38v17h-36l2 -29q1 -11 12 -11q8 0 10 2h1v-48q-17 -10 -43 -10q-29 0 -42.5 11t-12.5 32l1 53h-17v49l63 30h22l-1 -16h111l-2 -63q0 -19 11 -19q13 0 12 19l-1 63h71q3 -51 3 -80q0 -67 -24.5 -95.5t-82.5 -28.5zM683 62q0 101 3 197
h58l2 -31q10 34 50 34q28 0 43.5 -19.5t15.5 -54.5q0 -41 -21.5 -64t-58.5 -23q-5 0 -17 2l2 -41h-77zM963 100q-98 0 -98 79q0 39 22.5 61t63.5 22q77 0 77 -76q0 -11 -2 -21l-87 -4q7 -12 42 -12q23 0 35 5v-47q-21 -7 -53 -7zM139 154h119v82h-29v-46h-18v42h-28v-42h-15
v45h-29v-81zM934 183l38 3q2 20 -19 20q-19 0 -19 -23zM765 157q21 0 21 20q0 19 -16 19q-19 0 -19 -19q0 -6 4 -19q3 -1 10 -1zM1050 97q-15 0 -15 15q0 14 15 14q14 0 14 -14q0 -15 -14 -15zM139 11h119v45q0 31 -16 49.5t-45 18.5q-28 0 -44 -18t-16 -47q0 -11 0.5 -22
t1 -17.5t0.5 -8.5zM1050 100q11 0 11 12q0 11 -11 11q-12 0 -12 -11q0 -12 12 -12zM1043 104v15h7q7 0 7 -5q0 -4 -5 -4l4 -6h-4l-2 6h-4v-6h-3zM1046 112h4q3 0 3 2t-3 2h-4v-4zM171 47q0 2 -0.5 5t-0.5 7q0 27 28 27t28 -27v-12h-55z" />
    <glyph glyph-name="periodcentered" unicode="&#xb7;" horiz-adv-x="269" 
d="M134 158q-42 0 -69 26t-27 68t26.5 67t69.5 25t69.5 -25t26.5 -67q0 -43 -26 -68.5t-70 -25.5z" />
    <glyph glyph-name="cedilla" unicode="&#xb8;" 
d="M100 -50v668h191v-668h-191zM199 429q29 0 45 18.5t16 44.5q0 28 -16.5 45.5t-44.5 17.5q-30 0 -46.5 -18.5t-16.5 -44.5q0 -28 17 -45.5t46 -17.5zM820 452q-18 0 -30 11.5t-12 28.5t12 28.5t30 11.5q17 0 29 -11.5t12 -28.5t-12 -28.5t-29 -11.5zM199 467q-30 0 -30 25
t30 25q28 0 28 -25t-28 -25zM380 283q0 105 4 204h68q4 -100 6 -204h-78zM721 279q-28 0 -42 11t-13 36l1 49h-17v49l60 48h22l2 -33h118q4 -69 4 -156h-77q0 62 1 92h-41l3 -28q0 -12 11 -12q7 0 11 2v-48q-10 -10 -43 -10zM529 280q-28 0 -44 20t-16 54q0 42 24 65t68 23
q36 0 58 -14t22 -34l-1 -111h-56l-5 30q-10 -33 -50 -33zM871 283q2 104 5 156h56l5 -34q14 37 53 37q54 0 55 -69l2 -90h-78l2 73q0 19 -11 19q-13 0 -12 -19l1 -73h-78zM1144 280q-41 0 -63.5 21t-22.5 59t23 60t63 22t63 -22t23 -60t-22.5 -59t-63.5 -21zM258 265v35
l-57 1v1l43 24v17l-43 22v1l57 3v34l-119 -8v-29l55 -31l-55 -32v-31zM554 337q18 0 18 18q0 5 -2 15q-4 6 -14 6q-18 0 -18 -20q0 -19 16 -19zM1144 337q18 0 18 20q0 19 -18 19q-17 0 -17 -19q0 -20 17 -20zM562 54q-31 0 -46 9v55h1q20 -10 40 -10q35 2 37 26
q0 -10 -32 -10q-22 0 -39.5 16t-17.5 38v17h-36l2 -29q1 -11 12 -11q8 0 10 2h1v-48q-17 -10 -43 -10q-29 0 -42.5 11t-12.5 32l1 53h-17v49l63 30h22l-1 -16h111l-2 -63q0 -19 11 -19q13 0 12 19l-1 63h71q3 -51 3 -80q0 -67 -24.5 -95.5t-82.5 -28.5zM683 62q0 101 3 197
h58l2 -31q10 34 50 34q28 0 43.5 -19.5t15.5 -54.5q0 -41 -21.5 -64t-58.5 -23q-5 0 -17 2l2 -41h-77zM963 100q-98 0 -98 79q0 39 22.5 61t63.5 22q77 0 77 -76q0 -11 -2 -21l-87 -4q7 -12 42 -12q23 0 35 5v-47q-21 -7 -53 -7zM139 154h119v82h-29v-46h-18v42h-28v-42h-15
v45h-29v-81zM934 183l38 3q2 20 -19 20q-19 0 -19 -23zM765 157q21 0 21 20q0 19 -16 19q-19 0 -19 -19q0 -6 4 -19q3 -1 10 -1zM1050 97q-15 0 -15 15q0 14 15 14q14 0 14 -14q0 -15 -14 -15zM139 11h119v45q0 31 -16 49.5t-45 18.5q-28 0 -44 -18t-16 -47q0 -11 0.5 -22
t1 -17.5t0.5 -8.5zM1050 100q11 0 11 12q0 11 -11 11q-12 0 -12 -11q0 -12 12 -12zM1043 104v15h7q7 0 7 -5q0 -4 -5 -4l4 -6h-4l-2 6h-4v-6h-3zM1046 112h4q3 0 3 2t-3 2h-4v-4zM171 47q0 2 -0.5 5t-0.5 7q0 27 28 27t28 -27v-12h-55z" />
    <glyph glyph-name="ordmasculine" unicode="&#xba;" horiz-adv-x="427" 
d="M214 403q-86 0 -136 47.5t-50 128.5q0 82 50 130t136 48q85 0 135 -48t50 -130q0 -81 -49.5 -128.5t-135.5 -47.5zM214 505q30 0 48 19.5t18 54.5t-18 55t-49 20q-29 0 -47 -19t-18 -56q0 -36 18.5 -55t47.5 -19z" />
    <glyph glyph-name="guillemotright" unicode="&#xbb;" 
d="M100 -50v668h191v-668h-191zM199 429q29 0 45 18.5t16 44.5q0 28 -16.5 45.5t-44.5 17.5q-30 0 -46.5 -18.5t-16.5 -44.5q0 -28 17 -45.5t46 -17.5zM820 452q-18 0 -30 11.5t-12 28.5t12 28.5t30 11.5q17 0 29 -11.5t12 -28.5t-12 -28.5t-29 -11.5zM199 467q-30 0 -30 25
t30 25q28 0 28 -25t-28 -25zM380 283q0 105 4 204h68q4 -100 6 -204h-78zM721 279q-28 0 -42 11t-13 36l1 49h-17v49l60 48h22l2 -33h118q4 -69 4 -156h-77q0 62 1 92h-41l3 -28q0 -12 11 -12q7 0 11 2v-48q-10 -10 -43 -10zM529 280q-28 0 -44 20t-16 54q0 42 24 65t68 23
q36 0 58 -14t22 -34l-1 -111h-56l-5 30q-10 -33 -50 -33zM871 283q2 104 5 156h56l5 -34q14 37 53 37q54 0 55 -69l2 -90h-78l2 73q0 19 -11 19q-13 0 -12 -19l1 -73h-78zM1144 280q-41 0 -63.5 21t-22.5 59t23 60t63 22t63 -22t23 -60t-22.5 -59t-63.5 -21zM258 265v35
l-57 1v1l43 24v17l-43 22v1l57 3v34l-119 -8v-29l55 -31l-55 -32v-31zM554 337q18 0 18 18q0 5 -2 15q-4 6 -14 6q-18 0 -18 -20q0 -19 16 -19zM1144 337q18 0 18 20q0 19 -18 19q-17 0 -17 -19q0 -20 17 -20zM562 54q-31 0 -46 9v55h1q20 -10 40 -10q35 2 37 26
q0 -10 -32 -10q-22 0 -39.5 16t-17.5 38v17h-36l2 -29q1 -11 12 -11q8 0 10 2h1v-48q-17 -10 -43 -10q-29 0 -42.5 11t-12.5 32l1 53h-17v49l63 30h22l-1 -16h111l-2 -63q0 -19 11 -19q13 0 12 19l-1 63h71q3 -51 3 -80q0 -67 -24.5 -95.5t-82.5 -28.5zM683 62q0 101 3 197
h58l2 -31q10 34 50 34q28 0 43.5 -19.5t15.5 -54.5q0 -41 -21.5 -64t-58.5 -23q-5 0 -17 2l2 -41h-77zM963 100q-98 0 -98 79q0 39 22.5 61t63.5 22q77 0 77 -76q0 -11 -2 -21l-87 -4q7 -12 42 -12q23 0 35 5v-47q-21 -7 -53 -7zM139 154h119v82h-29v-46h-18v42h-28v-42h-15
v45h-29v-81zM934 183l38 3q2 20 -19 20q-19 0 -19 -23zM765 157q21 0 21 20q0 19 -16 19q-19 0 -19 -19q0 -6 4 -19q3 -1 10 -1zM1050 97q-15 0 -15 15q0 14 15 14q14 0 14 -14q0 -15 -14 -15zM139 11h119v45q0 31 -16 49.5t-45 18.5q-28 0 -44 -18t-16 -47q0 -11 0.5 -22
t1 -17.5t0.5 -8.5zM1050 100q11 0 11 12q0 11 -11 11q-12 0 -12 -11q0 -12 12 -12zM1043 104v15h7q7 0 7 -5q0 -4 -5 -4l4 -6h-4l-2 6h-4v-6h-3zM1046 112h4q3 0 3 2t-3 2h-4v-4zM171 47q0 2 -0.5 5t-0.5 7q0 27 28 27t28 -27v-12h-55z" />
    <glyph glyph-name="onequarter" unicode="&#xbc;" 
d="M100 -50v668h191v-668h-191zM199 429q29 0 45 18.5t16 44.5q0 28 -16.5 45.5t-44.5 17.5q-30 0 -46.5 -18.5t-16.5 -44.5q0 -28 17 -45.5t46 -17.5zM820 452q-18 0 -30 11.5t-12 28.5t12 28.5t30 11.5q17 0 29 -11.5t12 -28.5t-12 -28.5t-29 -11.5zM199 467q-30 0 -30 25
t30 25q28 0 28 -25t-28 -25zM380 283q0 105 4 204h68q4 -100 6 -204h-78zM721 279q-28 0 -42 11t-13 36l1 49h-17v49l60 48h22l2 -33h118q4 -69 4 -156h-77q0 62 1 92h-41l3 -28q0 -12 11 -12q7 0 11 2v-48q-10 -10 -43 -10zM529 280q-28 0 -44 20t-16 54q0 42 24 65t68 23
q36 0 58 -14t22 -34l-1 -111h-56l-5 30q-10 -33 -50 -33zM871 283q2 104 5 156h56l5 -34q14 37 53 37q54 0 55 -69l2 -90h-78l2 73q0 19 -11 19q-13 0 -12 -19l1 -73h-78zM1144 280q-41 0 -63.5 21t-22.5 59t23 60t63 22t63 -22t23 -60t-22.5 -59t-63.5 -21zM258 265v35
l-57 1v1l43 24v17l-43 22v1l57 3v34l-119 -8v-29l55 -31l-55 -32v-31zM554 337q18 0 18 18q0 5 -2 15q-4 6 -14 6q-18 0 -18 -20q0 -19 16 -19zM1144 337q18 0 18 20q0 19 -18 19q-17 0 -17 -19q0 -20 17 -20zM562 54q-31 0 -46 9v55h1q20 -10 40 -10q35 2 37 26
q0 -10 -32 -10q-22 0 -39.5 16t-17.5 38v17h-36l2 -29q1 -11 12 -11q8 0 10 2h1v-48q-17 -10 -43 -10q-29 0 -42.5 11t-12.5 32l1 53h-17v49l63 30h22l-1 -16h111l-2 -63q0 -19 11 -19q13 0 12 19l-1 63h71q3 -51 3 -80q0 -67 -24.5 -95.5t-82.5 -28.5zM683 62q0 101 3 197
h58l2 -31q10 34 50 34q28 0 43.5 -19.5t15.5 -54.5q0 -41 -21.5 -64t-58.5 -23q-5 0 -17 2l2 -41h-77zM963 100q-98 0 -98 79q0 39 22.5 61t63.5 22q77 0 77 -76q0 -11 -2 -21l-87 -4q7 -12 42 -12q23 0 35 5v-47q-21 -7 -53 -7zM139 154h119v82h-29v-46h-18v42h-28v-42h-15
v45h-29v-81zM934 183l38 3q2 20 -19 20q-19 0 -19 -23zM765 157q21 0 21 20q0 19 -16 19q-19 0 -19 -19q0 -6 4 -19q3 -1 10 -1zM1050 97q-15 0 -15 15q0 14 15 14q14 0 14 -14q0 -15 -14 -15zM139 11h119v45q0 31 -16 49.5t-45 18.5q-28 0 -44 -18t-16 -47q0 -11 0.5 -22
t1 -17.5t0.5 -8.5zM1050 100q11 0 11 12q0 11 -11 11q-12 0 -12 -11q0 -12 12 -12zM1043 104v15h7q7 0 7 -5q0 -4 -5 -4l4 -6h-4l-2 6h-4v-6h-3zM1046 112h4q3 0 3 2t-3 2h-4v-4zM171 47q0 2 -0.5 5t-0.5 7q0 27 28 27t28 -27v-12h-55z" />
    <glyph glyph-name="onehalf" unicode="&#xbd;" 
d="M100 -50v668h191v-668h-191zM199 429q29 0 45 18.5t16 44.5q0 28 -16.5 45.5t-44.5 17.5q-30 0 -46.5 -18.5t-16.5 -44.5q0 -28 17 -45.5t46 -17.5zM820 452q-18 0 -30 11.5t-12 28.5t12 28.5t30 11.5q17 0 29 -11.5t12 -28.5t-12 -28.5t-29 -11.5zM199 467q-30 0 -30 25
t30 25q28 0 28 -25t-28 -25zM380 283q0 105 4 204h68q4 -100 6 -204h-78zM721 279q-28 0 -42 11t-13 36l1 49h-17v49l60 48h22l2 -33h118q4 -69 4 -156h-77q0 62 1 92h-41l3 -28q0 -12 11 -12q7 0 11 2v-48q-10 -10 -43 -10zM529 280q-28 0 -44 20t-16 54q0 42 24 65t68 23
q36 0 58 -14t22 -34l-1 -111h-56l-5 30q-10 -33 -50 -33zM871 283q2 104 5 156h56l5 -34q14 37 53 37q54 0 55 -69l2 -90h-78l2 73q0 19 -11 19q-13 0 -12 -19l1 -73h-78zM1144 280q-41 0 -63.5 21t-22.5 59t23 60t63 22t63 -22t23 -60t-22.5 -59t-63.5 -21zM258 265v35
l-57 1v1l43 24v17l-43 22v1l57 3v34l-119 -8v-29l55 -31l-55 -32v-31zM554 337q18 0 18 18q0 5 -2 15q-4 6 -14 6q-18 0 -18 -20q0 -19 16 -19zM1144 337q18 0 18 20q0 19 -18 19q-17 0 -17 -19q0 -20 17 -20zM562 54q-31 0 -46 9v55h1q20 -10 40 -10q35 2 37 26
q0 -10 -32 -10q-22 0 -39.5 16t-17.5 38v17h-36l2 -29q1 -11 12 -11q8 0 10 2h1v-48q-17 -10 -43 -10q-29 0 -42.5 11t-12.5 32l1 53h-17v49l63 30h22l-1 -16h111l-2 -63q0 -19 11 -19q13 0 12 19l-1 63h71q3 -51 3 -80q0 -67 -24.5 -95.5t-82.5 -28.5zM683 62q0 101 3 197
h58l2 -31q10 34 50 34q28 0 43.5 -19.5t15.5 -54.5q0 -41 -21.5 -64t-58.5 -23q-5 0 -17 2l2 -41h-77zM963 100q-98 0 -98 79q0 39 22.5 61t63.5 22q77 0 77 -76q0 -11 -2 -21l-87 -4q7 -12 42 -12q23 0 35 5v-47q-21 -7 -53 -7zM139 154h119v82h-29v-46h-18v42h-28v-42h-15
v45h-29v-81zM934 183l38 3q2 20 -19 20q-19 0 -19 -23zM765 157q21 0 21 20q0 19 -16 19q-19 0 -19 -19q0 -6 4 -19q3 -1 10 -1zM1050 97q-15 0 -15 15q0 14 15 14q14 0 14 -14q0 -15 -14 -15zM139 11h119v45q0 31 -16 49.5t-45 18.5q-28 0 -44 -18t-16 -47q0 -11 0.5 -22
t1 -17.5t0.5 -8.5zM1050 100q11 0 11 12q0 11 -11 11q-12 0 -12 -11q0 -12 12 -12zM1043 104v15h7q7 0 7 -5q0 -4 -5 -4l4 -6h-4l-2 6h-4v-6h-3zM1046 112h4q3 0 3 2t-3 2h-4v-4zM171 47q0 2 -0.5 5t-0.5 7q0 27 28 27t28 -27v-12h-55z" />
    <glyph glyph-name="threequarters" unicode="&#xbe;" 
d="M100 -50v668h191v-668h-191zM199 429q29 0 45 18.5t16 44.5q0 28 -16.5 45.5t-44.5 17.5q-30 0 -46.5 -18.5t-16.5 -44.5q0 -28 17 -45.5t46 -17.5zM820 452q-18 0 -30 11.5t-12 28.5t12 28.5t30 11.5q17 0 29 -11.5t12 -28.5t-12 -28.5t-29 -11.5zM199 467q-30 0 -30 25
t30 25q28 0 28 -25t-28 -25zM380 283q0 105 4 204h68q4 -100 6 -204h-78zM721 279q-28 0 -42 11t-13 36l1 49h-17v49l60 48h22l2 -33h118q4 -69 4 -156h-77q0 62 1 92h-41l3 -28q0 -12 11 -12q7 0 11 2v-48q-10 -10 -43 -10zM529 280q-28 0 -44 20t-16 54q0 42 24 65t68 23
q36 0 58 -14t22 -34l-1 -111h-56l-5 30q-10 -33 -50 -33zM871 283q2 104 5 156h56l5 -34q14 37 53 37q54 0 55 -69l2 -90h-78l2 73q0 19 -11 19q-13 0 -12 -19l1 -73h-78zM1144 280q-41 0 -63.5 21t-22.5 59t23 60t63 22t63 -22t23 -60t-22.5 -59t-63.5 -21zM258 265v35
l-57 1v1l43 24v17l-43 22v1l57 3v34l-119 -8v-29l55 -31l-55 -32v-31zM554 337q18 0 18 18q0 5 -2 15q-4 6 -14 6q-18 0 -18 -20q0 -19 16 -19zM1144 337q18 0 18 20q0 19 -18 19q-17 0 -17 -19q0 -20 17 -20zM562 54q-31 0 -46 9v55h1q20 -10 40 -10q35 2 37 26
q0 -10 -32 -10q-22 0 -39.5 16t-17.5 38v17h-36l2 -29q1 -11 12 -11q8 0 10 2h1v-48q-17 -10 -43 -10q-29 0 -42.5 11t-12.5 32l1 53h-17v49l63 30h22l-1 -16h111l-2 -63q0 -19 11 -19q13 0 12 19l-1 63h71q3 -51 3 -80q0 -67 -24.5 -95.5t-82.5 -28.5zM683 62q0 101 3 197
h58l2 -31q10 34 50 34q28 0 43.5 -19.5t15.5 -54.5q0 -41 -21.5 -64t-58.5 -23q-5 0 -17 2l2 -41h-77zM963 100q-98 0 -98 79q0 39 22.5 61t63.5 22q77 0 77 -76q0 -11 -2 -21l-87 -4q7 -12 42 -12q23 0 35 5v-47q-21 -7 -53 -7zM139 154h119v82h-29v-46h-18v42h-28v-42h-15
v45h-29v-81zM934 183l38 3q2 20 -19 20q-19 0 -19 -23zM765 157q21 0 21 20q0 19 -16 19q-19 0 -19 -19q0 -6 4 -19q3 -1 10 -1zM1050 97q-15 0 -15 15q0 14 15 14q14 0 14 -14q0 -15 -14 -15zM139 11h119v45q0 31 -16 49.5t-45 18.5q-28 0 -44 -18t-16 -47q0 -11 0.5 -22
t1 -17.5t0.5 -8.5zM1050 100q11 0 11 12q0 11 -11 11q-12 0 -12 -11q0 -12 12 -12zM1043 104v15h7q7 0 7 -5q0 -4 -5 -4l4 -6h-4l-2 6h-4v-6h-3zM1046 112h4q3 0 3 2t-3 2h-4v-4zM171 47q0 2 -0.5 5t-0.5 7q0 27 28 27t28 -27v-12h-55z" />
    <glyph glyph-name="questiondown" unicode="&#xbf;" 
d="M100 -50v668h191v-668h-191zM199 429q29 0 45 18.5t16 44.5q0 28 -16.5 45.5t-44.5 17.5q-30 0 -46.5 -18.5t-16.5 -44.5q0 -28 17 -45.5t46 -17.5zM820 452q-18 0 -30 11.5t-12 28.5t12 28.5t30 11.5q17 0 29 -11.5t12 -28.5t-12 -28.5t-29 -11.5zM199 467q-30 0 -30 25
t30 25q28 0 28 -25t-28 -25zM380 283q0 105 4 204h68q4 -100 6 -204h-78zM721 279q-28 0 -42 11t-13 36l1 49h-17v49l60 48h22l2 -33h118q4 -69 4 -156h-77q0 62 1 92h-41l3 -28q0 -12 11 -12q7 0 11 2v-48q-10 -10 -43 -10zM529 280q-28 0 -44 20t-16 54q0 42 24 65t68 23
q36 0 58 -14t22 -34l-1 -111h-56l-5 30q-10 -33 -50 -33zM871 283q2 104 5 156h56l5 -34q14 37 53 37q54 0 55 -69l2 -90h-78l2 73q0 19 -11 19q-13 0 -12 -19l1 -73h-78zM1144 280q-41 0 -63.5 21t-22.5 59t23 60t63 22t63 -22t23 -60t-22.5 -59t-63.5 -21zM258 265v35
l-57 1v1l43 24v17l-43 22v1l57 3v34l-119 -8v-29l55 -31l-55 -32v-31zM554 337q18 0 18 18q0 5 -2 15q-4 6 -14 6q-18 0 -18 -20q0 -19 16 -19zM1144 337q18 0 18 20q0 19 -18 19q-17 0 -17 -19q0 -20 17 -20zM562 54q-31 0 -46 9v55h1q20 -10 40 -10q35 2 37 26
q0 -10 -32 -10q-22 0 -39.5 16t-17.5 38v17h-36l2 -29q1 -11 12 -11q8 0 10 2h1v-48q-17 -10 -43 -10q-29 0 -42.5 11t-12.5 32l1 53h-17v49l63 30h22l-1 -16h111l-2 -63q0 -19 11 -19q13 0 12 19l-1 63h71q3 -51 3 -80q0 -67 -24.5 -95.5t-82.5 -28.5zM683 62q0 101 3 197
h58l2 -31q10 34 50 34q28 0 43.5 -19.5t15.5 -54.5q0 -41 -21.5 -64t-58.5 -23q-5 0 -17 2l2 -41h-77zM963 100q-98 0 -98 79q0 39 22.5 61t63.5 22q77 0 77 -76q0 -11 -2 -21l-87 -4q7 -12 42 -12q23 0 35 5v-47q-21 -7 -53 -7zM139 154h119v82h-29v-46h-18v42h-28v-42h-15
v45h-29v-81zM934 183l38 3q2 20 -19 20q-19 0 -19 -23zM765 157q21 0 21 20q0 19 -16 19q-19 0 -19 -19q0 -6 4 -19q3 -1 10 -1zM1050 97q-15 0 -15 15q0 14 15 14q14 0 14 -14q0 -15 -14 -15zM139 11h119v45q0 31 -16 49.5t-45 18.5q-28 0 -44 -18t-16 -47q0 -11 0.5 -22
t1 -17.5t0.5 -8.5zM1050 100q11 0 11 12q0 11 -11 11q-12 0 -12 -11q0 -12 12 -12zM1043 104v15h7q7 0 7 -5q0 -4 -5 -4l4 -6h-4l-2 6h-4v-6h-3zM1046 112h4q3 0 3 2t-3 2h-4v-4zM171 47q0 2 -0.5 5t-0.5 7q0 27 28 27t28 -27v-12h-55z" />
    <glyph glyph-name="Agrave" unicode="&#xc0;" 
d="M100 -50v668h191v-668h-191zM199 429q29 0 45 18.5t16 44.5q0 28 -16.5 45.5t-44.5 17.5q-30 0 -46.5 -18.5t-16.5 -44.5q0 -28 17 -45.5t46 -17.5zM820 452q-18 0 -30 11.5t-12 28.5t12 28.5t30 11.5q17 0 29 -11.5t12 -28.5t-12 -28.5t-29 -11.5zM199 467q-30 0 -30 25
t30 25q28 0 28 -25t-28 -25zM380 283q0 105 4 204h68q4 -100 6 -204h-78zM721 279q-28 0 -42 11t-13 36l1 49h-17v49l60 48h22l2 -33h118q4 -69 4 -156h-77q0 62 1 92h-41l3 -28q0 -12 11 -12q7 0 11 2v-48q-10 -10 -43 -10zM529 280q-28 0 -44 20t-16 54q0 42 24 65t68 23
q36 0 58 -14t22 -34l-1 -111h-56l-5 30q-10 -33 -50 -33zM871 283q2 104 5 156h56l5 -34q14 37 53 37q54 0 55 -69l2 -90h-78l2 73q0 19 -11 19q-13 0 -12 -19l1 -73h-78zM1144 280q-41 0 -63.5 21t-22.5 59t23 60t63 22t63 -22t23 -60t-22.5 -59t-63.5 -21zM258 265v35
l-57 1v1l43 24v17l-43 22v1l57 3v34l-119 -8v-29l55 -31l-55 -32v-31zM554 337q18 0 18 18q0 5 -2 15q-4 6 -14 6q-18 0 -18 -20q0 -19 16 -19zM1144 337q18 0 18 20q0 19 -18 19q-17 0 -17 -19q0 -20 17 -20zM562 54q-31 0 -46 9v55h1q20 -10 40 -10q35 2 37 26
q0 -10 -32 -10q-22 0 -39.5 16t-17.5 38v17h-36l2 -29q1 -11 12 -11q8 0 10 2h1v-48q-17 -10 -43 -10q-29 0 -42.5 11t-12.5 32l1 53h-17v49l63 30h22l-1 -16h111l-2 -63q0 -19 11 -19q13 0 12 19l-1 63h71q3 -51 3 -80q0 -67 -24.5 -95.5t-82.5 -28.5zM683 62q0 101 3 197
h58l2 -31q10 34 50 34q28 0 43.5 -19.5t15.5 -54.5q0 -41 -21.5 -64t-58.5 -23q-5 0 -17 2l2 -41h-77zM963 100q-98 0 -98 79q0 39 22.5 61t63.5 22q77 0 77 -76q0 -11 -2 -21l-87 -4q7 -12 42 -12q23 0 35 5v-47q-21 -7 -53 -7zM139 154h119v82h-29v-46h-18v42h-28v-42h-15
v45h-29v-81zM934 183l38 3q2 20 -19 20q-19 0 -19 -23zM765 157q21 0 21 20q0 19 -16 19q-19 0 -19 -19q0 -6 4 -19q3 -1 10 -1zM1050 97q-15 0 -15 15q0 14 15 14q14 0 14 -14q0 -15 -14 -15zM139 11h119v45q0 31 -16 49.5t-45 18.5q-28 0 -44 -18t-16 -47q0 -11 0.5 -22
t1 -17.5t0.5 -8.5zM1050 100q11 0 11 12q0 11 -11 11q-12 0 -12 -11q0 -12 12 -12zM1043 104v15h7q7 0 7 -5q0 -4 -5 -4l4 -6h-4l-2 6h-4v-6h-3zM1046 112h4q3 0 3 2t-3 2h-4v-4zM171 47q0 2 -0.5 5t-0.5 7q0 27 28 27t28 -27v-12h-55z" />
    <glyph glyph-name="Aacute" unicode="&#xc1;" 
d="M100 -50v668h191v-668h-191zM199 429q29 0 45 18.5t16 44.5q0 28 -16.5 45.5t-44.5 17.5q-30 0 -46.5 -18.5t-16.5 -44.5q0 -28 17 -45.5t46 -17.5zM820 452q-18 0 -30 11.5t-12 28.5t12 28.5t30 11.5q17 0 29 -11.5t12 -28.5t-12 -28.5t-29 -11.5zM199 467q-30 0 -30 25
t30 25q28 0 28 -25t-28 -25zM380 283q0 105 4 204h68q4 -100 6 -204h-78zM721 279q-28 0 -42 11t-13 36l1 49h-17v49l60 48h22l2 -33h118q4 -69 4 -156h-77q0 62 1 92h-41l3 -28q0 -12 11 -12q7 0 11 2v-48q-10 -10 -43 -10zM529 280q-28 0 -44 20t-16 54q0 42 24 65t68 23
q36 0 58 -14t22 -34l-1 -111h-56l-5 30q-10 -33 -50 -33zM871 283q2 104 5 156h56l5 -34q14 37 53 37q54 0 55 -69l2 -90h-78l2 73q0 19 -11 19q-13 0 -12 -19l1 -73h-78zM1144 280q-41 0 -63.5 21t-22.5 59t23 60t63 22t63 -22t23 -60t-22.5 -59t-63.5 -21zM258 265v35
l-57 1v1l43 24v17l-43 22v1l57 3v34l-119 -8v-29l55 -31l-55 -32v-31zM554 337q18 0 18 18q0 5 -2 15q-4 6 -14 6q-18 0 -18 -20q0 -19 16 -19zM1144 337q18 0 18 20q0 19 -18 19q-17 0 -17 -19q0 -20 17 -20zM562 54q-31 0 -46 9v55h1q20 -10 40 -10q35 2 37 26
q0 -10 -32 -10q-22 0 -39.5 16t-17.5 38v17h-36l2 -29q1 -11 12 -11q8 0 10 2h1v-48q-17 -10 -43 -10q-29 0 -42.5 11t-12.5 32l1 53h-17v49l63 30h22l-1 -16h111l-2 -63q0 -19 11 -19q13 0 12 19l-1 63h71q3 -51 3 -80q0 -67 -24.5 -95.5t-82.5 -28.5zM683 62q0 101 3 197
h58l2 -31q10 34 50 34q28 0 43.5 -19.5t15.5 -54.5q0 -41 -21.5 -64t-58.5 -23q-5 0 -17 2l2 -41h-77zM963 100q-98 0 -98 79q0 39 22.5 61t63.5 22q77 0 77 -76q0 -11 -2 -21l-87 -4q7 -12 42 -12q23 0 35 5v-47q-21 -7 -53 -7zM139 154h119v82h-29v-46h-18v42h-28v-42h-15
v45h-29v-81zM934 183l38 3q2 20 -19 20q-19 0 -19 -23zM765 157q21 0 21 20q0 19 -16 19q-19 0 -19 -19q0 -6 4 -19q3 -1 10 -1zM1050 97q-15 0 -15 15q0 14 15 14q14 0 14 -14q0 -15 -14 -15zM139 11h119v45q0 31 -16 49.5t-45 18.5q-28 0 -44 -18t-16 -47q0 -11 0.5 -22
t1 -17.5t0.5 -8.5zM1050 100q11 0 11 12q0 11 -11 11q-12 0 -12 -11q0 -12 12 -12zM1043 104v15h7q7 0 7 -5q0 -4 -5 -4l4 -6h-4l-2 6h-4v-6h-3zM1046 112h4q3 0 3 2t-3 2h-4v-4zM171 47q0 2 -0.5 5t-0.5 7q0 27 28 27t28 -27v-12h-55z" />
    <glyph glyph-name="Acircumflex" unicode="&#xc2;" 
d="M100 -50v668h191v-668h-191zM199 429q29 0 45 18.5t16 44.5q0 28 -16.5 45.5t-44.5 17.5q-30 0 -46.5 -18.5t-16.5 -44.5q0 -28 17 -45.5t46 -17.5zM820 452q-18 0 -30 11.5t-12 28.5t12 28.5t30 11.5q17 0 29 -11.5t12 -28.5t-12 -28.5t-29 -11.5zM199 467q-30 0 -30 25
t30 25q28 0 28 -25t-28 -25zM380 283q0 105 4 204h68q4 -100 6 -204h-78zM721 279q-28 0 -42 11t-13 36l1 49h-17v49l60 48h22l2 -33h118q4 -69 4 -156h-77q0 62 1 92h-41l3 -28q0 -12 11 -12q7 0 11 2v-48q-10 -10 -43 -10zM529 280q-28 0 -44 20t-16 54q0 42 24 65t68 23
q36 0 58 -14t22 -34l-1 -111h-56l-5 30q-10 -33 -50 -33zM871 283q2 104 5 156h56l5 -34q14 37 53 37q54 0 55 -69l2 -90h-78l2 73q0 19 -11 19q-13 0 -12 -19l1 -73h-78zM1144 280q-41 0 -63.5 21t-22.5 59t23 60t63 22t63 -22t23 -60t-22.5 -59t-63.5 -21zM258 265v35
l-57 1v1l43 24v17l-43 22v1l57 3v34l-119 -8v-29l55 -31l-55 -32v-31zM554 337q18 0 18 18q0 5 -2 15q-4 6 -14 6q-18 0 -18 -20q0 -19 16 -19zM1144 337q18 0 18 20q0 19 -18 19q-17 0 -17 -19q0 -20 17 -20zM562 54q-31 0 -46 9v55h1q20 -10 40 -10q35 2 37 26
q0 -10 -32 -10q-22 0 -39.5 16t-17.5 38v17h-36l2 -29q1 -11 12 -11q8 0 10 2h1v-48q-17 -10 -43 -10q-29 0 -42.5 11t-12.5 32l1 53h-17v49l63 30h22l-1 -16h111l-2 -63q0 -19 11 -19q13 0 12 19l-1 63h71q3 -51 3 -80q0 -67 -24.5 -95.5t-82.5 -28.5zM683 62q0 101 3 197
h58l2 -31q10 34 50 34q28 0 43.5 -19.5t15.5 -54.5q0 -41 -21.5 -64t-58.5 -23q-5 0 -17 2l2 -41h-77zM963 100q-98 0 -98 79q0 39 22.5 61t63.5 22q77 0 77 -76q0 -11 -2 -21l-87 -4q7 -12 42 -12q23 0 35 5v-47q-21 -7 -53 -7zM139 154h119v82h-29v-46h-18v42h-28v-42h-15
v45h-29v-81zM934 183l38 3q2 20 -19 20q-19 0 -19 -23zM765 157q21 0 21 20q0 19 -16 19q-19 0 -19 -19q0 -6 4 -19q3 -1 10 -1zM1050 97q-15 0 -15 15q0 14 15 14q14 0 14 -14q0 -15 -14 -15zM139 11h119v45q0 31 -16 49.5t-45 18.5q-28 0 -44 -18t-16 -47q0 -11 0.5 -22
t1 -17.5t0.5 -8.5zM1050 100q11 0 11 12q0 11 -11 11q-12 0 -12 -11q0 -12 12 -12zM1043 104v15h7q7 0 7 -5q0 -4 -5 -4l4 -6h-4l-2 6h-4v-6h-3zM1046 112h4q3 0 3 2t-3 2h-4v-4zM171 47q0 2 -0.5 5t-0.5 7q0 27 28 27t28 -27v-12h-55z" />
    <glyph glyph-name="Atilde" unicode="&#xc3;" 
d="M100 -50v668h191v-668h-191zM199 429q29 0 45 18.5t16 44.5q0 28 -16.5 45.5t-44.5 17.5q-30 0 -46.5 -18.5t-16.5 -44.5q0 -28 17 -45.5t46 -17.5zM820 452q-18 0 -30 11.5t-12 28.5t12 28.5t30 11.5q17 0 29 -11.5t12 -28.5t-12 -28.5t-29 -11.5zM199 467q-30 0 -30 25
t30 25q28 0 28 -25t-28 -25zM380 283q0 105 4 204h68q4 -100 6 -204h-78zM721 279q-28 0 -42 11t-13 36l1 49h-17v49l60 48h22l2 -33h118q4 -69 4 -156h-77q0 62 1 92h-41l3 -28q0 -12 11 -12q7 0 11 2v-48q-10 -10 -43 -10zM529 280q-28 0 -44 20t-16 54q0 42 24 65t68 23
q36 0 58 -14t22 -34l-1 -111h-56l-5 30q-10 -33 -50 -33zM871 283q2 104 5 156h56l5 -34q14 37 53 37q54 0 55 -69l2 -90h-78l2 73q0 19 -11 19q-13 0 -12 -19l1 -73h-78zM1144 280q-41 0 -63.5 21t-22.5 59t23 60t63 22t63 -22t23 -60t-22.5 -59t-63.5 -21zM258 265v35
l-57 1v1l43 24v17l-43 22v1l57 3v34l-119 -8v-29l55 -31l-55 -32v-31zM554 337q18 0 18 18q0 5 -2 15q-4 6 -14 6q-18 0 -18 -20q0 -19 16 -19zM1144 337q18 0 18 20q0 19 -18 19q-17 0 -17 -19q0 -20 17 -20zM562 54q-31 0 -46 9v55h1q20 -10 40 -10q35 2 37 26
q0 -10 -32 -10q-22 0 -39.5 16t-17.5 38v17h-36l2 -29q1 -11 12 -11q8 0 10 2h1v-48q-17 -10 -43 -10q-29 0 -42.5 11t-12.5 32l1 53h-17v49l63 30h22l-1 -16h111l-2 -63q0 -19 11 -19q13 0 12 19l-1 63h71q3 -51 3 -80q0 -67 -24.5 -95.5t-82.5 -28.5zM683 62q0 101 3 197
h58l2 -31q10 34 50 34q28 0 43.5 -19.5t15.5 -54.5q0 -41 -21.5 -64t-58.5 -23q-5 0 -17 2l2 -41h-77zM963 100q-98 0 -98 79q0 39 22.5 61t63.5 22q77 0 77 -76q0 -11 -2 -21l-87 -4q7 -12 42 -12q23 0 35 5v-47q-21 -7 -53 -7zM139 154h119v82h-29v-46h-18v42h-28v-42h-15
v45h-29v-81zM934 183l38 3q2 20 -19 20q-19 0 -19 -23zM765 157q21 0 21 20q0 19 -16 19q-19 0 -19 -19q0 -6 4 -19q3 -1 10 -1zM1050 97q-15 0 -15 15q0 14 15 14q14 0 14 -14q0 -15 -14 -15zM139 11h119v45q0 31 -16 49.5t-45 18.5q-28 0 -44 -18t-16 -47q0 -11 0.5 -22
t1 -17.5t0.5 -8.5zM1050 100q11 0 11 12q0 11 -11 11q-12 0 -12 -11q0 -12 12 -12zM1043 104v15h7q7 0 7 -5q0 -4 -5 -4l4 -6h-4l-2 6h-4v-6h-3zM1046 112h4q3 0 3 2t-3 2h-4v-4zM171 47q0 2 -0.5 5t-0.5 7q0 27 28 27t28 -27v-12h-55z" />
    <glyph glyph-name="Adieresis" unicode="&#xc4;" 
d="M100 -50v668h191v-668h-191zM199 429q29 0 45 18.5t16 44.5q0 28 -16.5 45.5t-44.5 17.5q-30 0 -46.5 -18.5t-16.5 -44.5q0 -28 17 -45.5t46 -17.5zM820 452q-18 0 -30 11.5t-12 28.5t12 28.5t30 11.5q17 0 29 -11.5t12 -28.5t-12 -28.5t-29 -11.5zM199 467q-30 0 -30 25
t30 25q28 0 28 -25t-28 -25zM380 283q0 105 4 204h68q4 -100 6 -204h-78zM721 279q-28 0 -42 11t-13 36l1 49h-17v49l60 48h22l2 -33h118q4 -69 4 -156h-77q0 62 1 92h-41l3 -28q0 -12 11 -12q7 0 11 2v-48q-10 -10 -43 -10zM529 280q-28 0 -44 20t-16 54q0 42 24 65t68 23
q36 0 58 -14t22 -34l-1 -111h-56l-5 30q-10 -33 -50 -33zM871 283q2 104 5 156h56l5 -34q14 37 53 37q54 0 55 -69l2 -90h-78l2 73q0 19 -11 19q-13 0 -12 -19l1 -73h-78zM1144 280q-41 0 -63.5 21t-22.5 59t23 60t63 22t63 -22t23 -60t-22.5 -59t-63.5 -21zM258 265v35
l-57 1v1l43 24v17l-43 22v1l57 3v34l-119 -8v-29l55 -31l-55 -32v-31zM554 337q18 0 18 18q0 5 -2 15q-4 6 -14 6q-18 0 -18 -20q0 -19 16 -19zM1144 337q18 0 18 20q0 19 -18 19q-17 0 -17 -19q0 -20 17 -20zM562 54q-31 0 -46 9v55h1q20 -10 40 -10q35 2 37 26
q0 -10 -32 -10q-22 0 -39.5 16t-17.5 38v17h-36l2 -29q1 -11 12 -11q8 0 10 2h1v-48q-17 -10 -43 -10q-29 0 -42.5 11t-12.5 32l1 53h-17v49l63 30h22l-1 -16h111l-2 -63q0 -19 11 -19q13 0 12 19l-1 63h71q3 -51 3 -80q0 -67 -24.5 -95.5t-82.5 -28.5zM683 62q0 101 3 197
h58l2 -31q10 34 50 34q28 0 43.5 -19.5t15.5 -54.5q0 -41 -21.5 -64t-58.5 -23q-5 0 -17 2l2 -41h-77zM963 100q-98 0 -98 79q0 39 22.5 61t63.5 22q77 0 77 -76q0 -11 -2 -21l-87 -4q7 -12 42 -12q23 0 35 5v-47q-21 -7 -53 -7zM139 154h119v82h-29v-46h-18v42h-28v-42h-15
v45h-29v-81zM934 183l38 3q2 20 -19 20q-19 0 -19 -23zM765 157q21 0 21 20q0 19 -16 19q-19 0 -19 -19q0 -6 4 -19q3 -1 10 -1zM1050 97q-15 0 -15 15q0 14 15 14q14 0 14 -14q0 -15 -14 -15zM139 11h119v45q0 31 -16 49.5t-45 18.5q-28 0 -44 -18t-16 -47q0 -11 0.5 -22
t1 -17.5t0.5 -8.5zM1050 100q11 0 11 12q0 11 -11 11q-12 0 -12 -11q0 -12 12 -12zM1043 104v15h7q7 0 7 -5q0 -4 -5 -4l4 -6h-4l-2 6h-4v-6h-3zM1046 112h4q3 0 3 2t-3 2h-4v-4zM171 47q0 2 -0.5 5t-0.5 7q0 27 28 27t28 -27v-12h-55z" />
    <glyph glyph-name="Aring" unicode="&#xc5;" 
d="M100 -50v668h191v-668h-191zM199 429q29 0 45 18.5t16 44.5q0 28 -16.5 45.5t-44.5 17.5q-30 0 -46.5 -18.5t-16.5 -44.5q0 -28 17 -45.5t46 -17.5zM820 452q-18 0 -30 11.5t-12 28.5t12 28.5t30 11.5q17 0 29 -11.5t12 -28.5t-12 -28.5t-29 -11.5zM199 467q-30 0 -30 25
t30 25q28 0 28 -25t-28 -25zM380 283q0 105 4 204h68q4 -100 6 -204h-78zM721 279q-28 0 -42 11t-13 36l1 49h-17v49l60 48h22l2 -33h118q4 -69 4 -156h-77q0 62 1 92h-41l3 -28q0 -12 11 -12q7 0 11 2v-48q-10 -10 -43 -10zM529 280q-28 0 -44 20t-16 54q0 42 24 65t68 23
q36 0 58 -14t22 -34l-1 -111h-56l-5 30q-10 -33 -50 -33zM871 283q2 104 5 156h56l5 -34q14 37 53 37q54 0 55 -69l2 -90h-78l2 73q0 19 -11 19q-13 0 -12 -19l1 -73h-78zM1144 280q-41 0 -63.5 21t-22.5 59t23 60t63 22t63 -22t23 -60t-22.5 -59t-63.5 -21zM258 265v35
l-57 1v1l43 24v17l-43 22v1l57 3v34l-119 -8v-29l55 -31l-55 -32v-31zM554 337q18 0 18 18q0 5 -2 15q-4 6 -14 6q-18 0 -18 -20q0 -19 16 -19zM1144 337q18 0 18 20q0 19 -18 19q-17 0 -17 -19q0 -20 17 -20zM562 54q-31 0 -46 9v55h1q20 -10 40 -10q35 2 37 26
q0 -10 -32 -10q-22 0 -39.5 16t-17.5 38v17h-36l2 -29q1 -11 12 -11q8 0 10 2h1v-48q-17 -10 -43 -10q-29 0 -42.5 11t-12.5 32l1 53h-17v49l63 30h22l-1 -16h111l-2 -63q0 -19 11 -19q13 0 12 19l-1 63h71q3 -51 3 -80q0 -67 -24.5 -95.5t-82.5 -28.5zM683 62q0 101 3 197
h58l2 -31q10 34 50 34q28 0 43.5 -19.5t15.5 -54.5q0 -41 -21.5 -64t-58.5 -23q-5 0 -17 2l2 -41h-77zM963 100q-98 0 -98 79q0 39 22.5 61t63.5 22q77 0 77 -76q0 -11 -2 -21l-87 -4q7 -12 42 -12q23 0 35 5v-47q-21 -7 -53 -7zM139 154h119v82h-29v-46h-18v42h-28v-42h-15
v45h-29v-81zM934 183l38 3q2 20 -19 20q-19 0 -19 -23zM765 157q21 0 21 20q0 19 -16 19q-19 0 -19 -19q0 -6 4 -19q3 -1 10 -1zM1050 97q-15 0 -15 15q0 14 15 14q14 0 14 -14q0 -15 -14 -15zM139 11h119v45q0 31 -16 49.5t-45 18.5q-28 0 -44 -18t-16 -47q0 -11 0.5 -22
t1 -17.5t0.5 -8.5zM1050 100q11 0 11 12q0 11 -11 11q-12 0 -12 -11q0 -12 12 -12zM1043 104v15h7q7 0 7 -5q0 -4 -5 -4l4 -6h-4l-2 6h-4v-6h-3zM1046 112h4q3 0 3 2t-3 2h-4v-4zM171 47q0 2 -0.5 5t-0.5 7q0 27 28 27t28 -27v-12h-55z" />
    <glyph glyph-name="AE" unicode="&#xc6;" 
d="M100 -50v668h191v-668h-191zM199 429q29 0 45 18.5t16 44.5q0 28 -16.5 45.5t-44.5 17.5q-30 0 -46.5 -18.5t-16.5 -44.5q0 -28 17 -45.5t46 -17.5zM820 452q-18 0 -30 11.5t-12 28.5t12 28.5t30 11.5q17 0 29 -11.5t12 -28.5t-12 -28.5t-29 -11.5zM199 467q-30 0 -30 25
t30 25q28 0 28 -25t-28 -25zM380 283q0 105 4 204h68q4 -100 6 -204h-78zM721 279q-28 0 -42 11t-13 36l1 49h-17v49l60 48h22l2 -33h118q4 -69 4 -156h-77q0 62 1 92h-41l3 -28q0 -12 11 -12q7 0 11 2v-48q-10 -10 -43 -10zM529 280q-28 0 -44 20t-16 54q0 42 24 65t68 23
q36 0 58 -14t22 -34l-1 -111h-56l-5 30q-10 -33 -50 -33zM871 283q2 104 5 156h56l5 -34q14 37 53 37q54 0 55 -69l2 -90h-78l2 73q0 19 -11 19q-13 0 -12 -19l1 -73h-78zM1144 280q-41 0 -63.5 21t-22.5 59t23 60t63 22t63 -22t23 -60t-22.5 -59t-63.5 -21zM258 265v35
l-57 1v1l43 24v17l-43 22v1l57 3v34l-119 -8v-29l55 -31l-55 -32v-31zM554 337q18 0 18 18q0 5 -2 15q-4 6 -14 6q-18 0 -18 -20q0 -19 16 -19zM1144 337q18 0 18 20q0 19 -18 19q-17 0 -17 -19q0 -20 17 -20zM562 54q-31 0 -46 9v55h1q20 -10 40 -10q35 2 37 26
q0 -10 -32 -10q-22 0 -39.5 16t-17.5 38v17h-36l2 -29q1 -11 12 -11q8 0 10 2h1v-48q-17 -10 -43 -10q-29 0 -42.5 11t-12.5 32l1 53h-17v49l63 30h22l-1 -16h111l-2 -63q0 -19 11 -19q13 0 12 19l-1 63h71q3 -51 3 -80q0 -67 -24.5 -95.5t-82.5 -28.5zM683 62q0 101 3 197
h58l2 -31q10 34 50 34q28 0 43.5 -19.5t15.5 -54.5q0 -41 -21.5 -64t-58.5 -23q-5 0 -17 2l2 -41h-77zM963 100q-98 0 -98 79q0 39 22.5 61t63.5 22q77 0 77 -76q0 -11 -2 -21l-87 -4q7 -12 42 -12q23 0 35 5v-47q-21 -7 -53 -7zM139 154h119v82h-29v-46h-18v42h-28v-42h-15
v45h-29v-81zM934 183l38 3q2 20 -19 20q-19 0 -19 -23zM765 157q21 0 21 20q0 19 -16 19q-19 0 -19 -19q0 -6 4 -19q3 -1 10 -1zM1050 97q-15 0 -15 15q0 14 15 14q14 0 14 -14q0 -15 -14 -15zM139 11h119v45q0 31 -16 49.5t-45 18.5q-28 0 -44 -18t-16 -47q0 -11 0.5 -22
t1 -17.5t0.5 -8.5zM1050 100q11 0 11 12q0 11 -11 11q-12 0 -12 -11q0 -12 12 -12zM1043 104v15h7q7 0 7 -5q0 -4 -5 -4l4 -6h-4l-2 6h-4v-6h-3zM1046 112h4q3 0 3 2t-3 2h-4v-4zM171 47q0 2 -0.5 5t-0.5 7q0 27 28 27t28 -27v-12h-55z" />
    <glyph glyph-name="Ccedilla" unicode="&#xc7;" 
d="M100 -50v668h191v-668h-191zM199 429q29 0 45 18.5t16 44.5q0 28 -16.5 45.5t-44.5 17.5q-30 0 -46.5 -18.5t-16.5 -44.5q0 -28 17 -45.5t46 -17.5zM820 452q-18 0 -30 11.5t-12 28.5t12 28.5t30 11.5q17 0 29 -11.5t12 -28.5t-12 -28.5t-29 -11.5zM199 467q-30 0 -30 25
t30 25q28 0 28 -25t-28 -25zM380 283q0 105 4 204h68q4 -100 6 -204h-78zM721 279q-28 0 -42 11t-13 36l1 49h-17v49l60 48h22l2 -33h118q4 -69 4 -156h-77q0 62 1 92h-41l3 -28q0 -12 11 -12q7 0 11 2v-48q-10 -10 -43 -10zM529 280q-28 0 -44 20t-16 54q0 42 24 65t68 23
q36 0 58 -14t22 -34l-1 -111h-56l-5 30q-10 -33 -50 -33zM871 283q2 104 5 156h56l5 -34q14 37 53 37q54 0 55 -69l2 -90h-78l2 73q0 19 -11 19q-13 0 -12 -19l1 -73h-78zM1144 280q-41 0 -63.5 21t-22.5 59t23 60t63 22t63 -22t23 -60t-22.5 -59t-63.5 -21zM258 265v35
l-57 1v1l43 24v17l-43 22v1l57 3v34l-119 -8v-29l55 -31l-55 -32v-31zM554 337q18 0 18 18q0 5 -2 15q-4 6 -14 6q-18 0 -18 -20q0 -19 16 -19zM1144 337q18 0 18 20q0 19 -18 19q-17 0 -17 -19q0 -20 17 -20zM562 54q-31 0 -46 9v55h1q20 -10 40 -10q35 2 37 26
q0 -10 -32 -10q-22 0 -39.5 16t-17.5 38v17h-36l2 -29q1 -11 12 -11q8 0 10 2h1v-48q-17 -10 -43 -10q-29 0 -42.5 11t-12.5 32l1 53h-17v49l63 30h22l-1 -16h111l-2 -63q0 -19 11 -19q13 0 12 19l-1 63h71q3 -51 3 -80q0 -67 -24.5 -95.5t-82.5 -28.5zM683 62q0 101 3 197
h58l2 -31q10 34 50 34q28 0 43.5 -19.5t15.5 -54.5q0 -41 -21.5 -64t-58.5 -23q-5 0 -17 2l2 -41h-77zM963 100q-98 0 -98 79q0 39 22.5 61t63.5 22q77 0 77 -76q0 -11 -2 -21l-87 -4q7 -12 42 -12q23 0 35 5v-47q-21 -7 -53 -7zM139 154h119v82h-29v-46h-18v42h-28v-42h-15
v45h-29v-81zM934 183l38 3q2 20 -19 20q-19 0 -19 -23zM765 157q21 0 21 20q0 19 -16 19q-19 0 -19 -19q0 -6 4 -19q3 -1 10 -1zM1050 97q-15 0 -15 15q0 14 15 14q14 0 14 -14q0 -15 -14 -15zM139 11h119v45q0 31 -16 49.5t-45 18.5q-28 0 -44 -18t-16 -47q0 -11 0.5 -22
t1 -17.5t0.5 -8.5zM1050 100q11 0 11 12q0 11 -11 11q-12 0 -12 -11q0 -12 12 -12zM1043 104v15h7q7 0 7 -5q0 -4 -5 -4l4 -6h-4l-2 6h-4v-6h-3zM1046 112h4q3 0 3 2t-3 2h-4v-4zM171 47q0 2 -0.5 5t-0.5 7q0 27 28 27t28 -27v-12h-55z" />
    <glyph glyph-name="Egrave" unicode="&#xc8;" 
d="M100 -50v668h191v-668h-191zM199 429q29 0 45 18.5t16 44.5q0 28 -16.5 45.5t-44.5 17.5q-30 0 -46.5 -18.5t-16.5 -44.5q0 -28 17 -45.5t46 -17.5zM820 452q-18 0 -30 11.5t-12 28.5t12 28.5t30 11.5q17 0 29 -11.5t12 -28.5t-12 -28.5t-29 -11.5zM199 467q-30 0 -30 25
t30 25q28 0 28 -25t-28 -25zM380 283q0 105 4 204h68q4 -100 6 -204h-78zM721 279q-28 0 -42 11t-13 36l1 49h-17v49l60 48h22l2 -33h118q4 -69 4 -156h-77q0 62 1 92h-41l3 -28q0 -12 11 -12q7 0 11 2v-48q-10 -10 -43 -10zM529 280q-28 0 -44 20t-16 54q0 42 24 65t68 23
q36 0 58 -14t22 -34l-1 -111h-56l-5 30q-10 -33 -50 -33zM871 283q2 104 5 156h56l5 -34q14 37 53 37q54 0 55 -69l2 -90h-78l2 73q0 19 -11 19q-13 0 -12 -19l1 -73h-78zM1144 280q-41 0 -63.5 21t-22.5 59t23 60t63 22t63 -22t23 -60t-22.5 -59t-63.5 -21zM258 265v35
l-57 1v1l43 24v17l-43 22v1l57 3v34l-119 -8v-29l55 -31l-55 -32v-31zM554 337q18 0 18 18q0 5 -2 15q-4 6 -14 6q-18 0 -18 -20q0 -19 16 -19zM1144 337q18 0 18 20q0 19 -18 19q-17 0 -17 -19q0 -20 17 -20zM562 54q-31 0 -46 9v55h1q20 -10 40 -10q35 2 37 26
q0 -10 -32 -10q-22 0 -39.5 16t-17.5 38v17h-36l2 -29q1 -11 12 -11q8 0 10 2h1v-48q-17 -10 -43 -10q-29 0 -42.5 11t-12.5 32l1 53h-17v49l63 30h22l-1 -16h111l-2 -63q0 -19 11 -19q13 0 12 19l-1 63h71q3 -51 3 -80q0 -67 -24.5 -95.5t-82.5 -28.5zM683 62q0 101 3 197
h58l2 -31q10 34 50 34q28 0 43.5 -19.5t15.5 -54.5q0 -41 -21.5 -64t-58.5 -23q-5 0 -17 2l2 -41h-77zM963 100q-98 0 -98 79q0 39 22.5 61t63.5 22q77 0 77 -76q0 -11 -2 -21l-87 -4q7 -12 42 -12q23 0 35 5v-47q-21 -7 -53 -7zM139 154h119v82h-29v-46h-18v42h-28v-42h-15
v45h-29v-81zM934 183l38 3q2 20 -19 20q-19 0 -19 -23zM765 157q21 0 21 20q0 19 -16 19q-19 0 -19 -19q0 -6 4 -19q3 -1 10 -1zM1050 97q-15 0 -15 15q0 14 15 14q14 0 14 -14q0 -15 -14 -15zM139 11h119v45q0 31 -16 49.5t-45 18.5q-28 0 -44 -18t-16 -47q0 -11 0.5 -22
t1 -17.5t0.5 -8.5zM1050 100q11 0 11 12q0 11 -11 11q-12 0 -12 -11q0 -12 12 -12zM1043 104v15h7q7 0 7 -5q0 -4 -5 -4l4 -6h-4l-2 6h-4v-6h-3zM1046 112h4q3 0 3 2t-3 2h-4v-4zM171 47q0 2 -0.5 5t-0.5 7q0 27 28 27t28 -27v-12h-55z" />
    <glyph glyph-name="Eacute" unicode="&#xc9;" 
d="M100 -50v668h191v-668h-191zM199 429q29 0 45 18.5t16 44.5q0 28 -16.5 45.5t-44.5 17.5q-30 0 -46.5 -18.5t-16.5 -44.5q0 -28 17 -45.5t46 -17.5zM820 452q-18 0 -30 11.5t-12 28.5t12 28.5t30 11.5q17 0 29 -11.5t12 -28.5t-12 -28.5t-29 -11.5zM199 467q-30 0 -30 25
t30 25q28 0 28 -25t-28 -25zM380 283q0 105 4 204h68q4 -100 6 -204h-78zM721 279q-28 0 -42 11t-13 36l1 49h-17v49l60 48h22l2 -33h118q4 -69 4 -156h-77q0 62 1 92h-41l3 -28q0 -12 11 -12q7 0 11 2v-48q-10 -10 -43 -10zM529 280q-28 0 -44 20t-16 54q0 42 24 65t68 23
q36 0 58 -14t22 -34l-1 -111h-56l-5 30q-10 -33 -50 -33zM871 283q2 104 5 156h56l5 -34q14 37 53 37q54 0 55 -69l2 -90h-78l2 73q0 19 -11 19q-13 0 -12 -19l1 -73h-78zM1144 280q-41 0 -63.5 21t-22.5 59t23 60t63 22t63 -22t23 -60t-22.5 -59t-63.5 -21zM258 265v35
l-57 1v1l43 24v17l-43 22v1l57 3v34l-119 -8v-29l55 -31l-55 -32v-31zM554 337q18 0 18 18q0 5 -2 15q-4 6 -14 6q-18 0 -18 -20q0 -19 16 -19zM1144 337q18 0 18 20q0 19 -18 19q-17 0 -17 -19q0 -20 17 -20zM562 54q-31 0 -46 9v55h1q20 -10 40 -10q35 2 37 26
q0 -10 -32 -10q-22 0 -39.5 16t-17.5 38v17h-36l2 -29q1 -11 12 -11q8 0 10 2h1v-48q-17 -10 -43 -10q-29 0 -42.5 11t-12.5 32l1 53h-17v49l63 30h22l-1 -16h111l-2 -63q0 -19 11 -19q13 0 12 19l-1 63h71q3 -51 3 -80q0 -67 -24.5 -95.5t-82.5 -28.5zM683 62q0 101 3 197
h58l2 -31q10 34 50 34q28 0 43.5 -19.5t15.5 -54.5q0 -41 -21.5 -64t-58.5 -23q-5 0 -17 2l2 -41h-77zM963 100q-98 0 -98 79q0 39 22.5 61t63.5 22q77 0 77 -76q0 -11 -2 -21l-87 -4q7 -12 42 -12q23 0 35 5v-47q-21 -7 -53 -7zM139 154h119v82h-29v-46h-18v42h-28v-42h-15
v45h-29v-81zM934 183l38 3q2 20 -19 20q-19 0 -19 -23zM765 157q21 0 21 20q0 19 -16 19q-19 0 -19 -19q0 -6 4 -19q3 -1 10 -1zM1050 97q-15 0 -15 15q0 14 15 14q14 0 14 -14q0 -15 -14 -15zM139 11h119v45q0 31 -16 49.5t-45 18.5q-28 0 -44 -18t-16 -47q0 -11 0.5 -22
t1 -17.5t0.5 -8.5zM1050 100q11 0 11 12q0 11 -11 11q-12 0 -12 -11q0 -12 12 -12zM1043 104v15h7q7 0 7 -5q0 -4 -5 -4l4 -6h-4l-2 6h-4v-6h-3zM1046 112h4q3 0 3 2t-3 2h-4v-4zM171 47q0 2 -0.5 5t-0.5 7q0 27 28 27t28 -27v-12h-55z" />
    <glyph glyph-name="Ecircumflex" unicode="&#xca;" 
d="M100 -50v668h191v-668h-191zM199 429q29 0 45 18.5t16 44.5q0 28 -16.5 45.5t-44.5 17.5q-30 0 -46.5 -18.5t-16.5 -44.5q0 -28 17 -45.5t46 -17.5zM820 452q-18 0 -30 11.5t-12 28.5t12 28.5t30 11.5q17 0 29 -11.5t12 -28.5t-12 -28.5t-29 -11.5zM199 467q-30 0 -30 25
t30 25q28 0 28 -25t-28 -25zM380 283q0 105 4 204h68q4 -100 6 -204h-78zM721 279q-28 0 -42 11t-13 36l1 49h-17v49l60 48h22l2 -33h118q4 -69 4 -156h-77q0 62 1 92h-41l3 -28q0 -12 11 -12q7 0 11 2v-48q-10 -10 -43 -10zM529 280q-28 0 -44 20t-16 54q0 42 24 65t68 23
q36 0 58 -14t22 -34l-1 -111h-56l-5 30q-10 -33 -50 -33zM871 283q2 104 5 156h56l5 -34q14 37 53 37q54 0 55 -69l2 -90h-78l2 73q0 19 -11 19q-13 0 -12 -19l1 -73h-78zM1144 280q-41 0 -63.5 21t-22.5 59t23 60t63 22t63 -22t23 -60t-22.5 -59t-63.5 -21zM258 265v35
l-57 1v1l43 24v17l-43 22v1l57 3v34l-119 -8v-29l55 -31l-55 -32v-31zM554 337q18 0 18 18q0 5 -2 15q-4 6 -14 6q-18 0 -18 -20q0 -19 16 -19zM1144 337q18 0 18 20q0 19 -18 19q-17 0 -17 -19q0 -20 17 -20zM562 54q-31 0 -46 9v55h1q20 -10 40 -10q35 2 37 26
q0 -10 -32 -10q-22 0 -39.5 16t-17.5 38v17h-36l2 -29q1 -11 12 -11q8 0 10 2h1v-48q-17 -10 -43 -10q-29 0 -42.5 11t-12.5 32l1 53h-17v49l63 30h22l-1 -16h111l-2 -63q0 -19 11 -19q13 0 12 19l-1 63h71q3 -51 3 -80q0 -67 -24.5 -95.5t-82.5 -28.5zM683 62q0 101 3 197
h58l2 -31q10 34 50 34q28 0 43.5 -19.5t15.5 -54.5q0 -41 -21.5 -64t-58.5 -23q-5 0 -17 2l2 -41h-77zM963 100q-98 0 -98 79q0 39 22.5 61t63.5 22q77 0 77 -76q0 -11 -2 -21l-87 -4q7 -12 42 -12q23 0 35 5v-47q-21 -7 -53 -7zM139 154h119v82h-29v-46h-18v42h-28v-42h-15
v45h-29v-81zM934 183l38 3q2 20 -19 20q-19 0 -19 -23zM765 157q21 0 21 20q0 19 -16 19q-19 0 -19 -19q0 -6 4 -19q3 -1 10 -1zM1050 97q-15 0 -15 15q0 14 15 14q14 0 14 -14q0 -15 -14 -15zM139 11h119v45q0 31 -16 49.5t-45 18.5q-28 0 -44 -18t-16 -47q0 -11 0.5 -22
t1 -17.5t0.5 -8.5zM1050 100q11 0 11 12q0 11 -11 11q-12 0 -12 -11q0 -12 12 -12zM1043 104v15h7q7 0 7 -5q0 -4 -5 -4l4 -6h-4l-2 6h-4v-6h-3zM1046 112h4q3 0 3 2t-3 2h-4v-4zM171 47q0 2 -0.5 5t-0.5 7q0 27 28 27t28 -27v-12h-55z" />
    <glyph glyph-name="Edieresis" unicode="&#xcb;" 
d="M100 -50v668h191v-668h-191zM199 429q29 0 45 18.5t16 44.5q0 28 -16.5 45.5t-44.5 17.5q-30 0 -46.5 -18.5t-16.5 -44.5q0 -28 17 -45.5t46 -17.5zM820 452q-18 0 -30 11.5t-12 28.5t12 28.5t30 11.5q17 0 29 -11.5t12 -28.5t-12 -28.5t-29 -11.5zM199 467q-30 0 -30 25
t30 25q28 0 28 -25t-28 -25zM380 283q0 105 4 204h68q4 -100 6 -204h-78zM721 279q-28 0 -42 11t-13 36l1 49h-17v49l60 48h22l2 -33h118q4 -69 4 -156h-77q0 62 1 92h-41l3 -28q0 -12 11 -12q7 0 11 2v-48q-10 -10 -43 -10zM529 280q-28 0 -44 20t-16 54q0 42 24 65t68 23
q36 0 58 -14t22 -34l-1 -111h-56l-5 30q-10 -33 -50 -33zM871 283q2 104 5 156h56l5 -34q14 37 53 37q54 0 55 -69l2 -90h-78l2 73q0 19 -11 19q-13 0 -12 -19l1 -73h-78zM1144 280q-41 0 -63.5 21t-22.5 59t23 60t63 22t63 -22t23 -60t-22.5 -59t-63.5 -21zM258 265v35
l-57 1v1l43 24v17l-43 22v1l57 3v34l-119 -8v-29l55 -31l-55 -32v-31zM554 337q18 0 18 18q0 5 -2 15q-4 6 -14 6q-18 0 -18 -20q0 -19 16 -19zM1144 337q18 0 18 20q0 19 -18 19q-17 0 -17 -19q0 -20 17 -20zM562 54q-31 0 -46 9v55h1q20 -10 40 -10q35 2 37 26
q0 -10 -32 -10q-22 0 -39.5 16t-17.5 38v17h-36l2 -29q1 -11 12 -11q8 0 10 2h1v-48q-17 -10 -43 -10q-29 0 -42.5 11t-12.5 32l1 53h-17v49l63 30h22l-1 -16h111l-2 -63q0 -19 11 -19q13 0 12 19l-1 63h71q3 -51 3 -80q0 -67 -24.5 -95.5t-82.5 -28.5zM683 62q0 101 3 197
h58l2 -31q10 34 50 34q28 0 43.5 -19.5t15.5 -54.5q0 -41 -21.5 -64t-58.5 -23q-5 0 -17 2l2 -41h-77zM963 100q-98 0 -98 79q0 39 22.5 61t63.5 22q77 0 77 -76q0 -11 -2 -21l-87 -4q7 -12 42 -12q23 0 35 5v-47q-21 -7 -53 -7zM139 154h119v82h-29v-46h-18v42h-28v-42h-15
v45h-29v-81zM934 183l38 3q2 20 -19 20q-19 0 -19 -23zM765 157q21 0 21 20q0 19 -16 19q-19 0 -19 -19q0 -6 4 -19q3 -1 10 -1zM1050 97q-15 0 -15 15q0 14 15 14q14 0 14 -14q0 -15 -14 -15zM139 11h119v45q0 31 -16 49.5t-45 18.5q-28 0 -44 -18t-16 -47q0 -11 0.5 -22
t1 -17.5t0.5 -8.5zM1050 100q11 0 11 12q0 11 -11 11q-12 0 -12 -11q0 -12 12 -12zM1043 104v15h7q7 0 7 -5q0 -4 -5 -4l4 -6h-4l-2 6h-4v-6h-3zM1046 112h4q3 0 3 2t-3 2h-4v-4zM171 47q0 2 -0.5 5t-0.5 7q0 27 28 27t28 -27v-12h-55z" />
    <glyph glyph-name="Igrave" unicode="&#xcc;" 
d="M100 -50v668h191v-668h-191zM199 429q29 0 45 18.5t16 44.5q0 28 -16.5 45.5t-44.5 17.5q-30 0 -46.5 -18.5t-16.5 -44.5q0 -28 17 -45.5t46 -17.5zM820 452q-18 0 -30 11.5t-12 28.5t12 28.5t30 11.5q17 0 29 -11.5t12 -28.5t-12 -28.5t-29 -11.5zM199 467q-30 0 -30 25
t30 25q28 0 28 -25t-28 -25zM380 283q0 105 4 204h68q4 -100 6 -204h-78zM721 279q-28 0 -42 11t-13 36l1 49h-17v49l60 48h22l2 -33h118q4 -69 4 -156h-77q0 62 1 92h-41l3 -28q0 -12 11 -12q7 0 11 2v-48q-10 -10 -43 -10zM529 280q-28 0 -44 20t-16 54q0 42 24 65t68 23
q36 0 58 -14t22 -34l-1 -111h-56l-5 30q-10 -33 -50 -33zM871 283q2 104 5 156h56l5 -34q14 37 53 37q54 0 55 -69l2 -90h-78l2 73q0 19 -11 19q-13 0 -12 -19l1 -73h-78zM1144 280q-41 0 -63.5 21t-22.5 59t23 60t63 22t63 -22t23 -60t-22.5 -59t-63.5 -21zM258 265v35
l-57 1v1l43 24v17l-43 22v1l57 3v34l-119 -8v-29l55 -31l-55 -32v-31zM554 337q18 0 18 18q0 5 -2 15q-4 6 -14 6q-18 0 -18 -20q0 -19 16 -19zM1144 337q18 0 18 20q0 19 -18 19q-17 0 -17 -19q0 -20 17 -20zM562 54q-31 0 -46 9v55h1q20 -10 40 -10q35 2 37 26
q0 -10 -32 -10q-22 0 -39.5 16t-17.5 38v17h-36l2 -29q1 -11 12 -11q8 0 10 2h1v-48q-17 -10 -43 -10q-29 0 -42.5 11t-12.5 32l1 53h-17v49l63 30h22l-1 -16h111l-2 -63q0 -19 11 -19q13 0 12 19l-1 63h71q3 -51 3 -80q0 -67 -24.5 -95.5t-82.5 -28.5zM683 62q0 101 3 197
h58l2 -31q10 34 50 34q28 0 43.5 -19.5t15.5 -54.5q0 -41 -21.5 -64t-58.5 -23q-5 0 -17 2l2 -41h-77zM963 100q-98 0 -98 79q0 39 22.5 61t63.5 22q77 0 77 -76q0 -11 -2 -21l-87 -4q7 -12 42 -12q23 0 35 5v-47q-21 -7 -53 -7zM139 154h119v82h-29v-46h-18v42h-28v-42h-15
v45h-29v-81zM934 183l38 3q2 20 -19 20q-19 0 -19 -23zM765 157q21 0 21 20q0 19 -16 19q-19 0 -19 -19q0 -6 4 -19q3 -1 10 -1zM1050 97q-15 0 -15 15q0 14 15 14q14 0 14 -14q0 -15 -14 -15zM139 11h119v45q0 31 -16 49.5t-45 18.5q-28 0 -44 -18t-16 -47q0 -11 0.5 -22
t1 -17.5t0.5 -8.5zM1050 100q11 0 11 12q0 11 -11 11q-12 0 -12 -11q0 -12 12 -12zM1043 104v15h7q7 0 7 -5q0 -4 -5 -4l4 -6h-4l-2 6h-4v-6h-3zM1046 112h4q3 0 3 2t-3 2h-4v-4zM171 47q0 2 -0.5 5t-0.5 7q0 27 28 27t28 -27v-12h-55z" />
    <glyph glyph-name="Iacute" unicode="&#xcd;" 
d="M100 -50v668h191v-668h-191zM199 429q29 0 45 18.5t16 44.5q0 28 -16.5 45.5t-44.5 17.5q-30 0 -46.5 -18.5t-16.5 -44.5q0 -28 17 -45.5t46 -17.5zM820 452q-18 0 -30 11.5t-12 28.5t12 28.5t30 11.5q17 0 29 -11.5t12 -28.5t-12 -28.5t-29 -11.5zM199 467q-30 0 -30 25
t30 25q28 0 28 -25t-28 -25zM380 283q0 105 4 204h68q4 -100 6 -204h-78zM721 279q-28 0 -42 11t-13 36l1 49h-17v49l60 48h22l2 -33h118q4 -69 4 -156h-77q0 62 1 92h-41l3 -28q0 -12 11 -12q7 0 11 2v-48q-10 -10 -43 -10zM529 280q-28 0 -44 20t-16 54q0 42 24 65t68 23
q36 0 58 -14t22 -34l-1 -111h-56l-5 30q-10 -33 -50 -33zM871 283q2 104 5 156h56l5 -34q14 37 53 37q54 0 55 -69l2 -90h-78l2 73q0 19 -11 19q-13 0 -12 -19l1 -73h-78zM1144 280q-41 0 -63.5 21t-22.5 59t23 60t63 22t63 -22t23 -60t-22.5 -59t-63.5 -21zM258 265v35
l-57 1v1l43 24v17l-43 22v1l57 3v34l-119 -8v-29l55 -31l-55 -32v-31zM554 337q18 0 18 18q0 5 -2 15q-4 6 -14 6q-18 0 -18 -20q0 -19 16 -19zM1144 337q18 0 18 20q0 19 -18 19q-17 0 -17 -19q0 -20 17 -20zM562 54q-31 0 -46 9v55h1q20 -10 40 -10q35 2 37 26
q0 -10 -32 -10q-22 0 -39.5 16t-17.5 38v17h-36l2 -29q1 -11 12 -11q8 0 10 2h1v-48q-17 -10 -43 -10q-29 0 -42.5 11t-12.5 32l1 53h-17v49l63 30h22l-1 -16h111l-2 -63q0 -19 11 -19q13 0 12 19l-1 63h71q3 -51 3 -80q0 -67 -24.5 -95.5t-82.5 -28.5zM683 62q0 101 3 197
h58l2 -31q10 34 50 34q28 0 43.5 -19.5t15.5 -54.5q0 -41 -21.5 -64t-58.5 -23q-5 0 -17 2l2 -41h-77zM963 100q-98 0 -98 79q0 39 22.5 61t63.5 22q77 0 77 -76q0 -11 -2 -21l-87 -4q7 -12 42 -12q23 0 35 5v-47q-21 -7 -53 -7zM139 154h119v82h-29v-46h-18v42h-28v-42h-15
v45h-29v-81zM934 183l38 3q2 20 -19 20q-19 0 -19 -23zM765 157q21 0 21 20q0 19 -16 19q-19 0 -19 -19q0 -6 4 -19q3 -1 10 -1zM1050 97q-15 0 -15 15q0 14 15 14q14 0 14 -14q0 -15 -14 -15zM139 11h119v45q0 31 -16 49.5t-45 18.5q-28 0 -44 -18t-16 -47q0 -11 0.5 -22
t1 -17.5t0.5 -8.5zM1050 100q11 0 11 12q0 11 -11 11q-12 0 -12 -11q0 -12 12 -12zM1043 104v15h7q7 0 7 -5q0 -4 -5 -4l4 -6h-4l-2 6h-4v-6h-3zM1046 112h4q3 0 3 2t-3 2h-4v-4zM171 47q0 2 -0.5 5t-0.5 7q0 27 28 27t28 -27v-12h-55z" />
    <glyph glyph-name="Icircumflex" unicode="&#xce;" 
d="M100 -50v668h191v-668h-191zM199 429q29 0 45 18.5t16 44.5q0 28 -16.5 45.5t-44.5 17.5q-30 0 -46.5 -18.5t-16.5 -44.5q0 -28 17 -45.5t46 -17.5zM820 452q-18 0 -30 11.5t-12 28.5t12 28.5t30 11.5q17 0 29 -11.5t12 -28.5t-12 -28.5t-29 -11.5zM199 467q-30 0 -30 25
t30 25q28 0 28 -25t-28 -25zM380 283q0 105 4 204h68q4 -100 6 -204h-78zM721 279q-28 0 -42 11t-13 36l1 49h-17v49l60 48h22l2 -33h118q4 -69 4 -156h-77q0 62 1 92h-41l3 -28q0 -12 11 -12q7 0 11 2v-48q-10 -10 -43 -10zM529 280q-28 0 -44 20t-16 54q0 42 24 65t68 23
q36 0 58 -14t22 -34l-1 -111h-56l-5 30q-10 -33 -50 -33zM871 283q2 104 5 156h56l5 -34q14 37 53 37q54 0 55 -69l2 -90h-78l2 73q0 19 -11 19q-13 0 -12 -19l1 -73h-78zM1144 280q-41 0 -63.5 21t-22.5 59t23 60t63 22t63 -22t23 -60t-22.5 -59t-63.5 -21zM258 265v35
l-57 1v1l43 24v17l-43 22v1l57 3v34l-119 -8v-29l55 -31l-55 -32v-31zM554 337q18 0 18 18q0 5 -2 15q-4 6 -14 6q-18 0 -18 -20q0 -19 16 -19zM1144 337q18 0 18 20q0 19 -18 19q-17 0 -17 -19q0 -20 17 -20zM562 54q-31 0 -46 9v55h1q20 -10 40 -10q35 2 37 26
q0 -10 -32 -10q-22 0 -39.5 16t-17.5 38v17h-36l2 -29q1 -11 12 -11q8 0 10 2h1v-48q-17 -10 -43 -10q-29 0 -42.5 11t-12.5 32l1 53h-17v49l63 30h22l-1 -16h111l-2 -63q0 -19 11 -19q13 0 12 19l-1 63h71q3 -51 3 -80q0 -67 -24.5 -95.5t-82.5 -28.5zM683 62q0 101 3 197
h58l2 -31q10 34 50 34q28 0 43.5 -19.5t15.5 -54.5q0 -41 -21.5 -64t-58.5 -23q-5 0 -17 2l2 -41h-77zM963 100q-98 0 -98 79q0 39 22.5 61t63.5 22q77 0 77 -76q0 -11 -2 -21l-87 -4q7 -12 42 -12q23 0 35 5v-47q-21 -7 -53 -7zM139 154h119v82h-29v-46h-18v42h-28v-42h-15
v45h-29v-81zM934 183l38 3q2 20 -19 20q-19 0 -19 -23zM765 157q21 0 21 20q0 19 -16 19q-19 0 -19 -19q0 -6 4 -19q3 -1 10 -1zM1050 97q-15 0 -15 15q0 14 15 14q14 0 14 -14q0 -15 -14 -15zM139 11h119v45q0 31 -16 49.5t-45 18.5q-28 0 -44 -18t-16 -47q0 -11 0.5 -22
t1 -17.5t0.5 -8.5zM1050 100q11 0 11 12q0 11 -11 11q-12 0 -12 -11q0 -12 12 -12zM1043 104v15h7q7 0 7 -5q0 -4 -5 -4l4 -6h-4l-2 6h-4v-6h-3zM1046 112h4q3 0 3 2t-3 2h-4v-4zM171 47q0 2 -0.5 5t-0.5 7q0 27 28 27t28 -27v-12h-55z" />
    <glyph glyph-name="Idieresis" unicode="&#xcf;" 
d="M100 -50v668h191v-668h-191zM199 429q29 0 45 18.5t16 44.5q0 28 -16.5 45.5t-44.5 17.5q-30 0 -46.5 -18.5t-16.5 -44.5q0 -28 17 -45.5t46 -17.5zM820 452q-18 0 -30 11.5t-12 28.5t12 28.5t30 11.5q17 0 29 -11.5t12 -28.5t-12 -28.5t-29 -11.5zM199 467q-30 0 -30 25
t30 25q28 0 28 -25t-28 -25zM380 283q0 105 4 204h68q4 -100 6 -204h-78zM721 279q-28 0 -42 11t-13 36l1 49h-17v49l60 48h22l2 -33h118q4 -69 4 -156h-77q0 62 1 92h-41l3 -28q0 -12 11 -12q7 0 11 2v-48q-10 -10 -43 -10zM529 280q-28 0 -44 20t-16 54q0 42 24 65t68 23
q36 0 58 -14t22 -34l-1 -111h-56l-5 30q-10 -33 -50 -33zM871 283q2 104 5 156h56l5 -34q14 37 53 37q54 0 55 -69l2 -90h-78l2 73q0 19 -11 19q-13 0 -12 -19l1 -73h-78zM1144 280q-41 0 -63.5 21t-22.5 59t23 60t63 22t63 -22t23 -60t-22.5 -59t-63.5 -21zM258 265v35
l-57 1v1l43 24v17l-43 22v1l57 3v34l-119 -8v-29l55 -31l-55 -32v-31zM554 337q18 0 18 18q0 5 -2 15q-4 6 -14 6q-18 0 -18 -20q0 -19 16 -19zM1144 337q18 0 18 20q0 19 -18 19q-17 0 -17 -19q0 -20 17 -20zM562 54q-31 0 -46 9v55h1q20 -10 40 -10q35 2 37 26
q0 -10 -32 -10q-22 0 -39.5 16t-17.5 38v17h-36l2 -29q1 -11 12 -11q8 0 10 2h1v-48q-17 -10 -43 -10q-29 0 -42.5 11t-12.5 32l1 53h-17v49l63 30h22l-1 -16h111l-2 -63q0 -19 11 -19q13 0 12 19l-1 63h71q3 -51 3 -80q0 -67 -24.5 -95.5t-82.5 -28.5zM683 62q0 101 3 197
h58l2 -31q10 34 50 34q28 0 43.5 -19.5t15.5 -54.5q0 -41 -21.5 -64t-58.5 -23q-5 0 -17 2l2 -41h-77zM963 100q-98 0 -98 79q0 39 22.5 61t63.5 22q77 0 77 -76q0 -11 -2 -21l-87 -4q7 -12 42 -12q23 0 35 5v-47q-21 -7 -53 -7zM139 154h119v82h-29v-46h-18v42h-28v-42h-15
v45h-29v-81zM934 183l38 3q2 20 -19 20q-19 0 -19 -23zM765 157q21 0 21 20q0 19 -16 19q-19 0 -19 -19q0 -6 4 -19q3 -1 10 -1zM1050 97q-15 0 -15 15q0 14 15 14q14 0 14 -14q0 -15 -14 -15zM139 11h119v45q0 31 -16 49.5t-45 18.5q-28 0 -44 -18t-16 -47q0 -11 0.5 -22
t1 -17.5t0.5 -8.5zM1050 100q11 0 11 12q0 11 -11 11q-12 0 -12 -11q0 -12 12 -12zM1043 104v15h7q7 0 7 -5q0 -4 -5 -4l4 -6h-4l-2 6h-4v-6h-3zM1046 112h4q3 0 3 2t-3 2h-4v-4zM171 47q0 2 -0.5 5t-0.5 7q0 27 28 27t28 -27v-12h-55z" />
    <glyph glyph-name="Eth" unicode="&#xd0;" 
d="M100 -50v668h191v-668h-191zM199 429q29 0 45 18.5t16 44.5q0 28 -16.5 45.5t-44.5 17.5q-30 0 -46.5 -18.5t-16.5 -44.5q0 -28 17 -45.5t46 -17.5zM820 452q-18 0 -30 11.5t-12 28.5t12 28.5t30 11.5q17 0 29 -11.5t12 -28.5t-12 -28.5t-29 -11.5zM199 467q-30 0 -30 25
t30 25q28 0 28 -25t-28 -25zM380 283q0 105 4 204h68q4 -100 6 -204h-78zM721 279q-28 0 -42 11t-13 36l1 49h-17v49l60 48h22l2 -33h118q4 -69 4 -156h-77q0 62 1 92h-41l3 -28q0 -12 11 -12q7 0 11 2v-48q-10 -10 -43 -10zM529 280q-28 0 -44 20t-16 54q0 42 24 65t68 23
q36 0 58 -14t22 -34l-1 -111h-56l-5 30q-10 -33 -50 -33zM871 283q2 104 5 156h56l5 -34q14 37 53 37q54 0 55 -69l2 -90h-78l2 73q0 19 -11 19q-13 0 -12 -19l1 -73h-78zM1144 280q-41 0 -63.5 21t-22.5 59t23 60t63 22t63 -22t23 -60t-22.5 -59t-63.5 -21zM258 265v35
l-57 1v1l43 24v17l-43 22v1l57 3v34l-119 -8v-29l55 -31l-55 -32v-31zM554 337q18 0 18 18q0 5 -2 15q-4 6 -14 6q-18 0 -18 -20q0 -19 16 -19zM1144 337q18 0 18 20q0 19 -18 19q-17 0 -17 -19q0 -20 17 -20zM562 54q-31 0 -46 9v55h1q20 -10 40 -10q35 2 37 26
q0 -10 -32 -10q-22 0 -39.5 16t-17.5 38v17h-36l2 -29q1 -11 12 -11q8 0 10 2h1v-48q-17 -10 -43 -10q-29 0 -42.5 11t-12.5 32l1 53h-17v49l63 30h22l-1 -16h111l-2 -63q0 -19 11 -19q13 0 12 19l-1 63h71q3 -51 3 -80q0 -67 -24.5 -95.5t-82.5 -28.5zM683 62q0 101 3 197
h58l2 -31q10 34 50 34q28 0 43.5 -19.5t15.5 -54.5q0 -41 -21.5 -64t-58.5 -23q-5 0 -17 2l2 -41h-77zM963 100q-98 0 -98 79q0 39 22.5 61t63.5 22q77 0 77 -76q0 -11 -2 -21l-87 -4q7 -12 42 -12q23 0 35 5v-47q-21 -7 -53 -7zM139 154h119v82h-29v-46h-18v42h-28v-42h-15
v45h-29v-81zM934 183l38 3q2 20 -19 20q-19 0 -19 -23zM765 157q21 0 21 20q0 19 -16 19q-19 0 -19 -19q0 -6 4 -19q3 -1 10 -1zM1050 97q-15 0 -15 15q0 14 15 14q14 0 14 -14q0 -15 -14 -15zM139 11h119v45q0 31 -16 49.5t-45 18.5q-28 0 -44 -18t-16 -47q0 -11 0.5 -22
t1 -17.5t0.5 -8.5zM1050 100q11 0 11 12q0 11 -11 11q-12 0 -12 -11q0 -12 12 -12zM1043 104v15h7q7 0 7 -5q0 -4 -5 -4l4 -6h-4l-2 6h-4v-6h-3zM1046 112h4q3 0 3 2t-3 2h-4v-4zM171 47q0 2 -0.5 5t-0.5 7q0 27 28 27t28 -27v-12h-55z" />
    <glyph glyph-name="Ntilde" unicode="&#xd1;" 
d="M100 -50v668h191v-668h-191zM199 429q29 0 45 18.5t16 44.5q0 28 -16.5 45.5t-44.5 17.5q-30 0 -46.5 -18.5t-16.5 -44.5q0 -28 17 -45.5t46 -17.5zM820 452q-18 0 -30 11.5t-12 28.5t12 28.5t30 11.5q17 0 29 -11.5t12 -28.5t-12 -28.5t-29 -11.5zM199 467q-30 0 -30 25
t30 25q28 0 28 -25t-28 -25zM380 283q0 105 4 204h68q4 -100 6 -204h-78zM721 279q-28 0 -42 11t-13 36l1 49h-17v49l60 48h22l2 -33h118q4 -69 4 -156h-77q0 62 1 92h-41l3 -28q0 -12 11 -12q7 0 11 2v-48q-10 -10 -43 -10zM529 280q-28 0 -44 20t-16 54q0 42 24 65t68 23
q36 0 58 -14t22 -34l-1 -111h-56l-5 30q-10 -33 -50 -33zM871 283q2 104 5 156h56l5 -34q14 37 53 37q54 0 55 -69l2 -90h-78l2 73q0 19 -11 19q-13 0 -12 -19l1 -73h-78zM1144 280q-41 0 -63.5 21t-22.5 59t23 60t63 22t63 -22t23 -60t-22.5 -59t-63.5 -21zM258 265v35
l-57 1v1l43 24v17l-43 22v1l57 3v34l-119 -8v-29l55 -31l-55 -32v-31zM554 337q18 0 18 18q0 5 -2 15q-4 6 -14 6q-18 0 -18 -20q0 -19 16 -19zM1144 337q18 0 18 20q0 19 -18 19q-17 0 -17 -19q0 -20 17 -20zM562 54q-31 0 -46 9v55h1q20 -10 40 -10q35 2 37 26
q0 -10 -32 -10q-22 0 -39.5 16t-17.5 38v17h-36l2 -29q1 -11 12 -11q8 0 10 2h1v-48q-17 -10 -43 -10q-29 0 -42.5 11t-12.5 32l1 53h-17v49l63 30h22l-1 -16h111l-2 -63q0 -19 11 -19q13 0 12 19l-1 63h71q3 -51 3 -80q0 -67 -24.5 -95.5t-82.5 -28.5zM683 62q0 101 3 197
h58l2 -31q10 34 50 34q28 0 43.5 -19.5t15.5 -54.5q0 -41 -21.5 -64t-58.5 -23q-5 0 -17 2l2 -41h-77zM963 100q-98 0 -98 79q0 39 22.5 61t63.5 22q77 0 77 -76q0 -11 -2 -21l-87 -4q7 -12 42 -12q23 0 35 5v-47q-21 -7 -53 -7zM139 154h119v82h-29v-46h-18v42h-28v-42h-15
v45h-29v-81zM934 183l38 3q2 20 -19 20q-19 0 -19 -23zM765 157q21 0 21 20q0 19 -16 19q-19 0 -19 -19q0 -6 4 -19q3 -1 10 -1zM1050 97q-15 0 -15 15q0 14 15 14q14 0 14 -14q0 -15 -14 -15zM139 11h119v45q0 31 -16 49.5t-45 18.5q-28 0 -44 -18t-16 -47q0 -11 0.5 -22
t1 -17.5t0.5 -8.5zM1050 100q11 0 11 12q0 11 -11 11q-12 0 -12 -11q0 -12 12 -12zM1043 104v15h7q7 0 7 -5q0 -4 -5 -4l4 -6h-4l-2 6h-4v-6h-3zM1046 112h4q3 0 3 2t-3 2h-4v-4zM171 47q0 2 -0.5 5t-0.5 7q0 27 28 27t28 -27v-12h-55z" />
    <glyph glyph-name="Ograve" unicode="&#xd2;" 
d="M100 -50v668h191v-668h-191zM199 429q29 0 45 18.5t16 44.5q0 28 -16.5 45.5t-44.5 17.5q-30 0 -46.5 -18.5t-16.5 -44.5q0 -28 17 -45.5t46 -17.5zM820 452q-18 0 -30 11.5t-12 28.5t12 28.5t30 11.5q17 0 29 -11.5t12 -28.5t-12 -28.5t-29 -11.5zM199 467q-30 0 -30 25
t30 25q28 0 28 -25t-28 -25zM380 283q0 105 4 204h68q4 -100 6 -204h-78zM721 279q-28 0 -42 11t-13 36l1 49h-17v49l60 48h22l2 -33h118q4 -69 4 -156h-77q0 62 1 92h-41l3 -28q0 -12 11 -12q7 0 11 2v-48q-10 -10 -43 -10zM529 280q-28 0 -44 20t-16 54q0 42 24 65t68 23
q36 0 58 -14t22 -34l-1 -111h-56l-5 30q-10 -33 -50 -33zM871 283q2 104 5 156h56l5 -34q14 37 53 37q54 0 55 -69l2 -90h-78l2 73q0 19 -11 19q-13 0 -12 -19l1 -73h-78zM1144 280q-41 0 -63.5 21t-22.5 59t23 60t63 22t63 -22t23 -60t-22.5 -59t-63.5 -21zM258 265v35
l-57 1v1l43 24v17l-43 22v1l57 3v34l-119 -8v-29l55 -31l-55 -32v-31zM554 337q18 0 18 18q0 5 -2 15q-4 6 -14 6q-18 0 -18 -20q0 -19 16 -19zM1144 337q18 0 18 20q0 19 -18 19q-17 0 -17 -19q0 -20 17 -20zM562 54q-31 0 -46 9v55h1q20 -10 40 -10q35 2 37 26
q0 -10 -32 -10q-22 0 -39.5 16t-17.5 38v17h-36l2 -29q1 -11 12 -11q8 0 10 2h1v-48q-17 -10 -43 -10q-29 0 -42.5 11t-12.5 32l1 53h-17v49l63 30h22l-1 -16h111l-2 -63q0 -19 11 -19q13 0 12 19l-1 63h71q3 -51 3 -80q0 -67 -24.5 -95.5t-82.5 -28.5zM683 62q0 101 3 197
h58l2 -31q10 34 50 34q28 0 43.5 -19.5t15.5 -54.5q0 -41 -21.5 -64t-58.5 -23q-5 0 -17 2l2 -41h-77zM963 100q-98 0 -98 79q0 39 22.5 61t63.5 22q77 0 77 -76q0 -11 -2 -21l-87 -4q7 -12 42 -12q23 0 35 5v-47q-21 -7 -53 -7zM139 154h119v82h-29v-46h-18v42h-28v-42h-15
v45h-29v-81zM934 183l38 3q2 20 -19 20q-19 0 -19 -23zM765 157q21 0 21 20q0 19 -16 19q-19 0 -19 -19q0 -6 4 -19q3 -1 10 -1zM1050 97q-15 0 -15 15q0 14 15 14q14 0 14 -14q0 -15 -14 -15zM139 11h119v45q0 31 -16 49.5t-45 18.5q-28 0 -44 -18t-16 -47q0 -11 0.5 -22
t1 -17.5t0.5 -8.5zM1050 100q11 0 11 12q0 11 -11 11q-12 0 -12 -11q0 -12 12 -12zM1043 104v15h7q7 0 7 -5q0 -4 -5 -4l4 -6h-4l-2 6h-4v-6h-3zM1046 112h4q3 0 3 2t-3 2h-4v-4zM171 47q0 2 -0.5 5t-0.5 7q0 27 28 27t28 -27v-12h-55z" />
    <glyph glyph-name="Oacute" unicode="&#xd3;" 
d="M100 -50v668h191v-668h-191zM199 429q29 0 45 18.5t16 44.5q0 28 -16.5 45.5t-44.5 17.5q-30 0 -46.5 -18.5t-16.5 -44.5q0 -28 17 -45.5t46 -17.5zM820 452q-18 0 -30 11.5t-12 28.5t12 28.5t30 11.5q17 0 29 -11.5t12 -28.5t-12 -28.5t-29 -11.5zM199 467q-30 0 -30 25
t30 25q28 0 28 -25t-28 -25zM380 283q0 105 4 204h68q4 -100 6 -204h-78zM721 279q-28 0 -42 11t-13 36l1 49h-17v49l60 48h22l2 -33h118q4 -69 4 -156h-77q0 62 1 92h-41l3 -28q0 -12 11 -12q7 0 11 2v-48q-10 -10 -43 -10zM529 280q-28 0 -44 20t-16 54q0 42 24 65t68 23
q36 0 58 -14t22 -34l-1 -111h-56l-5 30q-10 -33 -50 -33zM871 283q2 104 5 156h56l5 -34q14 37 53 37q54 0 55 -69l2 -90h-78l2 73q0 19 -11 19q-13 0 -12 -19l1 -73h-78zM1144 280q-41 0 -63.5 21t-22.5 59t23 60t63 22t63 -22t23 -60t-22.5 -59t-63.5 -21zM258 265v35
l-57 1v1l43 24v17l-43 22v1l57 3v34l-119 -8v-29l55 -31l-55 -32v-31zM554 337q18 0 18 18q0 5 -2 15q-4 6 -14 6q-18 0 -18 -20q0 -19 16 -19zM1144 337q18 0 18 20q0 19 -18 19q-17 0 -17 -19q0 -20 17 -20zM562 54q-31 0 -46 9v55h1q20 -10 40 -10q35 2 37 26
q0 -10 -32 -10q-22 0 -39.5 16t-17.5 38v17h-36l2 -29q1 -11 12 -11q8 0 10 2h1v-48q-17 -10 -43 -10q-29 0 -42.5 11t-12.5 32l1 53h-17v49l63 30h22l-1 -16h111l-2 -63q0 -19 11 -19q13 0 12 19l-1 63h71q3 -51 3 -80q0 -67 -24.5 -95.5t-82.5 -28.5zM683 62q0 101 3 197
h58l2 -31q10 34 50 34q28 0 43.5 -19.5t15.5 -54.5q0 -41 -21.5 -64t-58.5 -23q-5 0 -17 2l2 -41h-77zM963 100q-98 0 -98 79q0 39 22.5 61t63.5 22q77 0 77 -76q0 -11 -2 -21l-87 -4q7 -12 42 -12q23 0 35 5v-47q-21 -7 -53 -7zM139 154h119v82h-29v-46h-18v42h-28v-42h-15
v45h-29v-81zM934 183l38 3q2 20 -19 20q-19 0 -19 -23zM765 157q21 0 21 20q0 19 -16 19q-19 0 -19 -19q0 -6 4 -19q3 -1 10 -1zM1050 97q-15 0 -15 15q0 14 15 14q14 0 14 -14q0 -15 -14 -15zM139 11h119v45q0 31 -16 49.5t-45 18.5q-28 0 -44 -18t-16 -47q0 -11 0.5 -22
t1 -17.5t0.5 -8.5zM1050 100q11 0 11 12q0 11 -11 11q-12 0 -12 -11q0 -12 12 -12zM1043 104v15h7q7 0 7 -5q0 -4 -5 -4l4 -6h-4l-2 6h-4v-6h-3zM1046 112h4q3 0 3 2t-3 2h-4v-4zM171 47q0 2 -0.5 5t-0.5 7q0 27 28 27t28 -27v-12h-55z" />
    <glyph glyph-name="Ocircumflex" unicode="&#xd4;" 
d="M100 -50v668h191v-668h-191zM199 429q29 0 45 18.5t16 44.5q0 28 -16.5 45.5t-44.5 17.5q-30 0 -46.5 -18.5t-16.5 -44.5q0 -28 17 -45.5t46 -17.5zM820 452q-18 0 -30 11.5t-12 28.5t12 28.5t30 11.5q17 0 29 -11.5t12 -28.5t-12 -28.5t-29 -11.5zM199 467q-30 0 -30 25
t30 25q28 0 28 -25t-28 -25zM380 283q0 105 4 204h68q4 -100 6 -204h-78zM721 279q-28 0 -42 11t-13 36l1 49h-17v49l60 48h22l2 -33h118q4 -69 4 -156h-77q0 62 1 92h-41l3 -28q0 -12 11 -12q7 0 11 2v-48q-10 -10 -43 -10zM529 280q-28 0 -44 20t-16 54q0 42 24 65t68 23
q36 0 58 -14t22 -34l-1 -111h-56l-5 30q-10 -33 -50 -33zM871 283q2 104 5 156h56l5 -34q14 37 53 37q54 0 55 -69l2 -90h-78l2 73q0 19 -11 19q-13 0 -12 -19l1 -73h-78zM1144 280q-41 0 -63.5 21t-22.5 59t23 60t63 22t63 -22t23 -60t-22.5 -59t-63.5 -21zM258 265v35
l-57 1v1l43 24v17l-43 22v1l57 3v34l-119 -8v-29l55 -31l-55 -32v-31zM554 337q18 0 18 18q0 5 -2 15q-4 6 -14 6q-18 0 -18 -20q0 -19 16 -19zM1144 337q18 0 18 20q0 19 -18 19q-17 0 -17 -19q0 -20 17 -20zM562 54q-31 0 -46 9v55h1q20 -10 40 -10q35 2 37 26
q0 -10 -32 -10q-22 0 -39.5 16t-17.5 38v17h-36l2 -29q1 -11 12 -11q8 0 10 2h1v-48q-17 -10 -43 -10q-29 0 -42.5 11t-12.5 32l1 53h-17v49l63 30h22l-1 -16h111l-2 -63q0 -19 11 -19q13 0 12 19l-1 63h71q3 -51 3 -80q0 -67 -24.5 -95.5t-82.5 -28.5zM683 62q0 101 3 197
h58l2 -31q10 34 50 34q28 0 43.5 -19.5t15.5 -54.5q0 -41 -21.5 -64t-58.5 -23q-5 0 -17 2l2 -41h-77zM963 100q-98 0 -98 79q0 39 22.5 61t63.5 22q77 0 77 -76q0 -11 -2 -21l-87 -4q7 -12 42 -12q23 0 35 5v-47q-21 -7 -53 -7zM139 154h119v82h-29v-46h-18v42h-28v-42h-15
v45h-29v-81zM934 183l38 3q2 20 -19 20q-19 0 -19 -23zM765 157q21 0 21 20q0 19 -16 19q-19 0 -19 -19q0 -6 4 -19q3 -1 10 -1zM1050 97q-15 0 -15 15q0 14 15 14q14 0 14 -14q0 -15 -14 -15zM139 11h119v45q0 31 -16 49.5t-45 18.5q-28 0 -44 -18t-16 -47q0 -11 0.5 -22
t1 -17.5t0.5 -8.5zM1050 100q11 0 11 12q0 11 -11 11q-12 0 -12 -11q0 -12 12 -12zM1043 104v15h7q7 0 7 -5q0 -4 -5 -4l4 -6h-4l-2 6h-4v-6h-3zM1046 112h4q3 0 3 2t-3 2h-4v-4zM171 47q0 2 -0.5 5t-0.5 7q0 27 28 27t28 -27v-12h-55z" />
    <glyph glyph-name="Otilde" unicode="&#xd5;" 
d="M100 -50v668h191v-668h-191zM199 429q29 0 45 18.5t16 44.5q0 28 -16.5 45.5t-44.5 17.5q-30 0 -46.5 -18.5t-16.5 -44.5q0 -28 17 -45.5t46 -17.5zM820 452q-18 0 -30 11.5t-12 28.5t12 28.5t30 11.5q17 0 29 -11.5t12 -28.5t-12 -28.5t-29 -11.5zM199 467q-30 0 -30 25
t30 25q28 0 28 -25t-28 -25zM380 283q0 105 4 204h68q4 -100 6 -204h-78zM721 279q-28 0 -42 11t-13 36l1 49h-17v49l60 48h22l2 -33h118q4 -69 4 -156h-77q0 62 1 92h-41l3 -28q0 -12 11 -12q7 0 11 2v-48q-10 -10 -43 -10zM529 280q-28 0 -44 20t-16 54q0 42 24 65t68 23
q36 0 58 -14t22 -34l-1 -111h-56l-5 30q-10 -33 -50 -33zM871 283q2 104 5 156h56l5 -34q14 37 53 37q54 0 55 -69l2 -90h-78l2 73q0 19 -11 19q-13 0 -12 -19l1 -73h-78zM1144 280q-41 0 -63.5 21t-22.5 59t23 60t63 22t63 -22t23 -60t-22.5 -59t-63.5 -21zM258 265v35
l-57 1v1l43 24v17l-43 22v1l57 3v34l-119 -8v-29l55 -31l-55 -32v-31zM554 337q18 0 18 18q0 5 -2 15q-4 6 -14 6q-18 0 -18 -20q0 -19 16 -19zM1144 337q18 0 18 20q0 19 -18 19q-17 0 -17 -19q0 -20 17 -20zM562 54q-31 0 -46 9v55h1q20 -10 40 -10q35 2 37 26
q0 -10 -32 -10q-22 0 -39.5 16t-17.5 38v17h-36l2 -29q1 -11 12 -11q8 0 10 2h1v-48q-17 -10 -43 -10q-29 0 -42.5 11t-12.5 32l1 53h-17v49l63 30h22l-1 -16h111l-2 -63q0 -19 11 -19q13 0 12 19l-1 63h71q3 -51 3 -80q0 -67 -24.5 -95.5t-82.5 -28.5zM683 62q0 101 3 197
h58l2 -31q10 34 50 34q28 0 43.5 -19.5t15.5 -54.5q0 -41 -21.5 -64t-58.5 -23q-5 0 -17 2l2 -41h-77zM963 100q-98 0 -98 79q0 39 22.5 61t63.5 22q77 0 77 -76q0 -11 -2 -21l-87 -4q7 -12 42 -12q23 0 35 5v-47q-21 -7 -53 -7zM139 154h119v82h-29v-46h-18v42h-28v-42h-15
v45h-29v-81zM934 183l38 3q2 20 -19 20q-19 0 -19 -23zM765 157q21 0 21 20q0 19 -16 19q-19 0 -19 -19q0 -6 4 -19q3 -1 10 -1zM1050 97q-15 0 -15 15q0 14 15 14q14 0 14 -14q0 -15 -14 -15zM139 11h119v45q0 31 -16 49.5t-45 18.5q-28 0 -44 -18t-16 -47q0 -11 0.5 -22
t1 -17.5t0.5 -8.5zM1050 100q11 0 11 12q0 11 -11 11q-12 0 -12 -11q0 -12 12 -12zM1043 104v15h7q7 0 7 -5q0 -4 -5 -4l4 -6h-4l-2 6h-4v-6h-3zM1046 112h4q3 0 3 2t-3 2h-4v-4zM171 47q0 2 -0.5 5t-0.5 7q0 27 28 27t28 -27v-12h-55z" />
    <glyph glyph-name="Odieresis" unicode="&#xd6;" 
d="M100 -50v668h191v-668h-191zM199 429q29 0 45 18.5t16 44.5q0 28 -16.5 45.5t-44.5 17.5q-30 0 -46.5 -18.5t-16.5 -44.5q0 -28 17 -45.5t46 -17.5zM820 452q-18 0 -30 11.5t-12 28.5t12 28.5t30 11.5q17 0 29 -11.5t12 -28.5t-12 -28.5t-29 -11.5zM199 467q-30 0 -30 25
t30 25q28 0 28 -25t-28 -25zM380 283q0 105 4 204h68q4 -100 6 -204h-78zM721 279q-28 0 -42 11t-13 36l1 49h-17v49l60 48h22l2 -33h118q4 -69 4 -156h-77q0 62 1 92h-41l3 -28q0 -12 11 -12q7 0 11 2v-48q-10 -10 -43 -10zM529 280q-28 0 -44 20t-16 54q0 42 24 65t68 23
q36 0 58 -14t22 -34l-1 -111h-56l-5 30q-10 -33 -50 -33zM871 283q2 104 5 156h56l5 -34q14 37 53 37q54 0 55 -69l2 -90h-78l2 73q0 19 -11 19q-13 0 -12 -19l1 -73h-78zM1144 280q-41 0 -63.5 21t-22.5 59t23 60t63 22t63 -22t23 -60t-22.5 -59t-63.5 -21zM258 265v35
l-57 1v1l43 24v17l-43 22v1l57 3v34l-119 -8v-29l55 -31l-55 -32v-31zM554 337q18 0 18 18q0 5 -2 15q-4 6 -14 6q-18 0 -18 -20q0 -19 16 -19zM1144 337q18 0 18 20q0 19 -18 19q-17 0 -17 -19q0 -20 17 -20zM562 54q-31 0 -46 9v55h1q20 -10 40 -10q35 2 37 26
q0 -10 -32 -10q-22 0 -39.5 16t-17.5 38v17h-36l2 -29q1 -11 12 -11q8 0 10 2h1v-48q-17 -10 -43 -10q-29 0 -42.5 11t-12.5 32l1 53h-17v49l63 30h22l-1 -16h111l-2 -63q0 -19 11 -19q13 0 12 19l-1 63h71q3 -51 3 -80q0 -67 -24.5 -95.5t-82.5 -28.5zM683 62q0 101 3 197
h58l2 -31q10 34 50 34q28 0 43.5 -19.5t15.5 -54.5q0 -41 -21.5 -64t-58.5 -23q-5 0 -17 2l2 -41h-77zM963 100q-98 0 -98 79q0 39 22.5 61t63.5 22q77 0 77 -76q0 -11 -2 -21l-87 -4q7 -12 42 -12q23 0 35 5v-47q-21 -7 -53 -7zM139 154h119v82h-29v-46h-18v42h-28v-42h-15
v45h-29v-81zM934 183l38 3q2 20 -19 20q-19 0 -19 -23zM765 157q21 0 21 20q0 19 -16 19q-19 0 -19 -19q0 -6 4 -19q3 -1 10 -1zM1050 97q-15 0 -15 15q0 14 15 14q14 0 14 -14q0 -15 -14 -15zM139 11h119v45q0 31 -16 49.5t-45 18.5q-28 0 -44 -18t-16 -47q0 -11 0.5 -22
t1 -17.5t0.5 -8.5zM1050 100q11 0 11 12q0 11 -11 11q-12 0 -12 -11q0 -12 12 -12zM1043 104v15h7q7 0 7 -5q0 -4 -5 -4l4 -6h-4l-2 6h-4v-6h-3zM1046 112h4q3 0 3 2t-3 2h-4v-4zM171 47q0 2 -0.5 5t-0.5 7q0 27 28 27t28 -27v-12h-55z" />
    <glyph glyph-name="multiply" unicode="&#xd7;" 
d="M100 -50v668h191v-668h-191zM199 429q29 0 45 18.5t16 44.5q0 28 -16.5 45.5t-44.5 17.5q-30 0 -46.5 -18.5t-16.5 -44.5q0 -28 17 -45.5t46 -17.5zM820 452q-18 0 -30 11.5t-12 28.5t12 28.5t30 11.5q17 0 29 -11.5t12 -28.5t-12 -28.5t-29 -11.5zM199 467q-30 0 -30 25
t30 25q28 0 28 -25t-28 -25zM380 283q0 105 4 204h68q4 -100 6 -204h-78zM721 279q-28 0 -42 11t-13 36l1 49h-17v49l60 48h22l2 -33h118q4 -69 4 -156h-77q0 62 1 92h-41l3 -28q0 -12 11 -12q7 0 11 2v-48q-10 -10 -43 -10zM529 280q-28 0 -44 20t-16 54q0 42 24 65t68 23
q36 0 58 -14t22 -34l-1 -111h-56l-5 30q-10 -33 -50 -33zM871 283q2 104 5 156h56l5 -34q14 37 53 37q54 0 55 -69l2 -90h-78l2 73q0 19 -11 19q-13 0 -12 -19l1 -73h-78zM1144 280q-41 0 -63.5 21t-22.5 59t23 60t63 22t63 -22t23 -60t-22.5 -59t-63.5 -21zM258 265v35
l-57 1v1l43 24v17l-43 22v1l57 3v34l-119 -8v-29l55 -31l-55 -32v-31zM554 337q18 0 18 18q0 5 -2 15q-4 6 -14 6q-18 0 -18 -20q0 -19 16 -19zM1144 337q18 0 18 20q0 19 -18 19q-17 0 -17 -19q0 -20 17 -20zM562 54q-31 0 -46 9v55h1q20 -10 40 -10q35 2 37 26
q0 -10 -32 -10q-22 0 -39.5 16t-17.5 38v17h-36l2 -29q1 -11 12 -11q8 0 10 2h1v-48q-17 -10 -43 -10q-29 0 -42.5 11t-12.5 32l1 53h-17v49l63 30h22l-1 -16h111l-2 -63q0 -19 11 -19q13 0 12 19l-1 63h71q3 -51 3 -80q0 -67 -24.5 -95.5t-82.5 -28.5zM683 62q0 101 3 197
h58l2 -31q10 34 50 34q28 0 43.5 -19.5t15.5 -54.5q0 -41 -21.5 -64t-58.5 -23q-5 0 -17 2l2 -41h-77zM963 100q-98 0 -98 79q0 39 22.5 61t63.5 22q77 0 77 -76q0 -11 -2 -21l-87 -4q7 -12 42 -12q23 0 35 5v-47q-21 -7 -53 -7zM139 154h119v82h-29v-46h-18v42h-28v-42h-15
v45h-29v-81zM934 183l38 3q2 20 -19 20q-19 0 -19 -23zM765 157q21 0 21 20q0 19 -16 19q-19 0 -19 -19q0 -6 4 -19q3 -1 10 -1zM1050 97q-15 0 -15 15q0 14 15 14q14 0 14 -14q0 -15 -14 -15zM139 11h119v45q0 31 -16 49.5t-45 18.5q-28 0 -44 -18t-16 -47q0 -11 0.5 -22
t1 -17.5t0.5 -8.5zM1050 100q11 0 11 12q0 11 -11 11q-12 0 -12 -11q0 -12 12 -12zM1043 104v15h7q7 0 7 -5q0 -4 -5 -4l4 -6h-4l-2 6h-4v-6h-3zM1046 112h4q3 0 3 2t-3 2h-4v-4zM171 47q0 2 -0.5 5t-0.5 7q0 27 28 27t28 -27v-12h-55z" />
    <glyph glyph-name="Oslash" unicode="&#xd8;" 
d="M100 -50v668h191v-668h-191zM199 429q29 0 45 18.5t16 44.5q0 28 -16.5 45.5t-44.5 17.5q-30 0 -46.5 -18.5t-16.5 -44.5q0 -28 17 -45.5t46 -17.5zM820 452q-18 0 -30 11.5t-12 28.5t12 28.5t30 11.5q17 0 29 -11.5t12 -28.5t-12 -28.5t-29 -11.5zM199 467q-30 0 -30 25
t30 25q28 0 28 -25t-28 -25zM380 283q0 105 4 204h68q4 -100 6 -204h-78zM721 279q-28 0 -42 11t-13 36l1 49h-17v49l60 48h22l2 -33h118q4 -69 4 -156h-77q0 62 1 92h-41l3 -28q0 -12 11 -12q7 0 11 2v-48q-10 -10 -43 -10zM529 280q-28 0 -44 20t-16 54q0 42 24 65t68 23
q36 0 58 -14t22 -34l-1 -111h-56l-5 30q-10 -33 -50 -33zM871 283q2 104 5 156h56l5 -34q14 37 53 37q54 0 55 -69l2 -90h-78l2 73q0 19 -11 19q-13 0 -12 -19l1 -73h-78zM1144 280q-41 0 -63.5 21t-22.5 59t23 60t63 22t63 -22t23 -60t-22.5 -59t-63.5 -21zM258 265v35
l-57 1v1l43 24v17l-43 22v1l57 3v34l-119 -8v-29l55 -31l-55 -32v-31zM554 337q18 0 18 18q0 5 -2 15q-4 6 -14 6q-18 0 -18 -20q0 -19 16 -19zM1144 337q18 0 18 20q0 19 -18 19q-17 0 -17 -19q0 -20 17 -20zM562 54q-31 0 -46 9v55h1q20 -10 40 -10q35 2 37 26
q0 -10 -32 -10q-22 0 -39.5 16t-17.5 38v17h-36l2 -29q1 -11 12 -11q8 0 10 2h1v-48q-17 -10 -43 -10q-29 0 -42.5 11t-12.5 32l1 53h-17v49l63 30h22l-1 -16h111l-2 -63q0 -19 11 -19q13 0 12 19l-1 63h71q3 -51 3 -80q0 -67 -24.5 -95.5t-82.5 -28.5zM683 62q0 101 3 197
h58l2 -31q10 34 50 34q28 0 43.5 -19.5t15.5 -54.5q0 -41 -21.5 -64t-58.5 -23q-5 0 -17 2l2 -41h-77zM963 100q-98 0 -98 79q0 39 22.5 61t63.5 22q77 0 77 -76q0 -11 -2 -21l-87 -4q7 -12 42 -12q23 0 35 5v-47q-21 -7 -53 -7zM139 154h119v82h-29v-46h-18v42h-28v-42h-15
v45h-29v-81zM934 183l38 3q2 20 -19 20q-19 0 -19 -23zM765 157q21 0 21 20q0 19 -16 19q-19 0 -19 -19q0 -6 4 -19q3 -1 10 -1zM1050 97q-15 0 -15 15q0 14 15 14q14 0 14 -14q0 -15 -14 -15zM139 11h119v45q0 31 -16 49.5t-45 18.5q-28 0 -44 -18t-16 -47q0 -11 0.5 -22
t1 -17.5t0.5 -8.5zM1050 100q11 0 11 12q0 11 -11 11q-12 0 -12 -11q0 -12 12 -12zM1043 104v15h7q7 0 7 -5q0 -4 -5 -4l4 -6h-4l-2 6h-4v-6h-3zM1046 112h4q3 0 3 2t-3 2h-4v-4zM171 47q0 2 -0.5 5t-0.5 7q0 27 28 27t28 -27v-12h-55z" />
    <glyph glyph-name="Ugrave" unicode="&#xd9;" 
d="M100 -50v668h191v-668h-191zM199 429q29 0 45 18.5t16 44.5q0 28 -16.5 45.5t-44.5 17.5q-30 0 -46.5 -18.5t-16.5 -44.5q0 -28 17 -45.5t46 -17.5zM820 452q-18 0 -30 11.5t-12 28.5t12 28.5t30 11.5q17 0 29 -11.5t12 -28.5t-12 -28.5t-29 -11.5zM199 467q-30 0 -30 25
t30 25q28 0 28 -25t-28 -25zM380 283q0 105 4 204h68q4 -100 6 -204h-78zM721 279q-28 0 -42 11t-13 36l1 49h-17v49l60 48h22l2 -33h118q4 -69 4 -156h-77q0 62 1 92h-41l3 -28q0 -12 11 -12q7 0 11 2v-48q-10 -10 -43 -10zM529 280q-28 0 -44 20t-16 54q0 42 24 65t68 23
q36 0 58 -14t22 -34l-1 -111h-56l-5 30q-10 -33 -50 -33zM871 283q2 104 5 156h56l5 -34q14 37 53 37q54 0 55 -69l2 -90h-78l2 73q0 19 -11 19q-13 0 -12 -19l1 -73h-78zM1144 280q-41 0 -63.5 21t-22.5 59t23 60t63 22t63 -22t23 -60t-22.5 -59t-63.5 -21zM258 265v35
l-57 1v1l43 24v17l-43 22v1l57 3v34l-119 -8v-29l55 -31l-55 -32v-31zM554 337q18 0 18 18q0 5 -2 15q-4 6 -14 6q-18 0 -18 -20q0 -19 16 -19zM1144 337q18 0 18 20q0 19 -18 19q-17 0 -17 -19q0 -20 17 -20zM562 54q-31 0 -46 9v55h1q20 -10 40 -10q35 2 37 26
q0 -10 -32 -10q-22 0 -39.5 16t-17.5 38v17h-36l2 -29q1 -11 12 -11q8 0 10 2h1v-48q-17 -10 -43 -10q-29 0 -42.5 11t-12.5 32l1 53h-17v49l63 30h22l-1 -16h111l-2 -63q0 -19 11 -19q13 0 12 19l-1 63h71q3 -51 3 -80q0 -67 -24.5 -95.5t-82.5 -28.5zM683 62q0 101 3 197
h58l2 -31q10 34 50 34q28 0 43.5 -19.5t15.5 -54.5q0 -41 -21.5 -64t-58.5 -23q-5 0 -17 2l2 -41h-77zM963 100q-98 0 -98 79q0 39 22.5 61t63.5 22q77 0 77 -76q0 -11 -2 -21l-87 -4q7 -12 42 -12q23 0 35 5v-47q-21 -7 -53 -7zM139 154h119v82h-29v-46h-18v42h-28v-42h-15
v45h-29v-81zM934 183l38 3q2 20 -19 20q-19 0 -19 -23zM765 157q21 0 21 20q0 19 -16 19q-19 0 -19 -19q0 -6 4 -19q3 -1 10 -1zM1050 97q-15 0 -15 15q0 14 15 14q14 0 14 -14q0 -15 -14 -15zM139 11h119v45q0 31 -16 49.5t-45 18.5q-28 0 -44 -18t-16 -47q0 -11 0.5 -22
t1 -17.5t0.5 -8.5zM1050 100q11 0 11 12q0 11 -11 11q-12 0 -12 -11q0 -12 12 -12zM1043 104v15h7q7 0 7 -5q0 -4 -5 -4l4 -6h-4l-2 6h-4v-6h-3zM1046 112h4q3 0 3 2t-3 2h-4v-4zM171 47q0 2 -0.5 5t-0.5 7q0 27 28 27t28 -27v-12h-55z" />
    <glyph glyph-name="Uacute" unicode="&#xda;" 
d="M100 -50v668h191v-668h-191zM199 429q29 0 45 18.5t16 44.5q0 28 -16.5 45.5t-44.5 17.5q-30 0 -46.5 -18.5t-16.5 -44.5q0 -28 17 -45.5t46 -17.5zM820 452q-18 0 -30 11.5t-12 28.5t12 28.5t30 11.5q17 0 29 -11.5t12 -28.5t-12 -28.5t-29 -11.5zM199 467q-30 0 -30 25
t30 25q28 0 28 -25t-28 -25zM380 283q0 105 4 204h68q4 -100 6 -204h-78zM721 279q-28 0 -42 11t-13 36l1 49h-17v49l60 48h22l2 -33h118q4 -69 4 -156h-77q0 62 1 92h-41l3 -28q0 -12 11 -12q7 0 11 2v-48q-10 -10 -43 -10zM529 280q-28 0 -44 20t-16 54q0 42 24 65t68 23
q36 0 58 -14t22 -34l-1 -111h-56l-5 30q-10 -33 -50 -33zM871 283q2 104 5 156h56l5 -34q14 37 53 37q54 0 55 -69l2 -90h-78l2 73q0 19 -11 19q-13 0 -12 -19l1 -73h-78zM1144 280q-41 0 -63.5 21t-22.5 59t23 60t63 22t63 -22t23 -60t-22.5 -59t-63.5 -21zM258 265v35
l-57 1v1l43 24v17l-43 22v1l57 3v34l-119 -8v-29l55 -31l-55 -32v-31zM554 337q18 0 18 18q0 5 -2 15q-4 6 -14 6q-18 0 -18 -20q0 -19 16 -19zM1144 337q18 0 18 20q0 19 -18 19q-17 0 -17 -19q0 -20 17 -20zM562 54q-31 0 -46 9v55h1q20 -10 40 -10q35 2 37 26
q0 -10 -32 -10q-22 0 -39.5 16t-17.5 38v17h-36l2 -29q1 -11 12 -11q8 0 10 2h1v-48q-17 -10 -43 -10q-29 0 -42.5 11t-12.5 32l1 53h-17v49l63 30h22l-1 -16h111l-2 -63q0 -19 11 -19q13 0 12 19l-1 63h71q3 -51 3 -80q0 -67 -24.5 -95.5t-82.5 -28.5zM683 62q0 101 3 197
h58l2 -31q10 34 50 34q28 0 43.5 -19.5t15.5 -54.5q0 -41 -21.5 -64t-58.5 -23q-5 0 -17 2l2 -41h-77zM963 100q-98 0 -98 79q0 39 22.5 61t63.5 22q77 0 77 -76q0 -11 -2 -21l-87 -4q7 -12 42 -12q23 0 35 5v-47q-21 -7 -53 -7zM139 154h119v82h-29v-46h-18v42h-28v-42h-15
v45h-29v-81zM934 183l38 3q2 20 -19 20q-19 0 -19 -23zM765 157q21 0 21 20q0 19 -16 19q-19 0 -19 -19q0 -6 4 -19q3 -1 10 -1zM1050 97q-15 0 -15 15q0 14 15 14q14 0 14 -14q0 -15 -14 -15zM139 11h119v45q0 31 -16 49.5t-45 18.5q-28 0 -44 -18t-16 -47q0 -11 0.5 -22
t1 -17.5t0.5 -8.5zM1050 100q11 0 11 12q0 11 -11 11q-12 0 -12 -11q0 -12 12 -12zM1043 104v15h7q7 0 7 -5q0 -4 -5 -4l4 -6h-4l-2 6h-4v-6h-3zM1046 112h4q3 0 3 2t-3 2h-4v-4zM171 47q0 2 -0.5 5t-0.5 7q0 27 28 27t28 -27v-12h-55z" />
    <glyph glyph-name="Ucircumflex" unicode="&#xdb;" 
d="M100 -50v668h191v-668h-191zM199 429q29 0 45 18.5t16 44.5q0 28 -16.5 45.5t-44.5 17.5q-30 0 -46.5 -18.5t-16.5 -44.5q0 -28 17 -45.5t46 -17.5zM820 452q-18 0 -30 11.5t-12 28.5t12 28.5t30 11.5q17 0 29 -11.5t12 -28.5t-12 -28.5t-29 -11.5zM199 467q-30 0 -30 25
t30 25q28 0 28 -25t-28 -25zM380 283q0 105 4 204h68q4 -100 6 -204h-78zM721 279q-28 0 -42 11t-13 36l1 49h-17v49l60 48h22l2 -33h118q4 -69 4 -156h-77q0 62 1 92h-41l3 -28q0 -12 11 -12q7 0 11 2v-48q-10 -10 -43 -10zM529 280q-28 0 -44 20t-16 54q0 42 24 65t68 23
q36 0 58 -14t22 -34l-1 -111h-56l-5 30q-10 -33 -50 -33zM871 283q2 104 5 156h56l5 -34q14 37 53 37q54 0 55 -69l2 -90h-78l2 73q0 19 -11 19q-13 0 -12 -19l1 -73h-78zM1144 280q-41 0 -63.5 21t-22.5 59t23 60t63 22t63 -22t23 -60t-22.5 -59t-63.5 -21zM258 265v35
l-57 1v1l43 24v17l-43 22v1l57 3v34l-119 -8v-29l55 -31l-55 -32v-31zM554 337q18 0 18 18q0 5 -2 15q-4 6 -14 6q-18 0 -18 -20q0 -19 16 -19zM1144 337q18 0 18 20q0 19 -18 19q-17 0 -17 -19q0 -20 17 -20zM562 54q-31 0 -46 9v55h1q20 -10 40 -10q35 2 37 26
q0 -10 -32 -10q-22 0 -39.5 16t-17.5 38v17h-36l2 -29q1 -11 12 -11q8 0 10 2h1v-48q-17 -10 -43 -10q-29 0 -42.5 11t-12.5 32l1 53h-17v49l63 30h22l-1 -16h111l-2 -63q0 -19 11 -19q13 0 12 19l-1 63h71q3 -51 3 -80q0 -67 -24.5 -95.5t-82.5 -28.5zM683 62q0 101 3 197
h58l2 -31q10 34 50 34q28 0 43.5 -19.5t15.5 -54.5q0 -41 -21.5 -64t-58.5 -23q-5 0 -17 2l2 -41h-77zM963 100q-98 0 -98 79q0 39 22.5 61t63.5 22q77 0 77 -76q0 -11 -2 -21l-87 -4q7 -12 42 -12q23 0 35 5v-47q-21 -7 -53 -7zM139 154h119v82h-29v-46h-18v42h-28v-42h-15
v45h-29v-81zM934 183l38 3q2 20 -19 20q-19 0 -19 -23zM765 157q21 0 21 20q0 19 -16 19q-19 0 -19 -19q0 -6 4 -19q3 -1 10 -1zM1050 97q-15 0 -15 15q0 14 15 14q14 0 14 -14q0 -15 -14 -15zM139 11h119v45q0 31 -16 49.5t-45 18.5q-28 0 -44 -18t-16 -47q0 -11 0.5 -22
t1 -17.5t0.5 -8.5zM1050 100q11 0 11 12q0 11 -11 11q-12 0 -12 -11q0 -12 12 -12zM1043 104v15h7q7 0 7 -5q0 -4 -5 -4l4 -6h-4l-2 6h-4v-6h-3zM1046 112h4q3 0 3 2t-3 2h-4v-4zM171 47q0 2 -0.5 5t-0.5 7q0 27 28 27t28 -27v-12h-55z" />
    <glyph glyph-name="Udieresis" unicode="&#xdc;" 
d="M100 -50v668h191v-668h-191zM199 429q29 0 45 18.5t16 44.5q0 28 -16.5 45.5t-44.5 17.5q-30 0 -46.5 -18.5t-16.5 -44.5q0 -28 17 -45.5t46 -17.5zM820 452q-18 0 -30 11.5t-12 28.5t12 28.5t30 11.5q17 0 29 -11.5t12 -28.5t-12 -28.5t-29 -11.5zM199 467q-30 0 -30 25
t30 25q28 0 28 -25t-28 -25zM380 283q0 105 4 204h68q4 -100 6 -204h-78zM721 279q-28 0 -42 11t-13 36l1 49h-17v49l60 48h22l2 -33h118q4 -69 4 -156h-77q0 62 1 92h-41l3 -28q0 -12 11 -12q7 0 11 2v-48q-10 -10 -43 -10zM529 280q-28 0 -44 20t-16 54q0 42 24 65t68 23
q36 0 58 -14t22 -34l-1 -111h-56l-5 30q-10 -33 -50 -33zM871 283q2 104 5 156h56l5 -34q14 37 53 37q54 0 55 -69l2 -90h-78l2 73q0 19 -11 19q-13 0 -12 -19l1 -73h-78zM1144 280q-41 0 -63.5 21t-22.5 59t23 60t63 22t63 -22t23 -60t-22.5 -59t-63.5 -21zM258 265v35
l-57 1v1l43 24v17l-43 22v1l57 3v34l-119 -8v-29l55 -31l-55 -32v-31zM554 337q18 0 18 18q0 5 -2 15q-4 6 -14 6q-18 0 -18 -20q0 -19 16 -19zM1144 337q18 0 18 20q0 19 -18 19q-17 0 -17 -19q0 -20 17 -20zM562 54q-31 0 -46 9v55h1q20 -10 40 -10q35 2 37 26
q0 -10 -32 -10q-22 0 -39.5 16t-17.5 38v17h-36l2 -29q1 -11 12 -11q8 0 10 2h1v-48q-17 -10 -43 -10q-29 0 -42.5 11t-12.5 32l1 53h-17v49l63 30h22l-1 -16h111l-2 -63q0 -19 11 -19q13 0 12 19l-1 63h71q3 -51 3 -80q0 -67 -24.5 -95.5t-82.5 -28.5zM683 62q0 101 3 197
h58l2 -31q10 34 50 34q28 0 43.5 -19.5t15.5 -54.5q0 -41 -21.5 -64t-58.5 -23q-5 0 -17 2l2 -41h-77zM963 100q-98 0 -98 79q0 39 22.5 61t63.5 22q77 0 77 -76q0 -11 -2 -21l-87 -4q7 -12 42 -12q23 0 35 5v-47q-21 -7 -53 -7zM139 154h119v82h-29v-46h-18v42h-28v-42h-15
v45h-29v-81zM934 183l38 3q2 20 -19 20q-19 0 -19 -23zM765 157q21 0 21 20q0 19 -16 19q-19 0 -19 -19q0 -6 4 -19q3 -1 10 -1zM1050 97q-15 0 -15 15q0 14 15 14q14 0 14 -14q0 -15 -14 -15zM139 11h119v45q0 31 -16 49.5t-45 18.5q-28 0 -44 -18t-16 -47q0 -11 0.5 -22
t1 -17.5t0.5 -8.5zM1050 100q11 0 11 12q0 11 -11 11q-12 0 -12 -11q0 -12 12 -12zM1043 104v15h7q7 0 7 -5q0 -4 -5 -4l4 -6h-4l-2 6h-4v-6h-3zM1046 112h4q3 0 3 2t-3 2h-4v-4zM171 47q0 2 -0.5 5t-0.5 7q0 27 28 27t28 -27v-12h-55z" />
    <glyph glyph-name="Yacute" unicode="&#xdd;" 
d="M100 -50v668h191v-668h-191zM199 429q29 0 45 18.5t16 44.5q0 28 -16.5 45.5t-44.5 17.5q-30 0 -46.5 -18.5t-16.5 -44.5q0 -28 17 -45.5t46 -17.5zM820 452q-18 0 -30 11.5t-12 28.5t12 28.5t30 11.5q17 0 29 -11.5t12 -28.5t-12 -28.5t-29 -11.5zM199 467q-30 0 -30 25
t30 25q28 0 28 -25t-28 -25zM380 283q0 105 4 204h68q4 -100 6 -204h-78zM721 279q-28 0 -42 11t-13 36l1 49h-17v49l60 48h22l2 -33h118q4 -69 4 -156h-77q0 62 1 92h-41l3 -28q0 -12 11 -12q7 0 11 2v-48q-10 -10 -43 -10zM529 280q-28 0 -44 20t-16 54q0 42 24 65t68 23
q36 0 58 -14t22 -34l-1 -111h-56l-5 30q-10 -33 -50 -33zM871 283q2 104 5 156h56l5 -34q14 37 53 37q54 0 55 -69l2 -90h-78l2 73q0 19 -11 19q-13 0 -12 -19l1 -73h-78zM1144 280q-41 0 -63.5 21t-22.5 59t23 60t63 22t63 -22t23 -60t-22.5 -59t-63.5 -21zM258 265v35
l-57 1v1l43 24v17l-43 22v1l57 3v34l-119 -8v-29l55 -31l-55 -32v-31zM554 337q18 0 18 18q0 5 -2 15q-4 6 -14 6q-18 0 -18 -20q0 -19 16 -19zM1144 337q18 0 18 20q0 19 -18 19q-17 0 -17 -19q0 -20 17 -20zM562 54q-31 0 -46 9v55h1q20 -10 40 -10q35 2 37 26
q0 -10 -32 -10q-22 0 -39.5 16t-17.5 38v17h-36l2 -29q1 -11 12 -11q8 0 10 2h1v-48q-17 -10 -43 -10q-29 0 -42.5 11t-12.5 32l1 53h-17v49l63 30h22l-1 -16h111l-2 -63q0 -19 11 -19q13 0 12 19l-1 63h71q3 -51 3 -80q0 -67 -24.5 -95.5t-82.5 -28.5zM683 62q0 101 3 197
h58l2 -31q10 34 50 34q28 0 43.5 -19.5t15.5 -54.5q0 -41 -21.5 -64t-58.5 -23q-5 0 -17 2l2 -41h-77zM963 100q-98 0 -98 79q0 39 22.5 61t63.5 22q77 0 77 -76q0 -11 -2 -21l-87 -4q7 -12 42 -12q23 0 35 5v-47q-21 -7 -53 -7zM139 154h119v82h-29v-46h-18v42h-28v-42h-15
v45h-29v-81zM934 183l38 3q2 20 -19 20q-19 0 -19 -23zM765 157q21 0 21 20q0 19 -16 19q-19 0 -19 -19q0 -6 4 -19q3 -1 10 -1zM1050 97q-15 0 -15 15q0 14 15 14q14 0 14 -14q0 -15 -14 -15zM139 11h119v45q0 31 -16 49.5t-45 18.5q-28 0 -44 -18t-16 -47q0 -11 0.5 -22
t1 -17.5t0.5 -8.5zM1050 100q11 0 11 12q0 11 -11 11q-12 0 -12 -11q0 -12 12 -12zM1043 104v15h7q7 0 7 -5q0 -4 -5 -4l4 -6h-4l-2 6h-4v-6h-3zM1046 112h4q3 0 3 2t-3 2h-4v-4zM171 47q0 2 -0.5 5t-0.5 7q0 27 28 27t28 -27v-12h-55z" />
    <glyph glyph-name="Thorn" unicode="&#xde;" 
d="M100 -50v668h191v-668h-191zM199 429q29 0 45 18.5t16 44.5q0 28 -16.5 45.5t-44.5 17.5q-30 0 -46.5 -18.5t-16.5 -44.5q0 -28 17 -45.5t46 -17.5zM820 452q-18 0 -30 11.5t-12 28.5t12 28.5t30 11.5q17 0 29 -11.5t12 -28.5t-12 -28.5t-29 -11.5zM199 467q-30 0 -30 25
t30 25q28 0 28 -25t-28 -25zM380 283q0 105 4 204h68q4 -100 6 -204h-78zM721 279q-28 0 -42 11t-13 36l1 49h-17v49l60 48h22l2 -33h118q4 -69 4 -156h-77q0 62 1 92h-41l3 -28q0 -12 11 -12q7 0 11 2v-48q-10 -10 -43 -10zM529 280q-28 0 -44 20t-16 54q0 42 24 65t68 23
q36 0 58 -14t22 -34l-1 -111h-56l-5 30q-10 -33 -50 -33zM871 283q2 104 5 156h56l5 -34q14 37 53 37q54 0 55 -69l2 -90h-78l2 73q0 19 -11 19q-13 0 -12 -19l1 -73h-78zM1144 280q-41 0 -63.5 21t-22.5 59t23 60t63 22t63 -22t23 -60t-22.5 -59t-63.5 -21zM258 265v35
l-57 1v1l43 24v17l-43 22v1l57 3v34l-119 -8v-29l55 -31l-55 -32v-31zM554 337q18 0 18 18q0 5 -2 15q-4 6 -14 6q-18 0 -18 -20q0 -19 16 -19zM1144 337q18 0 18 20q0 19 -18 19q-17 0 -17 -19q0 -20 17 -20zM562 54q-31 0 -46 9v55h1q20 -10 40 -10q35 2 37 26
q0 -10 -32 -10q-22 0 -39.5 16t-17.5 38v17h-36l2 -29q1 -11 12 -11q8 0 10 2h1v-48q-17 -10 -43 -10q-29 0 -42.5 11t-12.5 32l1 53h-17v49l63 30h22l-1 -16h111l-2 -63q0 -19 11 -19q13 0 12 19l-1 63h71q3 -51 3 -80q0 -67 -24.5 -95.5t-82.5 -28.5zM683 62q0 101 3 197
h58l2 -31q10 34 50 34q28 0 43.5 -19.5t15.5 -54.5q0 -41 -21.5 -64t-58.5 -23q-5 0 -17 2l2 -41h-77zM963 100q-98 0 -98 79q0 39 22.5 61t63.5 22q77 0 77 -76q0 -11 -2 -21l-87 -4q7 -12 42 -12q23 0 35 5v-47q-21 -7 -53 -7zM139 154h119v82h-29v-46h-18v42h-28v-42h-15
v45h-29v-81zM934 183l38 3q2 20 -19 20q-19 0 -19 -23zM765 157q21 0 21 20q0 19 -16 19q-19 0 -19 -19q0 -6 4 -19q3 -1 10 -1zM1050 97q-15 0 -15 15q0 14 15 14q14 0 14 -14q0 -15 -14 -15zM139 11h119v45q0 31 -16 49.5t-45 18.5q-28 0 -44 -18t-16 -47q0 -11 0.5 -22
t1 -17.5t0.5 -8.5zM1050 100q11 0 11 12q0 11 -11 11q-12 0 -12 -11q0 -12 12 -12zM1043 104v15h7q7 0 7 -5q0 -4 -5 -4l4 -6h-4l-2 6h-4v-6h-3zM1046 112h4q3 0 3 2t-3 2h-4v-4zM171 47q0 2 -0.5 5t-0.5 7q0 27 28 27t28 -27v-12h-55z" />
    <glyph glyph-name="germandbls" unicode="&#xdf;" 
d="M100 -50v668h191v-668h-191zM199 429q29 0 45 18.5t16 44.5q0 28 -16.5 45.5t-44.5 17.5q-30 0 -46.5 -18.5t-16.5 -44.5q0 -28 17 -45.5t46 -17.5zM820 452q-18 0 -30 11.5t-12 28.5t12 28.5t30 11.5q17 0 29 -11.5t12 -28.5t-12 -28.5t-29 -11.5zM199 467q-30 0 -30 25
t30 25q28 0 28 -25t-28 -25zM380 283q0 105 4 204h68q4 -100 6 -204h-78zM721 279q-28 0 -42 11t-13 36l1 49h-17v49l60 48h22l2 -33h118q4 -69 4 -156h-77q0 62 1 92h-41l3 -28q0 -12 11 -12q7 0 11 2v-48q-10 -10 -43 -10zM529 280q-28 0 -44 20t-16 54q0 42 24 65t68 23
q36 0 58 -14t22 -34l-1 -111h-56l-5 30q-10 -33 -50 -33zM871 283q2 104 5 156h56l5 -34q14 37 53 37q54 0 55 -69l2 -90h-78l2 73q0 19 -11 19q-13 0 -12 -19l1 -73h-78zM1144 280q-41 0 -63.5 21t-22.5 59t23 60t63 22t63 -22t23 -60t-22.5 -59t-63.5 -21zM258 265v35
l-57 1v1l43 24v17l-43 22v1l57 3v34l-119 -8v-29l55 -31l-55 -32v-31zM554 337q18 0 18 18q0 5 -2 15q-4 6 -14 6q-18 0 -18 -20q0 -19 16 -19zM1144 337q18 0 18 20q0 19 -18 19q-17 0 -17 -19q0 -20 17 -20zM562 54q-31 0 -46 9v55h1q20 -10 40 -10q35 2 37 26
q0 -10 -32 -10q-22 0 -39.5 16t-17.5 38v17h-36l2 -29q1 -11 12 -11q8 0 10 2h1v-48q-17 -10 -43 -10q-29 0 -42.5 11t-12.5 32l1 53h-17v49l63 30h22l-1 -16h111l-2 -63q0 -19 11 -19q13 0 12 19l-1 63h71q3 -51 3 -80q0 -67 -24.5 -95.5t-82.5 -28.5zM683 62q0 101 3 197
h58l2 -31q10 34 50 34q28 0 43.5 -19.5t15.5 -54.5q0 -41 -21.5 -64t-58.5 -23q-5 0 -17 2l2 -41h-77zM963 100q-98 0 -98 79q0 39 22.5 61t63.5 22q77 0 77 -76q0 -11 -2 -21l-87 -4q7 -12 42 -12q23 0 35 5v-47q-21 -7 -53 -7zM139 154h119v82h-29v-46h-18v42h-28v-42h-15
v45h-29v-81zM934 183l38 3q2 20 -19 20q-19 0 -19 -23zM765 157q21 0 21 20q0 19 -16 19q-19 0 -19 -19q0 -6 4 -19q3 -1 10 -1zM1050 97q-15 0 -15 15q0 14 15 14q14 0 14 -14q0 -15 -14 -15zM139 11h119v45q0 31 -16 49.5t-45 18.5q-28 0 -44 -18t-16 -47q0 -11 0.5 -22
t1 -17.5t0.5 -8.5zM1050 100q11 0 11 12q0 11 -11 11q-12 0 -12 -11q0 -12 12 -12zM1043 104v15h7q7 0 7 -5q0 -4 -5 -4l4 -6h-4l-2 6h-4v-6h-3zM1046 112h4q3 0 3 2t-3 2h-4v-4zM171 47q0 2 -0.5 5t-0.5 7q0 27 28 27t28 -27v-12h-55z" />
    <glyph glyph-name="agrave" unicode="&#xe0;" 
d="M100 -50v668h191v-668h-191zM199 429q29 0 45 18.5t16 44.5q0 28 -16.5 45.5t-44.5 17.5q-30 0 -46.5 -18.5t-16.5 -44.5q0 -28 17 -45.5t46 -17.5zM820 452q-18 0 -30 11.5t-12 28.5t12 28.5t30 11.5q17 0 29 -11.5t12 -28.5t-12 -28.5t-29 -11.5zM199 467q-30 0 -30 25
t30 25q28 0 28 -25t-28 -25zM380 283q0 105 4 204h68q4 -100 6 -204h-78zM721 279q-28 0 -42 11t-13 36l1 49h-17v49l60 48h22l2 -33h118q4 -69 4 -156h-77q0 62 1 92h-41l3 -28q0 -12 11 -12q7 0 11 2v-48q-10 -10 -43 -10zM529 280q-28 0 -44 20t-16 54q0 42 24 65t68 23
q36 0 58 -14t22 -34l-1 -111h-56l-5 30q-10 -33 -50 -33zM871 283q2 104 5 156h56l5 -34q14 37 53 37q54 0 55 -69l2 -90h-78l2 73q0 19 -11 19q-13 0 -12 -19l1 -73h-78zM1144 280q-41 0 -63.5 21t-22.5 59t23 60t63 22t63 -22t23 -60t-22.5 -59t-63.5 -21zM258 265v35
l-57 1v1l43 24v17l-43 22v1l57 3v34l-119 -8v-29l55 -31l-55 -32v-31zM554 337q18 0 18 18q0 5 -2 15q-4 6 -14 6q-18 0 -18 -20q0 -19 16 -19zM1144 337q18 0 18 20q0 19 -18 19q-17 0 -17 -19q0 -20 17 -20zM562 54q-31 0 -46 9v55h1q20 -10 40 -10q35 2 37 26
q0 -10 -32 -10q-22 0 -39.5 16t-17.5 38v17h-36l2 -29q1 -11 12 -11q8 0 10 2h1v-48q-17 -10 -43 -10q-29 0 -42.5 11t-12.5 32l1 53h-17v49l63 30h22l-1 -16h111l-2 -63q0 -19 11 -19q13 0 12 19l-1 63h71q3 -51 3 -80q0 -67 -24.5 -95.5t-82.5 -28.5zM683 62q0 101 3 197
h58l2 -31q10 34 50 34q28 0 43.5 -19.5t15.5 -54.5q0 -41 -21.5 -64t-58.5 -23q-5 0 -17 2l2 -41h-77zM963 100q-98 0 -98 79q0 39 22.5 61t63.5 22q77 0 77 -76q0 -11 -2 -21l-87 -4q7 -12 42 -12q23 0 35 5v-47q-21 -7 -53 -7zM139 154h119v82h-29v-46h-18v42h-28v-42h-15
v45h-29v-81zM934 183l38 3q2 20 -19 20q-19 0 -19 -23zM765 157q21 0 21 20q0 19 -16 19q-19 0 -19 -19q0 -6 4 -19q3 -1 10 -1zM1050 97q-15 0 -15 15q0 14 15 14q14 0 14 -14q0 -15 -14 -15zM139 11h119v45q0 31 -16 49.5t-45 18.5q-28 0 -44 -18t-16 -47q0 -11 0.5 -22
t1 -17.5t0.5 -8.5zM1050 100q11 0 11 12q0 11 -11 11q-12 0 -12 -11q0 -12 12 -12zM1043 104v15h7q7 0 7 -5q0 -4 -5 -4l4 -6h-4l-2 6h-4v-6h-3zM1046 112h4q3 0 3 2t-3 2h-4v-4zM171 47q0 2 -0.5 5t-0.5 7q0 27 28 27t28 -27v-12h-55z" />
    <glyph glyph-name="aacute" unicode="&#xe1;" 
d="M100 -50v668h191v-668h-191zM199 429q29 0 45 18.5t16 44.5q0 28 -16.5 45.5t-44.5 17.5q-30 0 -46.5 -18.5t-16.5 -44.5q0 -28 17 -45.5t46 -17.5zM820 452q-18 0 -30 11.5t-12 28.5t12 28.5t30 11.5q17 0 29 -11.5t12 -28.5t-12 -28.5t-29 -11.5zM199 467q-30 0 -30 25
t30 25q28 0 28 -25t-28 -25zM380 283q0 105 4 204h68q4 -100 6 -204h-78zM721 279q-28 0 -42 11t-13 36l1 49h-17v49l60 48h22l2 -33h118q4 -69 4 -156h-77q0 62 1 92h-41l3 -28q0 -12 11 -12q7 0 11 2v-48q-10 -10 -43 -10zM529 280q-28 0 -44 20t-16 54q0 42 24 65t68 23
q36 0 58 -14t22 -34l-1 -111h-56l-5 30q-10 -33 -50 -33zM871 283q2 104 5 156h56l5 -34q14 37 53 37q54 0 55 -69l2 -90h-78l2 73q0 19 -11 19q-13 0 -12 -19l1 -73h-78zM1144 280q-41 0 -63.5 21t-22.5 59t23 60t63 22t63 -22t23 -60t-22.5 -59t-63.5 -21zM258 265v35
l-57 1v1l43 24v17l-43 22v1l57 3v34l-119 -8v-29l55 -31l-55 -32v-31zM554 337q18 0 18 18q0 5 -2 15q-4 6 -14 6q-18 0 -18 -20q0 -19 16 -19zM1144 337q18 0 18 20q0 19 -18 19q-17 0 -17 -19q0 -20 17 -20zM562 54q-31 0 -46 9v55h1q20 -10 40 -10q35 2 37 26
q0 -10 -32 -10q-22 0 -39.5 16t-17.5 38v17h-36l2 -29q1 -11 12 -11q8 0 10 2h1v-48q-17 -10 -43 -10q-29 0 -42.5 11t-12.5 32l1 53h-17v49l63 30h22l-1 -16h111l-2 -63q0 -19 11 -19q13 0 12 19l-1 63h71q3 -51 3 -80q0 -67 -24.5 -95.5t-82.5 -28.5zM683 62q0 101 3 197
h58l2 -31q10 34 50 34q28 0 43.5 -19.5t15.5 -54.5q0 -41 -21.5 -64t-58.5 -23q-5 0 -17 2l2 -41h-77zM963 100q-98 0 -98 79q0 39 22.5 61t63.5 22q77 0 77 -76q0 -11 -2 -21l-87 -4q7 -12 42 -12q23 0 35 5v-47q-21 -7 -53 -7zM139 154h119v82h-29v-46h-18v42h-28v-42h-15
v45h-29v-81zM934 183l38 3q2 20 -19 20q-19 0 -19 -23zM765 157q21 0 21 20q0 19 -16 19q-19 0 -19 -19q0 -6 4 -19q3 -1 10 -1zM1050 97q-15 0 -15 15q0 14 15 14q14 0 14 -14q0 -15 -14 -15zM139 11h119v45q0 31 -16 49.5t-45 18.5q-28 0 -44 -18t-16 -47q0 -11 0.5 -22
t1 -17.5t0.5 -8.5zM1050 100q11 0 11 12q0 11 -11 11q-12 0 -12 -11q0 -12 12 -12zM1043 104v15h7q7 0 7 -5q0 -4 -5 -4l4 -6h-4l-2 6h-4v-6h-3zM1046 112h4q3 0 3 2t-3 2h-4v-4zM171 47q0 2 -0.5 5t-0.5 7q0 27 28 27t28 -27v-12h-55z" />
    <glyph glyph-name="acircumflex" unicode="&#xe2;" 
d="M100 -50v668h191v-668h-191zM199 429q29 0 45 18.5t16 44.5q0 28 -16.5 45.5t-44.5 17.5q-30 0 -46.5 -18.5t-16.5 -44.5q0 -28 17 -45.5t46 -17.5zM820 452q-18 0 -30 11.5t-12 28.5t12 28.5t30 11.5q17 0 29 -11.5t12 -28.5t-12 -28.5t-29 -11.5zM199 467q-30 0 -30 25
t30 25q28 0 28 -25t-28 -25zM380 283q0 105 4 204h68q4 -100 6 -204h-78zM721 279q-28 0 -42 11t-13 36l1 49h-17v49l60 48h22l2 -33h118q4 -69 4 -156h-77q0 62 1 92h-41l3 -28q0 -12 11 -12q7 0 11 2v-48q-10 -10 -43 -10zM529 280q-28 0 -44 20t-16 54q0 42 24 65t68 23
q36 0 58 -14t22 -34l-1 -111h-56l-5 30q-10 -33 -50 -33zM871 283q2 104 5 156h56l5 -34q14 37 53 37q54 0 55 -69l2 -90h-78l2 73q0 19 -11 19q-13 0 -12 -19l1 -73h-78zM1144 280q-41 0 -63.5 21t-22.5 59t23 60t63 22t63 -22t23 -60t-22.5 -59t-63.5 -21zM258 265v35
l-57 1v1l43 24v17l-43 22v1l57 3v34l-119 -8v-29l55 -31l-55 -32v-31zM554 337q18 0 18 18q0 5 -2 15q-4 6 -14 6q-18 0 -18 -20q0 -19 16 -19zM1144 337q18 0 18 20q0 19 -18 19q-17 0 -17 -19q0 -20 17 -20zM562 54q-31 0 -46 9v55h1q20 -10 40 -10q35 2 37 26
q0 -10 -32 -10q-22 0 -39.5 16t-17.5 38v17h-36l2 -29q1 -11 12 -11q8 0 10 2h1v-48q-17 -10 -43 -10q-29 0 -42.5 11t-12.5 32l1 53h-17v49l63 30h22l-1 -16h111l-2 -63q0 -19 11 -19q13 0 12 19l-1 63h71q3 -51 3 -80q0 -67 -24.5 -95.5t-82.5 -28.5zM683 62q0 101 3 197
h58l2 -31q10 34 50 34q28 0 43.5 -19.5t15.5 -54.5q0 -41 -21.5 -64t-58.5 -23q-5 0 -17 2l2 -41h-77zM963 100q-98 0 -98 79q0 39 22.5 61t63.5 22q77 0 77 -76q0 -11 -2 -21l-87 -4q7 -12 42 -12q23 0 35 5v-47q-21 -7 -53 -7zM139 154h119v82h-29v-46h-18v42h-28v-42h-15
v45h-29v-81zM934 183l38 3q2 20 -19 20q-19 0 -19 -23zM765 157q21 0 21 20q0 19 -16 19q-19 0 -19 -19q0 -6 4 -19q3 -1 10 -1zM1050 97q-15 0 -15 15q0 14 15 14q14 0 14 -14q0 -15 -14 -15zM139 11h119v45q0 31 -16 49.5t-45 18.5q-28 0 -44 -18t-16 -47q0 -11 0.5 -22
t1 -17.5t0.5 -8.5zM1050 100q11 0 11 12q0 11 -11 11q-12 0 -12 -11q0 -12 12 -12zM1043 104v15h7q7 0 7 -5q0 -4 -5 -4l4 -6h-4l-2 6h-4v-6h-3zM1046 112h4q3 0 3 2t-3 2h-4v-4zM171 47q0 2 -0.5 5t-0.5 7q0 27 28 27t28 -27v-12h-55z" />
    <glyph glyph-name="atilde" unicode="&#xe3;" 
d="M100 -50v668h191v-668h-191zM199 429q29 0 45 18.5t16 44.5q0 28 -16.5 45.5t-44.5 17.5q-30 0 -46.5 -18.5t-16.5 -44.5q0 -28 17 -45.5t46 -17.5zM820 452q-18 0 -30 11.5t-12 28.5t12 28.5t30 11.5q17 0 29 -11.5t12 -28.5t-12 -28.5t-29 -11.5zM199 467q-30 0 -30 25
t30 25q28 0 28 -25t-28 -25zM380 283q0 105 4 204h68q4 -100 6 -204h-78zM721 279q-28 0 -42 11t-13 36l1 49h-17v49l60 48h22l2 -33h118q4 -69 4 -156h-77q0 62 1 92h-41l3 -28q0 -12 11 -12q7 0 11 2v-48q-10 -10 -43 -10zM529 280q-28 0 -44 20t-16 54q0 42 24 65t68 23
q36 0 58 -14t22 -34l-1 -111h-56l-5 30q-10 -33 -50 -33zM871 283q2 104 5 156h56l5 -34q14 37 53 37q54 0 55 -69l2 -90h-78l2 73q0 19 -11 19q-13 0 -12 -19l1 -73h-78zM1144 280q-41 0 -63.5 21t-22.5 59t23 60t63 22t63 -22t23 -60t-22.5 -59t-63.5 -21zM258 265v35
l-57 1v1l43 24v17l-43 22v1l57 3v34l-119 -8v-29l55 -31l-55 -32v-31zM554 337q18 0 18 18q0 5 -2 15q-4 6 -14 6q-18 0 -18 -20q0 -19 16 -19zM1144 337q18 0 18 20q0 19 -18 19q-17 0 -17 -19q0 -20 17 -20zM562 54q-31 0 -46 9v55h1q20 -10 40 -10q35 2 37 26
q0 -10 -32 -10q-22 0 -39.5 16t-17.5 38v17h-36l2 -29q1 -11 12 -11q8 0 10 2h1v-48q-17 -10 -43 -10q-29 0 -42.5 11t-12.5 32l1 53h-17v49l63 30h22l-1 -16h111l-2 -63q0 -19 11 -19q13 0 12 19l-1 63h71q3 -51 3 -80q0 -67 -24.5 -95.5t-82.5 -28.5zM683 62q0 101 3 197
h58l2 -31q10 34 50 34q28 0 43.5 -19.5t15.5 -54.5q0 -41 -21.5 -64t-58.5 -23q-5 0 -17 2l2 -41h-77zM963 100q-98 0 -98 79q0 39 22.5 61t63.5 22q77 0 77 -76q0 -11 -2 -21l-87 -4q7 -12 42 -12q23 0 35 5v-47q-21 -7 -53 -7zM139 154h119v82h-29v-46h-18v42h-28v-42h-15
v45h-29v-81zM934 183l38 3q2 20 -19 20q-19 0 -19 -23zM765 157q21 0 21 20q0 19 -16 19q-19 0 -19 -19q0 -6 4 -19q3 -1 10 -1zM1050 97q-15 0 -15 15q0 14 15 14q14 0 14 -14q0 -15 -14 -15zM139 11h119v45q0 31 -16 49.5t-45 18.5q-28 0 -44 -18t-16 -47q0 -11 0.5 -22
t1 -17.5t0.5 -8.5zM1050 100q11 0 11 12q0 11 -11 11q-12 0 -12 -11q0 -12 12 -12zM1043 104v15h7q7 0 7 -5q0 -4 -5 -4l4 -6h-4l-2 6h-4v-6h-3zM1046 112h4q3 0 3 2t-3 2h-4v-4zM171 47q0 2 -0.5 5t-0.5 7q0 27 28 27t28 -27v-12h-55z" />
    <glyph glyph-name="adieresis" unicode="&#xe4;" 
d="M100 -50v668h191v-668h-191zM199 429q29 0 45 18.5t16 44.5q0 28 -16.5 45.5t-44.5 17.5q-30 0 -46.5 -18.5t-16.5 -44.5q0 -28 17 -45.5t46 -17.5zM820 452q-18 0 -30 11.5t-12 28.5t12 28.5t30 11.5q17 0 29 -11.5t12 -28.5t-12 -28.5t-29 -11.5zM199 467q-30 0 -30 25
t30 25q28 0 28 -25t-28 -25zM380 283q0 105 4 204h68q4 -100 6 -204h-78zM721 279q-28 0 -42 11t-13 36l1 49h-17v49l60 48h22l2 -33h118q4 -69 4 -156h-77q0 62 1 92h-41l3 -28q0 -12 11 -12q7 0 11 2v-48q-10 -10 -43 -10zM529 280q-28 0 -44 20t-16 54q0 42 24 65t68 23
q36 0 58 -14t22 -34l-1 -111h-56l-5 30q-10 -33 -50 -33zM871 283q2 104 5 156h56l5 -34q14 37 53 37q54 0 55 -69l2 -90h-78l2 73q0 19 -11 19q-13 0 -12 -19l1 -73h-78zM1144 280q-41 0 -63.5 21t-22.5 59t23 60t63 22t63 -22t23 -60t-22.5 -59t-63.5 -21zM258 265v35
l-57 1v1l43 24v17l-43 22v1l57 3v34l-119 -8v-29l55 -31l-55 -32v-31zM554 337q18 0 18 18q0 5 -2 15q-4 6 -14 6q-18 0 -18 -20q0 -19 16 -19zM1144 337q18 0 18 20q0 19 -18 19q-17 0 -17 -19q0 -20 17 -20zM562 54q-31 0 -46 9v55h1q20 -10 40 -10q35 2 37 26
q0 -10 -32 -10q-22 0 -39.5 16t-17.5 38v17h-36l2 -29q1 -11 12 -11q8 0 10 2h1v-48q-17 -10 -43 -10q-29 0 -42.5 11t-12.5 32l1 53h-17v49l63 30h22l-1 -16h111l-2 -63q0 -19 11 -19q13 0 12 19l-1 63h71q3 -51 3 -80q0 -67 -24.5 -95.5t-82.5 -28.5zM683 62q0 101 3 197
h58l2 -31q10 34 50 34q28 0 43.5 -19.5t15.5 -54.5q0 -41 -21.5 -64t-58.5 -23q-5 0 -17 2l2 -41h-77zM963 100q-98 0 -98 79q0 39 22.5 61t63.5 22q77 0 77 -76q0 -11 -2 -21l-87 -4q7 -12 42 -12q23 0 35 5v-47q-21 -7 -53 -7zM139 154h119v82h-29v-46h-18v42h-28v-42h-15
v45h-29v-81zM934 183l38 3q2 20 -19 20q-19 0 -19 -23zM765 157q21 0 21 20q0 19 -16 19q-19 0 -19 -19q0 -6 4 -19q3 -1 10 -1zM1050 97q-15 0 -15 15q0 14 15 14q14 0 14 -14q0 -15 -14 -15zM139 11h119v45q0 31 -16 49.5t-45 18.5q-28 0 -44 -18t-16 -47q0 -11 0.5 -22
t1 -17.5t0.5 -8.5zM1050 100q11 0 11 12q0 11 -11 11q-12 0 -12 -11q0 -12 12 -12zM1043 104v15h7q7 0 7 -5q0 -4 -5 -4l4 -6h-4l-2 6h-4v-6h-3zM1046 112h4q3 0 3 2t-3 2h-4v-4zM171 47q0 2 -0.5 5t-0.5 7q0 27 28 27t28 -27v-12h-55z" />
    <glyph glyph-name="aring" unicode="&#xe5;" 
d="M100 -50v668h191v-668h-191zM199 429q29 0 45 18.5t16 44.5q0 28 -16.5 45.5t-44.5 17.5q-30 0 -46.5 -18.5t-16.5 -44.5q0 -28 17 -45.5t46 -17.5zM820 452q-18 0 -30 11.5t-12 28.5t12 28.5t30 11.5q17 0 29 -11.5t12 -28.5t-12 -28.5t-29 -11.5zM199 467q-30 0 -30 25
t30 25q28 0 28 -25t-28 -25zM380 283q0 105 4 204h68q4 -100 6 -204h-78zM721 279q-28 0 -42 11t-13 36l1 49h-17v49l60 48h22l2 -33h118q4 -69 4 -156h-77q0 62 1 92h-41l3 -28q0 -12 11 -12q7 0 11 2v-48q-10 -10 -43 -10zM529 280q-28 0 -44 20t-16 54q0 42 24 65t68 23
q36 0 58 -14t22 -34l-1 -111h-56l-5 30q-10 -33 -50 -33zM871 283q2 104 5 156h56l5 -34q14 37 53 37q54 0 55 -69l2 -90h-78l2 73q0 19 -11 19q-13 0 -12 -19l1 -73h-78zM1144 280q-41 0 -63.5 21t-22.5 59t23 60t63 22t63 -22t23 -60t-22.5 -59t-63.5 -21zM258 265v35
l-57 1v1l43 24v17l-43 22v1l57 3v34l-119 -8v-29l55 -31l-55 -32v-31zM554 337q18 0 18 18q0 5 -2 15q-4 6 -14 6q-18 0 -18 -20q0 -19 16 -19zM1144 337q18 0 18 20q0 19 -18 19q-17 0 -17 -19q0 -20 17 -20zM562 54q-31 0 -46 9v55h1q20 -10 40 -10q35 2 37 26
q0 -10 -32 -10q-22 0 -39.5 16t-17.5 38v17h-36l2 -29q1 -11 12 -11q8 0 10 2h1v-48q-17 -10 -43 -10q-29 0 -42.5 11t-12.5 32l1 53h-17v49l63 30h22l-1 -16h111l-2 -63q0 -19 11 -19q13 0 12 19l-1 63h71q3 -51 3 -80q0 -67 -24.5 -95.5t-82.5 -28.5zM683 62q0 101 3 197
h58l2 -31q10 34 50 34q28 0 43.5 -19.5t15.5 -54.5q0 -41 -21.5 -64t-58.5 -23q-5 0 -17 2l2 -41h-77zM963 100q-98 0 -98 79q0 39 22.5 61t63.5 22q77 0 77 -76q0 -11 -2 -21l-87 -4q7 -12 42 -12q23 0 35 5v-47q-21 -7 -53 -7zM139 154h119v82h-29v-46h-18v42h-28v-42h-15
v45h-29v-81zM934 183l38 3q2 20 -19 20q-19 0 -19 -23zM765 157q21 0 21 20q0 19 -16 19q-19 0 -19 -19q0 -6 4 -19q3 -1 10 -1zM1050 97q-15 0 -15 15q0 14 15 14q14 0 14 -14q0 -15 -14 -15zM139 11h119v45q0 31 -16 49.5t-45 18.5q-28 0 -44 -18t-16 -47q0 -11 0.5 -22
t1 -17.5t0.5 -8.5zM1050 100q11 0 11 12q0 11 -11 11q-12 0 -12 -11q0 -12 12 -12zM1043 104v15h7q7 0 7 -5q0 -4 -5 -4l4 -6h-4l-2 6h-4v-6h-3zM1046 112h4q3 0 3 2t-3 2h-4v-4zM171 47q0 2 -0.5 5t-0.5 7q0 27 28 27t28 -27v-12h-55z" />
    <glyph glyph-name="ae" unicode="&#xe6;" 
d="M100 -50v668h191v-668h-191zM199 429q29 0 45 18.5t16 44.5q0 28 -16.5 45.5t-44.5 17.5q-30 0 -46.5 -18.5t-16.5 -44.5q0 -28 17 -45.5t46 -17.5zM820 452q-18 0 -30 11.5t-12 28.5t12 28.5t30 11.5q17 0 29 -11.5t12 -28.5t-12 -28.5t-29 -11.5zM199 467q-30 0 -30 25
t30 25q28 0 28 -25t-28 -25zM380 283q0 105 4 204h68q4 -100 6 -204h-78zM721 279q-28 0 -42 11t-13 36l1 49h-17v49l60 48h22l2 -33h118q4 -69 4 -156h-77q0 62 1 92h-41l3 -28q0 -12 11 -12q7 0 11 2v-48q-10 -10 -43 -10zM529 280q-28 0 -44 20t-16 54q0 42 24 65t68 23
q36 0 58 -14t22 -34l-1 -111h-56l-5 30q-10 -33 -50 -33zM871 283q2 104 5 156h56l5 -34q14 37 53 37q54 0 55 -69l2 -90h-78l2 73q0 19 -11 19q-13 0 -12 -19l1 -73h-78zM1144 280q-41 0 -63.5 21t-22.5 59t23 60t63 22t63 -22t23 -60t-22.5 -59t-63.5 -21zM258 265v35
l-57 1v1l43 24v17l-43 22v1l57 3v34l-119 -8v-29l55 -31l-55 -32v-31zM554 337q18 0 18 18q0 5 -2 15q-4 6 -14 6q-18 0 -18 -20q0 -19 16 -19zM1144 337q18 0 18 20q0 19 -18 19q-17 0 -17 -19q0 -20 17 -20zM562 54q-31 0 -46 9v55h1q20 -10 40 -10q35 2 37 26
q0 -10 -32 -10q-22 0 -39.5 16t-17.5 38v17h-36l2 -29q1 -11 12 -11q8 0 10 2h1v-48q-17 -10 -43 -10q-29 0 -42.5 11t-12.5 32l1 53h-17v49l63 30h22l-1 -16h111l-2 -63q0 -19 11 -19q13 0 12 19l-1 63h71q3 -51 3 -80q0 -67 -24.5 -95.5t-82.5 -28.5zM683 62q0 101 3 197
h58l2 -31q10 34 50 34q28 0 43.5 -19.5t15.5 -54.5q0 -41 -21.5 -64t-58.5 -23q-5 0 -17 2l2 -41h-77zM963 100q-98 0 -98 79q0 39 22.5 61t63.5 22q77 0 77 -76q0 -11 -2 -21l-87 -4q7 -12 42 -12q23 0 35 5v-47q-21 -7 -53 -7zM139 154h119v82h-29v-46h-18v42h-28v-42h-15
v45h-29v-81zM934 183l38 3q2 20 -19 20q-19 0 -19 -23zM765 157q21 0 21 20q0 19 -16 19q-19 0 -19 -19q0 -6 4 -19q3 -1 10 -1zM1050 97q-15 0 -15 15q0 14 15 14q14 0 14 -14q0 -15 -14 -15zM139 11h119v45q0 31 -16 49.5t-45 18.5q-28 0 -44 -18t-16 -47q0 -11 0.5 -22
t1 -17.5t0.5 -8.5zM1050 100q11 0 11 12q0 11 -11 11q-12 0 -12 -11q0 -12 12 -12zM1043 104v15h7q7 0 7 -5q0 -4 -5 -4l4 -6h-4l-2 6h-4v-6h-3zM1046 112h4q3 0 3 2t-3 2h-4v-4zM171 47q0 2 -0.5 5t-0.5 7q0 27 28 27t28 -27v-12h-55z" />
    <glyph glyph-name="ccedilla" unicode="&#xe7;" 
d="M100 -50v668h191v-668h-191zM199 429q29 0 45 18.5t16 44.5q0 28 -16.5 45.5t-44.5 17.5q-30 0 -46.5 -18.5t-16.5 -44.5q0 -28 17 -45.5t46 -17.5zM820 452q-18 0 -30 11.5t-12 28.5t12 28.5t30 11.5q17 0 29 -11.5t12 -28.5t-12 -28.5t-29 -11.5zM199 467q-30 0 -30 25
t30 25q28 0 28 -25t-28 -25zM380 283q0 105 4 204h68q4 -100 6 -204h-78zM721 279q-28 0 -42 11t-13 36l1 49h-17v49l60 48h22l2 -33h118q4 -69 4 -156h-77q0 62 1 92h-41l3 -28q0 -12 11 -12q7 0 11 2v-48q-10 -10 -43 -10zM529 280q-28 0 -44 20t-16 54q0 42 24 65t68 23
q36 0 58 -14t22 -34l-1 -111h-56l-5 30q-10 -33 -50 -33zM871 283q2 104 5 156h56l5 -34q14 37 53 37q54 0 55 -69l2 -90h-78l2 73q0 19 -11 19q-13 0 -12 -19l1 -73h-78zM1144 280q-41 0 -63.5 21t-22.5 59t23 60t63 22t63 -22t23 -60t-22.5 -59t-63.5 -21zM258 265v35
l-57 1v1l43 24v17l-43 22v1l57 3v34l-119 -8v-29l55 -31l-55 -32v-31zM554 337q18 0 18 18q0 5 -2 15q-4 6 -14 6q-18 0 -18 -20q0 -19 16 -19zM1144 337q18 0 18 20q0 19 -18 19q-17 0 -17 -19q0 -20 17 -20zM562 54q-31 0 -46 9v55h1q20 -10 40 -10q35 2 37 26
q0 -10 -32 -10q-22 0 -39.5 16t-17.5 38v17h-36l2 -29q1 -11 12 -11q8 0 10 2h1v-48q-17 -10 -43 -10q-29 0 -42.5 11t-12.5 32l1 53h-17v49l63 30h22l-1 -16h111l-2 -63q0 -19 11 -19q13 0 12 19l-1 63h71q3 -51 3 -80q0 -67 -24.5 -95.5t-82.5 -28.5zM683 62q0 101 3 197
h58l2 -31q10 34 50 34q28 0 43.5 -19.5t15.5 -54.5q0 -41 -21.5 -64t-58.5 -23q-5 0 -17 2l2 -41h-77zM963 100q-98 0 -98 79q0 39 22.5 61t63.5 22q77 0 77 -76q0 -11 -2 -21l-87 -4q7 -12 42 -12q23 0 35 5v-47q-21 -7 -53 -7zM139 154h119v82h-29v-46h-18v42h-28v-42h-15
v45h-29v-81zM934 183l38 3q2 20 -19 20q-19 0 -19 -23zM765 157q21 0 21 20q0 19 -16 19q-19 0 -19 -19q0 -6 4 -19q3 -1 10 -1zM1050 97q-15 0 -15 15q0 14 15 14q14 0 14 -14q0 -15 -14 -15zM139 11h119v45q0 31 -16 49.5t-45 18.5q-28 0 -44 -18t-16 -47q0 -11 0.5 -22
t1 -17.5t0.5 -8.5zM1050 100q11 0 11 12q0 11 -11 11q-12 0 -12 -11q0 -12 12 -12zM1043 104v15h7q7 0 7 -5q0 -4 -5 -4l4 -6h-4l-2 6h-4v-6h-3zM1046 112h4q3 0 3 2t-3 2h-4v-4zM171 47q0 2 -0.5 5t-0.5 7q0 27 28 27t28 -27v-12h-55z" />
    <glyph glyph-name="egrave" unicode="&#xe8;" 
d="M100 -50v668h191v-668h-191zM199 429q29 0 45 18.5t16 44.5q0 28 -16.5 45.5t-44.5 17.5q-30 0 -46.5 -18.5t-16.5 -44.5q0 -28 17 -45.5t46 -17.5zM820 452q-18 0 -30 11.5t-12 28.5t12 28.5t30 11.5q17 0 29 -11.5t12 -28.5t-12 -28.5t-29 -11.5zM199 467q-30 0 -30 25
t30 25q28 0 28 -25t-28 -25zM380 283q0 105 4 204h68q4 -100 6 -204h-78zM721 279q-28 0 -42 11t-13 36l1 49h-17v49l60 48h22l2 -33h118q4 -69 4 -156h-77q0 62 1 92h-41l3 -28q0 -12 11 -12q7 0 11 2v-48q-10 -10 -43 -10zM529 280q-28 0 -44 20t-16 54q0 42 24 65t68 23
q36 0 58 -14t22 -34l-1 -111h-56l-5 30q-10 -33 -50 -33zM871 283q2 104 5 156h56l5 -34q14 37 53 37q54 0 55 -69l2 -90h-78l2 73q0 19 -11 19q-13 0 -12 -19l1 -73h-78zM1144 280q-41 0 -63.5 21t-22.5 59t23 60t63 22t63 -22t23 -60t-22.5 -59t-63.5 -21zM258 265v35
l-57 1v1l43 24v17l-43 22v1l57 3v34l-119 -8v-29l55 -31l-55 -32v-31zM554 337q18 0 18 18q0 5 -2 15q-4 6 -14 6q-18 0 -18 -20q0 -19 16 -19zM1144 337q18 0 18 20q0 19 -18 19q-17 0 -17 -19q0 -20 17 -20zM562 54q-31 0 -46 9v55h1q20 -10 40 -10q35 2 37 26
q0 -10 -32 -10q-22 0 -39.5 16t-17.5 38v17h-36l2 -29q1 -11 12 -11q8 0 10 2h1v-48q-17 -10 -43 -10q-29 0 -42.5 11t-12.5 32l1 53h-17v49l63 30h22l-1 -16h111l-2 -63q0 -19 11 -19q13 0 12 19l-1 63h71q3 -51 3 -80q0 -67 -24.5 -95.5t-82.5 -28.5zM683 62q0 101 3 197
h58l2 -31q10 34 50 34q28 0 43.5 -19.5t15.5 -54.5q0 -41 -21.5 -64t-58.5 -23q-5 0 -17 2l2 -41h-77zM963 100q-98 0 -98 79q0 39 22.5 61t63.5 22q77 0 77 -76q0 -11 -2 -21l-87 -4q7 -12 42 -12q23 0 35 5v-47q-21 -7 -53 -7zM139 154h119v82h-29v-46h-18v42h-28v-42h-15
v45h-29v-81zM934 183l38 3q2 20 -19 20q-19 0 -19 -23zM765 157q21 0 21 20q0 19 -16 19q-19 0 -19 -19q0 -6 4 -19q3 -1 10 -1zM1050 97q-15 0 -15 15q0 14 15 14q14 0 14 -14q0 -15 -14 -15zM139 11h119v45q0 31 -16 49.5t-45 18.5q-28 0 -44 -18t-16 -47q0 -11 0.5 -22
t1 -17.5t0.5 -8.5zM1050 100q11 0 11 12q0 11 -11 11q-12 0 -12 -11q0 -12 12 -12zM1043 104v15h7q7 0 7 -5q0 -4 -5 -4l4 -6h-4l-2 6h-4v-6h-3zM1046 112h4q3 0 3 2t-3 2h-4v-4zM171 47q0 2 -0.5 5t-0.5 7q0 27 28 27t28 -27v-12h-55z" />
    <glyph glyph-name="eacute" unicode="&#xe9;" 
d="M100 -50v668h191v-668h-191zM199 429q29 0 45 18.5t16 44.5q0 28 -16.5 45.5t-44.5 17.5q-30 0 -46.5 -18.5t-16.5 -44.5q0 -28 17 -45.5t46 -17.5zM820 452q-18 0 -30 11.5t-12 28.5t12 28.5t30 11.5q17 0 29 -11.5t12 -28.5t-12 -28.5t-29 -11.5zM199 467q-30 0 -30 25
t30 25q28 0 28 -25t-28 -25zM380 283q0 105 4 204h68q4 -100 6 -204h-78zM721 279q-28 0 -42 11t-13 36l1 49h-17v49l60 48h22l2 -33h118q4 -69 4 -156h-77q0 62 1 92h-41l3 -28q0 -12 11 -12q7 0 11 2v-48q-10 -10 -43 -10zM529 280q-28 0 -44 20t-16 54q0 42 24 65t68 23
q36 0 58 -14t22 -34l-1 -111h-56l-5 30q-10 -33 -50 -33zM871 283q2 104 5 156h56l5 -34q14 37 53 37q54 0 55 -69l2 -90h-78l2 73q0 19 -11 19q-13 0 -12 -19l1 -73h-78zM1144 280q-41 0 -63.5 21t-22.5 59t23 60t63 22t63 -22t23 -60t-22.5 -59t-63.5 -21zM258 265v35
l-57 1v1l43 24v17l-43 22v1l57 3v34l-119 -8v-29l55 -31l-55 -32v-31zM554 337q18 0 18 18q0 5 -2 15q-4 6 -14 6q-18 0 -18 -20q0 -19 16 -19zM1144 337q18 0 18 20q0 19 -18 19q-17 0 -17 -19q0 -20 17 -20zM562 54q-31 0 -46 9v55h1q20 -10 40 -10q35 2 37 26
q0 -10 -32 -10q-22 0 -39.5 16t-17.5 38v17h-36l2 -29q1 -11 12 -11q8 0 10 2h1v-48q-17 -10 -43 -10q-29 0 -42.5 11t-12.5 32l1 53h-17v49l63 30h22l-1 -16h111l-2 -63q0 -19 11 -19q13 0 12 19l-1 63h71q3 -51 3 -80q0 -67 -24.5 -95.5t-82.5 -28.5zM683 62q0 101 3 197
h58l2 -31q10 34 50 34q28 0 43.5 -19.5t15.5 -54.5q0 -41 -21.5 -64t-58.5 -23q-5 0 -17 2l2 -41h-77zM963 100q-98 0 -98 79q0 39 22.5 61t63.5 22q77 0 77 -76q0 -11 -2 -21l-87 -4q7 -12 42 -12q23 0 35 5v-47q-21 -7 -53 -7zM139 154h119v82h-29v-46h-18v42h-28v-42h-15
v45h-29v-81zM934 183l38 3q2 20 -19 20q-19 0 -19 -23zM765 157q21 0 21 20q0 19 -16 19q-19 0 -19 -19q0 -6 4 -19q3 -1 10 -1zM1050 97q-15 0 -15 15q0 14 15 14q14 0 14 -14q0 -15 -14 -15zM139 11h119v45q0 31 -16 49.5t-45 18.5q-28 0 -44 -18t-16 -47q0 -11 0.5 -22
t1 -17.5t0.5 -8.5zM1050 100q11 0 11 12q0 11 -11 11q-12 0 -12 -11q0 -12 12 -12zM1043 104v15h7q7 0 7 -5q0 -4 -5 -4l4 -6h-4l-2 6h-4v-6h-3zM1046 112h4q3 0 3 2t-3 2h-4v-4zM171 47q0 2 -0.5 5t-0.5 7q0 27 28 27t28 -27v-12h-55z" />
    <glyph glyph-name="ecircumflex" unicode="&#xea;" 
d="M100 -50v668h191v-668h-191zM199 429q29 0 45 18.5t16 44.5q0 28 -16.5 45.5t-44.5 17.5q-30 0 -46.5 -18.5t-16.5 -44.5q0 -28 17 -45.5t46 -17.5zM820 452q-18 0 -30 11.5t-12 28.5t12 28.5t30 11.5q17 0 29 -11.5t12 -28.5t-12 -28.5t-29 -11.5zM199 467q-30 0 -30 25
t30 25q28 0 28 -25t-28 -25zM380 283q0 105 4 204h68q4 -100 6 -204h-78zM721 279q-28 0 -42 11t-13 36l1 49h-17v49l60 48h22l2 -33h118q4 -69 4 -156h-77q0 62 1 92h-41l3 -28q0 -12 11 -12q7 0 11 2v-48q-10 -10 -43 -10zM529 280q-28 0 -44 20t-16 54q0 42 24 65t68 23
q36 0 58 -14t22 -34l-1 -111h-56l-5 30q-10 -33 -50 -33zM871 283q2 104 5 156h56l5 -34q14 37 53 37q54 0 55 -69l2 -90h-78l2 73q0 19 -11 19q-13 0 -12 -19l1 -73h-78zM1144 280q-41 0 -63.5 21t-22.5 59t23 60t63 22t63 -22t23 -60t-22.5 -59t-63.5 -21zM258 265v35
l-57 1v1l43 24v17l-43 22v1l57 3v34l-119 -8v-29l55 -31l-55 -32v-31zM554 337q18 0 18 18q0 5 -2 15q-4 6 -14 6q-18 0 -18 -20q0 -19 16 -19zM1144 337q18 0 18 20q0 19 -18 19q-17 0 -17 -19q0 -20 17 -20zM562 54q-31 0 -46 9v55h1q20 -10 40 -10q35 2 37 26
q0 -10 -32 -10q-22 0 -39.5 16t-17.5 38v17h-36l2 -29q1 -11 12 -11q8 0 10 2h1v-48q-17 -10 -43 -10q-29 0 -42.5 11t-12.5 32l1 53h-17v49l63 30h22l-1 -16h111l-2 -63q0 -19 11 -19q13 0 12 19l-1 63h71q3 -51 3 -80q0 -67 -24.5 -95.5t-82.5 -28.5zM683 62q0 101 3 197
h58l2 -31q10 34 50 34q28 0 43.5 -19.5t15.5 -54.5q0 -41 -21.5 -64t-58.5 -23q-5 0 -17 2l2 -41h-77zM963 100q-98 0 -98 79q0 39 22.5 61t63.5 22q77 0 77 -76q0 -11 -2 -21l-87 -4q7 -12 42 -12q23 0 35 5v-47q-21 -7 -53 -7zM139 154h119v82h-29v-46h-18v42h-28v-42h-15
v45h-29v-81zM934 183l38 3q2 20 -19 20q-19 0 -19 -23zM765 157q21 0 21 20q0 19 -16 19q-19 0 -19 -19q0 -6 4 -19q3 -1 10 -1zM1050 97q-15 0 -15 15q0 14 15 14q14 0 14 -14q0 -15 -14 -15zM139 11h119v45q0 31 -16 49.5t-45 18.5q-28 0 -44 -18t-16 -47q0 -11 0.5 -22
t1 -17.5t0.5 -8.5zM1050 100q11 0 11 12q0 11 -11 11q-12 0 -12 -11q0 -12 12 -12zM1043 104v15h7q7 0 7 -5q0 -4 -5 -4l4 -6h-4l-2 6h-4v-6h-3zM1046 112h4q3 0 3 2t-3 2h-4v-4zM171 47q0 2 -0.5 5t-0.5 7q0 27 28 27t28 -27v-12h-55z" />
    <glyph glyph-name="edieresis" unicode="&#xeb;" 
d="M100 -50v668h191v-668h-191zM199 429q29 0 45 18.5t16 44.5q0 28 -16.5 45.5t-44.5 17.5q-30 0 -46.5 -18.5t-16.5 -44.5q0 -28 17 -45.5t46 -17.5zM820 452q-18 0 -30 11.5t-12 28.5t12 28.5t30 11.5q17 0 29 -11.5t12 -28.5t-12 -28.5t-29 -11.5zM199 467q-30 0 -30 25
t30 25q28 0 28 -25t-28 -25zM380 283q0 105 4 204h68q4 -100 6 -204h-78zM721 279q-28 0 -42 11t-13 36l1 49h-17v49l60 48h22l2 -33h118q4 -69 4 -156h-77q0 62 1 92h-41l3 -28q0 -12 11 -12q7 0 11 2v-48q-10 -10 -43 -10zM529 280q-28 0 -44 20t-16 54q0 42 24 65t68 23
q36 0 58 -14t22 -34l-1 -111h-56l-5 30q-10 -33 -50 -33zM871 283q2 104 5 156h56l5 -34q14 37 53 37q54 0 55 -69l2 -90h-78l2 73q0 19 -11 19q-13 0 -12 -19l1 -73h-78zM1144 280q-41 0 -63.5 21t-22.5 59t23 60t63 22t63 -22t23 -60t-22.5 -59t-63.5 -21zM258 265v35
l-57 1v1l43 24v17l-43 22v1l57 3v34l-119 -8v-29l55 -31l-55 -32v-31zM554 337q18 0 18 18q0 5 -2 15q-4 6 -14 6q-18 0 -18 -20q0 -19 16 -19zM1144 337q18 0 18 20q0 19 -18 19q-17 0 -17 -19q0 -20 17 -20zM562 54q-31 0 -46 9v55h1q20 -10 40 -10q35 2 37 26
q0 -10 -32 -10q-22 0 -39.5 16t-17.5 38v17h-36l2 -29q1 -11 12 -11q8 0 10 2h1v-48q-17 -10 -43 -10q-29 0 -42.5 11t-12.5 32l1 53h-17v49l63 30h22l-1 -16h111l-2 -63q0 -19 11 -19q13 0 12 19l-1 63h71q3 -51 3 -80q0 -67 -24.5 -95.5t-82.5 -28.5zM683 62q0 101 3 197
h58l2 -31q10 34 50 34q28 0 43.5 -19.5t15.5 -54.5q0 -41 -21.5 -64t-58.5 -23q-5 0 -17 2l2 -41h-77zM963 100q-98 0 -98 79q0 39 22.5 61t63.5 22q77 0 77 -76q0 -11 -2 -21l-87 -4q7 -12 42 -12q23 0 35 5v-47q-21 -7 -53 -7zM139 154h119v82h-29v-46h-18v42h-28v-42h-15
v45h-29v-81zM934 183l38 3q2 20 -19 20q-19 0 -19 -23zM765 157q21 0 21 20q0 19 -16 19q-19 0 -19 -19q0 -6 4 -19q3 -1 10 -1zM1050 97q-15 0 -15 15q0 14 15 14q14 0 14 -14q0 -15 -14 -15zM139 11h119v45q0 31 -16 49.5t-45 18.5q-28 0 -44 -18t-16 -47q0 -11 0.5 -22
t1 -17.5t0.5 -8.5zM1050 100q11 0 11 12q0 11 -11 11q-12 0 -12 -11q0 -12 12 -12zM1043 104v15h7q7 0 7 -5q0 -4 -5 -4l4 -6h-4l-2 6h-4v-6h-3zM1046 112h4q3 0 3 2t-3 2h-4v-4zM171 47q0 2 -0.5 5t-0.5 7q0 27 28 27t28 -27v-12h-55z" />
    <glyph glyph-name="igrave" unicode="&#xec;" 
d="M100 -50v668h191v-668h-191zM199 429q29 0 45 18.5t16 44.5q0 28 -16.5 45.5t-44.5 17.5q-30 0 -46.5 -18.5t-16.5 -44.5q0 -28 17 -45.5t46 -17.5zM820 452q-18 0 -30 11.5t-12 28.5t12 28.5t30 11.5q17 0 29 -11.5t12 -28.5t-12 -28.5t-29 -11.5zM199 467q-30 0 -30 25
t30 25q28 0 28 -25t-28 -25zM380 283q0 105 4 204h68q4 -100 6 -204h-78zM721 279q-28 0 -42 11t-13 36l1 49h-17v49l60 48h22l2 -33h118q4 -69 4 -156h-77q0 62 1 92h-41l3 -28q0 -12 11 -12q7 0 11 2v-48q-10 -10 -43 -10zM529 280q-28 0 -44 20t-16 54q0 42 24 65t68 23
q36 0 58 -14t22 -34l-1 -111h-56l-5 30q-10 -33 -50 -33zM871 283q2 104 5 156h56l5 -34q14 37 53 37q54 0 55 -69l2 -90h-78l2 73q0 19 -11 19q-13 0 -12 -19l1 -73h-78zM1144 280q-41 0 -63.5 21t-22.5 59t23 60t63 22t63 -22t23 -60t-22.5 -59t-63.5 -21zM258 265v35
l-57 1v1l43 24v17l-43 22v1l57 3v34l-119 -8v-29l55 -31l-55 -32v-31zM554 337q18 0 18 18q0 5 -2 15q-4 6 -14 6q-18 0 -18 -20q0 -19 16 -19zM1144 337q18 0 18 20q0 19 -18 19q-17 0 -17 -19q0 -20 17 -20zM562 54q-31 0 -46 9v55h1q20 -10 40 -10q35 2 37 26
q0 -10 -32 -10q-22 0 -39.5 16t-17.5 38v17h-36l2 -29q1 -11 12 -11q8 0 10 2h1v-48q-17 -10 -43 -10q-29 0 -42.5 11t-12.5 32l1 53h-17v49l63 30h22l-1 -16h111l-2 -63q0 -19 11 -19q13 0 12 19l-1 63h71q3 -51 3 -80q0 -67 -24.5 -95.5t-82.5 -28.5zM683 62q0 101 3 197
h58l2 -31q10 34 50 34q28 0 43.5 -19.5t15.5 -54.5q0 -41 -21.5 -64t-58.5 -23q-5 0 -17 2l2 -41h-77zM963 100q-98 0 -98 79q0 39 22.5 61t63.5 22q77 0 77 -76q0 -11 -2 -21l-87 -4q7 -12 42 -12q23 0 35 5v-47q-21 -7 -53 -7zM139 154h119v82h-29v-46h-18v42h-28v-42h-15
v45h-29v-81zM934 183l38 3q2 20 -19 20q-19 0 -19 -23zM765 157q21 0 21 20q0 19 -16 19q-19 0 -19 -19q0 -6 4 -19q3 -1 10 -1zM1050 97q-15 0 -15 15q0 14 15 14q14 0 14 -14q0 -15 -14 -15zM139 11h119v45q0 31 -16 49.5t-45 18.5q-28 0 -44 -18t-16 -47q0 -11 0.5 -22
t1 -17.5t0.5 -8.5zM1050 100q11 0 11 12q0 11 -11 11q-12 0 -12 -11q0 -12 12 -12zM1043 104v15h7q7 0 7 -5q0 -4 -5 -4l4 -6h-4l-2 6h-4v-6h-3zM1046 112h4q3 0 3 2t-3 2h-4v-4zM171 47q0 2 -0.5 5t-0.5 7q0 27 28 27t28 -27v-12h-55z" />
    <glyph glyph-name="iacute" unicode="&#xed;" 
d="M100 -50v668h191v-668h-191zM199 429q29 0 45 18.5t16 44.5q0 28 -16.5 45.5t-44.5 17.5q-30 0 -46.5 -18.5t-16.5 -44.5q0 -28 17 -45.5t46 -17.5zM820 452q-18 0 -30 11.5t-12 28.5t12 28.5t30 11.5q17 0 29 -11.5t12 -28.5t-12 -28.5t-29 -11.5zM199 467q-30 0 -30 25
t30 25q28 0 28 -25t-28 -25zM380 283q0 105 4 204h68q4 -100 6 -204h-78zM721 279q-28 0 -42 11t-13 36l1 49h-17v49l60 48h22l2 -33h118q4 -69 4 -156h-77q0 62 1 92h-41l3 -28q0 -12 11 -12q7 0 11 2v-48q-10 -10 -43 -10zM529 280q-28 0 -44 20t-16 54q0 42 24 65t68 23
q36 0 58 -14t22 -34l-1 -111h-56l-5 30q-10 -33 -50 -33zM871 283q2 104 5 156h56l5 -34q14 37 53 37q54 0 55 -69l2 -90h-78l2 73q0 19 -11 19q-13 0 -12 -19l1 -73h-78zM1144 280q-41 0 -63.5 21t-22.5 59t23 60t63 22t63 -22t23 -60t-22.5 -59t-63.5 -21zM258 265v35
l-57 1v1l43 24v17l-43 22v1l57 3v34l-119 -8v-29l55 -31l-55 -32v-31zM554 337q18 0 18 18q0 5 -2 15q-4 6 -14 6q-18 0 -18 -20q0 -19 16 -19zM1144 337q18 0 18 20q0 19 -18 19q-17 0 -17 -19q0 -20 17 -20zM562 54q-31 0 -46 9v55h1q20 -10 40 -10q35 2 37 26
q0 -10 -32 -10q-22 0 -39.5 16t-17.5 38v17h-36l2 -29q1 -11 12 -11q8 0 10 2h1v-48q-17 -10 -43 -10q-29 0 -42.5 11t-12.5 32l1 53h-17v49l63 30h22l-1 -16h111l-2 -63q0 -19 11 -19q13 0 12 19l-1 63h71q3 -51 3 -80q0 -67 -24.5 -95.5t-82.5 -28.5zM683 62q0 101 3 197
h58l2 -31q10 34 50 34q28 0 43.5 -19.5t15.5 -54.5q0 -41 -21.5 -64t-58.5 -23q-5 0 -17 2l2 -41h-77zM963 100q-98 0 -98 79q0 39 22.5 61t63.5 22q77 0 77 -76q0 -11 -2 -21l-87 -4q7 -12 42 -12q23 0 35 5v-47q-21 -7 -53 -7zM139 154h119v82h-29v-46h-18v42h-28v-42h-15
v45h-29v-81zM934 183l38 3q2 20 -19 20q-19 0 -19 -23zM765 157q21 0 21 20q0 19 -16 19q-19 0 -19 -19q0 -6 4 -19q3 -1 10 -1zM1050 97q-15 0 -15 15q0 14 15 14q14 0 14 -14q0 -15 -14 -15zM139 11h119v45q0 31 -16 49.5t-45 18.5q-28 0 -44 -18t-16 -47q0 -11 0.5 -22
t1 -17.5t0.5 -8.5zM1050 100q11 0 11 12q0 11 -11 11q-12 0 -12 -11q0 -12 12 -12zM1043 104v15h7q7 0 7 -5q0 -4 -5 -4l4 -6h-4l-2 6h-4v-6h-3zM1046 112h4q3 0 3 2t-3 2h-4v-4zM171 47q0 2 -0.5 5t-0.5 7q0 27 28 27t28 -27v-12h-55z" />
    <glyph glyph-name="icircumflex" unicode="&#xee;" 
d="M100 -50v668h191v-668h-191zM199 429q29 0 45 18.5t16 44.5q0 28 -16.5 45.5t-44.5 17.5q-30 0 -46.5 -18.5t-16.5 -44.5q0 -28 17 -45.5t46 -17.5zM820 452q-18 0 -30 11.5t-12 28.5t12 28.5t30 11.5q17 0 29 -11.5t12 -28.5t-12 -28.5t-29 -11.5zM199 467q-30 0 -30 25
t30 25q28 0 28 -25t-28 -25zM380 283q0 105 4 204h68q4 -100 6 -204h-78zM721 279q-28 0 -42 11t-13 36l1 49h-17v49l60 48h22l2 -33h118q4 -69 4 -156h-77q0 62 1 92h-41l3 -28q0 -12 11 -12q7 0 11 2v-48q-10 -10 -43 -10zM529 280q-28 0 -44 20t-16 54q0 42 24 65t68 23
q36 0 58 -14t22 -34l-1 -111h-56l-5 30q-10 -33 -50 -33zM871 283q2 104 5 156h56l5 -34q14 37 53 37q54 0 55 -69l2 -90h-78l2 73q0 19 -11 19q-13 0 -12 -19l1 -73h-78zM1144 280q-41 0 -63.5 21t-22.5 59t23 60t63 22t63 -22t23 -60t-22.5 -59t-63.5 -21zM258 265v35
l-57 1v1l43 24v17l-43 22v1l57 3v34l-119 -8v-29l55 -31l-55 -32v-31zM554 337q18 0 18 18q0 5 -2 15q-4 6 -14 6q-18 0 -18 -20q0 -19 16 -19zM1144 337q18 0 18 20q0 19 -18 19q-17 0 -17 -19q0 -20 17 -20zM562 54q-31 0 -46 9v55h1q20 -10 40 -10q35 2 37 26
q0 -10 -32 -10q-22 0 -39.5 16t-17.5 38v17h-36l2 -29q1 -11 12 -11q8 0 10 2h1v-48q-17 -10 -43 -10q-29 0 -42.5 11t-12.5 32l1 53h-17v49l63 30h22l-1 -16h111l-2 -63q0 -19 11 -19q13 0 12 19l-1 63h71q3 -51 3 -80q0 -67 -24.5 -95.5t-82.5 -28.5zM683 62q0 101 3 197
h58l2 -31q10 34 50 34q28 0 43.5 -19.5t15.5 -54.5q0 -41 -21.5 -64t-58.5 -23q-5 0 -17 2l2 -41h-77zM963 100q-98 0 -98 79q0 39 22.5 61t63.5 22q77 0 77 -76q0 -11 -2 -21l-87 -4q7 -12 42 -12q23 0 35 5v-47q-21 -7 -53 -7zM139 154h119v82h-29v-46h-18v42h-28v-42h-15
v45h-29v-81zM934 183l38 3q2 20 -19 20q-19 0 -19 -23zM765 157q21 0 21 20q0 19 -16 19q-19 0 -19 -19q0 -6 4 -19q3 -1 10 -1zM1050 97q-15 0 -15 15q0 14 15 14q14 0 14 -14q0 -15 -14 -15zM139 11h119v45q0 31 -16 49.5t-45 18.5q-28 0 -44 -18t-16 -47q0 -11 0.5 -22
t1 -17.5t0.5 -8.5zM1050 100q11 0 11 12q0 11 -11 11q-12 0 -12 -11q0 -12 12 -12zM1043 104v15h7q7 0 7 -5q0 -4 -5 -4l4 -6h-4l-2 6h-4v-6h-3zM1046 112h4q3 0 3 2t-3 2h-4v-4zM171 47q0 2 -0.5 5t-0.5 7q0 27 28 27t28 -27v-12h-55z" />
    </font>
</defs>
</svg>
